<svg width="245" height="203" viewBox="0 0 245 203" fill="none" xmlns="http://www.w3.org/2000/svg">
<path d="M174.572 133.429H165.428V69.4288C165.428 53.9141 157.152 39.5767 143.715 31.8183C130.278 24.0606 113.721 24.0606 100.285 31.8183C86.8484 39.5761 78.5717 53.9132 78.5717 69.4288V133.429H69.4283C65.346 133.429 61.5729 135.607 59.5317 139.143C57.4894 142.679 57.4894 147.036 59.5317 150.572C61.5727 154.107 65.346 156.286 69.4283 156.286H99.2568C100.02 163.871 104.513 170.576 111.239 174.166C117.964 177.754 126.036 177.754 132.761 174.166C139.487 170.576 143.98 163.871 144.743 156.286H174.572C178.654 156.286 182.427 154.107 184.468 150.572C186.511 147.036 186.511 142.68 184.468 139.143C182.427 135.607 178.654 133.429 174.572 133.429ZM122 163.143C119.576 163.143 117.25 162.18 115.535 160.465C113.821 158.751 112.858 156.425 112.858 154.001C112.858 151.575 113.821 149.25 115.535 147.536C117.25 145.821 119.576 144.858 122 144.858C124.424 144.858 126.75 145.821 128.465 147.536C130.179 149.25 131.142 151.575 131.142 154.001C131.144 156.425 130.18 158.751 128.465 160.466C126.751 162.181 124.424 163.144 122 163.143ZM123.852 132.468C123.427 133.071 122.737 133.429 122 133.429C121.263 133.429 120.573 133.071 120.148 132.468C119.371 131.394 101.429 105.703 101.429 64.856C101.429 57.5067 105.35 50.7155 111.714 47.0409C118.079 43.3662 125.922 43.3662 132.286 47.0409C138.65 50.7155 142.571 57.5067 142.571 64.856C142.571 105.702 124.629 131.393 123.852 132.468Z" fill="black"/>
<circle cx="121.701" cy="154.299" r="9.27103" fill="#FFCC2A"/>
</svg>
