<svg width="245" height="203" viewBox="0 0 245 203" fill="none" xmlns="http://www.w3.org/2000/svg">
<g clip-path="url(#clip0_306_5768)">
<path d="M122.5 98C117.633 98 113.681 101.953 113.681 106.82C113.681 111.687 117.633 115.639 122.5 115.639C127.367 115.639 131.32 111.687 131.32 106.82C131.32 101.953 127.367 98 122.5 98Z" fill="black"/>
<path d="M122.501 19.5999C79.2826 19.5999 44.1006 54.7504 44.1006 97.9999C44.1006 141.218 79.2826 176.4 122.501 176.4C165.75 176.4 200.901 141.218 200.901 97.9999C200.901 54.7504 165.75 19.5999 122.501 19.5999ZM57.9851 108.29C57.8224 107.342 57.7568 106.395 57.6255 105.447C82.6148 110.641 109.762 137.853 114.858 162.844C113.877 162.713 112.897 162.648 111.95 162.484C84.1175 157.944 62.428 136.155 57.9865 108.29L57.9851 108.29ZM107.146 106.82C107.146 98.3599 114.038 91.4667 122.5 91.4667C130.96 91.4667 137.853 98.3585 137.853 106.82C137.853 115.28 130.961 122.174 122.5 122.174C114.039 122.174 107.146 115.282 107.146 106.82ZM133.083 162.484C133.051 162.484 133.051 162.484 133.083 162.484C132.07 162.647 131.058 162.745 130.045 162.877C132.201 149.679 137.917 130.373 146.542 121.748C155.1 113.189 174.308 107.473 187.408 105.317C187.276 106.33 187.212 107.309 187.048 108.322C182.606 136.154 160.947 157.91 133.081 162.485L133.083 162.484ZM186.951 87.3531C187.083 88.0723 187.114 88.7901 187.212 89.5092C147.326 78.4349 93.003 78.3694 57.821 89.2809C57.9194 88.6274 57.9522 88.0067 58.0493 87.3531C63.2419 55.6659 90.3231 32.6692 122.498 32.6692C154.642 32.6692 181.757 55.6666 186.951 87.3531C186.918 87.3531 186.918 87.3531 186.951 87.3531L186.951 87.3531Z" fill="black"/>
<path d="M190.428 139.143C178.188 139.143 168.173 149.158 168.173 161.398C168.173 173.638 178.188 183.653 190.428 183.653C202.668 183.653 212.683 173.638 212.683 161.398C212.683 149.158 202.668 139.143 190.428 139.143ZM185.977 172.526L174.849 161.398L177.987 158.26L185.977 166.227L202.869 149.336L206.007 152.496L185.977 172.526Z" fill="#FFCC2A"/>
</g>
<defs>
<clipPath id="clip0_306_5768">
<rect width="245" height="202.424" fill="white"/>
</clipPath>
</defs>
</svg>
