<svg width="245" height="203" viewBox="0 0 245 203" fill="none" xmlns="http://www.w3.org/2000/svg">
<path d="M142.297 158.706C142.334 160.11 141.811 161.471 140.845 162.49C139.878 163.51 138.547 164.102 137.142 164.139L66.5688 166.027C66.3251 166.027 66.0769 166.036 65.8347 166.036L65.8362 166.037C58.9819 166.027 52.4113 163.298 47.5663 158.449C42.7224 153.599 40.0015 147.026 40 140.171C40.0074 133.313 42.7343 126.736 47.5841 121.886C52.4321 117.035 59.0088 114.307 65.8675 114.298H104.353C109.364 114.298 113.995 111.626 116.5 107.286C119.006 102.946 119.006 97.5984 116.5 93.2583C113.995 88.9181 109.364 86.2444 104.353 86.2444H97.9616C90.8665 86.1927 84.3329 82.3785 80.7994 76.2246C77.2659 70.0719 77.2659 62.506 80.7994 56.3517C84.3328 50.1979 90.8665 46.3837 97.9616 46.3319H154.524C157.448 46.3319 159.818 48.7013 159.818 51.6262C159.818 54.5496 157.448 56.9205 154.524 56.9205H97.9616C94.6393 56.9559 91.5831 58.7492 89.9316 61.6328C88.2801 64.5163 88.2801 68.0601 89.9316 70.9436C91.5831 73.8285 94.6394 75.6218 97.9616 75.6559H104.353C113.147 75.6559 121.273 80.3489 125.671 87.964C130.067 95.5806 130.067 104.964 125.671 112.58C121.273 120.195 113.147 124.887 104.353 124.887H65.86C61.783 124.888 57.8758 126.518 55.0071 129.414C52.1383 132.311 50.5443 136.233 50.5829 140.31C50.6213 144.387 52.2861 148.28 55.2094 151.122C58.1387 154.039 62.1521 155.604 66.2839 155.438L136.864 153.55C139.766 153.53 142.166 155.808 142.297 158.706L142.297 158.706ZM192.139 51.6247L202.679 41.0864V41.0849C203.692 40.0967 204.269 38.7436 204.277 37.3284C204.286 35.9118 203.728 34.5527 202.726 33.5512C201.726 32.5497 200.366 31.9913 198.949 32.0001C197.534 32.009 196.181 32.5851 195.193 33.5985L184.653 44.1383L174.113 33.5985C172.037 31.5747 168.723 31.5968 166.674 33.6457C164.625 35.6946 164.603 39.0111 166.626 41.085L177.166 51.6233L166.626 62.1631V62.1645C165.606 63.1498 165.022 64.5059 165.01 65.9255C164.999 67.3466 165.557 68.7115 166.561 69.7158C167.564 70.7203 168.931 71.2787 170.351 71.2654C171.77 71.2536 173.126 70.6716 174.113 69.6494L184.653 59.1111L195.193 69.6494C196.18 70.6716 197.534 71.2536 198.955 71.2654C200.375 71.2787 201.74 70.7203 202.744 69.7158C203.749 68.7113 204.307 67.3464 204.295 65.9255C204.282 64.5059 203.7 63.1498 202.679 62.1645L192.139 51.6247ZM187.722 107.09C192.666 112.197 195.404 119.042 195.346 126.149C194.011 139.039 188.159 151.041 178.828 160.033C176.247 162.86 172.597 164.473 168.768 164.479C164.92 164.426 161.255 162.823 158.603 160.033C149.19 150.852 143.37 138.609 142.19 125.514C142.199 118.441 145.034 111.665 150.065 106.694C155.095 101.722 161.904 98.9667 168.976 99.0423C176.048 99.1161 182.797 102.013 187.722 107.09ZM176.605 124.774L176.604 124.772C176.604 122.694 175.779 120.701 174.309 119.233C172.84 117.763 170.847 116.937 168.769 116.937C166.69 116.937 164.697 117.763 163.228 119.233C161.759 120.701 160.934 122.694 160.934 124.772C160.934 126.851 161.759 128.844 163.228 130.313C164.698 131.783 166.69 132.609 168.769 132.609C170.85 132.619 172.849 131.796 174.322 130.325C175.793 128.852 176.614 126.853 176.604 124.772L176.605 124.774Z" fill="black"/>
<path d="M160.162 167.334C181.008 181.373 196.355 136.139 195.362 123.801C189.973 85.6536 143.335 95.5415 142.036 121.936C141.474 133.349 149.639 160.247 160.162 167.334Z" fill="#FFCC2A" stroke="black" stroke-width="4.32357"/>
<circle cx="168.765" cy="125.595" r="5.77966" fill="#020202" stroke="black" stroke-width="4.32357"/>
</svg>
