<svg width="532" height="690" viewBox="0 0 532 690" fill="none" xmlns="http://www.w3.org/2000/svg">
<rect x="21" y="2" width="509" height="670" rx="18" stroke="black" stroke-width="4"/>
<path d="M156.316 225H148.666V203.46H156.316C163.156 203.46 167.296 207.84 167.296 214.11C167.296 220.38 163.006 225 156.316 225ZM153.226 207.39V221.07H156.076C160.366 221.07 162.616 218.58 162.616 214.11C162.616 209.82 160.366 207.39 156.076 207.39H153.226ZM179.009 225V223.02C177.959 224.52 176.369 225.3 174.179 225.3C170.849 225.3 168.629 223.35 168.629 220.35C168.629 217.23 171.149 215.55 175.829 215.55C176.729 215.55 177.509 215.61 178.499 215.73V214.77C178.499 212.97 177.479 211.92 175.739 211.92C173.939 211.92 172.859 212.97 172.709 214.77H168.959C169.199 211.08 171.869 208.68 175.739 208.68C179.939 208.68 182.399 210.99 182.399 214.92V225H179.009ZM172.559 220.23C172.559 221.58 173.519 222.42 175.079 222.42C177.209 222.42 178.499 221.25 178.499 219.39V218.25C177.509 218.1 176.819 218.04 176.099 218.04C173.729 218.04 172.559 218.79 172.559 220.23ZM190.189 205.26C190.189 206.67 189.049 207.72 187.399 207.72C185.779 207.72 184.639 206.67 184.639 205.26C184.639 203.79 185.779 202.74 187.399 202.74C189.049 202.74 190.189 203.79 190.189 205.26ZM189.529 225H185.359V208.98H189.529V225ZM196.806 225H192.606V203.46H196.806V225ZM214.342 208.98L206.542 230.79H202.012L204.292 224.82L197.992 208.98H202.492L206.512 219.96L210.172 208.98H214.342ZM231.163 225H226.603V207.57H219.823V203.46H237.973V207.57H231.163V225ZM242.815 217.23V225H238.645V208.98H242.485V212.07C243.655 210.03 246.145 208.8 248.725 208.8V213.12C245.185 212.85 242.815 213.69 242.815 217.23ZM255.087 205.26C255.087 206.67 253.947 207.72 252.297 207.72C250.677 207.72 249.537 206.67 249.537 205.26C249.537 203.79 250.677 202.74 252.297 202.74C253.947 202.74 255.087 203.79 255.087 205.26ZM254.427 225H250.257V208.98H254.427V225ZM273.495 216.99C273.495 221.73 270.705 225.3 266.385 225.3C264.495 225.3 262.875 224.49 261.675 222.93V230.79H257.505V208.98H261.345V211.32C262.575 209.61 264.345 208.68 266.385 208.68C270.705 208.68 273.495 212.28 273.495 216.99ZM269.205 216.99C269.205 213.99 267.495 212.37 265.455 212.37C263.415 212.37 261.705 213.96 261.705 216.99C261.705 220.02 263.415 221.58 265.455 221.58C267.495 221.58 269.205 220.05 269.205 216.99ZM291.069 225.45C285.009 225.45 280.269 220.53 280.269 214.2C280.269 207.9 285.009 203.01 291.069 203.01C296.739 203.01 301.179 206.79 301.929 212.31H297.099C296.589 209.22 294.189 207.09 291.129 207.09C287.439 207.09 284.949 210 284.949 214.2C284.949 218.43 287.439 221.37 291.129 221.37C294.189 221.37 296.559 219.21 297.099 216.12H301.929C301.179 221.7 296.739 225.45 291.069 225.45ZM311.199 225.3C306.549 225.3 303.069 221.64 303.069 216.99C303.069 212.31 306.549 208.68 311.199 208.68C315.849 208.68 319.329 212.31 319.329 216.99C319.329 221.64 315.849 225.3 311.199 225.3ZM311.199 221.61C313.269 221.61 315.039 219.96 315.039 216.99C315.039 214.02 313.269 212.4 311.199 212.4C309.129 212.4 307.359 214.02 307.359 216.99C307.359 219.96 309.129 221.61 311.199 221.61ZM331.106 218.25V208.98H335.246V225H331.436V222.9C330.566 224.31 328.796 225.3 326.756 225.3C323.546 225.3 321.206 223.35 321.206 219.18V208.98H325.376V218.37C325.376 220.62 326.486 221.61 328.166 221.61C329.666 221.61 331.106 220.41 331.106 218.25ZM342.529 216.27V225H338.359V208.98H342.199V211.26C343.369 209.67 345.019 208.68 347.119 208.68C350.329 208.68 352.549 210.78 352.549 214.65V225H348.409V216.06C348.409 213.69 347.479 212.37 345.589 212.37C343.939 212.37 342.529 213.69 342.529 216.27ZM365.352 220.95V224.58C364.332 225.09 363.372 225.3 362.142 225.3C358.842 225.3 356.772 223.41 356.772 219.81V212.55H353.532V208.98H356.772V204.24H360.912V208.98H365.502V212.55H360.912V218.85C360.912 220.71 361.752 221.46 363.252 221.46C364.032 221.46 364.752 221.28 365.352 220.95Z" fill="black"/>
<path d="M161.126 290L157.478 276.488L153.806 290H151.094L146.606 272.768H149.198L152.51 286.04L156.134 272.768H158.87L162.446 286.064L165.758 272.768H168.35L163.862 290H161.126ZM174.133 290.24C170.533 290.24 167.893 287.408 167.893 283.64C167.893 279.872 170.533 277.04 174.133 277.04C177.733 277.04 180.373 279.872 180.373 283.64C180.373 287.408 177.733 290.24 174.133 290.24ZM174.133 288.104C176.221 288.104 177.877 286.424 177.877 283.64C177.877 280.856 176.221 279.2 174.133 279.2C172.045 279.2 170.413 280.856 170.413 283.64C170.413 286.424 172.045 288.104 174.133 288.104ZM184.634 283.496V290H182.21V277.28H184.466V279.968C185.354 278.216 187.274 277.112 189.362 277.112V279.632C186.626 279.488 184.634 280.688 184.634 283.496ZM200.726 286.208C200.726 288.704 198.782 290.24 195.398 290.24C192.038 290.24 190.046 288.584 189.806 285.848H192.134C192.23 287.432 193.502 288.416 195.446 288.416C197.15 288.416 198.278 287.816 198.278 286.616C198.278 285.56 197.63 285.104 196.046 284.792L193.982 284.408C191.63 283.952 190.31 282.752 190.31 280.832C190.31 278.6 192.254 277.04 195.206 277.04C198.254 277.04 200.318 278.672 200.534 281.288H198.206C198.062 279.752 196.934 278.864 195.23 278.864C193.694 278.864 192.662 279.512 192.662 280.616C192.662 281.648 193.31 282.128 194.846 282.416L197.006 282.824C199.526 283.28 200.726 284.384 200.726 286.208ZM209.751 287.648V289.784C209.007 290.12 208.359 290.24 207.591 290.24C205.239 290.24 203.607 288.968 203.607 286.16V279.344H200.799V277.28H203.607V273.512H206.031V277.28H209.871V279.344H206.031V285.608C206.031 287.36 206.871 287.984 208.167 287.984C208.743 287.984 209.247 287.888 209.751 287.648ZM223.637 290.36C218.837 290.36 215.117 286.448 215.117 281.36C215.117 276.296 218.837 272.408 223.637 272.408C227.957 272.408 231.413 275.288 232.061 279.536H229.253C228.773 276.752 226.517 274.784 223.661 274.784C220.253 274.784 217.853 277.544 217.853 281.36C217.853 285.224 220.253 287.984 223.661 287.984C226.517 287.984 228.773 285.992 229.253 283.208H232.061C231.413 287.48 227.957 290.36 223.637 290.36ZM241.683 290V288.032C240.891 289.448 239.475 290.24 237.603 290.24C234.963 290.24 233.235 288.728 233.235 286.4C233.235 283.904 235.227 282.608 239.019 282.608C239.763 282.608 240.363 282.632 241.395 282.752V281.816C241.395 279.992 240.411 278.96 238.731 278.96C236.955 278.96 235.875 280.016 235.803 281.792H233.595C233.715 278.936 235.755 277.04 238.731 277.04C241.875 277.04 243.699 278.816 243.699 281.84V290H241.683ZM235.539 286.328C235.539 287.648 236.523 288.512 238.083 288.512C240.123 288.512 241.395 287.24 241.395 285.296V284.264C240.459 284.144 239.787 284.12 239.163 284.12C236.739 284.12 235.539 284.84 235.539 286.328ZM256.386 286.208C256.386 288.704 254.442 290.24 251.058 290.24C247.698 290.24 245.706 288.584 245.466 285.848H247.794C247.89 287.432 249.162 288.416 251.106 288.416C252.81 288.416 253.938 287.816 253.938 286.616C253.938 285.56 253.29 285.104 251.706 284.792L249.642 284.408C247.29 283.952 245.97 282.752 245.97 280.832C245.97 278.6 247.914 277.04 250.866 277.04C253.914 277.04 255.978 278.672 256.194 281.288H253.866C253.722 279.752 252.594 278.864 250.89 278.864C249.354 278.864 248.322 279.512 248.322 280.616C248.322 281.648 248.97 282.128 250.506 282.416L252.666 282.824C255.186 283.28 256.386 284.384 256.386 286.208ZM263.631 290.24C259.959 290.24 257.487 287.576 257.487 283.568C257.487 279.8 260.055 277.04 263.559 277.04C267.351 277.04 269.871 280.112 269.439 284.24H259.959C260.151 286.832 261.447 288.344 263.583 288.344C265.383 288.344 266.631 287.36 267.039 285.704H269.439C268.815 288.536 266.631 290.24 263.631 290.24ZM263.511 278.864C261.567 278.864 260.247 280.256 259.983 282.632H266.871C266.751 280.28 265.479 278.864 263.511 278.864ZM288.556 284.96C288.556 287.96 286.156 290.24 281.98 290.24C277.828 290.24 275.308 287.96 275.092 284.528H277.78C277.9 286.712 279.292 288.128 281.932 288.128C284.116 288.128 285.748 287.096 285.748 285.32C285.748 283.88 284.812 283.16 282.82 282.728L280.324 282.248C277.9 281.768 275.692 280.544 275.692 277.616C275.692 274.712 278.236 272.528 281.812 272.528C285.388 272.528 288.1 274.712 288.316 278.144H285.628C285.484 276.08 283.996 274.64 281.836 274.64C279.604 274.64 278.38 275.96 278.38 277.448C278.38 279.08 279.796 279.656 281.404 279.992L283.948 280.496C286.9 281.096 288.556 282.392 288.556 284.96ZM295.803 290.264C292.323 290.264 289.875 287.528 289.875 283.64C289.875 279.8 292.371 277.04 295.803 277.04C298.947 277.04 301.227 279.128 301.683 282.44H299.139C298.875 280.4 297.603 279.176 295.827 279.176C293.739 279.176 292.371 280.952 292.371 283.64C292.371 286.352 293.739 288.104 295.827 288.104C297.627 288.104 298.875 286.904 299.163 284.84H301.683C301.251 288.2 298.995 290.264 295.803 290.264ZM308.604 290.24C304.932 290.24 302.46 287.576 302.46 283.568C302.46 279.8 305.028 277.04 308.532 277.04C312.324 277.04 314.844 280.112 314.412 284.24H304.932C305.124 286.832 306.42 288.344 308.556 288.344C310.356 288.344 311.604 287.36 312.012 285.704H314.412C313.788 288.536 311.604 290.24 308.604 290.24ZM308.484 278.864C306.54 278.864 305.22 280.256 304.956 282.632H311.844C311.724 280.28 310.452 278.864 308.484 278.864ZM318.779 282.824V290H316.355V277.28H318.611V279.392C319.475 277.976 320.915 277.04 322.667 277.04C325.283 277.04 327.011 278.72 327.011 281.768V290H324.587V282.584C324.587 280.4 323.627 279.176 321.827 279.176C320.171 279.176 318.779 280.568 318.779 282.824ZM337.3 290V288.032C336.508 289.448 335.092 290.24 333.22 290.24C330.58 290.24 328.852 288.728 328.852 286.4C328.852 283.904 330.844 282.608 334.636 282.608C335.38 282.608 335.98 282.632 337.012 282.752V281.816C337.012 279.992 336.028 278.96 334.348 278.96C332.572 278.96 331.492 280.016 331.42 281.792H329.212C329.332 278.936 331.372 277.04 334.348 277.04C337.492 277.04 339.316 278.816 339.316 281.84V290H337.3ZM331.156 286.328C331.156 287.648 332.14 288.512 333.7 288.512C335.74 288.512 337.012 287.24 337.012 285.296V284.264C336.076 284.144 335.404 284.12 334.78 284.12C332.356 284.12 331.156 284.84 331.156 286.328ZM344.348 283.496V290H341.924V277.28H344.18V279.968C345.068 278.216 346.988 277.112 349.076 277.112V279.632C346.34 279.488 344.348 280.688 344.348 283.496ZM353.312 274.328C353.312 275.24 352.592 275.936 351.56 275.936C350.528 275.936 349.784 275.24 349.784 274.328C349.784 273.392 350.528 272.72 351.56 272.72C352.592 272.72 353.312 273.392 353.312 274.328ZM352.784 290H350.36V277.28H352.784V290ZM360.843 290.24C357.243 290.24 354.603 287.408 354.603 283.64C354.603 279.872 357.243 277.04 360.843 277.04C364.443 277.04 367.083 279.872 367.083 283.64C367.083 287.408 364.443 290.24 360.843 290.24ZM360.843 288.104C362.931 288.104 364.587 286.424 364.587 283.64C364.587 280.856 362.931 279.2 360.843 279.2C358.755 279.2 357.123 280.856 357.123 283.64C357.123 286.424 358.755 288.104 360.843 288.104ZM218.889 350.216C215.241 350.216 212.625 348.08 212.625 345.08H216.657C216.753 346.28 217.593 346.976 218.937 346.976C220.377 346.976 221.193 346.304 221.193 345.128C221.193 343.976 220.209 343.328 218.457 343.328H216.633V340.088H218.217C219.681 340.088 220.473 339.512 220.473 338.432C220.473 337.376 219.825 336.776 218.673 336.776C217.569 336.776 216.897 337.496 216.897 338.672H212.889C212.889 335.744 215.505 333.536 218.889 333.536C222.537 333.536 224.721 335.432 224.721 338.096C224.721 339.488 223.929 340.592 222.465 341.456C224.385 342.128 225.441 343.352 225.441 345.032C225.441 348.128 222.801 350.216 218.889 350.216ZM232.582 350.192C228.694 350.192 226.03 347.648 226.03 344.768C226.03 342.776 226.51 341.456 228.142 339.536L233.038 333.776H237.694L233.134 339.224H233.398C236.854 339.224 239.182 341.456 239.182 344.48C239.182 347.624 236.518 350.192 232.582 350.192ZM232.63 346.736C233.782 346.736 234.886 346.112 234.886 344.624C234.886 343.064 233.782 342.464 232.63 342.464C231.478 342.464 230.35 343.064 230.35 344.624C230.35 346.112 231.478 346.736 232.63 346.736ZM253.63 350H249.094V336.872H243.814V332.768H258.91V336.872H253.63V350ZM263.362 344.048V350H259.258V337.088H263.026V339.368C264.01 337.856 266.05 336.992 268.114 336.992V341.264C265.21 340.976 263.362 341.192 263.362 344.048ZM273.71 334.088C273.71 335.432 272.63 336.416 271.07 336.416C269.51 336.416 268.43 335.432 268.43 334.088C268.43 332.72 269.51 331.736 271.07 331.736C272.63 331.736 273.71 332.72 273.71 334.088ZM273.158 350H269.054V337.088H273.158V350ZM288.585 343.544C288.585 347.288 286.305 350.24 282.825 350.24C281.481 350.24 280.329 349.76 279.321 348.8V354.632H275.217V337.088H278.985V338.552C280.041 337.448 281.313 336.848 282.825 336.848C286.305 336.848 288.585 339.848 288.585 343.544ZM284.313 343.544C284.313 341.528 283.089 340.544 281.841 340.544C280.569 340.544 279.369 341.528 279.369 343.568C279.369 345.632 280.593 346.544 281.841 346.544C283.089 346.544 284.313 345.608 284.313 343.544ZM301.265 345.608C301.265 348.464 299.153 350.24 295.265 350.24C291.377 350.24 289.265 348.416 289.001 345.44H292.937C292.937 346.52 293.921 347.216 295.337 347.216C296.273 347.216 297.113 347 297.113 346.328C297.113 345.752 296.681 345.512 295.793 345.344L293.249 344.888C290.993 344.48 289.553 343.184 289.553 341.096C289.553 338.6 291.665 336.848 295.049 336.848C298.433 336.848 300.785 338.648 301.025 341.528H297.089C296.993 340.496 296.201 339.872 295.073 339.872C294.113 339.872 293.489 340.136 293.489 340.712C293.489 341.264 293.897 341.432 294.713 341.576L297.449 342.08C299.945 342.536 301.265 343.76 301.265 345.608Z" fill="black"/>
<path d="M167.818 559.056C167.818 562.2 165.514 564 161.938 564H155.626V546.768H161.602C165.082 546.768 167.17 548.376 167.17 551.28C167.17 552.912 166.186 554.304 164.53 555.024C166.666 555.624 167.818 557.088 167.818 559.056ZM161.434 548.88H158.05V554.064H161.434C163.522 554.064 164.65 553.08 164.65 551.472C164.65 549.864 163.522 548.88 161.434 548.88ZM161.77 556.176H158.05V561.888H161.77C164.026 561.888 165.298 560.808 165.298 558.984C165.298 557.232 164.026 556.176 161.77 556.176ZM175.267 564.24C171.595 564.24 169.123 561.576 169.123 557.568C169.123 553.8 171.691 551.04 175.195 551.04C178.987 551.04 181.507 554.112 181.075 558.24H171.595C171.787 560.832 173.083 562.344 175.219 562.344C177.019 562.344 178.267 561.36 178.675 559.704H181.075C180.451 562.536 178.267 564.24 175.267 564.24ZM175.147 552.864C173.203 552.864 171.883 554.256 171.619 556.632H178.507C178.387 554.28 177.115 552.864 175.147 552.864ZM193.098 560.208C193.098 562.704 191.154 564.24 187.77 564.24C184.41 564.24 182.418 562.584 182.178 559.848H184.506C184.602 561.432 185.874 562.416 187.818 562.416C189.522 562.416 190.65 561.816 190.65 560.616C190.65 559.56 190.002 559.104 188.418 558.792L186.354 558.408C184.002 557.952 182.682 556.752 182.682 554.832C182.682 552.6 184.626 551.04 187.578 551.04C190.626 551.04 192.69 552.672 192.906 555.288H190.578C190.434 553.752 189.306 552.864 187.602 552.864C186.066 552.864 185.034 553.512 185.034 554.616C185.034 555.648 185.682 556.128 187.218 556.416L189.378 556.824C191.898 557.28 193.098 558.384 193.098 560.208ZM202.123 561.648V563.784C201.379 564.12 200.731 564.24 199.963 564.24C197.611 564.24 195.979 562.968 195.979 560.16V553.344H193.171V551.28H195.979V547.512H198.403V551.28H202.243V553.344H198.403V559.608C198.403 561.36 199.243 561.984 200.539 561.984C201.115 561.984 201.619 561.888 202.123 561.648ZM216.008 564.36C211.208 564.36 207.488 560.448 207.488 555.36C207.488 550.296 211.208 546.408 216.008 546.408C220.328 546.408 223.784 549.288 224.432 553.536H221.624C221.144 550.752 218.888 548.784 216.032 548.784C212.624 548.784 210.224 551.544 210.224 555.36C210.224 559.224 212.624 561.984 216.032 561.984C218.888 561.984 221.144 559.992 221.624 557.208H224.432C223.784 561.48 220.328 564.36 216.008 564.36ZM234.054 564V562.032C233.262 563.448 231.846 564.24 229.974 564.24C227.334 564.24 225.606 562.728 225.606 560.4C225.606 557.904 227.598 556.608 231.39 556.608C232.134 556.608 232.734 556.632 233.766 556.752V555.816C233.766 553.992 232.782 552.96 231.102 552.96C229.326 552.96 228.246 554.016 228.174 555.792H225.966C226.086 552.936 228.126 551.04 231.102 551.04C234.246 551.04 236.07 552.816 236.07 555.84V564H234.054ZM227.91 560.328C227.91 561.648 228.894 562.512 230.454 562.512C232.494 562.512 233.766 561.24 233.766 559.296V558.264C232.83 558.144 232.158 558.12 231.534 558.12C229.11 558.12 227.91 558.84 227.91 560.328ZM248.757 560.208C248.757 562.704 246.813 564.24 243.429 564.24C240.069 564.24 238.077 562.584 237.837 559.848H240.165C240.261 561.432 241.533 562.416 243.477 562.416C245.181 562.416 246.309 561.816 246.309 560.616C246.309 559.56 245.661 559.104 244.077 558.792L242.013 558.408C239.661 557.952 238.341 556.752 238.341 554.832C238.341 552.6 240.285 551.04 243.237 551.04C246.285 551.04 248.349 552.672 248.565 555.288H246.237C246.093 553.752 244.965 552.864 243.261 552.864C241.725 552.864 240.693 553.512 240.693 554.616C240.693 555.648 241.341 556.128 242.877 556.416L245.037 556.824C247.557 557.28 248.757 558.384 248.757 560.208ZM256.002 564.24C252.33 564.24 249.858 561.576 249.858 557.568C249.858 553.8 252.426 551.04 255.93 551.04C259.722 551.04 262.242 554.112 261.81 558.24H252.33C252.522 560.832 253.818 562.344 255.954 562.344C257.754 562.344 259.002 561.36 259.41 559.704H261.81C261.186 562.536 259.002 564.24 256.002 564.24ZM255.882 552.864C253.938 552.864 252.618 554.256 252.354 556.632H259.242C259.122 554.28 257.85 552.864 255.882 552.864ZM280.928 558.96C280.928 561.96 278.528 564.24 274.352 564.24C270.2 564.24 267.68 561.96 267.464 558.528H270.152C270.272 560.712 271.664 562.128 274.304 562.128C276.488 562.128 278.12 561.096 278.12 559.32C278.12 557.88 277.184 557.16 275.192 556.728L272.696 556.248C270.272 555.768 268.064 554.544 268.064 551.616C268.064 548.712 270.608 546.528 274.184 546.528C277.76 546.528 280.472 548.712 280.688 552.144H278C277.856 550.08 276.368 548.64 274.208 548.64C271.976 548.64 270.752 549.96 270.752 551.448C270.752 553.08 272.168 553.656 273.776 553.992L276.32 554.496C279.272 555.096 280.928 556.392 280.928 558.96ZM288.174 564.264C284.694 564.264 282.246 561.528 282.246 557.64C282.246 553.8 284.742 551.04 288.174 551.04C291.318 551.04 293.598 553.128 294.054 556.44H291.51C291.246 554.4 289.974 553.176 288.198 553.176C286.11 553.176 284.742 554.952 284.742 557.64C284.742 560.352 286.11 562.104 288.198 562.104C289.998 562.104 291.246 560.904 291.534 558.84H294.054C293.622 562.2 291.366 564.264 288.174 564.264ZM300.975 564.24C297.303 564.24 294.831 561.576 294.831 557.568C294.831 553.8 297.399 551.04 300.903 551.04C304.695 551.04 307.215 554.112 306.783 558.24H297.303C297.495 560.832 298.791 562.344 300.927 562.344C302.727 562.344 303.975 561.36 304.383 559.704H306.783C306.159 562.536 303.975 564.24 300.975 564.24ZM300.855 552.864C298.911 552.864 297.591 554.256 297.327 556.632H304.215C304.095 554.28 302.823 552.864 300.855 552.864ZM311.151 556.824V564H308.727V551.28H310.983V553.392C311.847 551.976 313.287 551.04 315.039 551.04C317.655 551.04 319.383 552.72 319.383 555.768V564H316.959V556.584C316.959 554.4 315.999 553.176 314.199 553.176C312.543 553.176 311.151 554.568 311.151 556.824ZM329.672 564V562.032C328.88 563.448 327.464 564.24 325.592 564.24C322.952 564.24 321.224 562.728 321.224 560.4C321.224 557.904 323.216 556.608 327.008 556.608C327.752 556.608 328.352 556.632 329.384 556.752V555.816C329.384 553.992 328.4 552.96 326.72 552.96C324.944 552.96 323.864 554.016 323.792 555.792H321.584C321.704 552.936 323.744 551.04 326.72 551.04C329.864 551.04 331.688 552.816 331.688 555.84V564H329.672ZM323.528 560.328C323.528 561.648 324.512 562.512 326.072 562.512C328.112 562.512 329.384 561.24 329.384 559.296V558.264C328.448 558.144 327.776 558.12 327.152 558.12C324.728 558.12 323.528 558.84 323.528 560.328ZM336.719 557.496V564H334.295V551.28H336.551V553.968C337.439 552.216 339.359 551.112 341.447 551.112V553.632C338.711 553.488 336.719 554.688 336.719 557.496ZM345.684 548.328C345.684 549.24 344.964 549.936 343.932 549.936C342.9 549.936 342.156 549.24 342.156 548.328C342.156 547.392 342.9 546.72 343.932 546.72C344.964 546.72 345.684 547.392 345.684 548.328ZM345.156 564H342.732V551.28H345.156V564ZM353.215 564.24C349.615 564.24 346.975 561.408 346.975 557.64C346.975 553.872 349.615 551.04 353.215 551.04C356.815 551.04 359.455 553.872 359.455 557.64C359.455 561.408 356.815 564.24 353.215 564.24ZM353.215 562.104C355.303 562.104 356.959 560.424 356.959 557.64C356.959 554.856 355.303 553.2 353.215 553.2C351.127 553.2 349.495 554.856 349.495 557.64C349.495 560.424 351.127 562.104 353.215 562.104ZM224.665 610.2L218.881 624H214.465L220.081 611.472H212.881V607.776H224.665V610.2ZM225.269 615.912C225.269 610.536 227.645 607.536 231.797 607.536C235.949 607.536 238.325 610.536 238.325 615.912C238.325 621.264 235.997 624.24 231.797 624.24C227.597 624.24 225.269 621.264 225.269 615.912ZM229.517 615.912C229.517 618.912 230.285 620.544 231.797 620.544C233.261 620.544 234.077 618.912 234.077 615.912C234.077 612.888 233.261 611.232 231.797 611.232C230.333 611.232 229.517 612.912 229.517 615.912ZM253.278 624H248.742V610.872H243.462V606.768H258.558V610.872H253.278V624ZM263.01 618.048V624H258.906V611.088H262.674V613.368C263.658 611.856 265.698 610.992 267.762 610.992V615.264C264.858 614.976 263.01 615.192 263.01 618.048ZM273.358 608.088C273.358 609.432 272.278 610.416 270.718 610.416C269.158 610.416 268.078 609.432 268.078 608.088C268.078 606.72 269.158 605.736 270.718 605.736C272.278 605.736 273.358 606.72 273.358 608.088ZM272.806 624H268.702V611.088H272.806V624ZM288.233 617.544C288.233 621.288 285.953 624.24 282.473 624.24C281.129 624.24 279.977 623.76 278.969 622.8V628.632H274.865V611.088H278.633V612.552C279.689 611.448 280.961 610.848 282.473 610.848C285.953 610.848 288.233 613.848 288.233 617.544ZM283.961 617.544C283.961 615.528 282.737 614.544 281.489 614.544C280.217 614.544 279.017 615.528 279.017 617.568C279.017 619.632 280.241 620.544 281.489 620.544C282.737 620.544 283.961 619.608 283.961 617.544ZM300.914 619.608C300.914 622.464 298.802 624.24 294.914 624.24C291.026 624.24 288.914 622.416 288.65 619.44H292.586C292.586 620.52 293.57 621.216 294.986 621.216C295.922 621.216 296.762 621 296.762 620.328C296.762 619.752 296.33 619.512 295.442 619.344L292.898 618.888C290.642 618.48 289.202 617.184 289.202 615.096C289.202 612.6 291.314 610.848 294.698 610.848C298.082 610.848 300.434 612.648 300.674 615.528H296.738C296.642 614.496 295.85 613.872 294.722 613.872C293.762 613.872 293.138 614.136 293.138 614.712C293.138 615.264 293.546 615.432 294.362 615.576L297.098 616.08C299.594 616.536 300.914 617.76 300.914 619.608Z" fill="black"/>
<path d="M166.06 428.056C166.06 431.2 163.756 433 160.18 433H153.868V415.768H159.844C163.324 415.768 165.412 417.376 165.412 420.28C165.412 421.912 164.428 423.304 162.772 424.024C164.908 424.624 166.06 426.088 166.06 428.056ZM159.676 417.88H156.292V423.064H159.676C161.764 423.064 162.892 422.08 162.892 420.472C162.892 418.864 161.764 417.88 159.676 417.88ZM160.012 425.176H156.292V430.888H160.012C162.268 430.888 163.54 429.808 163.54 427.984C163.54 426.232 162.268 425.176 160.012 425.176ZM175.981 433V431.032C175.189 432.448 173.773 433.24 171.901 433.24C169.261 433.24 167.533 431.728 167.533 429.4C167.533 426.904 169.525 425.608 173.317 425.608C174.061 425.608 174.661 425.632 175.693 425.752V424.816C175.693 422.992 174.709 421.96 173.029 421.96C171.253 421.96 170.173 423.016 170.101 424.792H167.893C168.013 421.936 170.053 420.04 173.029 420.04C176.173 420.04 177.997 421.816 177.997 424.84V433H175.981ZM169.837 429.328C169.837 430.648 170.821 431.512 172.381 431.512C174.421 431.512 175.693 430.24 175.693 428.296V427.264C174.757 427.144 174.085 427.12 173.461 427.12C171.037 427.12 169.837 427.84 169.837 429.328ZM190.684 429.208C190.684 431.704 188.74 433.24 185.356 433.24C181.996 433.24 180.004 431.584 179.764 428.848H182.092C182.188 430.432 183.46 431.416 185.404 431.416C187.108 431.416 188.236 430.816 188.236 429.616C188.236 428.56 187.588 428.104 186.004 427.792L183.94 427.408C181.588 426.952 180.268 425.752 180.268 423.832C180.268 421.6 182.212 420.04 185.164 420.04C188.212 420.04 190.276 421.672 190.492 424.288H188.164C188.02 422.752 186.892 421.864 185.188 421.864C183.652 421.864 182.62 422.512 182.62 423.616C182.62 424.648 183.268 425.128 184.804 425.416L186.964 425.824C189.484 426.28 190.684 427.384 190.684 429.208ZM197.929 433.24C194.257 433.24 191.785 430.576 191.785 426.568C191.785 422.8 194.353 420.04 197.857 420.04C201.649 420.04 204.169 423.112 203.737 427.24H194.257C194.449 429.832 195.745 431.344 197.881 431.344C199.681 431.344 200.929 430.36 201.337 428.704H203.737C203.113 431.536 200.929 433.24 197.929 433.24ZM197.809 421.864C195.865 421.864 194.545 423.256 194.281 425.632H201.169C201.049 423.28 199.777 421.864 197.809 421.864ZM217.766 433.36C212.966 433.36 209.246 429.448 209.246 424.36C209.246 419.296 212.966 415.408 217.766 415.408C222.086 415.408 225.542 418.288 226.19 422.536H223.382C222.902 419.752 220.646 417.784 217.79 417.784C214.382 417.784 211.982 420.544 211.982 424.36C211.982 428.224 214.382 430.984 217.79 430.984C220.646 430.984 222.902 428.992 223.382 426.208H226.19C225.542 430.48 222.086 433.36 217.766 433.36ZM235.812 433V431.032C235.02 432.448 233.604 433.24 231.732 433.24C229.092 433.24 227.364 431.728 227.364 429.4C227.364 426.904 229.356 425.608 233.148 425.608C233.892 425.608 234.492 425.632 235.524 425.752V424.816C235.524 422.992 234.54 421.96 232.86 421.96C231.084 421.96 230.004 423.016 229.932 424.792H227.724C227.844 421.936 229.884 420.04 232.86 420.04C236.004 420.04 237.828 421.816 237.828 424.84V433H235.812ZM229.668 429.328C229.668 430.648 230.652 431.512 232.212 431.512C234.252 431.512 235.524 430.24 235.524 428.296V427.264C234.588 427.144 233.916 427.12 233.292 427.12C230.868 427.12 229.668 427.84 229.668 429.328ZM250.515 429.208C250.515 431.704 248.571 433.24 245.187 433.24C241.827 433.24 239.835 431.584 239.595 428.848H241.923C242.019 430.432 243.291 431.416 245.235 431.416C246.939 431.416 248.067 430.816 248.067 429.616C248.067 428.56 247.419 428.104 245.835 427.792L243.771 427.408C241.419 426.952 240.099 425.752 240.099 423.832C240.099 421.6 242.043 420.04 244.995 420.04C248.043 420.04 250.107 421.672 250.323 424.288H247.995C247.851 422.752 246.723 421.864 245.019 421.864C243.483 421.864 242.451 422.512 242.451 423.616C242.451 424.648 243.099 425.128 244.635 425.416L246.795 425.824C249.315 426.28 250.515 427.384 250.515 429.208ZM257.76 433.24C254.088 433.24 251.616 430.576 251.616 426.568C251.616 422.8 254.184 420.04 257.688 420.04C261.48 420.04 264 423.112 263.568 427.24H254.088C254.28 429.832 255.576 431.344 257.712 431.344C259.512 431.344 260.76 430.36 261.168 428.704H263.568C262.944 431.536 260.76 433.24 257.76 433.24ZM257.64 421.864C255.696 421.864 254.376 423.256 254.112 425.632H261C260.88 423.28 259.608 421.864 257.64 421.864ZM282.685 427.96C282.685 430.96 280.285 433.24 276.109 433.24C271.957 433.24 269.437 430.96 269.221 427.528H271.909C272.029 429.712 273.421 431.128 276.061 431.128C278.245 431.128 279.877 430.096 279.877 428.32C279.877 426.88 278.941 426.16 276.949 425.728L274.453 425.248C272.029 424.768 269.821 423.544 269.821 420.616C269.821 417.712 272.365 415.528 275.941 415.528C279.517 415.528 282.229 417.712 282.445 421.144H279.757C279.613 419.08 278.125 417.64 275.965 417.64C273.733 417.64 272.509 418.96 272.509 420.448C272.509 422.08 273.925 422.656 275.533 422.992L278.077 423.496C281.029 424.096 282.685 425.392 282.685 427.96ZM289.932 433.264C286.452 433.264 284.004 430.528 284.004 426.64C284.004 422.8 286.5 420.04 289.932 420.04C293.076 420.04 295.356 422.128 295.812 425.44H293.268C293.004 423.4 291.732 422.176 289.956 422.176C287.868 422.176 286.5 423.952 286.5 426.64C286.5 429.352 287.868 431.104 289.956 431.104C291.756 431.104 293.004 429.904 293.292 427.84H295.812C295.38 431.2 293.124 433.264 289.932 433.264ZM302.733 433.24C299.061 433.24 296.589 430.576 296.589 426.568C296.589 422.8 299.157 420.04 302.661 420.04C306.453 420.04 308.973 423.112 308.541 427.24H299.061C299.253 429.832 300.549 431.344 302.685 431.344C304.485 431.344 305.733 430.36 306.141 428.704H308.541C307.917 431.536 305.733 433.24 302.733 433.24ZM302.613 421.864C300.669 421.864 299.349 423.256 299.085 425.632H305.973C305.853 423.28 304.581 421.864 302.613 421.864ZM312.908 425.824V433H310.484V420.28H312.74V422.392C313.604 420.976 315.044 420.04 316.796 420.04C319.412 420.04 321.14 421.72 321.14 424.768V433H318.716V425.584C318.716 423.4 317.756 422.176 315.956 422.176C314.3 422.176 312.908 423.568 312.908 425.824ZM331.43 433V431.032C330.638 432.448 329.222 433.24 327.35 433.24C324.71 433.24 322.982 431.728 322.982 429.4C322.982 426.904 324.974 425.608 328.766 425.608C329.51 425.608 330.11 425.632 331.142 425.752V424.816C331.142 422.992 330.158 421.96 328.478 421.96C326.702 421.96 325.622 423.016 325.55 424.792H323.342C323.462 421.936 325.502 420.04 328.478 420.04C331.622 420.04 333.446 421.816 333.446 424.84V433H331.43ZM325.286 429.328C325.286 430.648 326.27 431.512 327.83 431.512C329.87 431.512 331.142 430.24 331.142 428.296V427.264C330.206 427.144 329.534 427.12 328.91 427.12C326.486 427.12 325.286 427.84 325.286 429.328ZM338.477 426.496V433H336.053V420.28H338.309V422.968C339.197 421.216 341.117 420.112 343.205 420.112V422.632C340.469 422.488 338.477 423.688 338.477 426.496ZM347.441 417.328C347.441 418.24 346.721 418.936 345.689 418.936C344.657 418.936 343.913 418.24 343.913 417.328C343.913 416.392 344.657 415.72 345.689 415.72C346.721 415.72 347.441 416.392 347.441 417.328ZM346.913 433H344.489V420.28H346.913V433ZM354.973 433.24C351.373 433.24 348.733 430.408 348.733 426.64C348.733 422.872 351.373 420.04 354.973 420.04C358.573 420.04 361.213 422.872 361.213 426.64C361.213 430.408 358.573 433.24 354.973 433.24ZM354.973 431.104C357.061 431.104 358.717 429.424 358.717 426.64C358.717 423.856 357.061 422.2 354.973 422.2C352.885 422.2 351.253 423.856 351.253 426.64C351.253 429.424 352.885 431.104 354.973 431.104ZM218.744 493.24C215.072 493.24 212.288 490.984 212.168 487.864H216.32C216.536 488.992 217.448 489.544 218.72 489.544C220.448 489.544 220.88 488.44 220.88 487.576C220.88 486.688 220.352 485.56 218.552 485.56C217.4 485.56 216.536 486.016 216.176 487.048L212.744 485.896L214.184 476.776H224.168V480.472H217.184L216.848 482.56C217.592 482.2 218.432 482.032 219.272 482.032C223.4 482.032 225.152 484.864 225.152 487.6C225.152 490.24 223.136 493.24 218.744 493.24ZM226.077 484.912C226.077 479.536 228.453 476.536 232.605 476.536C236.757 476.536 239.133 479.536 239.133 484.912C239.133 490.264 236.805 493.24 232.605 493.24C228.405 493.24 226.077 490.264 226.077 484.912ZM230.325 484.912C230.325 487.912 231.093 489.544 232.605 489.544C234.069 489.544 234.885 487.912 234.885 484.912C234.885 481.888 234.069 480.232 232.605 480.232C231.141 480.232 230.325 481.912 230.325 484.912ZM254.087 493H249.551V479.872H244.271V475.768H259.367V479.872H254.087V493ZM263.819 487.048V493H259.715V480.088H263.483V482.368C264.467 480.856 266.507 479.992 268.571 479.992V484.264C265.667 483.976 263.819 484.192 263.819 487.048ZM274.167 477.088C274.167 478.432 273.087 479.416 271.527 479.416C269.967 479.416 268.887 478.432 268.887 477.088C268.887 475.72 269.967 474.736 271.527 474.736C273.087 474.736 274.167 475.72 274.167 477.088ZM273.615 493H269.511V480.088H273.615V493ZM289.042 486.544C289.042 490.288 286.762 493.24 283.282 493.24C281.938 493.24 280.786 492.76 279.778 491.8V497.632H275.674V480.088H279.442V481.552C280.498 480.448 281.77 479.848 283.282 479.848C286.762 479.848 289.042 482.848 289.042 486.544ZM284.77 486.544C284.77 484.528 283.546 483.544 282.298 483.544C281.026 483.544 279.826 484.528 279.826 486.568C279.826 488.632 281.05 489.544 282.298 489.544C283.546 489.544 284.77 488.608 284.77 486.544ZM301.722 488.608C301.722 491.464 299.61 493.24 295.722 493.24C291.834 493.24 289.722 491.416 289.458 488.44H293.394C293.394 489.52 294.378 490.216 295.794 490.216C296.73 490.216 297.57 490 297.57 489.328C297.57 488.752 297.138 488.512 296.25 488.344L293.706 487.888C291.45 487.48 290.01 486.184 290.01 484.096C290.01 481.6 292.122 479.848 295.506 479.848C298.89 479.848 301.242 481.648 301.482 484.528H297.546C297.45 483.496 296.658 482.872 295.53 482.872C294.57 482.872 293.946 483.136 293.946 483.712C293.946 484.264 294.354 484.432 295.17 484.576L297.906 485.08C300.402 485.536 301.722 486.76 301.722 488.608Z" fill="black"/>
<path d="M265.532 148H240.5C236.363 148 233 144.637 233 140.5C233 136.363 236.363 133 240.5 133H261.5C267.29 133 272 128.29 272 122.5C272 116.71 267.29 112 261.5 112H246.917C245.815 114.16 244.451 116.175 242.855 118H261.5C263.981 118 266 120.019 266 122.5C266 124.981 263.981 127 261.5 127H240.5C233.057 127 227 133.057 227 140.5C227 147.943 233.057 154 240.5 154H269.279C267.807 152.148 266.55 150.135 265.532 148ZM236 94C231.038 94 227 98.038 227 103C227 112.564 236 118 236 118C236 118 245 112.561 245 103C245 98.038 240.962 94 236 94ZM236 107.5C235.409 107.5 234.824 107.383 234.277 107.157C233.731 106.93 233.235 106.599 232.817 106.18C232.4 105.762 232.068 105.266 231.842 104.72C231.616 104.174 231.5 103.588 231.5 102.997C231.5 102.406 231.617 101.821 231.843 101.274C232.07 100.728 232.401 100.232 232.82 99.8144C233.238 99.3965 233.734 99.0651 234.28 98.8391C234.826 98.613 235.412 98.4968 236.003 98.497C237.197 98.4974 238.342 98.972 239.186 99.8165C240.03 100.661 240.503 101.806 240.503 103C240.503 104.194 240.028 105.339 239.183 106.183C238.339 107.027 237.194 107.5 236 107.5Z" fill="#FFCC2A"/>
<path d="M278 130C273.038 130 269 134.038 269 139C269 148.564 278 154 278 154C278 154 287 148.561 287 139C287 134.038 282.962 130 278 130ZM278 143.5C277.409 143.5 276.824 143.383 276.277 143.157C275.731 142.93 275.235 142.599 274.817 142.18C274.4 141.762 274.068 141.266 273.842 140.72C273.616 140.174 273.5 139.588 273.5 138.997C273.5 138.406 273.617 137.821 273.843 137.274C274.07 136.728 274.401 136.232 274.82 135.814C275.238 135.397 275.734 135.065 276.28 134.839C276.826 134.613 277.412 134.497 278.003 134.497C279.197 134.497 280.342 134.972 281.186 135.817C282.03 136.661 282.503 137.806 282.503 139C282.503 140.194 282.028 141.339 281.183 142.183C280.339 143.027 279.194 143.5 278 143.5Z" fill="#FFCC2A"/>
<rect x="2" y="18" width="509" height="670" rx="18" stroke="black" stroke-width="4"/>
</svg>
