<svg width="532" height="690" viewBox="0 0 532 690" fill="none" xmlns="http://www.w3.org/2000/svg">
<rect x="21" y="2" width="509" height="670" rx="18" stroke="black" stroke-width="4"/>
<path d="M301.746 110.051H274.996C274.536 110.051 274.16 110.427 274.16 110.887V115.902C274.16 116.362 274.536 116.738 274.996 116.738H301.746C302.205 116.738 302.581 116.362 302.581 115.902V110.887C302.581 110.427 302.205 110.051 301.746 110.051ZM287.744 124.262H274.996C274.536 124.262 274.16 124.638 274.16 125.098V130.113C274.16 130.573 274.536 130.949 274.996 130.949H287.744C288.203 130.949 288.579 130.573 288.579 130.113V125.098C288.579 124.638 288.203 124.262 287.744 124.262ZM252.875 100.699H248.35C247.702 100.699 247.18 101.221 247.18 101.869V127.783C247.18 128.159 247.357 128.504 247.66 128.724L263.219 140.071C263.742 140.448 264.473 140.343 264.849 139.821L267.535 136.153V136.142C267.911 135.62 267.796 134.889 267.274 134.512L254.034 124.941V101.869C254.045 101.221 253.512 100.699 252.875 100.699Z" fill="#FFCC2A"/>
<path d="M287.095 137.417H281.056C280.471 137.417 279.917 137.72 279.603 138.222C278.276 140.322 276.73 142.266 274.953 144.042C271.892 147.104 268.329 149.507 264.368 151.179C260.262 152.913 255.904 153.791 251.411 153.791C246.908 153.791 242.55 152.913 238.454 151.179C234.494 149.507 230.931 147.104 227.869 144.042C224.808 140.98 222.404 137.417 220.732 133.457C218.998 129.361 218.12 125.004 218.12 120.5C218.12 115.996 218.998 111.649 220.732 107.543C222.404 103.583 224.808 100.02 227.869 96.9579C230.931 93.8963 234.494 91.493 238.454 89.8211C242.55 88.0865 246.918 87.2088 251.411 87.2088C255.915 87.2088 260.272 88.0865 264.368 89.8211C268.329 91.493 271.892 93.8963 274.953 96.9579C276.73 98.7343 278.276 100.678 279.603 102.778C279.917 103.28 280.471 103.583 281.056 103.583H287.095C287.816 103.583 288.276 102.83 287.952 102.193C281.139 88.6403 267.325 79.8316 251.902 79.654C229.322 79.3719 210.565 97.8565 210.524 120.416C210.482 143.018 228.799 161.356 251.401 161.356C267.022 161.356 281.066 152.516 287.952 138.807C288.276 138.17 287.806 137.417 287.095 137.417Z" fill="#FFCC2A"/>
<rect x="2" y="18" width="509" height="670" rx="18" stroke="black" stroke-width="4"/>
<path d="M152.623 269H144.973V247.46H152.623C159.463 247.46 163.603 251.84 163.603 258.11C163.603 264.38 159.313 269 152.623 269ZM149.533 251.39V265.07H152.383C156.673 265.07 158.923 262.58 158.923 258.11C158.923 253.82 156.673 251.39 152.383 251.39H149.533ZM175.316 269V267.02C174.266 268.52 172.676 269.3 170.486 269.3C167.156 269.3 164.936 267.35 164.936 264.35C164.936 261.23 167.456 259.55 172.136 259.55C173.036 259.55 173.816 259.61 174.806 259.73V258.77C174.806 256.97 173.786 255.92 172.046 255.92C170.246 255.92 169.166 256.97 169.016 258.77H165.266C165.506 255.08 168.176 252.68 172.046 252.68C176.246 252.68 178.706 254.99 178.706 258.92V269H175.316ZM168.866 264.23C168.866 265.58 169.826 266.42 171.386 266.42C173.516 266.42 174.806 265.25 174.806 263.39V262.25C173.816 262.1 173.126 262.04 172.406 262.04C170.036 262.04 168.866 262.79 168.866 264.23ZM186.496 249.26C186.496 250.67 185.356 251.72 183.706 251.72C182.086 251.72 180.946 250.67 180.946 249.26C180.946 247.79 182.086 246.74 183.706 246.74C185.356 246.74 186.496 247.79 186.496 249.26ZM185.836 269H181.666V252.98H185.836V269ZM193.113 269H188.913V247.46H193.113V269ZM210.649 252.98L202.849 274.79H198.319L200.599 268.82L194.299 252.98H198.799L202.819 263.96L206.479 252.98H210.649ZM227.59 269.45C221.38 269.45 216.58 264.65 216.58 258.2C216.58 251.75 221.38 247.01 227.59 247.01C233.83 247.01 238.66 251.75 238.66 258.2C238.66 264.65 233.83 269.45 227.59 269.45ZM227.59 265.37C231.55 265.37 233.95 262.16 233.95 258.2C233.95 254.24 231.55 251.09 227.59 251.09C223.66 251.09 221.26 254.24 221.26 258.2C221.26 262.16 223.66 265.37 227.59 265.37ZM256.802 260.99C256.802 265.73 254.012 269.3 249.692 269.3C247.802 269.3 246.182 268.49 244.982 266.93V274.79H240.812V252.98H244.652V255.32C245.882 253.61 247.652 252.68 249.692 252.68C254.012 252.68 256.802 256.28 256.802 260.99ZM252.512 260.99C252.512 257.99 250.802 256.37 248.762 256.37C246.722 256.37 245.012 257.96 245.012 260.99C245.012 264.02 246.722 265.58 248.762 265.58C250.802 265.58 252.512 264.05 252.512 260.99ZM265.8 269.27C261 269.27 257.79 265.94 257.79 260.93C257.79 256.16 261.12 252.68 265.74 252.68C270.81 252.68 274.17 256.79 273.42 262.01H262.05C262.32 264.62 263.58 266.06 265.71 266.06C267.54 266.06 268.77 265.16 269.25 263.57H273.39C272.49 267.2 269.7 269.27 265.8 269.27ZM265.65 255.74C263.7 255.74 262.47 257 262.11 259.37H269.01C268.89 257.15 267.63 255.74 265.65 255.74ZM279.749 261.23V269H275.579V252.98H279.419V256.07C280.589 254.03 283.079 252.8 285.659 252.8V257.12C282.119 256.85 279.749 257.69 279.749 261.23ZM296.732 269V267.02C295.682 268.52 294.092 269.3 291.902 269.3C288.572 269.3 286.352 267.35 286.352 264.35C286.352 261.23 288.872 259.55 293.552 259.55C294.452 259.55 295.232 259.61 296.222 259.73V258.77C296.222 256.97 295.202 255.92 293.462 255.92C291.662 255.92 290.582 256.97 290.432 258.77H286.682C286.922 255.08 289.592 252.68 293.462 252.68C297.662 252.68 300.122 254.99 300.122 258.92V269H296.732ZM290.282 264.23C290.282 265.58 291.242 266.42 292.802 266.42C294.932 266.42 296.222 265.25 296.222 263.39V262.25C295.232 262.1 294.542 262.04 293.822 262.04C291.452 262.04 290.282 262.79 290.282 264.23ZM312.807 264.95V268.58C311.787 269.09 310.827 269.3 309.597 269.3C306.297 269.3 304.227 267.41 304.227 263.81V256.55H300.987V252.98H304.227V248.24H308.367V252.98H312.957V256.55H308.367V262.85C308.367 264.71 309.207 265.46 310.707 265.46C311.487 265.46 312.207 265.28 312.807 264.95ZM319.699 249.26C319.699 250.67 318.559 251.72 316.909 251.72C315.289 251.72 314.149 250.67 314.149 249.26C314.149 247.79 315.289 246.74 316.909 246.74C318.559 246.74 319.699 247.79 319.699 249.26ZM319.039 269H314.869V252.98H319.039V269ZM329.197 269.3C324.547 269.3 321.067 265.64 321.067 260.99C321.067 256.31 324.547 252.68 329.197 252.68C333.847 252.68 337.327 256.31 337.327 260.99C337.327 265.64 333.847 269.3 329.197 269.3ZM329.197 265.61C331.267 265.61 333.037 263.96 333.037 260.99C333.037 258.02 331.267 256.4 329.197 256.4C327.127 256.4 325.357 258.02 325.357 260.99C325.357 263.96 327.127 265.61 329.197 265.61ZM343.524 260.27V269H339.354V252.98H343.194V255.26C344.364 253.67 346.014 252.68 348.114 252.68C351.324 252.68 353.544 254.78 353.544 258.65V269H349.404V260.06C349.404 257.69 348.474 256.37 346.584 256.37C344.934 256.37 343.524 257.69 343.524 260.27ZM366.043 269V267.02C364.993 268.52 363.403 269.3 361.213 269.3C357.883 269.3 355.663 267.35 355.663 264.35C355.663 261.23 358.183 259.55 362.863 259.55C363.763 259.55 364.543 259.61 365.533 259.73V258.77C365.533 256.97 364.513 255.92 362.773 255.92C360.973 255.92 359.893 256.97 359.743 258.77H355.993C356.233 255.08 358.903 252.68 362.773 252.68C366.973 252.68 369.433 254.99 369.433 258.92V269H366.043ZM359.593 264.23C359.593 265.58 360.553 266.42 362.113 266.42C364.243 266.42 365.533 265.25 365.533 263.39V262.25C364.543 262.1 363.853 262.04 363.133 262.04C360.763 262.04 359.593 262.79 359.593 264.23ZM376.593 269H372.393V247.46H376.593V269ZM212.967 329H208.407V311.57H201.627V307.46H219.777V311.57H212.967V329ZM226.773 309.26C226.773 310.67 225.633 311.72 223.983 311.72C222.363 311.72 221.223 310.67 221.223 309.26C221.223 307.79 222.363 306.74 223.983 306.74C225.633 306.74 226.773 307.79 226.773 309.26ZM226.113 329H221.943V312.98H226.113V329ZM233.36 329H229.19V312.98H233.03V315.26C234.2 313.64 235.7 312.68 237.83 312.68C240.02 312.68 241.7 313.7 242.51 315.53C243.77 313.76 245.39 312.68 247.79 312.68C251.03 312.68 253.22 314.81 253.22 318.65V329H249.08V319.97C249.08 317.72 248.12 316.37 246.29 316.37C244.64 316.37 243.29 317.66 243.29 320.06V329H239.15V319.97C239.15 317.72 238.19 316.37 236.36 316.37C234.68 316.37 233.36 317.66 233.36 320.06V329ZM263.114 329.27C258.314 329.27 255.104 325.94 255.104 320.93C255.104 316.16 258.434 312.68 263.054 312.68C268.124 312.68 271.484 316.79 270.734 322.01H259.364C259.634 324.62 260.894 326.06 263.024 326.06C264.854 326.06 266.084 325.16 266.564 323.57H270.704C269.804 327.2 267.014 329.27 263.114 329.27ZM262.964 315.74C261.014 315.74 259.784 317 259.424 319.37H266.324C266.204 317.15 264.944 315.74 262.964 315.74ZM277.093 329H272.893V307.46H277.093V329ZM285.029 309.26C285.029 310.67 283.889 311.72 282.239 311.72C280.619 311.72 279.479 310.67 279.479 309.26C279.479 307.79 280.619 306.74 282.239 306.74C283.889 306.74 285.029 307.79 285.029 309.26ZM284.369 329H280.199V312.98H284.369V329ZM291.616 320.27V329H287.446V312.98H291.286V315.26C292.456 313.67 294.106 312.68 296.206 312.68C299.416 312.68 301.636 314.78 301.636 318.65V329H297.496V320.06C297.496 317.69 296.566 316.37 294.676 316.37C293.026 316.37 291.616 317.69 291.616 320.27ZM311.556 329.27C306.756 329.27 303.546 325.94 303.546 320.93C303.546 316.16 306.876 312.68 311.496 312.68C316.566 312.68 319.926 316.79 319.176 322.01H307.806C308.076 324.62 309.336 326.06 311.466 326.06C313.296 326.06 314.526 325.16 315.006 323.57H319.146C318.246 327.2 315.456 329.27 311.556 329.27ZM311.406 315.74C309.456 315.74 308.226 317 307.866 319.37H314.766C314.646 317.15 313.386 315.74 311.406 315.74Z" fill="black"/>
<path d="M166.355 424H155.975V392.38H148.475V383.44H166.355V424ZM202.488 414.76V424H172.308V418.12L184.368 406.48C188.868 402.1 190.968 399.82 190.968 396.46C190.968 393.7 189.288 392.08 186.348 392.08C182.928 392.08 181.008 394.06 181.008 397.48H170.988C170.988 388.9 177.528 382.84 186.888 382.84C195.408 382.84 201.768 388.12 201.768 395.14C201.768 400.24 199.908 403.3 192.408 410.56L188.088 414.76H202.488ZM229.423 407.02V424H219.163V380.92H229.423V395.2C231.763 392.68 234.103 391.12 238.183 391.12C244.543 391.12 249.043 395.38 249.043 403.24V424H238.783V406.66C238.783 402.58 237.343 400.36 234.223 400.36C231.703 400.36 229.423 402.16 229.423 407.02ZM269.678 424.6C260.138 424.6 252.818 417.1 252.818 407.86C252.818 398.62 260.138 391.12 269.678 391.12C279.218 391.12 286.538 398.62 286.538 407.86C286.538 417.1 279.218 424.6 269.678 424.6ZM269.678 415.42C272.858 415.42 275.858 412.9 275.858 407.86C275.858 402.82 272.858 400.36 269.678 400.36C266.498 400.36 263.498 402.82 263.498 407.86C263.498 412.9 266.498 415.42 269.678 415.42ZM309.751 410.14V391.72H320.011V424H310.591V420.52C308.791 422.92 305.371 424.6 301.591 424.6C295.171 424.6 290.311 420.58 290.311 412.06V391.72H300.571V410.14C300.571 413.68 302.311 415.42 305.191 415.42C307.231 415.42 309.751 413.8 309.751 410.14ZM336.331 409.12V424H326.071V391.72H335.491V397.42C337.951 393.64 343.051 391.48 348.211 391.48V402.16C340.951 401.44 336.331 401.98 336.331 409.12ZM380.131 413.02C380.131 420.16 374.851 424.6 365.131 424.6C355.411 424.6 350.131 420.04 349.471 412.6H359.311C359.311 415.3 361.771 417.04 365.311 417.04C367.651 417.04 369.751 416.5 369.751 414.82C369.751 413.38 368.671 412.78 366.451 412.36L360.091 411.22C354.451 410.2 350.851 406.96 350.851 401.74C350.851 395.5 356.131 391.12 364.591 391.12C373.051 391.12 378.931 395.62 379.531 402.82H369.691C369.451 400.24 367.471 398.68 364.651 398.68C362.251 398.68 360.691 399.34 360.691 400.78C360.691 402.16 361.711 402.58 363.751 402.94L370.591 404.2C376.831 405.34 380.131 408.4 380.131 413.02Z" fill="black"/>
<path d="M157.195 475.15L149.695 493H145.225L152.575 476.44H142.945V472.72H157.195V475.15ZM163.931 479.77C163.931 481.42 162.791 482.59 161.141 482.59C159.491 482.59 158.321 481.42 158.321 479.77C158.321 478.09 159.491 476.92 161.141 476.92C162.791 476.92 163.931 478.09 163.931 479.77ZM163.931 490.33C163.931 491.98 162.791 493.15 161.141 493.15C159.491 493.15 158.321 491.98 158.321 490.33C158.321 488.65 159.491 487.48 161.141 487.48C162.791 487.48 163.931 488.65 163.931 490.33ZM165.808 482.89C165.808 476.17 168.628 472.42 173.638 472.42C178.648 472.42 181.498 476.17 181.498 482.89C181.498 489.58 178.708 493.3 173.638 493.3C168.568 493.3 165.808 489.58 165.808 482.89ZM170.098 482.89C170.098 487.24 171.298 489.58 173.638 489.58C175.948 489.58 177.208 487.24 177.208 482.89C177.208 478.51 175.948 476.14 173.638 476.14C171.358 476.14 170.098 478.51 170.098 482.89ZM183.602 482.89C183.602 476.17 186.422 472.42 191.432 472.42C196.442 472.42 199.292 476.17 199.292 482.89C199.292 489.58 196.502 493.3 191.432 493.3C186.362 493.3 183.602 489.58 183.602 482.89ZM187.892 482.89C187.892 487.24 189.092 489.58 191.432 489.58C193.742 489.58 195.002 487.24 195.002 482.89C195.002 478.51 193.742 476.14 191.432 476.14C189.152 476.14 187.892 478.51 187.892 482.89ZM222.272 493L220.652 488.38H212.282L210.632 493H206.042L214.142 471.46H219.122L227.162 493H222.272ZM216.512 476.44L213.572 484.75H219.392L216.512 476.44ZM238.933 493L233.293 478.69V493H229.153V471.46H234.613L240.853 487.42L247.123 471.46H252.583V493H248.443V478.57L242.743 493H238.933ZM269.757 486.61H260.607V482.89H269.757V486.61ZM290.369 475.15L282.869 493H278.399L285.749 476.44H276.119V472.72H290.369V475.15ZM297.106 479.77C297.106 481.42 295.966 482.59 294.316 482.59C292.666 482.59 291.496 481.42 291.496 479.77C291.496 478.09 292.666 476.92 294.316 476.92C295.966 476.92 297.106 478.09 297.106 479.77ZM297.106 490.33C297.106 491.98 295.966 493.15 294.316 493.15C292.666 493.15 291.496 491.98 291.496 490.33C291.496 488.65 292.666 487.48 294.316 487.48C295.966 487.48 297.106 488.65 297.106 490.33ZM298.983 482.89C298.983 476.17 301.803 472.42 306.813 472.42C311.823 472.42 314.673 476.17 314.673 482.89C314.673 489.58 311.883 493.3 306.813 493.3C301.743 493.3 298.983 489.58 298.983 482.89ZM303.273 482.89C303.273 487.24 304.473 489.58 306.813 489.58C309.123 489.58 310.383 487.24 310.383 482.89C310.383 478.51 309.123 476.14 306.813 476.14C304.533 476.14 303.273 478.51 303.273 482.89ZM316.777 482.89C316.777 476.17 319.597 472.42 324.607 472.42C329.617 472.42 332.467 476.17 332.467 482.89C332.467 489.58 329.677 493.3 324.607 493.3C319.537 493.3 316.777 489.58 316.777 482.89ZM321.067 482.89C321.067 487.24 322.267 489.58 324.607 489.58C326.917 489.58 328.177 487.24 328.177 482.89C328.177 478.51 326.917 476.14 324.607 476.14C322.327 476.14 321.067 478.51 321.067 482.89ZM348.997 485.98H345.607V493H341.047V471.46H348.997C354.247 471.46 357.517 473.95 357.517 478.63C357.517 483.31 354.247 485.98 348.997 485.98ZM348.967 475.3H345.607V482.14H348.967C351.547 482.14 352.987 480.79 352.987 478.66C352.987 476.53 351.547 475.3 348.967 475.3ZM369.763 493L364.123 478.69V493H359.983V471.46H365.443L371.683 487.42L377.953 471.46H383.413V493H379.273V478.57L373.573 493H369.763Z" fill="black"/>
</svg>
