<svg width="532" height="690" viewBox="0 0 532 690" fill="none" xmlns="http://www.w3.org/2000/svg">
<rect x="21" y="2" width="509" height="670" rx="18" stroke="black" stroke-width="4"/>
<path d="M218.195 224.98H214.805V232H210.245V210.46H218.195C223.445 210.46 226.715 212.95 226.715 217.63C226.715 222.31 223.445 224.98 218.195 224.98ZM218.165 214.3H214.805V221.14H218.165C220.745 221.14 222.185 219.79 222.185 217.66C222.185 215.53 220.745 214.3 218.165 214.3ZM232.992 224.23V232H228.822V215.98H232.662V219.07C233.832 217.03 236.322 215.8 238.902 215.8V220.12C235.362 219.85 232.992 220.69 232.992 224.23ZM245.264 212.26C245.264 213.67 244.124 214.72 242.474 214.72C240.854 214.72 239.714 213.67 239.714 212.26C239.714 210.79 240.854 209.74 242.474 209.74C244.124 209.74 245.264 210.79 245.264 212.26ZM244.604 232H240.434V215.98H244.604V232ZM254.431 232.3C249.811 232.3 246.631 228.88 246.631 223.99C246.631 219.19 249.931 215.68 254.431 215.68C258.601 215.68 261.691 218.5 262.201 222.82H257.821C257.611 220.69 256.321 219.37 254.431 219.37C252.271 219.37 250.891 221.14 250.891 223.99C250.891 226.87 252.241 228.61 254.431 228.61C256.351 228.61 257.581 227.35 257.821 225.16H262.201C261.721 229.57 258.721 232.3 254.431 232.3ZM269.075 212.26C269.075 213.67 267.935 214.72 266.285 214.72C264.665 214.72 263.525 213.67 263.525 212.26C263.525 210.79 264.665 209.74 266.285 209.74C267.935 209.74 269.075 210.79 269.075 212.26ZM268.415 232H264.245V215.98H268.415V232ZM275.662 223.27V232H271.492V215.98H275.332V218.26C276.502 216.67 278.152 215.68 280.252 215.68C283.462 215.68 285.682 217.78 285.682 221.65V232H281.542V223.06C281.542 220.69 280.612 219.37 278.722 219.37C277.072 219.37 275.662 220.69 275.662 223.27ZM295.451 238.09C291.131 238.09 288.251 235.75 288.071 232.06H292.091C292.271 233.89 293.441 234.85 295.421 234.85C297.731 234.85 298.931 233.62 298.931 231.31V228.97C298.061 230.5 296.411 231.4 294.461 231.4C290.531 231.4 287.591 228.07 287.591 223.54C287.591 218.89 290.351 215.68 294.311 215.68C296.471 215.68 298.091 216.52 299.261 218.17V215.98H303.071V231.25C303.071 235.51 300.191 238.09 295.451 238.09ZM291.761 223.54C291.761 226.15 293.111 227.8 295.271 227.8C297.461 227.8 298.901 226.09 298.901 223.57C298.901 220.96 297.461 219.28 295.271 219.28C293.141 219.28 291.761 220.93 291.761 223.54Z" fill="black"/>
<path d="M129.631 284.056C129.631 287.2 127.327 289 123.751 289H117.439V271.768H123.415C126.895 271.768 128.983 273.376 128.983 276.28C128.983 277.912 127.999 279.304 126.343 280.024C128.479 280.624 129.631 282.088 129.631 284.056ZM123.247 273.88H119.863V279.064H123.247C125.335 279.064 126.463 278.08 126.463 276.472C126.463 274.864 125.335 273.88 123.247 273.88ZM123.583 281.176H119.863V286.888H123.583C125.839 286.888 127.111 285.808 127.111 283.984C127.111 282.232 125.839 281.176 123.583 281.176ZM139.552 289V287.032C138.76 288.448 137.344 289.24 135.472 289.24C132.832 289.24 131.104 287.728 131.104 285.4C131.104 282.904 133.096 281.608 136.888 281.608C137.632 281.608 138.232 281.632 139.264 281.752V280.816C139.264 278.992 138.28 277.96 136.6 277.96C134.824 277.96 133.744 279.016 133.672 280.792H131.464C131.584 277.936 133.624 276.04 136.6 276.04C139.744 276.04 141.568 277.816 141.568 280.84V289H139.552ZM133.408 285.328C133.408 286.648 134.392 287.512 135.952 287.512C137.992 287.512 139.264 286.24 139.264 284.296V283.264C138.328 283.144 137.656 283.12 137.032 283.12C134.608 283.12 133.408 283.84 133.408 285.328ZM154.255 285.208C154.255 287.704 152.311 289.24 148.927 289.24C145.567 289.24 143.575 287.584 143.335 284.848H145.663C145.759 286.432 147.031 287.416 148.975 287.416C150.679 287.416 151.807 286.816 151.807 285.616C151.807 284.56 151.159 284.104 149.575 283.792L147.511 283.408C145.159 282.952 143.839 281.752 143.839 279.832C143.839 277.6 145.783 276.04 148.735 276.04C151.783 276.04 153.847 277.672 154.063 280.288H151.735C151.591 278.752 150.463 277.864 148.759 277.864C147.223 277.864 146.191 278.512 146.191 279.616C146.191 280.648 146.839 281.128 148.375 281.416L150.535 281.824C153.055 282.28 154.255 283.384 154.255 285.208ZM161.5 289.24C157.828 289.24 155.356 286.576 155.356 282.568C155.356 278.8 157.924 276.04 161.428 276.04C165.22 276.04 167.74 279.112 167.308 283.24H157.828C158.02 285.832 159.316 287.344 161.452 287.344C163.252 287.344 164.5 286.36 164.908 284.704H167.308C166.684 287.536 164.5 289.24 161.5 289.24ZM161.38 277.864C159.436 277.864 158.116 279.256 157.852 281.632H164.74C164.62 279.28 163.348 277.864 161.38 277.864ZM177.209 289H174.785V278.344H171.977V276.28H174.785V275.344C174.785 272.896 176.105 271.552 178.505 271.552C179.225 271.552 179.801 271.672 180.281 271.864V273.832C179.897 273.664 179.465 273.616 179.033 273.616C177.881 273.616 177.209 274.144 177.209 275.368V276.28H180.761V278.344H177.209V289ZM189.328 289V287.032C188.536 288.448 187.12 289.24 185.248 289.24C182.608 289.24 180.88 287.728 180.88 285.4C180.88 282.904 182.872 281.608 186.664 281.608C187.408 281.608 188.008 281.632 189.04 281.752V280.816C189.04 278.992 188.056 277.96 186.376 277.96C184.6 277.96 183.52 279.016 183.448 280.792H181.24C181.36 277.936 183.4 276.04 186.376 276.04C189.52 276.04 191.344 277.816 191.344 280.84V289H189.328ZM183.184 285.328C183.184 286.648 184.168 287.512 185.728 287.512C187.768 287.512 189.04 286.24 189.04 284.296V283.264C188.104 283.144 187.432 283.12 186.808 283.12C184.384 283.12 183.184 283.84 183.184 285.328ZM196.376 282.496V289H193.952V276.28H196.208V278.968C197.096 277.216 199.016 276.112 201.104 276.112V278.632C198.368 278.488 196.376 279.688 196.376 282.496ZM207.573 289.24C203.901 289.24 201.429 286.576 201.429 282.568C201.429 278.8 203.997 276.04 207.501 276.04C211.293 276.04 213.813 279.112 213.381 283.24H203.901C204.093 285.832 205.389 287.344 207.525 287.344C209.325 287.344 210.573 286.36 210.981 284.704H213.381C212.757 287.536 210.573 289.24 207.573 289.24ZM207.453 277.864C205.509 277.864 204.189 279.256 203.925 281.632H210.813C210.693 279.28 209.421 277.864 207.453 277.864ZM224.723 289.264C221.243 289.264 218.795 286.528 218.795 282.64C218.795 278.8 221.291 276.04 224.723 276.04C227.867 276.04 230.147 278.128 230.603 281.44H228.059C227.795 279.4 226.523 278.176 224.747 278.176C222.659 278.176 221.291 279.952 221.291 282.64C221.291 285.352 222.659 287.104 224.747 287.104C226.547 287.104 227.795 285.904 228.083 283.84H230.603C230.171 287.2 227.915 289.264 224.723 289.264ZM234.833 281.824V289H232.409V271.768H234.833V278.32C235.673 276.952 236.969 276.04 238.721 276.04C241.337 276.04 243.065 277.72 243.065 280.768V289H240.641V281.584C240.641 279.4 239.681 278.176 237.881 278.176C236.225 278.176 234.833 279.568 234.833 281.824ZM253.354 289V287.032C252.562 288.448 251.146 289.24 249.274 289.24C246.634 289.24 244.906 287.728 244.906 285.4C244.906 282.904 246.898 281.608 250.69 281.608C251.434 281.608 252.034 281.632 253.066 281.752V280.816C253.066 278.992 252.082 277.96 250.402 277.96C248.626 277.96 247.546 279.016 247.474 280.792H245.266C245.386 277.936 247.426 276.04 250.402 276.04C253.546 276.04 255.37 277.816 255.37 280.84V289H253.354ZM247.21 285.328C247.21 286.648 248.194 287.512 249.754 287.512C251.794 287.512 253.066 286.24 253.066 284.296V283.264C252.13 283.144 251.458 283.12 250.834 283.12C248.41 283.12 247.21 283.84 247.21 285.328ZM260.401 282.496V289H257.977V276.28H260.233V278.968C261.121 277.216 263.041 276.112 265.129 276.112V278.632C262.393 278.488 260.401 279.688 260.401 282.496ZM271.502 293.896C268.166 293.896 266.006 292.12 265.862 289.24H268.214C268.358 291.016 269.51 291.976 271.478 291.976C273.662 291.976 274.814 290.8 274.814 288.616V286.312C274.094 287.848 272.654 288.736 270.926 288.736C267.758 288.736 265.502 286.12 265.502 282.376C265.502 278.584 267.662 276.04 270.854 276.04C272.678 276.04 274.118 276.928 274.982 278.536V276.28H277.238V288.568C277.238 291.904 275.102 293.896 271.502 293.896ZM267.95 282.376C267.95 285.016 269.246 286.624 271.358 286.624C273.422 286.624 274.814 284.968 274.814 282.448C274.814 279.808 273.446 278.128 271.358 278.128C269.27 278.128 267.95 279.76 267.95 282.376ZM285.192 289.24C281.52 289.24 279.048 286.576 279.048 282.568C279.048 278.8 281.616 276.04 285.12 276.04C288.912 276.04 291.432 279.112 291 283.24H281.52C281.712 285.832 283.008 287.344 285.144 287.344C286.944 287.344 288.192 286.36 288.6 284.704H291C290.376 287.536 288.192 289.24 285.192 289.24ZM285.072 277.864C283.128 277.864 281.808 279.256 281.544 281.632H288.432C288.312 279.28 287.04 277.864 285.072 277.864ZM311.18 282.64C311.18 286.48 308.972 289.24 305.564 289.24C303.836 289.24 302.372 288.376 301.46 286.84V293.632H299.036V276.28H301.292V278.608C302.204 276.976 303.764 276.04 305.564 276.04C308.948 276.04 311.18 278.8 311.18 282.64ZM308.66 282.64C308.66 279.784 307.148 278.176 305.06 278.176C303.044 278.176 301.46 279.784 301.46 282.64C301.46 285.448 303.02 287.08 305.06 287.08C307.148 287.08 308.66 285.496 308.66 282.64ZM318.236 289.24C314.564 289.24 312.092 286.576 312.092 282.568C312.092 278.8 314.66 276.04 318.164 276.04C321.956 276.04 324.476 279.112 324.044 283.24H314.564C314.756 285.832 316.052 287.344 318.188 287.344C319.988 287.344 321.236 286.36 321.644 284.704H324.044C323.42 287.536 321.236 289.24 318.236 289.24ZM318.116 277.864C316.172 277.864 314.852 279.256 314.588 281.632H321.476C321.356 279.28 320.084 277.864 318.116 277.864ZM328.411 282.496V289H325.987V276.28H328.243V278.968C329.131 277.216 331.051 276.112 333.139 276.112V278.632C330.403 278.488 328.411 279.688 328.411 282.496ZM341.23 282.496V289H338.806V276.28H341.062V278.968C341.95 277.216 343.87 276.112 345.958 276.112V278.632C343.222 278.488 341.23 279.688 341.23 282.496ZM350.194 273.328C350.194 274.24 349.474 274.936 348.442 274.936C347.41 274.936 346.666 274.24 346.666 273.328C346.666 272.392 347.41 271.72 348.442 271.72C349.474 271.72 350.194 272.392 350.194 273.328ZM349.666 289H347.242V276.28H349.666V289ZM351.486 282.64C351.486 278.776 353.694 276.04 357.126 276.04C358.83 276.04 360.318 276.904 361.206 278.464V271.768H363.63V289H361.374V286.72C360.462 288.328 358.926 289.24 357.126 289.24C353.694 289.24 351.486 286.456 351.486 282.64ZM354.006 282.64C354.006 285.472 355.494 287.08 357.606 287.08C359.67 287.08 361.206 285.4 361.206 282.592C361.206 279.736 359.622 278.176 357.606 278.176C355.494 278.176 354.006 279.76 354.006 282.64ZM371.598 289.24C367.926 289.24 365.454 286.576 365.454 282.568C365.454 278.8 368.022 276.04 371.526 276.04C375.318 276.04 377.838 279.112 377.406 283.24H367.926C368.118 285.832 369.414 287.344 371.55 287.344C373.35 287.344 374.598 286.36 375.006 284.704H377.406C376.782 287.536 374.598 289.24 371.598 289.24ZM371.478 277.864C369.534 277.864 368.214 279.256 367.95 281.632H374.838C374.718 279.28 373.446 277.864 371.478 277.864ZM381.773 282.496V289H379.349V276.28H381.605V278.968C382.493 277.216 384.413 276.112 386.501 276.112V278.632C383.765 278.488 381.773 279.688 381.773 282.496ZM391.074 278.104C391.074 279.184 390.33 279.952 389.226 279.952C388.146 279.952 387.378 279.184 387.378 278.104C387.378 277 388.146 276.232 389.226 276.232C390.33 276.232 391.074 277 391.074 278.104ZM391.074 287.272C391.074 288.352 390.33 289.12 389.226 289.12C388.146 289.12 387.378 288.352 387.378 287.272C387.378 286.144 388.146 285.376 389.226 285.376C390.33 285.376 391.074 286.144 391.074 287.272ZM237.339 351.136H234.699V349.12C231.531 348.64 229.515 346.624 229.275 343.624H233.379C233.379 345.04 234.387 345.904 236.067 345.904C237.483 345.904 238.515 345.352 238.515 344.32C238.515 343.624 237.747 343.096 236.955 342.928L234.267 342.352C231.819 341.824 229.923 340.624 229.923 337.72C229.923 335.08 231.867 333.112 234.699 332.632V330.592H237.339V332.632C240.387 333.088 242.475 335.08 242.691 338.032H238.587C238.491 336.712 237.555 335.848 236.163 335.848C234.987 335.848 234.099 336.328 234.099 337.408C234.099 338.104 234.795 338.56 235.611 338.728L238.251 339.28C241.251 339.904 242.931 341.44 242.931 343.792C242.931 346.84 240.795 348.856 237.339 349.192V351.136ZM243.982 340.912C243.982 335.536 246.358 332.536 250.51 332.536C254.662 332.536 257.038 335.536 257.038 340.912C257.038 346.264 254.71 349.24 250.51 349.24C246.31 349.24 243.982 346.264 243.982 340.912ZM248.23 340.912C248.23 343.912 248.998 345.544 250.51 345.544C251.974 345.544 252.79 343.912 252.79 340.912C252.79 337.888 251.974 336.232 250.51 336.232C249.046 336.232 248.23 337.912 248.23 340.912ZM262.749 346.504C262.749 348.04 261.693 349.12 260.157 349.12C258.621 349.12 257.541 348.04 257.541 346.504C257.541 344.944 258.621 343.864 260.157 343.864C261.693 343.864 262.749 344.944 262.749 346.504ZM275.811 345.304V349H263.739V346.648L268.563 341.992C270.363 340.24 271.203 339.328 271.203 337.984C271.203 336.88 270.531 336.232 269.355 336.232C267.987 336.232 267.219 337.024 267.219 338.392H263.211C263.211 334.96 265.827 332.536 269.571 332.536C272.979 332.536 275.523 334.648 275.523 337.456C275.523 339.496 274.779 340.72 271.779 343.624L270.051 345.304H275.811ZM283.626 349H279.474V336.352H276.474V332.776H283.626V349Z" fill="black"/>
<path d="M166.996 563H164.356V545.768H170.788C174.748 545.768 177.124 547.712 177.124 551.144C177.124 553.616 175.564 555.512 172.948 556.136L177.628 563H174.46L170.164 556.52H166.996V563ZM166.996 547.976V554.312H170.62C173.068 554.312 174.46 553.232 174.46 551.144C174.46 549.08 173.068 547.976 170.62 547.976H166.996ZM183.973 563.24C180.301 563.24 177.829 560.576 177.829 556.568C177.829 552.8 180.397 550.04 183.901 550.04C187.693 550.04 190.213 553.112 189.781 557.24H180.301C180.493 559.832 181.789 561.344 183.925 561.344C185.725 561.344 186.973 560.36 187.381 558.704H189.781C189.157 561.536 186.973 563.24 183.973 563.24ZM183.853 551.864C181.909 551.864 180.589 553.256 180.325 555.632H187.213C187.093 553.28 185.821 551.864 183.853 551.864ZM201.886 550.28L197.11 563H194.47L189.694 550.28H192.31L195.838 560.216L199.414 550.28H201.886ZM207.807 563.24C204.135 563.24 201.663 560.576 201.663 556.568C201.663 552.8 204.231 550.04 207.735 550.04C211.527 550.04 214.047 553.112 213.615 557.24H204.135C204.327 559.832 205.623 561.344 207.759 561.344C209.559 561.344 210.807 560.36 211.215 558.704H213.615C212.991 561.536 210.807 563.24 207.807 563.24ZM207.687 551.864C205.743 551.864 204.423 553.256 204.159 555.632H211.047C210.927 553.28 209.655 551.864 207.687 551.864ZM217.983 555.824V563H215.559V550.28H217.815V552.392C218.679 550.976 220.119 550.04 221.871 550.04C224.487 550.04 226.215 551.72 226.215 554.768V563H223.791V555.584C223.791 553.4 222.831 552.176 221.031 552.176C219.375 552.176 217.983 553.568 217.983 555.824ZM236.744 557.768V550.28H239.168V563H236.912V560.984C236.24 562.304 234.752 563.24 233.024 563.24C230.456 563.24 228.68 561.728 228.68 558.464V550.28H231.104V557.984C231.104 560.192 232.208 561.104 233.792 561.104C235.424 561.104 236.744 559.76 236.744 557.768ZM247.133 563.24C243.461 563.24 240.989 560.576 240.989 556.568C240.989 552.8 243.557 550.04 247.061 550.04C250.853 550.04 253.373 553.112 252.941 557.24H243.461C243.653 559.832 244.949 561.344 247.085 561.344C248.885 561.344 250.133 560.36 250.541 558.704H252.941C252.317 561.536 250.133 563.24 247.133 563.24ZM247.013 551.864C245.069 551.864 243.749 553.256 243.485 555.632H250.373C250.253 553.28 248.981 551.864 247.013 551.864ZM265.434 557H262.098V563H259.458V545.768H265.434C269.298 545.768 271.794 547.736 271.794 551.336C271.794 554.96 269.298 557 265.434 557ZM265.41 548H262.098V554.768H265.41C267.738 554.768 269.154 553.496 269.154 551.36C269.154 549.224 267.738 548 265.41 548ZM278.606 563.24C274.934 563.24 272.462 560.576 272.462 556.568C272.462 552.8 275.03 550.04 278.534 550.04C282.326 550.04 284.846 553.112 284.414 557.24H274.934C275.126 559.832 276.422 561.344 278.558 561.344C280.358 561.344 281.606 560.36 282.014 558.704H284.414C283.79 561.536 281.606 563.24 278.606 563.24ZM278.486 551.864C276.542 551.864 275.222 553.256 274.958 555.632H281.846C281.726 553.28 280.454 551.864 278.486 551.864ZM288.782 556.496V563H286.358V550.28H288.614V552.968C289.502 551.216 291.422 550.112 293.51 550.112V552.632C290.774 552.488 288.782 553.688 288.782 556.496ZM302.008 563H299.368V545.768H305.8C309.76 545.768 312.136 547.712 312.136 551.144C312.136 553.616 310.576 555.512 307.96 556.136L312.64 563H309.472L305.176 556.52H302.008V563ZM302.008 547.976V554.312H305.632C308.08 554.312 309.472 553.232 309.472 551.144C309.472 549.08 308.08 547.976 305.632 547.976H302.008ZM317.315 547.328C317.315 548.24 316.595 548.936 315.563 548.936C314.531 548.936 313.787 548.24 313.787 547.328C313.787 546.392 314.531 545.72 315.563 545.72C316.595 545.72 317.315 546.392 317.315 547.328ZM316.787 563H314.363V550.28H316.787V563ZM318.606 556.64C318.606 552.776 320.814 550.04 324.246 550.04C325.95 550.04 327.438 550.904 328.326 552.464V545.768H330.75V563H328.494V560.72C327.582 562.328 326.046 563.24 324.246 563.24C320.814 563.24 318.606 560.456 318.606 556.64ZM321.126 556.64C321.126 559.472 322.614 561.08 324.726 561.08C326.79 561.08 328.326 559.4 328.326 556.592C328.326 553.736 326.742 552.176 324.726 552.176C322.614 552.176 321.126 553.76 321.126 556.64ZM338.718 563.24C335.046 563.24 332.574 560.576 332.574 556.568C332.574 552.8 335.142 550.04 338.646 550.04C342.438 550.04 344.958 553.112 344.526 557.24H335.046C335.238 559.832 336.534 561.344 338.67 561.344C340.47 561.344 341.718 560.36 342.126 558.704H344.526C343.902 561.536 341.718 563.24 338.718 563.24ZM338.598 551.864C336.654 551.864 335.334 553.256 335.07 555.632H341.958C341.838 553.28 340.566 551.864 338.598 551.864ZM234.362 625.136H231.722V623.12C228.554 622.64 226.538 620.624 226.298 617.624H230.402C230.402 619.04 231.41 619.904 233.09 619.904C234.506 619.904 235.538 619.352 235.538 618.32C235.538 617.624 234.77 617.096 233.978 616.928L231.29 616.352C228.842 615.824 226.946 614.624 226.946 611.72C226.946 609.08 228.89 607.112 231.722 606.632V604.592H234.362V606.632C237.41 607.088 239.498 609.08 239.714 612.032H235.61C235.514 610.712 234.578 609.848 233.186 609.848C232.01 609.848 231.122 610.328 231.122 611.408C231.122 612.104 231.818 612.56 232.634 612.728L235.274 613.28C238.274 613.904 239.954 615.44 239.954 617.792C239.954 620.84 237.818 622.856 234.362 623.192V625.136ZM241.006 614.912C241.006 609.536 243.382 606.536 247.534 606.536C251.686 606.536 254.062 609.536 254.062 614.912C254.062 620.264 251.734 623.24 247.534 623.24C243.334 623.24 241.006 620.264 241.006 614.912ZM245.254 614.912C245.254 617.912 246.022 619.544 247.534 619.544C248.998 619.544 249.814 617.912 249.814 614.912C249.814 611.888 248.998 610.232 247.534 610.232C246.07 610.232 245.254 611.912 245.254 614.912ZM259.772 620.504C259.772 622.04 258.716 623.12 257.18 623.12C255.644 623.12 254.564 622.04 254.564 620.504C254.564 618.944 255.644 617.864 257.18 617.864C258.716 617.864 259.772 618.944 259.772 620.504ZM273.314 618.176C273.314 621.08 270.746 623.216 266.834 623.216C262.85 623.216 260.282 621.08 260.282 618.176C260.282 616.544 261.314 615.344 262.778 614.576C261.602 613.832 260.786 612.8 260.786 611.336C260.786 608.624 263.138 606.536 266.834 606.536C270.458 606.536 272.834 608.624 272.834 611.336C272.834 612.8 272.018 613.832 270.842 614.576C272.282 615.344 273.314 616.544 273.314 618.176ZM265.034 611.48C265.034 612.416 265.682 613.016 266.834 613.016C267.938 613.016 268.586 612.416 268.586 611.48C268.586 610.424 267.938 609.776 266.834 609.776C265.682 609.776 265.034 610.424 265.034 611.48ZM264.554 618.08C264.554 619.256 265.346 619.976 266.834 619.976C268.25 619.976 269.09 619.256 269.09 618.08C269.09 617.024 268.25 616.256 266.834 616.256C265.346 616.256 264.554 617.024 264.554 618.08ZM287.742 620.12H285.414V623H281.31V620.12H273.678V617.024L282.054 606.776H285.414V616.52H287.742V620.12ZM278.142 616.52H281.31V612.536L278.142 616.52Z" fill="black"/>
<path d="M110.267 426H106.931V432H104.291V414.768H110.267C114.131 414.768 116.627 416.736 116.627 420.336C116.627 423.96 114.131 426 110.267 426ZM110.243 417H106.931V423.768H110.243C112.571 423.768 113.987 422.496 113.987 420.36C113.987 418.224 112.571 417 110.243 417ZM125.911 432V430.032C125.119 431.448 123.703 432.24 121.831 432.24C119.191 432.24 117.463 430.728 117.463 428.4C117.463 425.904 119.455 424.608 123.247 424.608C123.991 424.608 124.591 424.632 125.623 424.752V423.816C125.623 421.992 124.639 420.96 122.959 420.96C121.183 420.96 120.103 422.016 120.031 423.792H117.823C117.943 420.936 119.983 419.04 122.959 419.04C126.103 419.04 127.927 420.816 127.927 423.84V432H125.911ZM119.767 428.328C119.767 429.648 120.751 430.512 122.311 430.512C124.351 430.512 125.623 429.24 125.623 427.296V426.264C124.687 426.144 124.015 426.12 123.391 426.12C120.967 426.12 119.767 426.84 119.767 428.328ZM140.614 428.208C140.614 430.704 138.67 432.24 135.286 432.24C131.926 432.24 129.934 430.584 129.694 427.848H132.022C132.118 429.432 133.39 430.416 135.334 430.416C137.038 430.416 138.166 429.816 138.166 428.616C138.166 427.56 137.518 427.104 135.934 426.792L133.87 426.408C131.518 425.952 130.198 424.752 130.198 422.832C130.198 420.6 132.142 419.04 135.094 419.04C138.142 419.04 140.206 420.672 140.422 423.288H138.094C137.95 421.752 136.822 420.864 135.118 420.864C133.582 420.864 132.55 421.512 132.55 422.616C132.55 423.648 133.198 424.128 134.734 424.416L136.894 424.824C139.414 425.28 140.614 426.384 140.614 428.208ZM152.707 428.208C152.707 430.704 150.763 432.24 147.379 432.24C144.019 432.24 142.027 430.584 141.787 427.848H144.115C144.211 429.432 145.483 430.416 147.427 430.416C149.131 430.416 150.259 429.816 150.259 428.616C150.259 427.56 149.611 427.104 148.027 426.792L145.963 426.408C143.611 425.952 142.291 424.752 142.291 422.832C142.291 420.6 144.235 419.04 147.187 419.04C150.235 419.04 152.299 420.672 152.515 423.288H150.187C150.043 421.752 148.915 420.864 147.211 420.864C145.675 420.864 144.643 421.512 144.643 422.616C144.643 423.648 145.291 424.128 146.827 424.416L148.987 424.824C151.507 425.28 152.707 426.384 152.707 428.208ZM159.952 432.24C156.28 432.24 153.808 429.576 153.808 425.568C153.808 421.8 156.376 419.04 159.88 419.04C163.672 419.04 166.192 422.112 165.76 426.24H156.28C156.472 428.832 157.768 430.344 159.904 430.344C161.704 430.344 162.952 429.36 163.36 427.704H165.76C165.136 430.536 162.952 432.24 159.952 432.24ZM159.832 420.864C157.888 420.864 156.568 422.256 156.304 424.632H163.192C163.072 422.28 161.8 420.864 159.832 420.864ZM170.127 424.824V432H167.703V419.28H169.959V421.392C170.823 419.976 172.263 419.04 174.015 419.04C176.631 419.04 178.359 420.72 178.359 423.768V432H175.935V424.584C175.935 422.4 174.975 421.176 173.175 421.176C171.519 421.176 170.127 422.568 170.127 424.824ZM186.033 436.896C182.697 436.896 180.537 435.12 180.393 432.24H182.745C182.889 434.016 184.041 434.976 186.009 434.976C188.193 434.976 189.345 433.8 189.345 431.616V429.312C188.625 430.848 187.185 431.736 185.457 431.736C182.289 431.736 180.033 429.12 180.033 425.376C180.033 421.584 182.193 419.04 185.385 419.04C187.209 419.04 188.649 419.928 189.513 421.536V419.28H191.769V431.568C191.769 434.904 189.633 436.896 186.033 436.896ZM182.481 425.376C182.481 428.016 183.777 429.624 185.889 429.624C187.953 429.624 189.345 427.968 189.345 425.448C189.345 422.808 187.977 421.128 185.889 421.128C183.801 421.128 182.481 422.76 182.481 425.376ZM199.723 432.24C196.051 432.24 193.579 429.576 193.579 425.568C193.579 421.8 196.147 419.04 199.651 419.04C203.443 419.04 205.963 422.112 205.531 426.24H196.051C196.243 428.832 197.539 430.344 199.675 430.344C201.475 430.344 202.723 429.36 203.131 427.704H205.531C204.907 430.536 202.723 432.24 199.723 432.24ZM199.603 420.864C197.659 420.864 196.339 422.256 196.075 424.632H202.963C202.843 422.28 201.571 420.864 199.603 420.864ZM209.898 425.496V432H207.474V419.28H209.73V421.968C210.618 420.216 212.538 419.112 214.626 419.112V421.632C211.89 421.488 209.898 422.688 209.898 425.496ZM227.997 432.36C223.197 432.36 219.477 428.448 219.477 423.36C219.477 418.296 223.197 414.408 227.997 414.408C232.317 414.408 235.773 417.288 236.421 421.536H233.613C233.133 418.752 230.877 416.784 228.021 416.784C224.613 416.784 222.213 419.544 222.213 423.36C222.213 427.224 224.613 429.984 228.021 429.984C230.877 429.984 233.133 427.992 233.613 425.208H236.421C235.773 429.48 232.317 432.36 227.997 432.36ZM246.043 432V430.032C245.251 431.448 243.835 432.24 241.963 432.24C239.323 432.24 237.595 430.728 237.595 428.4C237.595 425.904 239.587 424.608 243.379 424.608C244.123 424.608 244.723 424.632 245.755 424.752V423.816C245.755 421.992 244.771 420.96 243.091 420.96C241.315 420.96 240.235 422.016 240.163 423.792H237.955C238.075 420.936 240.115 419.04 243.091 419.04C246.235 419.04 248.059 420.816 248.059 423.84V432H246.043ZM239.899 428.328C239.899 429.648 240.883 430.512 242.443 430.512C244.483 430.512 245.755 429.24 245.755 427.296V426.264C244.819 426.144 244.147 426.12 243.523 426.12C241.099 426.12 239.899 426.84 239.899 428.328ZM262.81 425.64C262.81 429.48 260.602 432.24 257.194 432.24C255.466 432.24 254.002 431.376 253.09 429.84V436.632H250.666V419.28H252.922V421.608C253.834 419.976 255.394 419.04 257.194 419.04C260.578 419.04 262.81 421.8 262.81 425.64ZM260.29 425.64C260.29 422.784 258.778 421.176 256.69 421.176C254.674 421.176 253.09 422.784 253.09 425.64C253.09 428.448 254.65 430.08 256.69 430.08C258.778 430.08 260.29 428.496 260.29 425.64ZM272.338 432V430.032C271.546 431.448 270.13 432.24 268.258 432.24C265.618 432.24 263.89 430.728 263.89 428.4C263.89 425.904 265.882 424.608 269.674 424.608C270.418 424.608 271.018 424.632 272.05 424.752V423.816C272.05 421.992 271.066 420.96 269.386 420.96C267.61 420.96 266.53 422.016 266.458 423.792H264.25C264.37 420.936 266.41 419.04 269.386 419.04C272.53 419.04 274.354 420.816 274.354 423.84V432H272.338ZM266.194 428.328C266.194 429.648 267.178 430.512 268.738 430.512C270.778 430.512 272.05 429.24 272.05 427.296V426.264C271.114 426.144 270.442 426.12 269.818 426.12C267.394 426.12 266.194 426.84 266.194 428.328ZM281.977 432.264C278.497 432.264 276.049 429.528 276.049 425.64C276.049 421.8 278.545 419.04 281.977 419.04C285.121 419.04 287.401 421.128 287.857 424.44H285.313C285.049 422.4 283.777 421.176 282.001 421.176C279.913 421.176 278.545 422.952 278.545 425.64C278.545 428.352 279.913 430.104 282.001 430.104C283.801 430.104 285.049 428.904 285.337 426.84H287.857C287.425 430.2 285.169 432.264 281.977 432.264ZM292.615 416.328C292.615 417.24 291.895 417.936 290.863 417.936C289.831 417.936 289.087 417.24 289.087 416.328C289.087 415.392 289.831 414.72 290.863 414.72C291.895 414.72 292.615 415.392 292.615 416.328ZM292.087 432H289.663V419.28H292.087V432ZM301.994 429.648V431.784C301.25 432.12 300.602 432.24 299.834 432.24C297.482 432.24 295.85 430.968 295.85 428.16V421.344H293.042V419.28H295.85V415.512H298.274V419.28H302.114V421.344H298.274V427.608C298.274 429.36 299.114 429.984 300.41 429.984C300.986 429.984 301.49 429.888 301.994 429.648ZM314.354 419.28L307.994 436.632H305.354L307.178 431.832L302.162 419.28H304.778L308.474 428.976L311.906 419.28H314.354ZM325.991 426H322.655V432H320.015V414.768H325.991C329.855 414.768 332.351 416.736 332.351 420.336C332.351 423.96 329.855 426 325.991 426ZM325.967 417H322.655V423.768H325.967C328.295 423.768 329.711 422.496 329.711 420.36C329.711 418.224 328.295 417 325.967 417ZM339.164 432.24C335.492 432.24 333.02 429.576 333.02 425.568C333.02 421.8 335.588 419.04 339.092 419.04C342.884 419.04 345.404 422.112 344.972 426.24H335.492C335.684 428.832 336.98 430.344 339.116 430.344C340.916 430.344 342.164 429.36 342.572 427.704H344.972C344.348 430.536 342.164 432.24 339.164 432.24ZM339.044 420.864C337.1 420.864 335.78 422.256 335.516 424.632H342.404C342.284 422.28 341.012 420.864 339.044 420.864ZM349.339 425.496V432H346.915V419.28H349.171V421.968C350.059 420.216 351.979 419.112 354.067 419.112V421.632C351.331 421.488 349.339 422.688 349.339 425.496ZM362.566 432H359.926V414.768H366.358C370.318 414.768 372.694 416.712 372.694 420.144C372.694 422.616 371.134 424.512 368.518 425.136L373.198 432H370.03L365.734 425.52H362.566V432ZM362.566 416.976V423.312H366.19C368.638 423.312 370.03 422.232 370.03 420.144C370.03 418.08 368.638 416.976 366.19 416.976H362.566ZM377.872 416.328C377.872 417.24 377.152 417.936 376.12 417.936C375.088 417.936 374.344 417.24 374.344 416.328C374.344 415.392 375.088 414.72 376.12 414.72C377.152 414.72 377.872 415.392 377.872 416.328ZM377.344 432H374.92V419.28H377.344V432ZM379.164 425.64C379.164 421.776 381.372 419.04 384.804 419.04C386.508 419.04 387.996 419.904 388.884 421.464V414.768H391.308V432H389.052V429.72C388.14 431.328 386.604 432.24 384.804 432.24C381.372 432.24 379.164 429.456 379.164 425.64ZM381.684 425.64C381.684 428.472 383.172 430.08 385.284 430.08C387.348 430.08 388.884 428.4 388.884 425.592C388.884 422.736 387.3 421.176 385.284 421.176C383.172 421.176 381.684 422.76 381.684 425.64ZM399.275 432.24C395.603 432.24 393.131 429.576 393.131 425.568C393.131 421.8 395.699 419.04 399.203 419.04C402.995 419.04 405.515 422.112 405.083 426.24H395.603C395.795 428.832 397.091 430.344 399.227 430.344C401.027 430.344 402.275 429.36 402.683 427.704H405.083C404.459 430.536 402.275 432.24 399.275 432.24ZM399.155 420.864C397.211 420.864 395.891 422.256 395.627 424.632H402.515C402.395 422.28 401.123 420.864 399.155 420.864ZM410.315 421.104C410.315 422.184 409.571 422.952 408.467 422.952C407.387 422.952 406.619 422.184 406.619 421.104C406.619 420 407.387 419.232 408.467 419.232C409.571 419.232 410.315 420 410.315 421.104ZM410.315 430.272C410.315 431.352 409.571 432.12 408.467 432.12C407.387 432.12 406.619 431.352 406.619 430.272C406.619 429.144 407.387 428.376 408.467 428.376C409.571 428.376 410.315 429.144 410.315 430.272ZM263.908 489.12H261.58V492H257.476V489.12H249.844V486.024L258.22 475.776H261.58V485.52H263.908V489.12ZM254.308 485.52H257.476V481.536L254.308 485.52Z" fill="black"/>
<path fill-rule="evenodd" clip-rule="evenodd" d="M257.028 86.5181C254.444 86.859 251.254 87.5912 246.718 88.6391L241.546 89.8343C237.716 90.718 235.073 91.3324 233.057 92.0226C231.109 92.6917 230.006 93.3482 229.177 94.1815C228.344 95.0105 227.688 96.1131 227.018 98.0615C226.328 100.077 225.714 102.716 224.83 106.55L223.635 111.718C222.587 116.258 221.855 119.448 221.514 122.032C221.177 124.549 221.257 126.253 221.703 127.802C222.145 129.35 222.983 130.836 224.599 132.793C226.261 134.805 228.571 137.123 231.866 140.418L239.568 148.12C245.287 153.839 249.356 157.9 252.858 160.568C256.283 163.185 258.791 164.166 261.337 164.166C263.888 164.166 266.392 163.185 269.821 160.568C273.318 157.9 277.392 153.835 283.111 148.115C288.835 142.392 292.896 138.323 295.568 134.826C298.177 131.396 299.162 128.892 299.162 126.342C299.162 123.796 298.181 121.292 295.564 117.862C292.896 114.36 288.83 110.287 283.111 104.568L275.41 96.8664C272.119 93.5755 269.8 91.2651 267.793 89.6028C265.832 87.9868 264.346 87.1493 262.798 86.7075C261.249 86.2614 259.545 86.1856 257.032 86.5181H257.028ZM256.203 80.2603C259.221 79.8605 261.868 79.8731 264.536 80.639C267.208 81.405 269.459 82.7979 271.808 84.7338C274.08 86.6107 276.605 89.1357 279.766 92.2961L287.745 100.275C293.258 105.788 297.626 110.156 300.58 114.036C303.627 118.022 305.474 121.86 305.474 126.342C305.474 130.828 303.627 134.666 300.584 138.651C297.626 142.531 293.262 146.899 287.745 152.412L287.408 152.749C281.895 158.262 277.527 162.63 273.647 165.584C269.661 168.631 265.819 170.479 261.337 170.479C256.855 170.479 253.017 168.631 249.028 165.588C245.152 162.63 240.784 158.266 235.267 152.749L227.296 144.766C224.14 141.609 221.611 139.08 219.734 136.812C217.798 134.459 216.405 132.208 215.639 129.54C214.873 126.868 214.861 124.221 215.26 121.203C215.643 118.283 216.451 114.798 217.453 110.447L218.715 104.963C219.557 101.331 220.239 98.3687 221.051 96.0079C221.901 93.5376 222.966 91.4629 224.716 89.7122C226.467 87.9615 228.546 86.8926 231.012 86.051C233.373 85.2345 236.336 84.5528 239.967 83.7153L245.451 82.4528C249.802 81.4428 253.287 80.6433 256.207 80.2561L256.203 80.2603ZM249.672 108.385C248.685 107.398 247.347 106.844 245.952 106.844C244.556 106.844 243.218 107.398 242.232 108.385C241.245 109.371 240.691 110.709 240.691 112.105C240.691 113.5 241.245 114.838 242.232 115.825C242.72 116.313 243.3 116.701 243.938 116.965C244.577 117.23 245.261 117.366 245.952 117.366C246.643 117.366 247.327 117.23 247.965 116.965C248.603 116.701 249.183 116.313 249.672 115.825C250.16 115.336 250.548 114.756 250.812 114.118C251.077 113.48 251.213 112.796 251.213 112.105C251.213 111.414 251.077 110.73 250.812 110.091C250.548 109.453 250.16 108.873 249.672 108.385ZM237.766 103.924C239.937 101.753 242.881 100.533 245.95 100.533C249.02 100.532 251.964 101.751 254.135 103.922C256.306 106.092 257.525 109.036 257.526 112.105C257.526 115.175 256.307 118.119 254.137 120.29C251.966 122.461 249.022 123.68 245.952 123.68C242.882 123.68 239.937 122.461 237.766 120.29C235.596 118.119 234.376 115.175 234.376 112.105C234.376 109.035 235.596 106.095 237.766 103.924ZM264.405 125.689C263.432 125.726 262.513 126.145 261.847 126.855C260.214 128.488 260.643 130.116 261.102 130.575C261.565 131.034 263.193 131.459 264.822 129.83C268.121 126.531 273.819 125.437 277.468 129.085C280.3 131.918 280.279 135.983 278.583 139.202C279 139.809 279.192 140.542 279.126 141.275C279.06 142.009 278.739 142.695 278.22 143.217C277.7 143.739 277.015 144.063 276.282 144.133C275.549 144.203 274.815 144.014 274.206 143.6C272.318 144.635 270.127 144.981 268.012 144.576C267.606 144.493 267.22 144.33 266.876 144.098C266.533 143.865 266.239 143.567 266.011 143.221C265.782 142.875 265.625 142.487 265.546 142.08C265.468 141.673 265.471 141.254 265.554 140.848C265.638 140.441 265.8 140.056 266.033 139.712C266.265 139.369 266.563 139.075 266.909 138.847C267.256 138.618 267.643 138.461 268.051 138.382C268.458 138.304 268.876 138.307 269.283 138.39C270.028 138.546 271.231 138.306 272.262 137.271C273.891 135.638 273.466 134.009 273.007 133.55C272.544 133.092 270.916 132.667 269.287 134.295C265.988 137.595 260.289 138.689 256.641 135.04C253.809 132.208 253.83 128.143 255.526 124.923C255.108 124.317 254.916 123.583 254.983 122.85C255.049 122.117 255.37 121.43 255.889 120.908C256.408 120.386 257.094 120.063 257.827 119.993C258.559 119.923 259.294 120.111 259.902 120.526C261.333 119.764 262.903 119.36 264.468 119.377C265.305 119.385 266.105 119.725 266.692 120.322C267.278 120.919 267.603 121.725 267.595 122.562C267.587 123.4 267.247 124.199 266.65 124.786C266.052 125.372 265.242 125.697 264.405 125.689Z" fill="#FFCC2A"/>
<rect x="2" y="18" width="509" height="670" rx="18" stroke="black" stroke-width="4"/>
</svg>
