<svg width="1310" height="925" viewBox="0 0 1310 925" fill="none" xmlns="http://www.w3.org/2000/svg">
<path d="M759.374 211.194L689.333 36.2994C688.694 34.703 687.148 33.6564 685.428 33.6564H318.054M665.978 297.018L549.398 186.267C548.616 185.525 547.579 185.111 546.5 185.111H338.668M665.978 428.279H338.668M665.978 583.098L549.426 707.142C548.631 707.989 547.521 708.469 546.36 708.469H338.668" stroke="black" stroke-width="2.52424"/>
<path d="M80.9099 47H72.3275V22.8346H80.9099C88.5836 22.8346 93.2282 27.7485 93.2282 34.7827C93.2282 41.8169 88.4153 47 80.9099 47ZM77.4433 27.2436V42.591H80.6406C85.4535 42.591 87.9778 39.7975 87.9778 34.7827C87.9778 29.9698 85.4535 27.2436 80.6406 27.2436H77.4433ZM100.572 38.283V47H95.8942V29.0274H100.202V32.4941C101.515 30.2054 104.308 28.8255 107.203 28.8255V33.672C103.231 33.3691 100.572 34.3115 100.572 38.283ZM114.569 24.854C114.569 26.4359 113.29 27.6139 111.439 27.6139C109.621 27.6139 108.342 26.4359 108.342 24.854C108.342 23.2049 109.621 22.0269 111.439 22.0269C113.29 22.0269 114.569 23.2049 114.569 24.854ZM113.828 47H109.15V29.0274H113.828V47ZM133.697 29.0274L127.101 47H121.985L115.354 29.0274H120.403L124.677 41.6823L128.985 29.0274H133.697ZM142.451 47.3029C137.066 47.3029 133.465 43.567 133.465 37.9464C133.465 32.595 137.2 28.6909 142.384 28.6909C148.072 28.6909 151.841 33.3018 151 39.158H138.244C138.547 42.0862 139.96 43.7017 142.35 43.7017C144.403 43.7017 145.783 42.692 146.321 40.9082H150.966C149.956 44.9806 146.826 47.3029 142.451 47.3029ZM142.283 32.1238C140.095 32.1238 138.715 33.5374 138.311 36.1963H146.052C145.918 33.7057 144.504 32.1238 142.283 32.1238ZM158.328 38.283V47H153.65V29.0274H157.958V32.4941C159.271 30.2054 162.064 28.8255 164.959 28.8255V33.672C160.987 33.3691 158.328 34.3115 158.328 38.283ZM188.59 53.4957H183.912C181.152 49.2886 179.637 43.7353 179.637 38.1483C179.637 32.595 181.152 27.0417 183.912 22.8346H188.59C185.796 27.0417 184.45 32.595 184.45 38.1483C184.45 43.7353 185.796 49.2886 188.59 53.4957ZM197.812 47.3366C192.966 47.3366 189.297 44.3075 189.162 40.0668H193.841C194.11 42.0525 195.658 43.1632 197.778 43.1632C200.538 43.1632 201.582 41.413 201.582 39.5619C201.582 37.7781 200.404 35.9607 197.644 35.9607C195.826 35.9607 194.48 36.7011 193.773 38.2493L189.936 37.004L191.922 24.2482H205.082V28.4216H195.322L194.615 33.0662C195.759 32.3258 197.072 31.9892 198.418 31.9892C203.837 31.9892 206.428 35.7251 206.428 39.5619C206.428 43.4661 203.534 47.3366 197.812 47.3366ZM215.076 38.182C210.835 38.182 207.705 34.9846 207.705 31.1141C207.705 27.21 210.835 24.0463 215.076 24.0463C219.283 24.0463 222.447 27.21 222.447 31.1141C222.447 34.9846 219.283 38.182 215.076 38.182ZM220.663 47H216.927L229.851 24.2482H233.587L220.663 47ZM215.076 34.8837C216.994 34.8837 218.61 33.6047 218.61 31.1141C218.61 28.6236 216.994 27.3446 215.076 27.3446C213.191 27.3446 211.508 28.6236 211.508 31.1141C211.508 33.6047 213.191 34.8837 215.076 34.8837ZM236.01 47.3029C231.769 47.3029 228.639 44.1055 228.639 40.235C228.639 36.3309 231.769 33.1672 236.01 33.1672C240.251 33.1672 243.381 36.3309 243.381 40.235C243.381 44.1055 240.251 47.3029 236.01 47.3029ZM236.01 43.9709C237.929 43.9709 239.578 42.7256 239.578 40.235C239.578 37.7108 237.929 36.4655 236.01 36.4655C234.125 36.4655 232.443 37.7108 232.443 40.235C232.443 42.7256 234.125 43.9709 236.01 43.9709ZM248.431 53.4957H243.787C246.546 49.2886 247.893 43.7353 247.893 38.1483C247.893 32.595 246.546 27.0417 243.787 22.8346H248.431C251.191 27.0417 252.705 32.595 252.705 38.1483C252.705 43.7353 251.191 49.2886 248.431 53.4957Z" fill="#020202"/>
<path d="M85.6134 89.313L81.7765 75.1015L77.9145 89.313H75.0621L70.3418 71.189H73.0679L76.5514 85.148L80.363 71.189H83.2406L87.0017 85.1732L90.4852 71.189H93.2113L88.491 89.313H85.6134ZM98.1123 72.8297C98.1123 73.7889 97.3551 74.521 96.2696 74.521C95.1842 74.521 94.4017 73.7889 94.4017 72.8297C94.4017 71.8453 95.1842 71.1385 96.2696 71.1385C97.3551 71.1385 98.1123 71.8453 98.1123 72.8297ZM97.557 89.313H95.0075V75.9345H97.557V89.313ZM108.161 86.8392V89.0858C107.378 89.4392 106.697 89.5654 105.889 89.5654C103.415 89.5654 101.699 88.2276 101.699 85.2742V78.1054H98.7454V75.9345H101.699V71.9715H104.248V75.9345H108.287V78.1054H104.248V84.6936C104.248 86.5363 105.132 87.1926 106.495 87.1926C107.101 87.1926 107.631 87.0917 108.161 86.8392ZM112.787 81.7655V89.313H110.237V71.189H112.787V78.0801C113.67 76.6413 115.033 75.6821 116.876 75.6821C119.627 75.6821 121.445 77.4491 121.445 80.6549V89.313H118.895V81.5131C118.895 79.216 117.886 77.9287 115.992 77.9287C114.251 77.9287 112.787 79.3927 112.787 81.7655ZM134.744 89.5654C130.957 89.5654 128.181 86.5868 128.181 82.6238C128.181 78.6607 130.957 75.6821 134.744 75.6821C138.53 75.6821 141.307 78.6607 141.307 82.6238C141.307 86.5868 138.53 89.5654 134.744 89.5654ZM134.744 87.3188C136.94 87.3188 138.681 85.5519 138.681 82.6238C138.681 79.6956 136.94 77.9539 134.744 77.9539C132.548 77.9539 130.831 79.6956 130.831 82.6238C130.831 85.5519 132.548 87.3188 134.744 87.3188ZM156.195 82.6238C156.195 86.6625 153.873 89.5654 150.289 89.5654C148.471 89.5654 146.931 88.6567 145.972 87.0412V94.1848H143.423V75.9345H145.796V78.383C146.755 76.6666 148.395 75.6821 150.289 75.6821C153.848 75.6821 156.195 78.585 156.195 82.6238ZM153.545 82.6238C153.545 79.6199 151.955 77.9287 149.759 77.9287C147.638 77.9287 145.972 79.6199 145.972 82.6238C145.972 85.5771 147.613 87.2936 149.759 87.2936C151.955 87.2936 153.545 85.6276 153.545 82.6238ZM165.647 86.8392V89.0858C164.865 89.4392 164.183 89.5654 163.376 89.5654C160.902 89.5654 159.185 88.2276 159.185 85.2742V78.1054H156.232V75.9345H159.185V71.9715H161.735V75.9345H165.774V78.1054H161.735V84.6936C161.735 86.5363 162.618 87.1926 163.981 87.1926C164.587 87.1926 165.117 87.0917 165.647 86.8392ZM170.829 72.8297C170.829 73.7889 170.071 74.521 168.986 74.521C167.901 74.521 167.118 73.7889 167.118 72.8297C167.118 71.8453 167.901 71.1385 168.986 71.1385C170.071 71.1385 170.829 71.8453 170.829 72.8297ZM170.273 89.313H167.724V75.9345H170.273V89.313ZM178.933 89.5654C175.147 89.5654 172.37 86.5868 172.37 82.6238C172.37 78.6607 175.147 75.6821 178.933 75.6821C182.72 75.6821 185.497 78.6607 185.497 82.6238C185.497 86.5868 182.72 89.5654 178.933 89.5654ZM178.933 87.3188C181.13 87.3188 182.871 85.5519 182.871 82.6238C182.871 79.6956 181.13 77.9539 178.933 77.9539C176.737 77.9539 175.021 79.6956 175.021 82.6238C175.021 85.5519 176.737 87.3188 178.933 87.3188ZM190.162 81.7655V89.313H187.613V75.9345H189.985V78.1559C190.894 76.6666 192.409 75.6821 194.251 75.6821C197.003 75.6821 198.82 77.4491 198.82 80.6549V89.313H196.271V81.5131C196.271 79.216 195.261 77.9287 193.368 77.9287C191.626 77.9287 190.162 79.3927 190.162 81.7655ZM214.063 86.8392V89.0858C213.28 89.4392 212.599 89.5654 211.791 89.5654C209.317 89.5654 207.601 88.2276 207.601 85.2742V78.1054H204.647V75.9345H207.601V71.9715H210.15V75.9345H214.189V78.1054H210.15V84.6936C210.15 86.5363 211.034 87.1926 212.397 87.1926C213.002 87.1926 213.533 87.0917 214.063 86.8392ZM221.373 89.5654C217.587 89.5654 214.81 86.5868 214.81 82.6238C214.81 78.6607 217.587 75.6821 221.373 75.6821C225.159 75.6821 227.936 78.6607 227.936 82.6238C227.936 86.5868 225.159 89.5654 221.373 89.5654ZM221.373 87.3188C223.569 87.3188 225.311 85.5519 225.311 82.6238C225.311 79.6956 223.569 77.9539 221.373 77.9539C219.177 77.9539 217.461 79.6956 217.461 82.6238C217.461 85.5519 219.177 87.3188 221.373 87.3188ZM233.885 82.6238C233.885 78.5597 236.208 75.6821 239.817 75.6821C241.609 75.6821 243.175 76.5908 244.108 78.2316V71.189H246.658V89.313H244.285V86.915C243.326 88.6062 241.71 89.5654 239.817 89.5654C236.208 89.5654 233.885 86.6373 233.885 82.6238ZM236.536 82.6238C236.536 85.6024 238.101 87.2936 240.322 87.2936C242.493 87.2936 244.108 85.5266 244.108 82.5733C244.108 79.5694 242.442 77.9287 240.322 77.9287C238.101 77.9287 236.536 79.5947 236.536 82.6238ZM252.269 82.4723V89.313H249.719V75.9345H252.092V78.7617C253.026 76.919 255.045 75.7578 257.241 75.7578V78.4083C254.364 78.2568 252.269 79.519 252.269 82.4723ZM261.881 72.8297C261.881 73.7889 261.123 74.521 260.038 74.521C258.953 74.521 258.17 73.7889 258.17 72.8297C258.17 71.8453 258.953 71.1385 260.038 71.1385C261.123 71.1385 261.881 71.8453 261.881 72.8297ZM261.325 89.313H258.776V75.9345H261.325V89.313ZM275.488 75.9345L270.465 89.313H267.688L262.665 75.9345H265.417L269.127 86.3849L272.888 75.9345H275.488ZM281.9 89.5654C278.037 89.5654 275.438 86.7635 275.438 82.548C275.438 78.585 278.138 75.6821 281.824 75.6821C285.812 75.6821 288.463 78.9131 288.008 83.2548H278.037C278.239 85.981 279.603 87.5713 281.849 87.5713C283.742 87.5713 285.055 86.5363 285.484 84.7946H288.008C287.352 87.7732 285.055 89.5654 281.9 89.5654ZM281.773 77.6005C279.729 77.6005 278.34 79.0646 278.063 81.5636H285.307C285.181 79.0898 283.843 77.6005 281.773 77.6005ZM302.576 86.8392V89.0858C301.793 89.4392 301.112 89.5654 300.304 89.5654C297.83 89.5654 296.114 88.2276 296.114 85.2742V78.1054H293.16V75.9345H296.114V71.9715H298.663V75.9345H302.702V78.1054H298.663V84.6936C298.663 86.5363 299.547 87.1926 300.91 87.1926C301.516 87.1926 302.046 87.0917 302.576 86.8392ZM309.886 89.5654C306.1 89.5654 303.323 86.5868 303.323 82.6238C303.323 78.6607 306.1 75.6821 309.886 75.6821C313.673 75.6821 316.449 78.6607 316.449 82.6238C316.449 86.5868 313.673 89.5654 309.886 89.5654ZM309.886 87.3188C312.082 87.3188 313.824 85.5519 313.824 82.6238C313.824 79.6956 312.082 77.9539 309.886 77.9539C307.69 77.9539 305.974 79.6956 305.974 82.6238C305.974 85.5519 307.69 87.3188 309.886 87.3188ZM328.961 89.5654C325.175 89.5654 322.398 86.5868 322.398 82.6238C322.398 78.6607 325.175 75.6821 328.961 75.6821C332.748 75.6821 335.524 78.6607 335.524 82.6238C335.524 86.5868 332.748 89.5654 328.961 89.5654ZM328.961 87.3188C331.157 87.3188 332.899 85.5519 332.899 82.6238C332.899 79.6956 331.157 77.9539 328.961 77.9539C326.765 77.9539 325.049 79.6956 325.049 82.6238C325.049 85.5519 326.765 87.3188 328.961 87.3188ZM348.401 89.313L345.372 79.3675L342.317 89.313H339.743L335.881 75.9345H338.38L341.081 85.6781L344.11 75.9345H346.634L349.612 85.7033L352.313 75.9345H354.838L350.95 89.313H348.401ZM358.984 81.7655V89.313H356.434V75.9345H358.807V78.1559C359.716 76.6666 361.23 75.6821 363.073 75.6821C365.825 75.6821 367.642 77.4491 367.642 80.6549V89.313H365.093V81.5131C365.093 79.216 364.083 77.9287 362.19 77.9287C360.448 77.9287 358.984 79.3927 358.984 81.7655Z" fill="#020202"/>
<path d="M112.749 188.425C112.749 193.035 109.047 196.266 102.989 196.266C96.897 196.266 93.0938 193.002 92.7236 187.886H97.9067C98.0413 190.545 99.7578 192.261 102.888 192.261C105.479 192.261 107.33 191.117 107.33 189.165C107.33 187.65 106.152 186.742 104.099 186.338L100.128 185.564C96.4594 184.857 93.6323 182.871 93.6323 178.866C93.6323 174.558 97.4355 171.462 102.652 171.462C108.071 171.462 112.042 174.625 112.379 179.674H107.196C107.028 177.15 105.277 175.433 102.72 175.433C100.229 175.433 98.8154 176.847 98.8154 178.53C98.8154 180.179 100.33 180.885 102.08 181.222L106.22 182.063C110.461 182.905 112.749 184.857 112.749 188.425ZM123.207 196.266C118.024 196.266 114.457 192.43 114.457 186.944C114.457 181.559 118.159 177.621 123.207 177.621C127.886 177.621 131.352 180.785 131.925 185.631H127.011C126.775 183.241 125.328 181.761 123.207 181.761C120.784 181.761 119.236 183.746 119.236 186.944C119.236 190.175 120.751 192.127 123.207 192.127C125.362 192.127 126.741 190.713 127.011 188.256H131.925C131.386 193.204 128.02 196.266 123.207 196.266ZM139.123 186.136V195.93H134.445V171.765H139.123V180.313C140.369 178.664 141.917 177.621 144.273 177.621C147.874 177.621 150.365 179.977 150.365 184.318V195.93H145.72V185.9C145.72 183.241 144.677 181.761 142.556 181.761C140.705 181.761 139.123 183.241 139.123 186.136ZM161.856 196.266C156.639 196.266 152.735 192.16 152.735 186.944C152.735 181.693 156.639 177.621 161.856 177.621C167.073 177.621 170.977 181.693 170.977 186.944C170.977 192.16 167.073 196.266 161.856 196.266ZM161.856 192.127C164.178 192.127 166.164 190.276 166.164 186.944C166.164 183.612 164.178 181.794 161.856 181.794C159.534 181.794 157.548 183.612 157.548 186.944C157.548 190.276 159.534 192.127 161.856 192.127ZM181.422 196.266C176.205 196.266 172.301 192.16 172.301 186.944C172.301 181.693 176.205 177.621 181.422 177.621C186.639 177.621 190.543 181.693 190.543 186.944C190.543 192.16 186.639 196.266 181.422 196.266ZM181.422 192.127C183.744 192.127 185.73 190.276 185.73 186.944C185.73 183.612 183.744 181.794 181.422 181.794C179.1 181.794 177.114 183.612 177.114 186.944C177.114 190.276 179.1 192.127 181.422 192.127ZM197.758 195.93H193.046V171.765H197.758V195.93ZM216.603 202.426H211.925C209.165 198.219 207.65 192.665 207.65 187.078C207.65 181.525 209.165 175.972 211.925 171.765H216.603C213.809 175.972 212.463 181.525 212.463 187.078C212.463 192.665 213.809 198.219 216.603 202.426ZM226.285 195.93H221.606V177.217H217.298V173.178H226.285V195.93ZM237.931 196.266C233.084 196.266 229.416 193.237 229.281 188.997H233.959C234.228 190.982 235.777 192.093 237.897 192.093C240.657 192.093 241.7 190.343 241.7 188.492C241.7 186.708 240.522 184.891 237.762 184.891C235.945 184.891 234.599 185.631 233.892 187.179L230.055 185.934L232.041 173.178H245.2V177.352H235.44L234.733 181.996C235.878 181.256 237.19 180.919 238.536 180.919C243.955 180.919 246.547 184.655 246.547 188.492C246.547 192.396 243.652 196.266 237.931 196.266ZM255.194 187.112C250.954 187.112 247.824 183.915 247.824 180.044C247.824 176.14 250.954 172.976 255.194 172.976C259.401 172.976 262.565 176.14 262.565 180.044C262.565 183.915 259.401 187.112 255.194 187.112ZM260.781 195.93H257.045L269.97 173.178H273.705L260.781 195.93ZM255.194 183.814C257.113 183.814 258.728 182.535 258.728 180.044C258.728 177.553 257.113 176.275 255.194 176.275C253.31 176.275 251.627 177.553 251.627 180.044C251.627 182.535 253.31 183.814 255.194 183.814ZM276.129 196.233C271.888 196.233 268.758 193.035 268.758 189.165C268.758 185.261 271.888 182.097 276.129 182.097C280.369 182.097 283.499 185.261 283.499 189.165C283.499 193.035 280.369 196.233 276.129 196.233ZM276.129 192.901C278.047 192.901 279.696 191.656 279.696 189.165C279.696 186.641 278.047 185.395 276.129 185.395C274.244 185.395 272.561 186.641 272.561 189.165C272.561 191.656 274.244 192.901 276.129 192.901ZM288.55 202.426H283.905C286.665 198.219 288.011 192.665 288.011 187.078C288.011 181.525 286.665 175.972 283.905 171.765H288.55C291.309 175.972 292.824 181.525 292.824 187.078C292.824 192.665 291.309 198.219 288.55 202.426Z" fill="#020202"/>
<path d="M88.3147 438.761C81.3478 438.761 75.9627 433.376 75.9627 426.14C75.9627 418.904 81.3478 413.586 88.3147 413.586C95.3152 413.586 100.734 418.904 100.734 426.14C100.734 433.376 95.3152 438.761 88.3147 438.761ZM88.3147 434.184C92.7573 434.184 95.4499 430.583 95.4499 426.14C95.4499 421.698 92.7573 418.164 88.3147 418.164C83.9057 418.164 81.2132 421.698 81.2132 426.14C81.2132 430.583 83.9057 434.184 88.3147 434.184ZM121.314 429.27C121.314 434.588 118.184 438.593 113.338 438.593C111.217 438.593 109.4 437.684 108.054 435.934V444.752H103.375V420.284H107.683V422.909C109.063 420.991 111.049 419.947 113.338 419.947C118.184 419.947 121.314 423.986 121.314 429.27ZM116.501 429.27C116.501 425.905 114.583 424.087 112.294 424.087C110.006 424.087 108.087 425.871 108.087 429.27C108.087 432.67 110.006 434.42 112.294 434.42C114.583 434.42 116.501 432.703 116.501 429.27ZM131.637 438.56C126.252 438.56 122.651 434.824 122.651 429.203C122.651 423.852 126.387 419.947 131.57 419.947C137.258 419.947 141.027 424.558 140.186 430.415H127.43C127.733 433.343 129.147 434.958 131.536 434.958C133.589 434.958 134.969 433.949 135.508 432.165H140.152C139.143 436.237 136.013 438.56 131.637 438.56ZM131.469 423.38C129.281 423.38 127.901 424.794 127.498 427.453H135.239C135.104 424.962 133.69 423.38 131.469 423.38ZM147.515 429.54V438.257H142.837V420.284H147.145V423.751C148.457 421.462 151.251 420.082 154.145 420.082V424.929C150.174 424.626 147.515 425.568 147.515 429.54ZM166.795 438.257V436.035C165.617 437.718 163.833 438.593 161.376 438.593C157.641 438.593 155.15 436.405 155.15 433.04C155.15 429.54 157.977 427.655 163.228 427.655C164.237 427.655 165.112 427.722 166.223 427.857V426.78C166.223 424.76 165.079 423.582 163.127 423.582C161.107 423.582 159.896 424.76 159.727 426.78H155.52C155.789 422.64 158.785 419.947 163.127 419.947C167.838 419.947 170.598 422.539 170.598 426.948V438.257H166.795ZM159.559 432.905C159.559 434.42 160.636 435.362 162.386 435.362C164.776 435.362 166.223 434.05 166.223 431.963V430.684C165.112 430.516 164.338 430.448 163.53 430.448C160.872 430.448 159.559 431.29 159.559 432.905ZM185.058 433.713V437.785C183.914 438.358 182.837 438.593 181.457 438.593C177.754 438.593 175.432 436.473 175.432 432.434V424.289H171.797V420.284H175.432V414.966H180.077V420.284H185.226V424.289H180.077V431.357C180.077 433.444 181.019 434.285 182.702 434.285C183.577 434.285 184.385 434.083 185.058 433.713ZM193.018 416.111C193.018 417.692 191.74 418.87 189.888 418.87C188.071 418.87 186.792 417.692 186.792 416.111C186.792 414.461 188.071 413.283 189.888 413.283C191.74 413.283 193.018 414.461 193.018 416.111ZM192.278 438.257H187.6V420.284H192.278V438.257ZM203.901 438.593C198.684 438.593 194.78 434.487 194.78 429.27C194.78 424.02 198.684 419.947 203.901 419.947C209.118 419.947 213.022 424.02 213.022 429.27C213.022 434.487 209.118 438.593 203.901 438.593ZM203.901 434.453C206.223 434.453 208.209 432.602 208.209 429.27C208.209 425.938 206.223 424.121 203.901 424.121C201.579 424.121 199.593 425.938 199.593 429.27C199.593 432.602 201.579 434.453 203.901 434.453ZM220.203 428.463V438.257H215.525V420.284H219.833V422.842C221.145 421.058 222.996 419.947 225.352 419.947C228.954 419.947 231.444 422.303 231.444 426.645V438.257H226.8V428.227C226.8 425.568 225.756 424.087 223.636 424.087C221.785 424.087 220.203 425.568 220.203 428.463ZM245.695 438.257V436.035C244.517 437.718 242.733 438.593 240.276 438.593C236.541 438.593 234.05 436.405 234.05 433.04C234.05 429.54 236.877 427.655 242.128 427.655C243.137 427.655 244.012 427.722 245.123 427.857V426.78C245.123 424.76 243.979 423.582 242.027 423.582C240.007 423.582 238.796 424.76 238.627 426.78H234.42C234.689 422.64 237.685 419.947 242.027 419.947C246.738 419.947 249.498 422.539 249.498 426.948V438.257H245.695ZM238.459 432.905C238.459 434.42 239.536 435.362 241.286 435.362C243.676 435.362 245.123 434.05 245.123 431.963V430.684C244.012 430.516 243.238 430.448 242.43 430.448C239.772 430.448 238.459 431.29 238.459 432.905ZM257.759 438.257H253.047V414.091H257.759V438.257ZM93.6324 500.814V505.257H77.3763V481.091H93.3968V485.534H82.4921V490.616H92.3871V495.025H82.4921V500.814H93.6324ZM100.237 505.257H95.0203L101.078 496.102L95.4242 487.284H100.809L104.478 493.477L108.18 487.284H113.094L107.507 496.27L113.531 505.257H108.214L104.175 498.795L100.237 505.257ZM133.452 496.27C133.452 501.588 130.322 505.593 125.476 505.593C123.355 505.593 121.538 504.684 120.192 502.934V511.752H115.514V487.284H119.822V489.909C121.201 487.991 123.187 486.947 125.476 486.947C130.322 486.947 133.452 490.986 133.452 496.27ZM128.64 496.27C128.64 492.905 126.721 491.087 124.432 491.087C122.144 491.087 120.225 492.871 120.225 496.27C120.225 499.67 122.144 501.42 124.432 501.42C126.721 501.42 128.64 499.703 128.64 496.27ZM143.776 505.56C138.391 505.56 134.789 501.824 134.789 496.203C134.789 490.852 138.525 486.947 143.708 486.947C149.396 486.947 153.166 491.558 152.324 497.415H139.569C139.871 500.343 141.285 501.958 143.675 501.958C145.728 501.958 147.108 500.949 147.646 499.165H152.291C151.281 503.237 148.151 505.56 143.776 505.56ZM143.607 490.38C141.42 490.38 140.04 491.794 139.636 494.453H147.377C147.242 491.962 145.829 490.38 143.607 490.38ZM159.653 495.463V505.257H154.975V487.284H159.283V489.842C160.596 488.058 162.447 486.947 164.803 486.947C168.404 486.947 170.894 489.303 170.894 493.645V505.257H166.25V495.227C166.25 492.568 165.206 491.087 163.086 491.087C161.235 491.087 159.653 492.568 159.653 495.463ZM189.622 499.501C189.622 503.271 186.761 505.593 181.645 505.593C176.529 505.593 173.669 503.136 173.298 499.131H177.775C177.808 500.982 179.39 502.16 181.712 502.16C183.53 502.16 184.91 501.588 184.91 500.309C184.91 499.165 184.169 498.694 182.453 498.357L179.222 497.751C175.991 497.179 174.039 495.395 174.039 492.602C174.039 489.27 176.9 486.947 181.376 486.947C185.886 486.947 188.982 489.337 189.319 493.208H184.842C184.674 491.457 183.362 490.38 181.376 490.38C179.659 490.38 178.515 491.02 178.515 492.164C178.515 493.241 179.256 493.679 180.871 493.982L184.338 494.621C187.838 495.294 189.622 496.91 189.622 499.501ZM200.141 505.56C194.756 505.56 191.155 501.824 191.155 496.203C191.155 490.852 194.891 486.947 200.074 486.947C205.762 486.947 209.531 491.558 208.69 497.415H195.934C196.237 500.343 197.65 501.958 200.04 501.958C202.093 501.958 203.473 500.949 204.012 499.165H208.656C207.646 503.237 204.516 505.56 200.141 505.56ZM199.973 490.38C197.785 490.38 196.405 491.794 196.001 494.453H203.742C203.608 491.962 202.194 490.38 199.973 490.38ZM226.519 499.501C226.519 503.271 223.659 505.593 218.543 505.593C213.427 505.593 210.566 503.136 210.196 499.131H214.672C214.706 500.982 216.288 502.16 218.61 502.16C220.428 502.16 221.807 501.588 221.807 500.309C221.807 499.165 221.067 498.694 219.351 498.357L216.12 497.751C212.889 497.179 210.936 495.395 210.936 492.602C210.936 489.27 213.797 486.947 218.274 486.947C222.784 486.947 225.88 489.337 226.216 493.208H221.74C221.572 491.457 220.259 490.38 218.274 490.38C216.557 490.38 215.413 491.02 215.413 492.164C215.413 493.241 216.153 493.679 217.769 493.982L221.235 494.621C224.736 495.294 226.519 496.91 226.519 499.501ZM244.364 511.752H239.685C236.925 507.545 235.411 501.992 235.411 496.405C235.411 490.852 236.925 485.298 239.685 481.091H244.364C241.57 485.298 240.224 490.852 240.224 496.405C240.224 501.992 241.57 507.545 244.364 511.752ZM254.045 505.257H249.367V486.544H245.059V482.505H254.045V505.257ZM265.691 505.593C260.845 505.593 257.176 502.564 257.041 498.323H261.72C261.989 500.309 263.537 501.42 265.658 501.42C268.417 501.42 269.461 499.67 269.461 497.819C269.461 496.035 268.283 494.217 265.523 494.217C263.705 494.217 262.359 494.958 261.652 496.506L257.816 495.261L259.801 482.505H272.961V486.678H263.201L262.494 491.323C263.638 490.582 264.951 490.246 266.297 490.246C271.716 490.246 274.307 493.982 274.307 497.819C274.307 501.723 271.413 505.593 265.691 505.593ZM282.955 496.439C278.714 496.439 275.584 493.241 275.584 489.371C275.584 485.467 278.714 482.303 282.955 482.303C287.162 482.303 290.326 485.467 290.326 489.371C290.326 493.241 287.162 496.439 282.955 496.439ZM288.542 505.257H284.806L297.73 482.505H301.466L288.542 505.257ZM282.955 493.14C284.873 493.14 286.489 491.861 286.489 489.371C286.489 486.88 284.873 485.601 282.955 485.601C281.07 485.601 279.387 486.88 279.387 489.371C279.387 491.861 281.07 493.14 282.955 493.14ZM303.889 505.56C299.649 505.56 296.519 502.362 296.519 498.492C296.519 494.587 299.649 491.424 303.889 491.424C308.13 491.424 311.26 494.587 311.26 498.492C311.26 502.362 308.13 505.56 303.889 505.56ZM303.889 502.228C305.808 502.228 307.457 500.982 307.457 498.492C307.457 495.967 305.808 494.722 303.889 494.722C302.005 494.722 300.322 495.967 300.322 498.492C300.322 500.982 302.005 502.228 303.889 502.228ZM316.31 511.752H311.666C314.425 507.545 315.772 501.992 315.772 496.405C315.772 490.852 314.425 485.298 311.666 481.091H316.31C319.07 485.298 320.585 490.852 320.585 496.405C320.585 501.992 319.07 507.545 316.31 511.752Z" fill="#020202"/>
<path d="M20.5641 714.711C20.5641 719.187 17.2658 721.812 11.9481 721.812H2.49058V697.647H11.5778C16.66 697.647 19.79 699.936 19.79 704.075C19.79 706.297 18.5447 708.08 16.3907 709.191C19.0832 710.133 20.5641 712.052 20.5641 714.711ZM11.174 701.686H7.13517V707.306H11.174C13.6645 707.306 14.9435 706.229 14.9435 704.479C14.9435 702.763 13.6645 701.686 11.174 701.686ZM11.5442 711.379H7.13517V717.773H11.5442C14.304 717.773 15.7512 716.562 15.7512 714.509C15.7512 712.59 14.304 711.379 11.5442 711.379ZM34.3334 714.24V703.84H38.978V721.812H34.7036V719.456C33.7276 721.038 31.7418 722.149 29.4532 722.149C25.852 722.149 23.2268 719.961 23.2268 715.283V703.84H27.905V714.374C27.905 716.898 29.1503 718.009 31.0351 718.009C32.7179 718.009 34.3334 716.663 34.3334 714.24ZM50.3385 728.645C45.4919 728.645 42.2609 726.019 42.059 721.88H46.5689C46.7709 723.933 48.0835 725.01 50.3048 725.01C52.8964 725.01 54.2426 723.63 54.2426 721.038V718.413C53.2666 720.129 51.4155 721.139 49.2278 721.139C44.8188 721.139 41.5205 717.403 41.5205 712.321C41.5205 707.104 44.6169 703.503 49.0595 703.503C51.4828 703.503 53.3002 704.446 54.6128 706.297V703.84H58.8872V720.971C58.8872 725.75 55.6562 728.645 50.3385 728.645ZM46.1987 712.321C46.1987 715.249 47.7133 717.1 50.1365 717.1C52.5934 717.1 54.209 715.182 54.209 712.355C54.209 709.427 52.5934 707.542 50.1365 707.542C47.7469 707.542 46.1987 709.393 46.1987 712.321ZM73.3291 721.812V719.591C72.1511 721.274 70.3673 722.149 67.9104 722.149C64.1745 722.149 61.6839 719.961 61.6839 716.596C61.6839 713.095 64.5111 711.21 69.7615 711.21C70.7712 711.21 71.6463 711.278 72.7569 711.412V710.335C72.7569 708.316 71.6126 707.138 69.6605 707.138C67.6411 707.138 66.4295 708.316 66.2612 710.335H62.0542C62.3234 706.196 65.3188 703.503 69.6605 703.503C74.3724 703.503 77.1323 706.095 77.1323 710.504V721.812H73.3291ZM66.0929 716.461C66.0929 717.975 67.17 718.918 68.9201 718.918C71.3097 718.918 72.7569 717.605 72.7569 715.518V714.24C71.6463 714.071 70.8722 714.004 70.0644 714.004C67.4055 714.004 66.0929 714.845 66.0929 716.461ZM98.4391 721.812H93.3233V702.258H85.717V697.647H106.079V702.258H98.4391V721.812ZM111.739 713.095V721.812H107.061V703.84H111.369V707.306C112.681 705.018 115.475 703.638 118.369 703.638V708.484C114.398 708.181 111.739 709.124 111.739 713.095ZM131.019 721.812V719.591C129.841 721.274 128.058 722.149 125.601 722.149C121.865 722.149 119.374 719.961 119.374 716.596C119.374 713.095 122.201 711.21 127.452 711.21C128.461 711.21 129.336 711.278 130.447 711.412V710.335C130.447 708.316 129.303 707.138 127.351 707.138C125.331 707.138 124.12 708.316 123.951 710.335H119.744C120.014 706.196 123.009 703.503 127.351 703.503C132.063 703.503 134.823 706.095 134.823 710.504V721.812H131.019ZM123.783 716.461C123.783 717.975 124.86 718.918 126.61 718.918C129 718.918 130.447 717.605 130.447 715.518V714.24C129.336 714.071 128.562 714.004 127.755 714.004C125.096 714.004 123.783 714.845 123.783 716.461ZM153.935 703.84L147.339 721.812H142.223L135.592 703.84H140.641L144.915 716.495L149.223 703.84H153.935ZM162.689 722.115C157.304 722.115 153.703 718.379 153.703 712.759C153.703 707.407 157.439 703.503 162.622 703.503C168.31 703.503 172.079 708.114 171.238 713.97H158.482C158.785 716.898 160.198 718.514 162.588 718.514C164.641 718.514 166.021 717.504 166.559 715.72H171.204C170.194 719.793 167.064 722.115 162.689 722.115ZM162.521 706.936C160.333 706.936 158.953 708.35 158.549 711.009H166.29C166.156 708.518 164.742 706.936 162.521 706.936ZM178.6 721.812H173.888V697.647H178.6V721.812ZM197.492 716.057C197.492 719.827 194.631 722.149 189.515 722.149C184.399 722.149 181.538 719.692 181.168 715.687H185.644C185.678 717.538 187.26 718.716 189.582 718.716C191.4 718.716 192.78 718.144 192.78 716.865C192.78 715.72 192.039 715.249 190.323 714.913L187.092 714.307C183.861 713.735 181.909 711.951 181.909 709.157C181.909 705.825 184.769 703.503 189.246 703.503C193.756 703.503 196.852 705.893 197.189 709.763H192.712C192.544 708.013 191.231 706.936 189.246 706.936C187.529 706.936 186.385 707.576 186.385 708.72C186.385 709.797 187.125 710.234 188.741 710.537L192.207 711.177C195.708 711.85 197.492 713.465 197.492 716.057ZM215.336 728.308H210.657C207.898 724.101 206.383 718.548 206.383 712.961C206.383 707.407 207.898 701.854 210.657 697.647H215.336C212.542 701.854 211.196 707.407 211.196 712.961C211.196 718.548 212.542 724.101 215.336 728.308ZM225.017 721.812H220.339V703.099H216.031V699.06H225.017V721.812ZM236.663 722.149C231.817 722.149 228.148 719.12 228.014 714.879H232.692C232.961 716.865 234.509 717.975 236.63 717.975C239.39 717.975 240.433 716.225 240.433 714.374C240.433 712.59 239.255 710.773 236.495 710.773C234.678 710.773 233.331 711.513 232.625 713.062L228.788 711.816L230.773 699.06H243.933V703.234H234.173L233.466 707.878C234.61 707.138 235.923 706.801 237.269 706.801C242.688 706.801 245.279 710.537 245.279 714.374C245.279 718.278 242.385 722.149 236.663 722.149ZM253.927 712.994C249.686 712.994 246.556 709.797 246.556 705.926C246.556 702.022 249.686 698.859 253.927 698.859C258.134 698.859 261.298 702.022 261.298 705.926C261.298 709.797 258.134 712.994 253.927 712.994ZM259.514 721.812H255.778L268.702 699.06H272.438L259.514 721.812ZM253.927 709.696C255.846 709.696 257.461 708.417 257.461 705.926C257.461 703.436 255.846 702.157 253.927 702.157C252.042 702.157 250.36 703.436 250.36 705.926C250.36 708.417 252.042 709.696 253.927 709.696ZM274.861 722.115C270.621 722.115 267.491 718.918 267.491 715.047C267.491 711.143 270.621 707.979 274.861 707.979C279.102 707.979 282.232 711.143 282.232 715.047C282.232 718.918 279.102 722.115 274.861 722.115ZM274.861 718.783C276.78 718.783 278.429 717.538 278.429 715.047C278.429 712.523 276.78 711.278 274.861 711.278C272.977 711.278 271.294 712.523 271.294 715.047C271.294 717.538 272.977 718.783 274.861 718.783ZM287.282 728.308H282.638C285.398 724.101 286.744 718.548 286.744 712.961C286.744 707.407 285.398 701.854 282.638 697.647H287.282C290.042 701.854 291.557 707.407 291.557 712.961C291.557 718.548 290.042 724.101 287.282 728.308Z" fill="#020202"/>
<g filter="url(#filter0_d_8_4725)">
<g filter="url(#filter1_dd_8_4725)">
<path d="M842 462.5V67C1060.7 67 1238 244.071 1238 462.5C1238 680.929 1060.7 858 842 858V462.5Z" fill="#FFCC2A"/>
<path d="M842 462.5V67C1060.7 67 1238 244.071 1238 462.5C1238 680.929 1060.7 858 842 858V462.5Z" stroke="white" stroke-width="3.12374"/>
</g>
<path d="M801.626 446.772V759.146C666.298 759.146 546.36 672.006 504.541 543.301L801.626 446.772Z" fill="#FFDA63" stroke="white" stroke-width="3.12374"/>
<path d="M801.626 446.772L504.541 543.301C473.642 448.203 490.136 344.059 548.91 263.164L801.626 446.772Z" fill="#FFE591" stroke="white" stroke-width="3.12374"/>
<path d="M801.626 446.772L548.91 263.164C587.684 209.796 642.359 170.072 705.097 149.688L801.626 446.772Z" fill="#FFF1B8" stroke="white" stroke-width="3.12374"/>
<path d="M801.626 446.773L705.098 149.688C736.272 139.558 768.847 134.399 801.626 134.399V446.773Z" fill="#FFF7D6" stroke="white" stroke-width="3.12374"/>
</g>
<path d="M905.606 485H900.491V460.835H905.606V485ZM914.34 475.206V485H909.661V467.027H913.969V469.585C915.282 467.802 917.133 466.691 919.489 466.691C923.09 466.691 925.581 469.047 925.581 473.389V485H920.936V474.97C920.936 472.312 919.893 470.831 917.772 470.831C915.921 470.831 914.34 472.312 914.34 475.206ZM944.66 467.027L938.064 485H932.948L926.318 467.027H931.366L935.641 479.682L939.949 467.027H944.66ZM953.414 485.303C948.029 485.303 944.428 481.567 944.428 475.946C944.428 470.595 948.164 466.691 953.347 466.691C959.035 466.691 962.804 471.302 961.963 477.158H949.207C949.51 480.086 950.924 481.702 953.313 481.702C955.366 481.702 956.746 480.692 957.285 478.908H961.929C960.92 482.981 957.789 485.303 953.414 485.303ZM953.246 470.124C951.058 470.124 949.678 471.537 949.274 474.196H957.015C956.881 471.706 955.467 470.124 953.246 470.124ZM979.792 479.245C979.792 483.014 976.932 485.337 971.816 485.337C966.7 485.337 963.839 482.88 963.469 478.875H967.945C967.979 480.726 969.561 481.904 971.883 481.904C973.701 481.904 975.081 481.331 975.081 480.052C975.081 478.908 974.34 478.437 972.624 478.1L969.393 477.495C966.162 476.922 964.21 475.139 964.21 472.345C964.21 469.013 967.07 466.691 971.547 466.691C976.057 466.691 979.153 469.08 979.49 472.951H975.013C974.845 471.201 973.532 470.124 971.547 470.124C969.83 470.124 968.686 470.763 968.686 471.908C968.686 472.985 969.426 473.422 971.042 473.725L974.508 474.365C978.009 475.038 979.792 476.653 979.792 479.245ZM993.316 480.456V484.529C992.172 485.101 991.095 485.337 989.715 485.337C986.012 485.337 983.69 483.216 983.69 479.177V471.033H980.055V467.027H983.69V461.71H988.335V467.027H993.484V471.033H988.335V478.1C988.335 480.187 989.277 481.029 990.96 481.029C991.835 481.029 992.643 480.827 993.316 480.456ZM1003.41 485.337C998.19 485.337 994.285 481.23 994.285 476.014C994.285 470.763 998.19 466.691 1003.41 466.691C1008.62 466.691 1012.53 470.763 1012.53 476.014C1012.53 481.23 1008.62 485.337 1003.41 485.337ZM1003.41 481.197C1005.73 481.197 1007.71 479.346 1007.71 476.014C1007.71 472.682 1005.73 470.864 1003.41 470.864C1001.08 470.864 999.098 472.682 999.098 476.014C999.098 479.346 1001.08 481.197 1003.41 481.197ZM1019.71 476.283V485H1015.03V467.027H1019.34V470.494C1020.65 468.205 1023.44 466.826 1026.34 466.826V471.672C1022.37 471.369 1019.71 472.312 1019.71 476.283ZM1043.42 491.496H1038.74C1035.98 487.289 1034.47 481.735 1034.47 476.148C1034.47 470.595 1035.98 465.042 1038.74 460.835H1043.42C1040.63 465.042 1039.28 470.595 1039.28 476.148C1039.28 481.735 1040.63 487.289 1043.42 491.496ZM1052.64 485.337C1047.79 485.337 1044.13 482.307 1043.99 478.067H1048.67C1048.94 480.052 1050.49 481.163 1052.61 481.163C1055.37 481.163 1056.41 479.413 1056.41 477.562C1056.41 475.778 1055.23 473.961 1052.47 473.961C1050.66 473.961 1049.31 474.701 1048.6 476.249L1044.77 475.004L1046.75 462.248H1059.91V466.422H1050.15L1049.44 471.066C1050.59 470.326 1051.9 469.989 1053.25 469.989C1058.67 469.989 1061.26 473.725 1061.26 477.562C1061.26 481.466 1058.36 485.337 1052.64 485.337ZM1063.27 473.658C1063.27 466.119 1066.44 461.912 1072.06 461.912C1077.68 461.912 1080.88 466.119 1080.88 473.658C1080.88 481.163 1077.75 485.337 1072.06 485.337C1066.37 485.337 1063.27 481.163 1063.27 473.658ZM1068.09 473.658C1068.09 478.538 1069.43 481.163 1072.06 481.163C1074.65 481.163 1076.06 478.538 1076.06 473.658C1076.06 468.744 1074.65 466.085 1072.06 466.085C1069.5 466.085 1068.09 468.744 1068.09 473.658ZM1090.1 476.182C1085.85 476.182 1082.72 472.985 1082.72 469.114C1082.72 465.21 1085.85 462.046 1090.1 462.046C1094.3 462.046 1097.47 465.21 1097.47 469.114C1097.47 472.985 1094.3 476.182 1090.1 476.182ZM1095.68 485H1091.95L1104.87 462.248H1108.61L1095.68 485ZM1090.1 472.884C1092.01 472.884 1093.63 471.605 1093.63 469.114C1093.63 466.624 1092.01 465.345 1090.1 465.345C1088.21 465.345 1086.53 466.624 1086.53 469.114C1086.53 471.605 1088.21 472.884 1090.1 472.884ZM1111.03 485.303C1106.79 485.303 1103.66 482.106 1103.66 478.235C1103.66 474.331 1106.79 471.167 1111.03 471.167C1115.27 471.167 1118.4 474.331 1118.4 478.235C1118.4 482.106 1115.27 485.303 1111.03 485.303ZM1111.03 481.971C1112.95 481.971 1114.6 480.726 1114.6 478.235C1114.6 475.711 1112.95 474.466 1111.03 474.466C1109.15 474.466 1107.46 475.711 1107.46 478.235C1107.46 480.726 1109.15 481.971 1111.03 481.971ZM1123.45 491.496H1118.81C1121.57 487.289 1122.91 481.735 1122.91 476.148C1122.91 470.595 1121.57 465.042 1118.81 460.835H1123.45C1126.21 465.042 1127.73 470.595 1127.73 476.148C1127.73 481.735 1126.21 487.289 1123.45 491.496Z" fill="#020202"/>
<defs>
<filter id="filter0_d_8_4725" x="437.688" y="30.4381" width="851.874" height="894.124" filterUnits="userSpaceOnUse" color-interpolation-filters="sRGB">
<feFlood flood-opacity="0" result="BackgroundImageFix"/>
<feColorMatrix in="SourceAlpha" type="matrix" values="0 0 0 0 0 0 0 0 0 0 0 0 0 0 0 0 0 0 127 0" result="hardAlpha"/>
<feOffset dy="15"/>
<feGaussianBlur stdDeviation="25"/>
<feComposite in2="hardAlpha" operator="out"/>
<feColorMatrix type="matrix" values="0 0 0 0 1 0 0 0 0 0.8 0 0 0 0 0.164706 0 0 0 0.3 0"/>
<feBlend mode="normal" in2="BackgroundImageFix" result="effect1_dropShadow_8_4725"/>
<feBlend mode="normal" in="SourceGraphic" in2="effect1_dropShadow_8_4725" result="shape"/>
</filter>
<filter id="filter1_dd_8_4725" x="790.438" y="15.4381" width="519.124" height="898.124" filterUnits="userSpaceOnUse" color-interpolation-filters="sRGB">
<feFlood flood-opacity="0" result="BackgroundImageFix"/>
<feColorMatrix in="SourceAlpha" type="matrix" values="0 0 0 0 0 0 0 0 0 0 0 0 0 0 0 0 0 0 127 0" result="hardAlpha"/>
<feOffset dy="4"/>
<feGaussianBlur stdDeviation="25"/>
<feComposite in2="hardAlpha" operator="out"/>
<feColorMatrix type="matrix" values="0 0 0 0 1 0 0 0 0 0.8 0 0 0 0 0.164706 0 0 0 0.25 0"/>
<feBlend mode="normal" in2="BackgroundImageFix" result="effect1_dropShadow_8_4725"/>
<feColorMatrix in="SourceAlpha" type="matrix" values="0 0 0 0 0 0 0 0 0 0 0 0 0 0 0 0 0 0 127 0" result="hardAlpha"/>
<feOffset dx="20"/>
<feGaussianBlur stdDeviation="25"/>
<feComposite in2="hardAlpha" operator="out"/>
<feColorMatrix type="matrix" values="0 0 0 0 0 0 0 0 0 0 0 0 0 0 0 0 0 0 0.25 0"/>
<feBlend mode="normal" in2="effect1_dropShadow_8_4725" result="effect2_dropShadow_8_4725"/>
<feBlend mode="normal" in="SourceGraphic" in2="effect2_dropShadow_8_4725" result="shape"/>
</filter>
</defs>
</svg>
