<svg width="903" height="1100" viewBox="0 0 903 1100" fill="none" xmlns="http://www.w3.org/2000/svg">
<g filter="url(#filter0_d_8_3333)">
<rect x="50" y="49" width="803" height="1000" rx="30" fill="#1B1A1A"/>
<path d="M220.41 284H191.41V210H219.41C241.11 210 256.21 225.2 256.21 247.2C256.21 268.8 241.51 284 220.41 284ZM217.81 225H207.61V269H218.81C231.61 269 239.11 260.9 239.11 247.2C239.11 233.2 231.21 225 217.81 225ZM299.35 234V248.5H294.45C285.65 248.5 280.35 252.4 280.35 262.3V284H264.95V234.1H279.45L280.25 241.5C282.35 236.6 286.75 233.3 293.45 233.3C295.25 233.3 297.25 233.5 299.35 234ZM314.104 226.2C309.204 226.2 305.304 222.3 305.304 217.4C305.304 212.5 309.204 208.7 314.104 208.7C318.904 208.7 322.804 212.5 322.804 217.4C322.804 222.3 318.904 226.2 314.104 226.2ZM306.504 284V234H321.904V284H306.504ZM347.023 284L327.523 234H344.123L350.223 251.5C352.723 258.8 354.723 265.1 355.123 267.4C355.723 264.5 357.923 258 360.423 251.5L367.123 234H383.123L362.223 284H347.023ZM409.491 285.3C394.391 285.3 383.591 274.3 383.591 258.9C383.591 243.3 394.091 232.4 409.191 232.4C424.891 232.4 434.691 242.7 434.691 259V262.9L398.391 263.1C399.291 269.7 402.991 272.8 409.791 272.8C415.591 272.8 419.691 270.7 420.791 267.1H434.891C433.091 278.2 423.191 285.3 409.491 285.3ZM409.291 244.9C403.191 244.9 399.791 247.6 398.591 253.6H419.391C419.391 248.3 415.491 244.9 409.291 244.9ZM486.908 284L464.708 210H481.608L491.308 242.1C492.608 246.5 493.808 250.9 495.008 258.2C496.208 250.9 497.408 246.7 498.708 242.1L507.808 210H525.908L534.608 242.1C535.808 246.6 537.008 251.1 538.308 258.2C539.808 250.7 540.908 246.6 542.208 242.3L552.108 210H568.608L546.008 284H530.208L516.708 235.4L502.808 284H486.908ZM582.908 226.2C578.008 226.2 574.108 222.3 574.108 217.4C574.108 212.5 578.008 208.7 582.908 208.7C587.708 208.7 591.608 212.5 591.608 217.4C591.608 222.3 587.708 226.2 582.908 226.2ZM575.308 284V234H590.708V284H575.308ZM621.827 284H606.427V246.8H596.927V234H606.427V218.5H621.827V234H631.327V246.8H621.827V284ZM653.015 284H637.615V208.6H653.115V239.2C656.215 234.9 661.915 232.4 668.415 232.4C680.315 232.4 687.215 240 687.215 253.1V284H671.815V256.8C671.815 250.5 668.315 246.4 663.015 246.4C656.915 246.4 653.015 250.4 653.015 256.6V284ZM156.961 424V350H187.761C202.661 350 211.661 357.8 211.661 370.5C211.661 378.4 208.061 384.2 201.361 387.1C208.661 389.5 212.561 395.2 212.561 403.6C212.561 416.7 203.761 424 187.761 424H156.961ZM186.061 364.2H173.161V380.3H186.061C191.861 380.3 195.061 377.4 195.061 372.1C195.061 366.9 191.961 364.2 186.061 364.2ZM186.861 393.9H173.161V409.8H186.861C192.861 409.8 195.961 407.1 195.961 401.6C195.961 396.6 192.761 393.9 186.861 393.9ZM254.131 374H269.531V424H255.031L254.031 418.4C250.931 422.5 244.731 425.3 238.731 425.3C227.331 425.3 220.331 417.7 220.331 405.4V374H235.731V399.8C235.731 408 238.531 411.6 244.831 411.6C251.431 411.6 254.131 408.2 254.131 400V374ZM277.954 398.1C277.954 382.9 287.854 372.3 301.954 372.3C308.754 372.3 314.154 374.9 316.854 379L317.654 374H332.154V420.8C332.154 438.7 321.854 449.5 304.754 449.5C289.454 449.5 279.154 440.8 277.754 426.6H293.354C293.654 432.2 297.854 435.5 304.654 435.5C312.054 435.5 316.754 431.1 316.754 424V417.5C313.754 421.1 308.154 423.4 301.654 423.4C287.654 423.4 277.954 413.1 277.954 398.1ZM293.454 397.7C293.454 404.9 298.254 410 305.054 410C312.054 410 316.754 405.1 316.754 397.7C316.754 390.4 312.054 385.7 304.954 385.7C298.154 385.7 293.454 390.6 293.454 397.7ZM358.201 425.3C347.601 425.3 341.001 419.1 341.001 409.3C341.001 400.1 347.501 394.4 359.501 393.5L373.501 392.4V391.6C373.501 386.7 370.501 384.1 365.001 384.1C358.501 384.1 355.001 386.6 355.001 391.1H342.201C342.201 379.8 351.501 372.4 365.801 372.4C380.301 372.4 388.501 380.5 388.501 394.8V424H374.901L373.901 417.4C372.301 422 365.701 425.3 358.201 425.3ZM363.601 413.9C369.501 413.9 373.601 411 373.601 405.3V402.6L365.801 403.3C359.101 403.9 356.701 405.4 356.701 408.6C356.701 412.2 358.901 413.9 363.601 413.9ZM420.944 365V350H479.144V365H458.144V424H441.944V365H420.944ZM514.76 374V388.5H509.86C501.06 388.5 495.76 392.4 495.76 402.3V424H480.36V374.1H494.86L495.66 381.5C497.76 376.6 502.16 373.3 508.86 373.3C510.66 373.3 512.66 373.5 514.76 374ZM535.061 425.3C524.461 425.3 517.861 419.1 517.861 409.3C517.861 400.1 524.361 394.4 536.361 393.5L550.361 392.4V391.6C550.361 386.7 547.361 384.1 541.861 384.1C535.361 384.1 531.861 386.6 531.861 391.1H519.061C519.061 379.8 528.361 372.4 542.661 372.4C557.161 372.4 565.361 380.5 565.361 394.8V424H551.761L550.761 417.4C549.161 422 542.561 425.3 535.061 425.3ZM540.461 413.9C546.361 413.9 550.461 411 550.461 405.3V402.6L542.661 403.3C535.961 403.9 533.561 405.4 533.561 408.6C533.561 412.2 535.761 413.9 540.461 413.9ZM588.019 424L568.519 374H585.119L591.219 391.5C593.719 398.8 595.719 405.1 596.119 407.4C596.719 404.5 598.919 398 601.419 391.5L608.119 374H624.119L603.219 424H588.019ZM650.487 425.3C635.387 425.3 624.587 414.3 624.587 398.9C624.587 383.3 635.087 372.4 650.187 372.4C665.887 372.4 675.687 382.7 675.687 399V402.9L639.387 403.1C640.287 409.7 643.987 412.8 650.787 412.8C656.587 412.8 660.687 410.7 661.787 407.1H675.887C674.087 418.2 664.187 425.3 650.487 425.3ZM650.287 384.9C644.187 384.9 640.787 387.6 639.587 393.6H660.387C660.387 388.3 656.487 384.9 650.287 384.9ZM699.573 424H684.173V348.6H699.573V424ZM706.892 408.2H721.492C721.692 411.7 724.292 413.8 728.992 413.8C733.792 413.8 735.992 412.1 735.992 409.5C735.992 408 735.192 406.4 731.492 405.6L722.292 403.6C713.092 401.6 708.592 397.6 708.592 388.8C708.592 378.4 717.492 372.4 729.492 372.4C741.092 372.4 749.192 379.2 749.192 389.3H734.592C734.592 385.9 732.492 383.6 728.792 383.6C725.292 383.6 723.092 385.4 723.092 388.1C723.092 390.4 724.992 391.7 728.492 392.5L737.792 394.5C745.992 396.3 750.492 400.1 750.492 408.1C750.492 418.8 741.392 425.3 728.392 425.3C715.192 425.3 706.892 418.3 706.892 408.2Z" fill="#FFCC2A"/>
<path d="M214.36 629H208.08V599.4H214.36L223.16 621.48L232 599.4H238.36V629H232.08V622.8C232.08 616.4 232.08 615 232.4 612.8L226.12 629H220.2L213.96 612.8C214.32 615 214.36 617.48 214.36 620.72V629ZM249.172 629.52C244.932 629.52 242.292 627.04 242.292 623.12C242.292 619.44 244.892 617.16 249.692 616.8L255.292 616.36V616.04C255.292 614.08 254.092 613.04 251.892 613.04C249.292 613.04 247.892 614.04 247.892 615.84H242.772C242.772 611.32 246.492 608.36 252.212 608.36C258.012 608.36 261.292 611.6 261.292 617.32V629H255.852L255.452 626.36C254.812 628.2 252.172 629.52 249.172 629.52ZM251.332 624.96C253.692 624.96 255.332 623.8 255.332 621.52V620.44L252.212 620.72C249.532 620.96 248.572 621.56 248.572 622.84C248.572 624.28 249.452 624.96 251.332 624.96ZM271.236 629H265.076V598.84H271.236V616.2L277.716 609H285.436L277.916 616.92L285.196 629H278.076L273.596 621.52L271.236 624V629ZM295.597 629.52C289.557 629.52 285.237 625.12 285.237 618.96C285.237 612.72 289.437 608.36 295.477 608.36C301.757 608.36 305.677 612.48 305.677 619V620.56L291.157 620.64C291.517 623.28 292.997 624.52 295.717 624.52C298.037 624.52 299.677 623.68 300.117 622.24H305.757C305.037 626.68 301.077 629.52 295.597 629.52ZM295.517 613.36C293.077 613.36 291.717 614.44 291.237 616.84H299.557C299.557 614.72 297.997 613.36 295.517 613.36ZM325.684 629H319.404V599.4H325.684L334.484 621.48L343.324 599.4H349.684V629H343.404V622.8C343.404 616.4 343.404 615 343.724 612.8L337.444 629H331.524L325.284 612.8C325.644 615 325.684 617.48 325.684 620.72V629ZM353.375 618.96C353.375 612.64 358.015 608.4 364.415 608.4C370.775 608.4 375.415 612.64 375.415 618.96C375.415 625.28 370.775 629.48 364.415 629.48C358.015 629.48 353.375 625.28 353.375 618.96ZM359.575 618.92C359.575 621.96 361.535 623.96 364.415 623.96C367.255 623.96 369.215 621.96 369.215 618.92C369.215 615.92 367.255 613.92 364.415 613.92C361.535 613.92 359.575 615.92 359.575 618.92ZM384.513 629H378.353V609H384.153L384.553 611.08C385.793 609.36 388.073 608.36 390.673 608.36C395.433 608.36 398.193 611.4 398.193 616.64V629H392.033V618.12C392.033 615.6 390.633 613.96 388.513 613.96C386.073 613.96 384.513 615.56 384.513 618.04V629ZM411.257 629.52C405.217 629.52 400.897 625.12 400.897 618.96C400.897 612.72 405.097 608.36 411.137 608.36C417.417 608.36 421.337 612.48 421.337 619V620.56L406.817 620.64C407.177 623.28 408.657 624.52 411.377 624.52C413.697 624.52 415.337 623.68 415.777 622.24H421.417C420.697 626.68 416.737 629.52 411.257 629.52ZM411.177 613.36C408.737 613.36 407.377 614.44 406.897 616.84H415.217C415.217 614.72 413.657 613.36 411.177 613.36ZM421.969 638.6V633.44H425.369C427.449 633.44 428.329 632.8 429.129 630.64L429.489 629.68L421.449 609H428.049L432.409 621.84L437.249 609H443.649L433.489 633.36C431.809 637.44 429.569 639.16 426.049 639.16C424.569 639.16 423.169 638.96 421.969 638.6ZM454.425 618.96C454.425 612.64 459.065 608.4 465.465 608.4C471.825 608.4 476.465 612.64 476.465 618.96C476.465 625.28 471.825 629.48 465.465 629.48C459.065 629.48 454.425 625.28 454.425 618.96ZM460.625 618.92C460.625 621.96 462.585 623.96 465.465 623.96C468.305 623.96 470.265 621.96 470.265 618.92C470.265 615.92 468.305 613.92 465.465 613.92C462.585 613.92 460.625 615.92 460.625 618.92ZM485.563 629H479.403V609H485.203L485.603 611.08C486.843 609.36 489.123 608.36 491.723 608.36C496.483 608.36 499.243 611.4 499.243 616.64V629H493.083V618.12C493.083 615.6 491.683 613.96 489.563 613.96C487.123 613.96 485.563 615.56 485.563 618.04V629ZM521.059 629H514.899V614.12H511.099V609H514.899V602.8H521.059V609H524.859V614.12H521.059V629ZM533.154 629H526.994V598.84H533.194V611.08C534.434 609.36 536.714 608.36 539.314 608.36C544.074 608.36 546.834 611.4 546.834 616.64V629H540.674V618.12C540.674 615.6 539.274 613.96 537.154 613.96C534.714 613.96 533.154 615.56 533.154 618.04V629ZM559.898 629.52C553.858 629.52 549.538 625.12 549.538 618.96C549.538 612.72 553.738 608.36 559.778 608.36C566.058 608.36 569.978 612.48 569.978 619V620.56L555.458 620.64C555.818 623.28 557.298 624.52 560.018 624.52C562.338 624.52 563.978 623.68 564.418 622.24H570.058C569.338 626.68 565.378 629.52 559.898 629.52ZM559.818 613.36C557.378 613.36 556.018 614.44 555.538 616.84H563.858C563.858 614.72 562.298 613.36 559.818 613.36ZM589.984 629H583.704V599.4H589.984L598.784 621.48L607.624 599.4H613.984V629H607.704V622.8C607.704 616.4 607.704 615 608.024 612.8L601.744 629H595.824L589.584 612.8C589.944 615 589.984 617.48 589.984 620.72V629ZM617.676 618.96C617.676 612.64 622.316 608.4 628.716 608.4C635.076 608.4 639.716 612.64 639.716 618.96C639.716 625.28 635.076 629.48 628.716 629.48C622.316 629.48 617.676 625.28 617.676 618.96ZM623.876 618.92C623.876 621.96 625.836 623.96 628.716 623.96C631.556 623.96 633.516 621.96 633.516 618.92C633.516 615.92 631.556 613.92 628.716 613.92C625.836 613.92 623.876 615.92 623.876 618.92ZM647.317 629L639.517 609H646.157L648.597 616C649.597 618.92 650.397 621.44 650.557 622.36C650.797 621.2 651.677 618.6 652.677 616L655.357 609H661.757L653.397 629H647.317ZM671.924 629.52C665.884 629.52 661.564 625.12 661.564 618.96C661.564 612.72 665.764 608.36 671.804 608.36C678.084 608.36 682.004 612.48 682.004 619V620.56L667.484 620.64C667.844 623.28 669.324 624.52 672.044 624.52C674.364 624.52 676.004 623.68 676.444 622.24H682.084C681.364 626.68 677.404 629.52 671.924 629.52ZM671.844 613.36C669.404 613.36 668.044 614.44 667.564 616.84H675.884C675.884 614.72 674.324 613.36 671.844 613.36ZM692.178 620.16H687.098C686.418 616.72 685.978 611.32 685.978 606.08V599.4H693.418V606.08C693.418 611.48 692.898 616.88 692.178 620.16ZM689.658 629.52C687.618 629.52 685.978 627.88 685.978 625.92C685.978 623.92 687.618 622.28 689.658 622.28C691.618 622.28 693.338 623.92 693.338 625.92C693.338 627.88 691.618 629.52 689.658 629.52Z" fill="#FFCC2A"/>
<g filter="url(#filter1_d_8_3333)">
<path fill-rule="evenodd" clip-rule="evenodd" d="M724.5 230C724.445 214.831 712.154 202.551 697 202.551C712.188 202.551 724.5 190.216 724.5 175C724.555 190.169 736.846 202.449 752 202.449C736.812 202.449 724.5 214.784 724.5 230Z" fill="#FFCC2A"/>
</g>
<g filter="url(#filter2_d_8_3333)">
<path fill-rule="evenodd" clip-rule="evenodd" d="M451.5 982C451.445 966.831 439.154 954.551 424 954.551C439.188 954.551 451.5 942.216 451.5 927C451.555 942.169 463.846 954.449 479 954.449C463.812 954.449 451.5 966.784 451.5 982Z" fill="#FFCC2A"/>
</g>
<path d="M317 506C330.355 506 330.355 524 343.709 524C357.064 524 357.064 506 370.419 506C383.774 506 383.774 524 397.097 524C410.452 524 410.452 506 423.775 506C437.13 506 437.13 524 450.453 524C463.808 524 463.808 506 477.162 506C490.517 506 490.517 524 503.872 524C517.226 524 517.226 506 530.581 506C543.936 506 543.936 524 557.291 524C570.645 524 570.645 506 584 506" stroke="#FFCC2A" stroke-width="3" stroke-miterlimit="10" stroke-linecap="round"/>
</g>
<defs>
<filter id="filter0_d_8_3333" x="0" y="0" width="903" height="1100" filterUnits="userSpaceOnUse" color-interpolation-filters="sRGB">
<feFlood flood-opacity="0" result="BackgroundImageFix"/>
<feColorMatrix in="SourceAlpha" type="matrix" values="0 0 0 0 0 0 0 0 0 0 0 0 0 0 0 0 0 0 127 0" result="hardAlpha"/>
<feOffset dy="1"/>
<feGaussianBlur stdDeviation="25"/>
<feComposite in2="hardAlpha" operator="out"/>
<feColorMatrix type="matrix" values="0 0 0 0 0 0 0 0 0 0 0 0 0 0 0 0 0 0 0.15 0"/>
<feBlend mode="normal" in2="BackgroundImageFix" result="effect1_dropShadow_8_3333"/>
<feBlend mode="normal" in="SourceGraphic" in2="effect1_dropShadow_8_3333" result="shape"/>
</filter>
<filter id="filter1_d_8_3333" x="689.466" y="170.479" width="70.0685" height="70.0685" filterUnits="userSpaceOnUse" color-interpolation-filters="sRGB">
<feFlood flood-opacity="0" result="BackgroundImageFix"/>
<feColorMatrix in="SourceAlpha" type="matrix" values="0 0 0 0 0 0 0 0 0 0 0 0 0 0 0 0 0 0 127 0" result="hardAlpha"/>
<feOffset dy="3.0137"/>
<feGaussianBlur stdDeviation="3.76712"/>
<feComposite in2="hardAlpha" operator="out"/>
<feColorMatrix type="matrix" values="0 0 0 0 1 0 0 0 0 0.8 0 0 0 0 0.164706 0 0 0 0.5 0"/>
<feBlend mode="normal" in2="BackgroundImageFix" result="effect1_dropShadow_8_3333"/>
<feBlend mode="normal" in="SourceGraphic" in2="effect1_dropShadow_8_3333" result="shape"/>
</filter>
<filter id="filter2_d_8_3333" x="416.466" y="922.479" width="70.0685" height="70.0685" filterUnits="userSpaceOnUse" color-interpolation-filters="sRGB">
<feFlood flood-opacity="0" result="BackgroundImageFix"/>
<feColorMatrix in="SourceAlpha" type="matrix" values="0 0 0 0 0 0 0 0 0 0 0 0 0 0 0 0 0 0 127 0" result="hardAlpha"/>
<feOffset dy="3.0137"/>
<feGaussianBlur stdDeviation="3.76712"/>
<feComposite in2="hardAlpha" operator="out"/>
<feColorMatrix type="matrix" values="0 0 0 0 1 0 0 0 0 0.8 0 0 0 0 0.164706 0 0 0 0.5 0"/>
<feBlend mode="normal" in2="BackgroundImageFix" result="effect1_dropShadow_8_3333"/>
<feBlend mode="normal" in="SourceGraphic" in2="effect1_dropShadow_8_3333" result="shape"/>
</filter>
</defs>
</svg>
