<svg width="23" height="23" viewBox="0 0 23 23" fill="none" xmlns="http://www.w3.org/2000/svg">
<path d="M11.7842 6.98608C10.6381 6.98608 9.53896 7.44136 8.72857 8.25176C7.91817 9.06216 7.46289 10.1613 7.46289 11.3074C7.46289 12.4534 7.91817 13.5526 8.72857 14.363C9.53896 15.1734 10.6381 15.6287 11.7842 15.6287C12.9303 15.6287 14.0294 15.1734 14.8398 14.363C15.6502 13.5526 16.1055 12.4534 16.1055 11.3074C16.1055 10.1613 15.6502 9.06216 14.8398 8.25176C14.0294 7.44136 12.9303 6.98608 11.7842 6.98608ZM11.7842 14.1138C11.0396 14.1138 10.3256 13.818 9.79909 13.2915C9.27261 12.765 8.97684 12.051 8.97684 11.3064C8.97684 10.5619 9.27261 9.84782 9.79909 9.32135C10.3256 8.79487 11.0396 8.49909 11.7842 8.49909C12.5287 8.49909 13.2428 8.79487 13.7693 9.32135C14.2957 9.84782 14.5915 10.5619 14.5915 11.3064C14.5915 12.051 14.2957 12.765 13.7693 13.2915C13.2428 13.818 12.5287 14.1138 11.7842 14.1138Z" fill="white"/>
<path d="M16.277 7.83456C16.8333 7.83456 17.2844 7.38352 17.2844 6.82713C17.2844 6.27074 16.8333 5.8197 16.277 5.8197C15.7206 5.8197 15.2695 6.27074 15.2695 6.82713C15.2695 7.38352 15.7206 7.83456 16.277 7.83456Z" fill="white"/>
<path d="M19.7603 5.80293C19.5439 5.24425 19.2133 4.73689 18.7896 4.31334C18.3659 3.88979 17.8584 3.55937 17.2996 3.34324C16.6458 3.09779 15.955 2.96507 15.2567 2.95073C14.3568 2.91148 14.0718 2.90027 11.7896 2.90027C9.5075 2.90027 9.21499 2.90027 8.32251 2.95073C7.62477 2.96434 6.9345 3.09708 6.28148 3.34324C5.72257 3.55912 5.21496 3.88944 4.79122 4.31303C4.36747 4.73662 4.03695 5.2441 3.82086 5.80293C3.57536 6.45674 3.44294 7.14757 3.42929 7.84582C3.3891 8.74484 3.37695 9.02988 3.37695 11.3129C3.37695 13.5951 3.37695 13.8857 3.42929 14.7801C3.44331 15.4791 3.57507 16.1688 3.82086 16.8239C4.03755 17.3825 4.3684 17.8898 4.79224 18.3133C5.21609 18.7369 5.72363 19.0673 6.28242 19.2836C6.93419 19.5389 7.62476 19.6811 8.32438 19.7041C9.22433 19.7434 9.50936 19.7555 11.7915 19.7555C14.0736 19.7555 14.3661 19.7555 15.2586 19.7041C15.9568 19.6899 16.6475 19.5575 17.3015 19.3126C17.8601 19.0959 18.3675 18.7652 18.7911 18.3415C19.2148 17.9179 19.5455 17.4105 19.7621 16.8519C20.0079 16.1978 20.1397 15.5081 20.1537 14.809C20.1939 13.91 20.206 13.625 20.206 11.3419C20.206 9.05885 20.206 8.76914 20.1537 7.87479C20.1428 7.16667 20.0097 6.46575 19.7603 5.80293ZM18.622 14.7109C18.616 15.2495 18.5177 15.783 18.3314 16.2884C18.191 16.6518 17.9762 16.9818 17.7006 17.2572C17.4251 17.5326 17.0949 17.7473 16.7314 17.8874C16.2317 18.0728 15.7038 18.1712 15.1708 18.178C14.283 18.2191 14.0325 18.2294 11.756 18.2294C9.47759 18.2294 9.24489 18.2294 8.34026 18.178C7.80751 18.1715 7.27987 18.0732 6.78053 17.8874C6.41576 17.7481 6.0843 17.5338 5.80757 17.2584C5.53085 16.983 5.31502 16.6525 5.17406 16.2884C4.99038 15.7885 4.89212 15.2612 4.88342 14.7287C4.84324 13.8409 4.83389 13.5904 4.83389 11.3139C4.83389 9.03642 4.83389 8.80372 4.88342 7.89816C4.88946 7.35989 4.98777 6.82664 5.17406 6.3216C5.45909 5.58425 6.04318 5.0039 6.78053 4.72168C7.28012 4.53677 7.8076 4.43848 8.34026 4.43104C9.229 4.39085 9.47853 4.37964 11.756 4.37964C14.0334 4.37964 14.2671 4.37964 15.1708 4.43104C15.7038 4.43745 16.2318 4.53577 16.7314 4.72168C17.0949 4.86211 17.425 5.07699 17.7005 5.35251C17.9761 5.62804 18.1909 5.95813 18.3314 6.3216C18.515 6.82153 18.6133 7.3488 18.622 7.88133C18.6622 8.77008 18.6725 9.0196 18.6725 11.2971C18.6725 13.5736 18.6725 13.8184 18.6323 14.7118H18.622V14.7109Z" fill="white"/>
</svg>
