<svg width="1014" height="501" viewBox="0 0 1014 501" fill="none" xmlns="http://www.w3.org/2000/svg">
<path d="M65.02 85.24V100H19.3V35.38H64.39V50.14H36.31V59.41H61.78V74.17H36.31V85.24H65.02ZM101.215 100V95.32C97.7952 99.19 93.5652 100.9 87.3552 100.9C77.2752 100.9 70.5252 94.87 70.5252 85.69C70.5252 76.24 78.1752 71.11 92.0353 71.11C94.6452 71.11 97.0753 71.29 99.1453 71.65V69.31C99.1453 65.08 96.7152 62.74 92.3952 62.74C88.1652 62.74 85.6452 65.08 85.1052 69.31H71.2452C72.1452 58.06 80.5152 50.68 92.4853 50.68C105.805 50.68 113.635 57.88 113.635 70.12V100H101.215ZM85.0153 85.24C85.0153 88.39 87.1752 90.28 90.9552 90.28C96.0852 90.28 99.1453 87.85 99.1453 83.89V80.83C96.8053 80.38 95.0053 80.2 93.0252 80.2C87.8053 80.2 85.0153 81.91 85.0153 85.24ZM137.983 77.68V100H122.593V51.58H136.723V60.13C140.413 54.46 148.063 51.22 155.803 51.22V67.24C144.913 66.16 137.983 66.97 137.983 77.68ZM176.46 74.53V100H161.07V51.58H175.2V57.43C178.98 53.2 183.48 50.68 189.6 50.68C199.14 50.68 205.89 57.07 205.89 68.86V100H190.5V73.99C190.5 67.87 188.34 64.54 183.66 64.54C179.88 64.54 176.46 67.24 176.46 74.53ZM263.614 100L249.754 62.74V100H234.364V35.38H254.434L270.724 79.21L286.924 35.38H306.994V100H291.604V62.29L277.654 100H263.614ZM339.954 100.9C325.644 100.9 314.664 89.65 314.664 75.79C314.664 61.93 325.644 50.68 339.954 50.68C354.264 50.68 365.244 61.93 365.244 75.79C365.244 89.65 354.264 100.9 339.954 100.9ZM339.954 87.13C344.724 87.13 349.224 83.35 349.224 75.79C349.224 68.23 344.724 64.54 339.954 64.54C335.184 64.54 330.684 68.23 330.684 75.79C330.684 83.35 335.184 87.13 339.954 87.13ZM387.06 74.53V100H371.67V51.58H385.8V57.43C389.58 53.2 394.08 50.68 400.2 50.68C409.74 50.68 416.49 57.07 416.49 68.86V100H401.1V73.99C401.1 67.87 398.94 64.54 394.26 64.54C390.48 64.54 387.06 67.24 387.06 74.53ZM447.399 100.81C432.459 100.81 422.469 90.73 422.469 75.7C422.469 61.21 432.909 50.68 447.309 50.68C463.329 50.68 474.039 63.73 471.249 79.66H438.399C439.209 85.78 442.089 88.84 447.039 88.84C451.359 88.84 454.239 87.04 455.589 83.53H470.979C468.009 94.6 459.459 100.81 447.399 100.81ZM446.949 62.02C442.359 62.02 439.659 64.63 438.579 70.03H454.779C454.599 65.17 451.539 62.02 446.949 62.02ZM522.841 51.58L499.801 117.37H482.971L489.721 99.46L470.821 51.58H487.561L498.001 81.55L507.361 51.58H522.841ZM571.464 100H546.264V35.38H571.464C591.894 35.38 604.764 48.52 604.764 67.33C604.764 86.14 591.444 100 571.464 100ZM563.274 50.05V85.33H570.474C581.724 85.33 587.304 79.48 587.304 67.33C587.304 55.9 581.544 50.05 570.474 50.05H563.274ZM627.085 77.68V100H611.695V51.58H625.825V60.13C629.515 54.46 637.165 51.22 644.905 51.22V67.24C634.015 66.16 627.085 66.97 627.085 77.68ZM667.633 40.33C667.633 45.37 663.583 49.06 657.733 49.06C651.883 49.06 647.833 45.37 647.833 40.33C647.833 35.2 651.883 31.51 657.733 31.51C663.583 31.51 667.633 35.2 667.633 40.33ZM665.563 100H650.173V51.58H665.563V100ZM721.557 51.58L704.187 100H687.087L669.537 51.58H686.277L695.997 82.54L705.897 51.58H721.557ZM743.006 40.33C743.006 45.37 738.956 49.06 733.106 49.06C727.256 49.06 723.206 45.37 723.206 40.33C723.206 35.2 727.256 31.51 733.106 31.51C738.956 31.51 743.006 35.2 743.006 40.33ZM740.936 100H725.546V51.58H740.936V100ZM765.79 74.53V100H750.4V51.58H764.53V57.43C768.31 53.2 772.81 50.68 778.93 50.68C788.47 50.68 795.22 57.07 795.22 68.86V100H779.83V73.99C779.83 67.87 777.67 64.54 772.99 64.54C769.21 64.54 765.79 67.24 765.79 74.53ZM825.859 118.27C812.449 118.27 803.269 110.89 802.729 99.64H817.669C818.209 103.96 820.999 106.3 825.769 106.3C831.529 106.3 834.499 103.24 834.499 97.39V91.72C831.979 95.32 827.389 97.48 822.169 97.48C810.379 97.48 801.199 87.31 801.199 74.08C801.199 60.4 809.659 50.68 821.539 50.68C827.659 50.68 832.069 52.48 835.759 56.53V51.58H849.889V97.21C849.889 110.26 840.709 118.27 825.859 118.27ZM816.769 74.17C816.769 80.2 820.099 84.07 825.319 84.07C830.719 84.07 834.319 80.02 834.319 74.08C834.319 68.05 830.719 64.09 825.319 64.09C820.099 64.09 816.769 68.05 816.769 74.17ZM68.17 230L57.64 189.77L47.11 230H29.92L13.54 165.38H30.19L38.92 203.9L49.18 165.38H66.37L76.27 204.08L85.09 165.38H101.74L85.27 230H68.17ZM124.163 170.33C124.163 175.37 120.113 179.06 114.263 179.06C108.413 179.06 104.363 175.37 104.363 170.33C104.363 165.2 108.413 161.51 114.263 161.51C120.113 161.51 124.163 165.2 124.163 170.33ZM122.093 230H106.703V181.58H122.093V230ZM164.048 214.88V228.29C160.628 230.18 157.388 230.9 153.068 230.9C142.178 230.9 135.788 224.42 135.788 213.35V194.99H126.788V181.58H135.788V167.36H151.178V181.58H164.408V194.99H151.178V209.75C151.178 214.43 153.158 216.59 157.388 216.59C159.908 216.59 162.338 215.96 164.048 214.88ZM186.041 204.53V230H170.651V165.38H186.041V186.8C189.551 183.02 193.061 180.68 199.181 180.68C208.721 180.68 215.471 187.07 215.471 198.86V230H200.081V203.99C200.081 197.87 197.921 194.54 193.241 194.54C189.461 194.54 186.041 197.24 186.041 204.53Z" fill="#020202"/>
<path d="M294.704 210.56C294.704 222.71 285.704 230 270.674 230H243.944V165.38H269.864C283.994 165.38 292.814 171.59 292.814 182.84C292.814 188.51 289.844 192.92 284.444 196.16C291.014 198.95 294.704 203.72 294.704 210.56ZM268.514 178.79H259.334V189.95H268.514C274.184 189.95 276.794 187.79 276.794 184.28C276.794 180.95 274.184 178.79 268.514 178.79ZM269.324 203.36H259.334V216.59H269.324C275.714 216.59 278.684 214.07 278.684 209.93C278.684 205.97 275.714 203.36 269.324 203.36ZM329.998 209.21V181.58H345.388V230H331.258V224.78C328.558 228.38 323.428 230.9 317.758 230.9C308.128 230.9 300.838 224.87 300.838 212.09V181.58H316.228V209.21C316.228 214.52 318.838 217.13 323.158 217.13C326.218 217.13 329.998 214.7 329.998 209.21ZM376.395 248.27C362.985 248.27 353.805 240.89 353.265 229.64H368.205C368.745 233.96 371.535 236.3 376.305 236.3C382.065 236.3 385.035 233.24 385.035 227.39V221.72C382.515 225.32 377.925 227.48 372.705 227.48C360.915 227.48 351.735 217.31 351.735 204.08C351.735 190.4 360.195 180.68 372.075 180.68C378.195 180.68 382.605 182.48 386.295 186.53V181.58H400.425V227.21C400.425 240.26 391.245 248.27 376.395 248.27ZM367.305 204.17C367.305 210.2 370.635 214.07 375.855 214.07C381.255 214.07 384.855 210.02 384.855 204.08C384.855 198.05 381.255 194.09 375.855 194.09C370.635 194.09 367.305 198.05 367.305 204.17ZM438.234 230V225.32C434.814 229.19 430.584 230.9 424.374 230.9C414.294 230.9 407.544 224.87 407.544 215.69C407.544 206.24 415.194 201.11 429.054 201.11C431.664 201.11 434.094 201.29 436.164 201.65V199.31C436.164 195.08 433.734 192.74 429.414 192.74C425.184 192.74 422.664 195.08 422.124 199.31H408.264C409.164 188.06 417.534 180.68 429.504 180.68C442.824 180.68 450.654 187.88 450.654 200.12V230H438.234ZM422.034 215.24C422.034 218.39 424.194 220.28 427.974 220.28C433.104 220.28 436.164 217.85 436.164 213.89V210.83C433.824 210.38 432.024 210.2 430.044 210.2C424.824 210.2 422.034 211.91 422.034 215.24ZM510.907 230H493.897V180.77H474.097V165.38H530.707V180.77H510.907V230ZM549.144 207.68V230H533.754V181.58H547.884V190.13C551.574 184.46 559.224 181.22 566.964 181.22V197.24C556.074 196.16 549.144 196.97 549.144 207.68ZM600.582 230V225.32C597.162 229.19 592.932 230.9 586.722 230.9C576.642 230.9 569.892 224.87 569.892 215.69C569.892 206.24 577.542 201.11 591.402 201.11C594.012 201.11 596.442 201.29 598.512 201.65V199.31C598.512 195.08 596.082 192.74 591.762 192.74C587.532 192.74 585.012 195.08 584.472 199.31H570.612C571.512 188.06 579.882 180.68 591.852 180.68C605.172 180.68 613.002 187.88 613.002 200.12V230H600.582ZM584.382 215.24C584.382 218.39 586.542 220.28 590.322 220.28C595.452 220.28 598.512 217.85 598.512 213.89V210.83C596.172 210.38 594.372 210.2 592.392 210.2C587.172 210.2 584.382 211.91 584.382 215.24ZM666.732 181.58L649.362 230H632.262L614.712 181.58H631.452L641.172 212.54L651.072 181.58H666.732ZM690.833 230.81C675.893 230.81 665.903 220.73 665.903 205.7C665.903 191.21 676.343 180.68 690.743 180.68C706.763 180.68 717.473 193.73 714.683 209.66H681.833C682.643 215.78 685.523 218.84 690.473 218.84C694.793 218.84 697.673 217.04 699.023 213.53H714.413C711.443 224.6 702.893 230.81 690.833 230.81ZM690.383 192.02C685.793 192.02 683.093 194.63 682.013 200.03H698.213C698.033 195.17 694.973 192.02 690.383 192.02ZM737.073 230H721.503V165.38H737.073V230ZM789.463 213.53C789.463 224.24 781.543 230.9 766.963 230.9C752.383 230.9 744.463 224.06 743.473 212.9H758.233C758.233 216.95 761.923 219.56 767.233 219.56C770.743 219.56 773.893 218.75 773.893 216.23C773.893 214.07 772.273 213.17 768.943 212.54L759.403 210.83C750.943 209.3 745.543 204.44 745.543 196.61C745.543 187.25 753.463 180.68 766.153 180.68C778.843 180.68 787.663 187.43 788.563 198.23H773.803C773.443 194.36 770.473 192.02 766.243 192.02C762.643 192.02 760.303 193.01 760.303 195.17C760.303 197.24 761.833 197.87 764.893 198.41L775.153 200.3C784.513 202.01 789.463 206.6 789.463 213.53Z" fill="#FFCC2A"/>
<path d="M30.68 300.46V314.26C30.68 319.09 27.8 322.45 22.46 322.45C17.21 322.45 14.36 319.09 14.3 314.5H18.86C18.92 316.78 19.85 318.37 22.46 318.37C25.13 318.37 26.09 316.81 26.09 314.38V300.46H30.68ZM41.027 322.3C36.377 322.3 32.897 318.64 32.897 313.99C32.897 309.31 36.377 305.68 41.027 305.68C45.677 305.68 49.157 309.31 49.157 313.99C49.157 318.64 45.677 322.3 41.027 322.3ZM41.027 318.61C43.097 318.61 44.867 316.96 44.867 313.99C44.867 311.02 43.097 309.4 41.027 309.4C38.957 309.4 37.187 311.02 37.187 313.99C37.187 316.96 38.957 318.61 41.027 318.61ZM56.0143 302.26C56.0143 303.67 54.8743 304.72 53.2243 304.72C51.6043 304.72 50.4643 303.67 50.4643 302.26C50.4643 300.79 51.6043 299.74 53.2243 299.74C54.8743 299.74 56.0143 300.79 56.0143 302.26ZM55.3543 322H51.1843V305.98H55.3543V322ZM62.6014 313.27V322H58.4314V305.98H62.2714V308.26C63.4414 306.67 65.0914 305.68 67.1914 305.68C70.4014 305.68 72.6214 307.78 72.6214 311.65V322H68.4814V313.06C68.4814 310.69 67.5514 309.37 65.6614 309.37C64.0114 309.37 62.6014 310.69 62.6014 313.27ZM88.2967 322.3C83.6467 322.3 80.1667 318.64 80.1667 313.99C80.1667 309.31 83.6467 305.68 88.2967 305.68C92.9467 305.68 96.4267 309.31 96.4267 313.99C96.4267 318.64 92.9467 322.3 88.2967 322.3ZM88.2967 318.61C90.3667 318.61 92.1367 316.96 92.1367 313.99C92.1367 311.02 90.3667 309.4 88.2967 309.4C86.2267 309.4 84.4567 311.02 84.4567 313.99C84.4567 316.96 86.2267 318.61 88.2967 318.61ZM108.204 315.25V305.98H112.344V322H108.534V319.9C107.664 321.31 105.894 322.3 103.854 322.3C100.644 322.3 98.3041 320.35 98.3041 316.18V305.98H102.474V315.37C102.474 317.62 103.584 318.61 105.264 318.61C106.764 318.61 108.204 317.41 108.204 315.25ZM119.627 314.23V322H115.457V305.98H119.297V309.07C120.467 307.03 122.957 305.8 125.537 305.8V310.12C121.997 309.85 119.627 310.69 119.627 314.23ZM139.455 322.3C134.835 322.3 131.655 318.88 131.655 313.99C131.655 309.19 134.955 305.68 139.455 305.68C143.625 305.68 146.715 308.5 147.225 312.82H142.845C142.635 310.69 141.345 309.37 139.455 309.37C137.295 309.37 135.915 311.14 135.915 313.99C135.915 316.87 137.265 318.61 139.455 318.61C141.375 318.61 142.605 317.35 142.845 315.16H147.225C146.745 319.57 143.745 322.3 139.455 322.3ZM156.29 322.3C151.64 322.3 148.16 318.64 148.16 313.99C148.16 309.31 151.64 305.68 156.29 305.68C160.94 305.68 164.42 309.31 164.42 313.99C164.42 318.64 160.94 322.3 156.29 322.3ZM156.29 318.61C158.36 318.61 160.13 316.96 160.13 313.99C160.13 311.02 158.36 309.4 156.29 309.4C154.22 309.4 152.45 311.02 152.45 313.99C152.45 316.96 154.22 318.61 156.29 318.61ZM170.617 322H166.447V305.98H170.287V308.26C171.457 306.64 172.957 305.68 175.087 305.68C177.277 305.68 178.957 306.7 179.767 308.53C181.027 306.76 182.647 305.68 185.047 305.68C188.287 305.68 190.477 307.81 190.477 311.65V322H186.337V312.97C186.337 310.72 185.377 309.37 183.547 309.37C181.897 309.37 180.547 310.66 180.547 313.06V322H176.407V312.97C176.407 310.72 175.447 309.37 173.617 309.37C171.937 309.37 170.617 310.66 170.617 313.06V322ZM197.581 322H193.411V305.98H197.251V308.26C198.421 306.64 199.921 305.68 202.051 305.68C204.241 305.68 205.921 306.7 206.731 308.53C207.991 306.76 209.611 305.68 212.011 305.68C215.251 305.68 217.441 307.81 217.441 311.65V322H213.301V312.97C213.301 310.72 212.341 309.37 210.511 309.37C208.861 309.37 207.511 310.66 207.511 313.06V322H203.371V312.97C203.371 310.72 202.411 309.37 200.581 309.37C198.901 309.37 197.581 310.66 197.581 313.06V322ZM230.125 315.25V305.98H234.265V322H230.455V319.9C229.585 321.31 227.815 322.3 225.775 322.3C222.565 322.3 220.225 320.35 220.225 316.18V305.98H224.395V315.37C224.395 317.62 225.505 318.61 227.185 318.61C228.685 318.61 230.125 317.41 230.125 315.25ZM241.548 313.27V322H237.378V305.98H241.218V308.26C242.388 306.67 244.038 305.68 246.138 305.68C249.348 305.68 251.568 307.78 251.568 311.65V322H247.428V313.06C247.428 310.69 246.498 309.37 244.608 309.37C242.958 309.37 241.548 310.69 241.548 313.27ZM259.358 302.26C259.358 303.67 258.218 304.72 256.568 304.72C254.948 304.72 253.808 303.67 253.808 302.26C253.808 300.79 254.948 299.74 256.568 299.74C258.218 299.74 259.358 300.79 259.358 302.26ZM258.698 322H254.528V305.98H258.698V322ZM271.735 317.95V321.58C270.715 322.09 269.755 322.3 268.525 322.3C265.225 322.3 263.155 320.41 263.155 316.81V309.55H259.915V305.98H263.155V301.24H267.295V305.98H271.885V309.55H267.295V315.85C267.295 317.71 268.135 318.46 269.635 318.46C270.415 318.46 271.135 318.28 271.735 317.95ZM288.227 305.98L280.427 327.79H275.897L278.177 321.82L271.877 305.98H276.377L280.397 316.96L284.057 305.98H288.227ZM302.139 322.3C297.489 322.3 294.009 318.64 294.009 313.99C294.009 309.31 297.489 305.68 302.139 305.68C306.789 305.68 310.269 309.31 310.269 313.99C310.269 318.64 306.789 322.3 302.139 322.3ZM302.139 318.61C304.209 318.61 305.979 316.96 305.979 313.99C305.979 311.02 304.209 309.4 302.139 309.4C300.069 309.4 298.299 311.02 298.299 313.99C298.299 316.96 300.069 318.61 302.139 318.61ZM317.527 322H313.387V309.55H310.147V305.98H313.387V305.11C313.387 301.93 315.097 300.13 318.427 300.13C319.447 300.13 320.317 300.31 321.007 300.61V303.91C320.557 303.73 319.957 303.64 319.417 303.64C318.277 303.64 317.527 304.09 317.527 305.2V305.98H321.697V309.55H317.527V322ZM327.792 313.99C327.792 309.25 330.582 305.68 334.902 305.68C336.822 305.68 338.442 306.52 339.642 308.05V300.46H343.782V322H339.972V319.69C338.712 321.37 336.972 322.3 334.902 322.3C330.582 322.3 327.792 318.67 327.792 313.99ZM332.082 313.99C332.082 316.99 333.792 318.58 335.832 318.58C337.902 318.58 339.612 316.96 339.612 313.93C339.612 310.9 337.872 309.37 335.832 309.37C333.792 309.37 332.082 310.93 332.082 313.99ZM351.04 314.23V322H346.87V305.98H350.71V309.07C351.88 307.03 354.37 305.8 356.95 305.8V310.12C353.41 309.85 351.04 310.69 351.04 314.23ZM363.312 302.26C363.312 303.67 362.172 304.72 360.522 304.72C358.902 304.72 357.762 303.67 357.762 302.26C357.762 300.79 358.902 299.74 360.522 299.74C362.172 299.74 363.312 300.79 363.312 302.26ZM362.652 322H358.482V305.98H362.652V322ZM380.159 305.98L374.279 322H369.719L363.809 305.98H368.309L372.119 317.26L375.959 305.98H380.159ZM387.759 322.27C382.959 322.27 379.749 318.94 379.749 313.93C379.749 309.16 383.079 305.68 387.699 305.68C392.769 305.68 396.129 309.79 395.379 315.01H384.009C384.279 317.62 385.539 319.06 387.669 319.06C389.499 319.06 390.729 318.16 391.209 316.57H395.349C394.449 320.2 391.659 322.27 387.759 322.27ZM387.609 308.74C385.659 308.74 384.429 310 384.069 312.37H390.969C390.849 310.15 389.589 308.74 387.609 308.74ZM401.708 314.23V322H397.538V305.98H401.378V309.07C402.548 307.03 405.038 305.8 407.618 305.8V310.12C404.078 309.85 401.708 310.69 401.708 314.23ZM422.68 316.87C422.68 320.23 420.13 322.3 415.57 322.3C411.01 322.3 408.46 320.11 408.13 316.54H412.12C412.15 318.19 413.56 319.24 415.63 319.24C417.25 319.24 418.48 318.73 418.48 317.59C418.48 316.57 417.82 316.15 416.29 315.85L413.41 315.31C410.53 314.8 408.79 313.21 408.79 310.72C408.79 307.75 411.34 305.68 415.33 305.68C419.35 305.68 422.11 307.81 422.41 311.26H418.42C418.27 309.7 417.1 308.74 415.33 308.74C413.8 308.74 412.78 309.31 412.78 310.33C412.78 311.29 413.44 311.68 414.88 311.95L417.97 312.52C421.09 313.12 422.68 314.56 422.68 316.87ZM429.784 320.38C429.784 323.98 426.844 326.35 423.064 326.38V324.16C425.284 324.13 426.784 323.11 427.024 321.49C426.754 321.58 426.574 321.58 426.394 321.58C425.044 321.58 424.024 320.47 424.024 319.12C424.024 317.56 425.194 316.51 426.724 316.51C428.644 316.51 429.784 317.83 429.784 320.38ZM451.307 316.87C451.307 320.23 448.757 322.3 444.197 322.3C439.637 322.3 437.087 320.11 436.757 316.54H440.747C440.777 318.19 442.187 319.24 444.257 319.24C445.877 319.24 447.107 318.73 447.107 317.59C447.107 316.57 446.447 316.15 444.917 315.85L442.037 315.31C439.157 314.8 437.417 313.21 437.417 310.72C437.417 307.75 439.967 305.68 443.957 305.68C447.977 305.68 450.737 307.81 451.037 311.26H447.047C446.897 309.7 445.727 308.74 443.957 308.74C442.427 308.74 441.407 309.31 441.407 310.33C441.407 311.29 442.067 311.68 443.507 311.95L446.597 312.52C449.717 313.12 451.307 314.56 451.307 316.87ZM463.158 317.95V321.58C462.138 322.09 461.178 322.3 459.948 322.3C456.648 322.3 454.578 320.41 454.578 316.81V309.55H451.338V305.98H454.578V301.24H458.718V305.98H463.308V309.55H458.718V315.85C458.718 317.71 459.558 318.46 461.058 318.46C461.838 318.46 462.558 318.28 463.158 317.95ZM474.76 322V320.02C473.71 321.52 472.12 322.3 469.93 322.3C466.6 322.3 464.38 320.35 464.38 317.35C464.38 314.23 466.9 312.55 471.58 312.55C472.48 312.55 473.26 312.61 474.25 312.73V311.77C474.25 309.97 473.23 308.92 471.49 308.92C469.69 308.92 468.61 309.97 468.46 311.77H464.71C464.95 308.08 467.62 305.68 471.49 305.68C475.69 305.68 478.15 307.99 478.15 311.92V322H474.76ZM468.31 317.23C468.31 318.58 469.27 319.42 470.83 319.42C472.96 319.42 474.25 318.25 474.25 316.39V315.25C473.26 315.1 472.57 315.04 471.85 315.04C469.48 315.04 468.31 315.79 468.31 317.23ZM485.28 314.23V322H481.11V305.98H484.95V309.07C486.12 307.03 488.61 305.8 491.19 305.8V310.12C487.65 309.85 485.28 310.69 485.28 314.23ZM503.708 317.95V321.58C502.688 322.09 501.728 322.3 500.498 322.3C497.198 322.3 495.128 320.41 495.128 316.81V309.55H491.888V305.98H495.128V301.24H499.268V305.98H503.858V309.55H499.268V315.85C499.268 317.71 500.108 318.46 501.608 318.46C502.388 318.46 503.108 318.28 503.708 317.95ZM518.366 322.27C513.566 322.27 510.356 318.94 510.356 313.93C510.356 309.16 513.686 305.68 518.306 305.68C523.376 305.68 526.736 309.79 525.986 315.01H514.616C514.886 317.62 516.146 319.06 518.276 319.06C520.106 319.06 521.336 318.16 521.816 316.57H525.956C525.056 320.2 522.266 322.27 518.366 322.27ZM518.216 308.74C516.266 308.74 515.036 310 514.676 312.37H521.576C521.456 310.15 520.196 308.74 518.216 308.74ZM537.685 322V320.02C536.635 321.52 535.045 322.3 532.855 322.3C529.525 322.3 527.305 320.35 527.305 317.35C527.305 314.23 529.825 312.55 534.505 312.55C535.405 312.55 536.185 312.61 537.175 312.73V311.77C537.175 309.97 536.155 308.92 534.415 308.92C532.615 308.92 531.535 309.97 531.385 311.77H527.635C527.875 308.08 530.545 305.68 534.415 305.68C538.615 305.68 541.075 307.99 541.075 311.92V322H537.685ZM531.235 317.23C531.235 318.58 532.195 319.42 533.755 319.42C535.885 319.42 537.175 318.25 537.175 316.39V315.25C536.185 315.1 535.495 315.04 534.775 315.04C532.405 315.04 531.235 315.79 531.235 317.23ZM548.205 314.23V322H544.035V305.98H547.875V309.07C549.045 307.03 551.535 305.8 554.115 305.8V310.12C550.575 309.85 548.205 310.69 548.205 314.23ZM559.817 313.27V322H555.647V305.98H559.487V308.26C560.657 306.67 562.307 305.68 564.407 305.68C567.617 305.68 569.837 307.78 569.837 311.65V322H565.697V313.06C565.697 310.69 564.767 309.37 562.877 309.37C561.227 309.37 559.817 310.69 559.817 313.27ZM577.627 302.26C577.627 303.67 576.487 304.72 574.837 304.72C573.217 304.72 572.077 303.67 572.077 302.26C572.077 300.79 573.217 299.74 574.837 299.74C576.487 299.74 577.627 300.79 577.627 302.26ZM576.967 322H572.797V305.98H576.967V322ZM584.214 313.27V322H580.044V305.98H583.884V308.26C585.054 306.67 586.704 305.68 588.804 305.68C592.014 305.68 594.234 307.78 594.234 311.65V322H590.094V313.06C590.094 310.69 589.164 309.37 587.274 309.37C585.624 309.37 584.214 310.69 584.214 313.27ZM604.003 328.09C599.683 328.09 596.803 325.75 596.623 322.06H600.643C600.823 323.89 601.993 324.85 603.973 324.85C606.283 324.85 607.483 323.62 607.483 321.31V318.97C606.613 320.5 604.963 321.4 603.013 321.4C599.083 321.4 596.143 318.07 596.143 313.54C596.143 308.89 598.903 305.68 602.863 305.68C605.023 305.68 606.643 306.52 607.813 308.17V305.98H611.623V321.25C611.623 325.51 608.743 328.09 604.003 328.09ZM600.313 313.54C600.313 316.15 601.663 317.8 603.823 317.8C606.013 317.8 607.453 316.09 607.453 313.57C607.453 310.96 606.013 309.28 603.823 309.28C601.693 309.28 600.313 310.93 600.313 313.54ZM636.379 313.99C636.379 318.73 633.589 322.3 629.269 322.3C627.379 322.3 625.759 321.49 624.559 319.93V327.79H620.389V305.98H624.229V308.32C625.459 306.61 627.229 305.68 629.269 305.68C633.589 305.68 636.379 309.28 636.379 313.99ZM632.089 313.99C632.089 310.99 630.379 309.37 628.339 309.37C626.299 309.37 624.589 310.96 624.589 313.99C624.589 317.02 626.299 318.58 628.339 318.58C630.379 318.58 632.089 317.05 632.089 313.99ZM642.587 314.23V322H638.417V305.98H642.257V309.07C643.427 307.03 645.917 305.8 648.497 305.8V310.12C644.957 309.85 642.587 310.69 642.587 314.23ZM656.992 322.3C652.342 322.3 648.862 318.64 648.862 313.99C648.862 309.31 652.342 305.68 656.992 305.68C661.642 305.68 665.122 309.31 665.122 313.99C665.122 318.64 661.642 322.3 656.992 322.3ZM656.992 318.61C659.062 318.61 660.832 316.96 660.832 313.99C660.832 311.02 659.062 309.4 656.992 309.4C654.922 309.4 653.152 311.02 653.152 313.99C653.152 316.96 654.922 318.61 656.992 318.61ZM683.51 302.26C683.51 303.67 682.37 304.72 680.72 304.72C679.07 304.72 677.93 303.67 677.93 302.26C677.93 300.79 679.07 299.74 680.72 299.74C682.37 299.74 683.51 300.79 683.51 302.26ZM672.38 322H668.24V309.55H665V305.98H668.24V305.11C668.24 301.93 669.95 300.13 673.28 300.13C674.3 300.13 675.17 300.31 675.86 300.61V303.91C675.41 303.73 674.81 303.64 674.27 303.64C673.13 303.64 672.38 304.09 672.38 305.2V305.98H676.55V309.55H672.38V322ZM682.82 322H678.68V305.98H682.82V322ZM695.9 317.95V321.58C694.88 322.09 693.92 322.3 692.69 322.3C689.39 322.3 687.32 320.41 687.32 316.81V309.55H684.08V305.98H687.32V301.24H691.46V305.98H696.05V309.55H691.46V315.85C691.46 317.71 692.3 318.46 693.8 318.46C694.58 318.46 695.3 318.28 695.9 317.95ZM711.375 316.87C711.375 320.23 708.825 322.3 704.265 322.3C699.705 322.3 697.155 320.11 696.825 316.54H700.815C700.845 318.19 702.255 319.24 704.325 319.24C705.945 319.24 707.175 318.73 707.175 317.59C707.175 316.57 706.515 316.15 704.985 315.85L702.105 315.31C699.225 314.8 697.485 313.21 697.485 310.72C697.485 307.75 700.035 305.68 704.025 305.68C708.045 305.68 710.805 307.81 711.105 311.26H707.115C706.965 309.7 705.795 308.74 704.025 308.74C702.495 308.74 701.475 309.31 701.475 310.33C701.475 311.29 702.135 311.68 703.575 311.95L706.665 312.52C709.785 313.12 711.375 314.56 711.375 316.87ZM723.394 313.27V322H719.224V305.98H723.064V308.26C724.234 306.67 725.884 305.68 727.984 305.68C731.194 305.68 733.414 307.78 733.414 311.65V322H729.274V313.06C729.274 310.69 728.344 309.37 726.454 309.37C724.804 309.37 723.394 310.69 723.394 313.27ZM743.453 322.3C738.803 322.3 735.323 318.64 735.323 313.99C735.323 309.31 738.803 305.68 743.453 305.68C748.103 305.68 751.583 309.31 751.583 313.99C751.583 318.64 748.103 322.3 743.453 322.3ZM743.453 318.61C745.523 318.61 747.293 316.96 747.293 313.99C747.293 311.02 745.523 309.4 743.453 309.4C741.383 309.4 739.613 311.02 739.613 313.99C739.613 316.96 741.383 318.61 743.453 318.61ZM766.341 322L763.311 311.59L760.311 322H756.141L751.581 305.98H755.631L758.361 316.12L761.301 305.98H765.411L768.261 316.12L770.961 305.98H775.071L770.481 322H766.341ZM779.635 319.33C779.635 320.98 778.495 322.15 776.845 322.15C775.195 322.15 774.025 320.98 774.025 319.33C774.025 317.65 775.195 316.48 776.845 316.48C778.495 316.48 779.635 317.65 779.635 319.33Z" fill="#121212"/>
<g filter="url(#filter0_d_4173_143708)">
<rect x="14" y="400" width="254" height="85" rx="13.5841" fill="#FFCC2A"/>
<path d="M67.1992 434.744V444.932C67.1992 448.555 65.0257 451.34 60.6562 451.34C56.3093 451.34 54.1132 448.555 54.1132 444.932H58.4148C58.4148 446.381 58.7318 447.513 60.6562 447.513C62.558 447.513 62.8976 446.381 62.8976 445V434.744H67.1992ZM75.0426 451.226C71.4428 451.226 68.6807 448.396 68.6807 444.91C68.6807 441.423 71.4428 438.593 75.0426 438.593C78.6424 438.593 81.4044 441.423 81.4044 444.91C81.4044 448.396 78.6424 451.226 75.0426 451.226ZM75.0426 447.762C76.2425 447.762 77.3745 446.812 77.3745 444.91C77.3745 443.008 76.2425 442.08 75.0426 442.08C73.8426 442.08 72.7106 443.008 72.7106 444.91C72.7106 446.812 73.8426 447.762 75.0426 447.762ZM87.0746 435.99C87.0746 437.257 86.0558 438.186 84.5841 438.186C83.1125 438.186 82.0937 437.257 82.0937 435.99C82.0937 434.699 83.1125 433.771 84.5841 433.771C86.0558 433.771 87.0746 434.699 87.0746 435.99ZM86.5538 451H82.6824V438.82H86.5538V451ZM92.4675 444.593V451H88.596V438.82H92.1505V440.291C93.1014 439.227 94.2334 438.593 95.773 438.593C98.1728 438.593 99.8708 440.201 99.8708 443.167V451H95.9994V444.457C95.9994 442.917 95.456 442.08 94.2787 442.08C93.3278 442.08 92.4675 442.759 92.4675 444.593ZM113.782 451.34C109.096 451.34 105.405 447.785 105.405 442.85C105.405 437.914 109.096 434.405 113.782 434.405C118.491 434.405 122.182 437.914 122.182 442.85C122.182 447.785 118.491 451.34 113.782 451.34ZM113.782 447.513C116.34 447.513 117.767 445.408 117.767 442.85C117.767 440.291 116.34 438.231 113.782 438.231C111.224 438.231 109.797 440.291 109.797 442.85C109.797 445.408 111.224 447.513 113.782 447.513ZM130.805 445.77V438.82H134.676V451H131.122V449.687C130.442 450.592 129.152 451.226 127.726 451.226C125.303 451.226 123.469 449.71 123.469 446.495V438.82H127.341V445.77C127.341 447.106 127.997 447.762 129.084 447.762C129.854 447.762 130.805 447.151 130.805 445.77ZM140.575 445.385V451H136.704V438.82H140.258V440.97C141.187 439.544 143.111 438.729 145.058 438.729V442.759C142.319 442.487 140.575 442.691 140.575 445.385ZM160.172 451L158.292 444.095L156.413 451H152.542L149.123 438.82H152.904L154.602 445.498L156.391 438.82H160.262L161.96 445.498L163.658 438.82H167.462L164.02 451H160.172ZM175.041 451V449.823C174.181 450.796 173.117 451.226 171.555 451.226C169.019 451.226 167.321 449.71 167.321 447.4C167.321 445.023 169.245 443.733 172.732 443.733C173.388 443.733 174 443.778 174.52 443.868V443.28C174.52 442.216 173.909 441.627 172.822 441.627C171.758 441.627 171.124 442.216 170.989 443.28H167.502C167.728 440.45 169.834 438.593 172.845 438.593C176.196 438.593 178.165 440.404 178.165 443.483V451H175.041ZM170.966 447.287C170.966 448.079 171.509 448.555 172.46 448.555C173.751 448.555 174.52 447.944 174.52 446.947V446.178C173.932 446.064 173.479 446.019 172.981 446.019C171.668 446.019 170.966 446.449 170.966 447.287ZM184.472 435.99C184.472 437.257 183.454 438.186 181.982 438.186C180.51 438.186 179.492 437.257 179.492 435.99C179.492 434.699 180.51 433.771 181.982 433.771C183.454 433.771 184.472 434.699 184.472 435.99ZM183.952 451H180.08V438.82H183.952V451ZM194.167 447.196V450.57C193.307 451.045 192.492 451.226 191.405 451.226C188.665 451.226 187.058 449.596 187.058 446.812V442.193H184.794V438.82H187.058V435.242H190.929V438.82H194.257V442.193H190.929V445.906C190.929 447.083 191.427 447.627 192.492 447.627C193.125 447.627 193.737 447.468 194.167 447.196ZM199.406 451H195.489V434.744H199.406V451ZM205.839 435.99C205.839 437.257 204.82 438.186 203.349 438.186C201.877 438.186 200.858 437.257 200.858 435.99C200.858 434.699 201.877 433.771 203.349 433.771C204.82 433.771 205.839 434.699 205.839 435.99ZM205.319 451H201.447V438.82H205.319V451ZM218.16 446.857C218.16 449.551 216.168 451.226 212.5 451.226C208.832 451.226 206.84 449.506 206.591 446.698H210.304C210.304 447.717 211.232 448.374 212.568 448.374C213.451 448.374 214.243 448.17 214.243 447.536C214.243 446.993 213.836 446.766 212.998 446.608L210.598 446.178C208.47 445.793 207.112 444.57 207.112 442.601C207.112 440.246 209.104 438.593 212.296 438.593C215.489 438.593 217.707 440.291 217.934 443.008H214.221C214.13 442.035 213.383 441.446 212.319 441.446C211.413 441.446 210.825 441.695 210.825 442.238C210.825 442.759 211.21 442.917 211.979 443.053L214.56 443.529C216.915 443.959 218.16 445.114 218.16 446.857ZM227.373 447.196V450.57C226.513 451.045 225.698 451.226 224.611 451.226C221.871 451.226 220.264 449.596 220.264 446.812V442.193H218V438.82H220.264V435.242H224.135V438.82H227.463V442.193H224.135V445.906C224.135 447.083 224.633 447.627 225.698 447.627C226.331 447.627 226.943 447.468 227.373 447.196Z" fill="black"/>
</g>
<defs>
<filter id="filter0_d_4173_143708" x="0.415929" y="388.68" width="281.168" height="112.168" filterUnits="userSpaceOnUse" color-interpolation-filters="sRGB">
<feFlood flood-opacity="0" result="BackgroundImageFix"/>
<feColorMatrix in="SourceAlpha" type="matrix" values="0 0 0 0 0 0 0 0 0 0 0 0 0 0 0 0 0 0 127 0" result="hardAlpha"/>
<feOffset dy="2.26401"/>
<feGaussianBlur stdDeviation="6.79204"/>
<feComposite in2="hardAlpha" operator="out"/>
<feColorMatrix type="matrix" values="0 0 0 0 1 0 0 0 0 0.8 0 0 0 0 0.164706 0 0 0 1 0"/>
<feBlend mode="normal" in2="BackgroundImageFix" result="effect1_dropShadow_4173_143708"/>
<feBlend mode="normal" in="SourceGraphic" in2="effect1_dropShadow_4173_143708" result="shape"/>
</filter>
</defs>
</svg>
