<svg width="278" height="113" viewBox="0 0 278 113" fill="none" xmlns="http://www.w3.org/2000/svg">
<g filter="url(#filter0_d_4173_143736)">
<rect x="14" y="12" width="250" height="85" rx="13.5841" fill="#FFCC2A"/>
<path d="M67.1992 46.7444V56.9324C67.1992 60.5549 65.0257 63.3396 60.6562 63.3396C56.3093 63.3396 54.1132 60.5549 54.1132 56.9324H58.4148C58.4148 58.3814 58.7318 59.5134 60.6562 59.5134C62.558 59.5134 62.8976 58.3814 62.8976 57.0004V46.7444H67.1992ZM75.0426 63.2264C71.4428 63.2264 68.6807 60.3964 68.6807 56.9098C68.6807 53.4232 71.4428 50.5932 75.0426 50.5932C78.6424 50.5932 81.4044 53.4232 81.4044 56.9098C81.4044 60.3964 78.6424 63.2264 75.0426 63.2264ZM75.0426 59.7625C76.2425 59.7625 77.3745 58.8116 77.3745 56.9098C77.3745 55.008 76.2425 54.0798 75.0426 54.0798C73.8426 54.0798 72.7106 55.008 72.7106 56.9098C72.7106 58.8116 73.8426 59.7625 75.0426 59.7625ZM87.0746 47.9896C87.0746 49.2574 86.0558 50.1857 84.5841 50.1857C83.1125 50.1857 82.0937 49.2574 82.0937 47.9896C82.0937 46.6991 83.1125 45.7709 84.5841 45.7709C86.0558 45.7709 87.0746 46.6991 87.0746 47.9896ZM86.5538 63H82.6824V50.8196H86.5538V63ZM92.4675 56.5928V63H88.596V50.8196H92.1505V52.2912C93.1014 51.2271 94.2334 50.5932 95.773 50.5932C98.1728 50.5932 99.8708 52.2007 99.8708 55.1665V63H95.9994V56.457C95.9994 54.9175 95.456 54.0798 94.2787 54.0798C93.3278 54.0798 92.4675 54.759 92.4675 56.5928ZM114.212 59.1965V62.5698C113.352 63.0453 112.537 63.2264 111.45 63.2264C108.711 63.2264 107.103 61.5963 107.103 58.8116V54.193H104.839V50.8196H107.103V47.2425H110.975V50.8196H114.303V54.193H110.975V57.906C110.975 59.0833 111.473 59.6266 112.537 59.6266C113.171 59.6266 113.782 59.4681 114.212 59.1965ZM119.406 56.5928V63H115.535V46.7444H119.406V52.1327C120.289 51.1819 121.172 50.5932 122.712 50.5932C125.111 50.5932 126.809 52.2007 126.809 55.1665V63H122.938V56.457C122.938 54.9175 122.395 54.0798 121.217 54.0798C120.266 54.0798 119.406 54.759 119.406 56.5928ZM134.246 63.2038C130.488 63.2038 127.975 60.6681 127.975 56.8872C127.975 53.2421 130.601 50.5932 134.223 50.5932C138.253 50.5932 140.947 53.876 140.246 57.8833H131.982C132.186 59.4229 132.91 60.1926 134.155 60.1926C135.242 60.1926 135.967 59.7398 136.306 58.8569H140.178C139.431 61.6416 137.28 63.2038 134.246 63.2038ZM134.133 53.4459C132.978 53.4459 132.299 54.1024 132.027 55.4608H136.102C136.057 54.2383 135.287 53.4459 134.133 53.4459ZM155.75 63L153.871 56.0948L151.991 63H148.12L144.701 50.8196H148.482L150.18 57.4985L151.969 50.8196H155.84L157.538 57.4985L159.236 50.8196H163.04L159.598 63H155.75ZM170.619 63V61.8227C169.759 62.7962 168.695 63.2264 167.133 63.2264C164.597 63.2264 162.899 61.7095 162.899 59.4002C162.899 57.023 164.823 55.7325 168.31 55.7325C168.967 55.7325 169.578 55.7778 170.099 55.8684V55.2797C170.099 54.2156 169.487 53.627 168.401 53.627C167.336 53.627 166.703 54.2156 166.567 55.2797H163.08C163.306 52.4497 165.412 50.5932 168.423 50.5932C171.774 50.5932 173.744 52.4044 173.744 55.4835V63H170.619ZM166.544 59.287C166.544 60.0794 167.087 60.5549 168.038 60.5549C169.329 60.5549 170.099 59.9436 170.099 58.9474V58.1777C169.51 58.0645 169.057 58.0192 168.559 58.0192C167.246 58.0192 166.544 58.4493 166.544 59.287ZM180.05 47.9896C180.05 49.2574 179.032 50.1857 177.56 50.1857C176.088 50.1857 175.07 49.2574 175.07 47.9896C175.07 46.6991 176.088 45.7709 177.56 45.7709C179.032 45.7709 180.05 46.6991 180.05 47.9896ZM179.53 63H175.658V50.8196H179.53V63ZM189.745 59.1965V62.5698C188.885 63.0453 188.07 63.2264 186.983 63.2264C184.243 63.2264 182.636 61.5963 182.636 58.8116V54.193H180.372V50.8196H182.636V47.2425H186.507V50.8196H189.836V54.193H186.507V57.906C186.507 59.0833 187.006 59.6266 188.07 59.6266C188.704 59.6266 189.315 59.4681 189.745 59.1965ZM194.984 63H191.067V46.7444H194.984V63ZM201.417 47.9896C201.417 49.2574 200.399 50.1857 198.927 50.1857C197.455 50.1857 196.437 49.2574 196.437 47.9896C196.437 46.6991 197.455 45.7709 198.927 45.7709C200.399 45.7709 201.417 46.6991 201.417 47.9896ZM200.897 63H197.025V50.8196H200.897V63ZM213.738 58.8569C213.738 61.551 211.746 63.2264 208.078 63.2264C204.411 63.2264 202.418 61.5058 202.169 58.6984H205.882C205.882 59.7172 206.81 60.3737 208.146 60.3737C209.029 60.3737 209.821 60.17 209.821 59.5361C209.821 58.9927 209.414 58.7663 208.576 58.6078L206.176 58.1777C204.048 57.7928 202.69 56.5702 202.69 54.6005C202.69 52.2459 204.682 50.5932 207.874 50.5932C211.067 50.5932 213.285 52.2912 213.512 55.008H209.799C209.708 54.0345 208.961 53.4459 207.897 53.4459C206.991 53.4459 206.403 53.6949 206.403 54.2383C206.403 54.759 206.788 54.9175 207.557 55.0533L210.138 55.5288C212.493 55.9589 213.738 57.1136 213.738 58.8569ZM222.951 59.1965V62.5698C222.091 63.0453 221.276 63.2264 220.189 63.2264C217.449 63.2264 215.842 61.5963 215.842 58.8116V54.193H213.578V50.8196H215.842V47.2425H219.713V50.8196H223.042V54.193H219.713V57.906C219.713 59.0833 220.212 59.6266 221.276 59.6266C221.91 59.6266 222.521 59.4681 222.951 59.1965Z" fill="black"/>
</g>
<defs>
<filter id="filter0_d_4173_143736" x="0.415929" y="0.679941" width="277.168" height="112.168" filterUnits="userSpaceOnUse" color-interpolation-filters="sRGB">
<feFlood flood-opacity="0" result="BackgroundImageFix"/>
<feColorMatrix in="SourceAlpha" type="matrix" values="0 0 0 0 0 0 0 0 0 0 0 0 0 0 0 0 0 0 127 0" result="hardAlpha"/>
<feOffset dy="2.26401"/>
<feGaussianBlur stdDeviation="6.79204"/>
<feComposite in2="hardAlpha" operator="out"/>
<feColorMatrix type="matrix" values="0 0 0 0 1 0 0 0 0 0.8 0 0 0 0 0.164706 0 0 0 1 0"/>
<feBlend mode="normal" in2="BackgroundImageFix" result="effect1_dropShadow_4173_143736"/>
<feBlend mode="normal" in="SourceGraphic" in2="effect1_dropShadow_4173_143736" result="shape"/>
</filter>
</defs>
</svg>
