<svg width="604" height="611" viewBox="0 0 604 611" fill="none" xmlns="http://www.w3.org/2000/svg">
<path d="M71.4097 109H42.4097V35H70.4097C92.1097 35 107.21 50.2 107.21 72.2C107.21 93.8 92.5097 109 71.4097 109ZM68.8097 50H58.6097V94H69.8097C82.6097 94 90.1097 85.9 90.1097 72.2C90.1097 58.2 82.2097 50 68.8097 50ZM150.35 59V73.5H145.45C136.65 73.5 131.35 77.4 131.35 87.3V109H115.95V59.1H130.45L131.25 66.5C133.35 61.6 137.75 58.3 144.45 58.3C146.25 58.3 148.25 58.5 150.35 59ZM165.104 51.2C160.204 51.2 156.304 47.3 156.304 42.4C156.304 37.5 160.204 33.7 165.104 33.7C169.904 33.7 173.804 37.5 173.804 42.4C173.804 47.3 169.904 51.2 165.104 51.2ZM157.504 109V59H172.904V109H157.504ZM198.023 109L178.523 59H195.123L201.223 76.5C203.723 83.8 205.723 90.1 206.123 92.4C206.723 89.5 208.923 83 211.423 76.5L218.123 59H234.123L213.223 109H198.023ZM260.491 110.3C245.391 110.3 234.591 99.3 234.591 83.9C234.591 68.3 245.091 57.4 260.191 57.4C275.891 57.4 285.691 67.7 285.691 84V87.9L249.391 88.1C250.291 94.7 253.991 97.8 260.791 97.8C266.591 97.8 270.691 95.7 271.791 92.1H285.891C284.091 103.2 274.191 110.3 260.491 110.3ZM260.291 69.9C254.191 69.9 250.791 72.6 249.591 78.6H270.391C270.391 73.3 266.491 69.9 260.291 69.9ZM337.908 109L315.708 35H332.608L342.308 67.1C343.608 71.5 344.808 75.9 346.008 83.2C347.208 75.9 348.408 71.7 349.708 67.1L358.808 35H376.908L385.608 67.1C386.808 71.6 388.008 76.1 389.308 83.2C390.808 75.7 391.908 71.6 393.208 67.3L403.108 35H419.608L397.008 109H381.208L367.708 60.4L353.808 109H337.908ZM433.908 51.2C429.008 51.2 425.108 47.3 425.108 42.4C425.108 37.5 429.008 33.7 433.908 33.7C438.708 33.7 442.608 37.5 442.608 42.4C442.608 47.3 438.708 51.2 433.908 51.2ZM426.308 109V59H441.708V109H426.308ZM472.827 109H457.427V71.8H447.927V59H457.427V43.5H472.827V59H482.327V71.8H472.827V109ZM504.015 109H488.615V33.6H504.115V64.2C507.215 59.9 512.915 57.4 519.415 57.4C531.315 57.4 538.215 65 538.215 78.1V109H522.815V81.8C522.815 75.5 519.315 71.4 514.015 71.4C507.915 71.4 504.015 75.4 504.015 81.6V109ZM7.96096 249V175H38.761C53.661 175 62.661 182.8 62.661 195.5C62.661 203.4 59.061 209.2 52.361 212.1C59.661 214.5 63.561 220.2 63.561 228.6C63.561 241.7 54.761 249 38.761 249H7.96096ZM37.061 189.2H24.161V205.3H37.061C42.861 205.3 46.061 202.4 46.061 197.1C46.061 191.9 42.961 189.2 37.061 189.2ZM37.861 218.9H24.161V234.8H37.861C43.861 234.8 46.961 232.1 46.961 226.6C46.961 221.6 43.761 218.9 37.861 218.9ZM105.131 199H120.531V249H106.031L105.031 243.4C101.931 247.5 95.7311 250.3 89.7311 250.3C78.3311 250.3 71.3311 242.7 71.3311 230.4V199H86.7311V224.8C86.7311 233 89.5311 236.6 95.8311 236.6C102.431 236.6 105.131 233.2 105.131 225V199ZM128.954 223.1C128.954 207.9 138.854 197.3 152.954 197.3C159.754 197.3 165.154 199.9 167.854 204L168.654 199H183.154V245.8C183.154 263.7 172.854 274.5 155.754 274.5C140.454 274.5 130.154 265.8 128.754 251.6H144.354C144.654 257.2 148.854 260.5 155.654 260.5C163.054 260.5 167.754 256.1 167.754 249V242.5C164.754 246.1 159.154 248.4 152.654 248.4C138.654 248.4 128.954 238.1 128.954 223.1ZM144.454 222.7C144.454 229.9 149.254 235 156.054 235C163.054 235 167.754 230.1 167.754 222.7C167.754 215.4 163.054 210.7 155.954 210.7C149.154 210.7 144.454 215.6 144.454 222.7ZM209.201 250.3C198.601 250.3 192.001 244.1 192.001 234.3C192.001 225.1 198.501 219.4 210.501 218.5L224.501 217.4V216.6C224.501 211.7 221.501 209.1 216.001 209.1C209.501 209.1 206.001 211.6 206.001 216.1H193.201C193.201 204.8 202.501 197.4 216.801 197.4C231.301 197.4 239.501 205.5 239.501 219.8V249H225.901L224.901 242.4C223.301 247 216.701 250.3 209.201 250.3ZM214.601 238.9C220.501 238.9 224.601 236 224.601 230.3V227.6L216.801 228.3C210.101 228.9 207.701 230.4 207.701 233.6C207.701 237.2 209.901 238.9 214.601 238.9ZM271.944 190V175H330.144V190H309.144V249H292.944V190H271.944ZM365.76 199V213.5H360.86C352.06 213.5 346.76 217.4 346.76 227.3V249H331.36V199.1H345.86L346.66 206.5C348.76 201.6 353.16 198.3 359.86 198.3C361.66 198.3 363.66 198.5 365.76 199ZM386.061 250.3C375.461 250.3 368.861 244.1 368.861 234.3C368.861 225.1 375.361 219.4 387.361 218.5L401.361 217.4V216.6C401.361 211.7 398.361 209.1 392.861 209.1C386.361 209.1 382.861 211.6 382.861 216.1H370.061C370.061 204.8 379.361 197.4 393.661 197.4C408.161 197.4 416.361 205.5 416.361 219.8V249H402.761L401.761 242.4C400.161 247 393.561 250.3 386.061 250.3ZM391.461 238.9C397.361 238.9 401.461 236 401.461 230.3V227.6L393.661 228.3C386.961 228.9 384.561 230.4 384.561 233.6C384.561 237.2 386.761 238.9 391.461 238.9ZM439.019 249L419.519 199H436.119L442.219 216.5C444.719 223.8 446.719 230.1 447.119 232.4C447.719 229.5 449.919 223 452.419 216.5L459.119 199H475.119L454.219 249H439.019ZM501.487 250.3C486.387 250.3 475.587 239.3 475.587 223.9C475.587 208.3 486.087 197.4 501.187 197.4C516.887 197.4 526.687 207.7 526.687 224V227.9L490.387 228.1C491.287 234.7 494.987 237.8 501.787 237.8C507.587 237.8 511.687 235.7 512.787 232.1H526.887C525.087 243.2 515.187 250.3 501.487 250.3ZM501.287 209.9C495.187 209.9 491.787 212.6 490.587 218.6H511.387C511.387 213.3 507.487 209.9 501.287 209.9ZM550.573 249H535.173V173.6H550.573V249ZM557.892 233.2H572.492C572.692 236.7 575.292 238.8 579.992 238.8C584.792 238.8 586.992 237.1 586.992 234.5C586.992 233 586.192 231.4 582.492 230.6L573.292 228.6C564.092 226.6 559.592 222.6 559.592 213.8C559.592 203.4 568.492 197.4 580.492 197.4C592.092 197.4 600.192 204.2 600.192 214.3H585.592C585.592 210.9 583.492 208.6 579.792 208.6C576.292 208.6 574.092 210.4 574.092 213.1C574.092 215.4 575.992 216.7 579.492 217.5L588.792 219.5C596.992 221.3 601.492 225.1 601.492 233.1C601.492 243.8 592.392 250.3 579.392 250.3C566.192 250.3 557.892 243.3 557.892 233.2Z" fill="#FFCC2A"/>
<path d="M65.36 454H59.08V424.4H65.36L74.16 446.48L83 424.4H89.36V454H83.08V447.8C83.08 441.4 83.08 440 83.4 437.8L77.12 454H71.2L64.96 437.8C65.32 440 65.36 442.48 65.36 445.72V454ZM100.172 454.52C95.9316 454.52 93.2916 452.04 93.2916 448.12C93.2916 444.44 95.8916 442.16 100.692 441.8L106.292 441.36V441.04C106.292 439.08 105.092 438.04 102.892 438.04C100.292 438.04 98.8916 439.04 98.8916 440.84H93.7716C93.7716 436.32 97.4916 433.36 103.212 433.36C109.012 433.36 112.292 436.6 112.292 442.32V454H106.852L106.452 451.36C105.812 453.2 103.172 454.52 100.172 454.52ZM102.332 449.96C104.692 449.96 106.332 448.8 106.332 446.52V445.44L103.212 445.72C100.532 445.96 99.5716 446.56 99.5716 447.84C99.5716 449.28 100.452 449.96 102.332 449.96ZM122.236 454H116.076V423.84H122.236V441.2L128.716 434H136.436L128.916 441.92L136.196 454H129.076L124.596 446.52L122.236 449V454ZM146.597 454.52C140.557 454.52 136.237 450.12 136.237 443.96C136.237 437.72 140.437 433.36 146.477 433.36C152.757 433.36 156.677 437.48 156.677 444V445.56L142.157 445.64C142.517 448.28 143.997 449.52 146.717 449.52C149.037 449.52 150.677 448.68 151.117 447.24H156.757C156.037 451.68 152.077 454.52 146.597 454.52ZM146.517 438.36C144.077 438.36 142.717 439.44 142.237 441.84H150.557C150.557 439.72 148.997 438.36 146.517 438.36ZM176.684 454H170.404V424.4H176.684L185.484 446.48L194.324 424.4H200.684V454H194.404V447.8C194.404 441.4 194.404 440 194.724 437.8L188.444 454H182.524L176.284 437.8C176.644 440 176.684 442.48 176.684 445.72V454ZM204.375 443.96C204.375 437.64 209.015 433.4 215.415 433.4C221.775 433.4 226.415 437.64 226.415 443.96C226.415 450.28 221.775 454.48 215.415 454.48C209.015 454.48 204.375 450.28 204.375 443.96ZM210.575 443.92C210.575 446.96 212.535 448.96 215.415 448.96C218.255 448.96 220.215 446.96 220.215 443.92C220.215 440.92 218.255 438.92 215.415 438.92C212.535 438.92 210.575 440.92 210.575 443.92ZM235.513 454H229.353V434H235.153L235.553 436.08C236.793 434.36 239.073 433.36 241.673 433.36C246.433 433.36 249.193 436.4 249.193 441.64V454H243.033V443.12C243.033 440.6 241.633 438.96 239.513 438.96C237.073 438.96 235.513 440.56 235.513 443.04V454ZM262.257 454.52C256.217 454.52 251.897 450.12 251.897 443.96C251.897 437.72 256.097 433.36 262.137 433.36C268.417 433.36 272.337 437.48 272.337 444V445.56L257.817 445.64C258.177 448.28 259.657 449.52 262.377 449.52C264.697 449.52 266.337 448.68 266.777 447.24H272.417C271.697 451.68 267.737 454.52 262.257 454.52ZM262.177 438.36C259.737 438.36 258.377 439.44 257.897 441.84H266.217C266.217 439.72 264.657 438.36 262.177 438.36ZM272.969 463.6V458.44H276.369C278.449 458.44 279.329 457.8 280.129 455.64L280.489 454.68L272.449 434H279.049L283.409 446.84L288.249 434H294.649L284.489 458.36C282.809 462.44 280.569 464.16 277.049 464.16C275.569 464.16 274.169 463.96 272.969 463.6ZM305.425 443.96C305.425 437.64 310.065 433.4 316.465 433.4C322.825 433.4 327.465 437.64 327.465 443.96C327.465 450.28 322.825 454.48 316.465 454.48C310.065 454.48 305.425 450.28 305.425 443.96ZM311.625 443.92C311.625 446.96 313.585 448.96 316.465 448.96C319.305 448.96 321.265 446.96 321.265 443.92C321.265 440.92 319.305 438.92 316.465 438.92C313.585 438.92 311.625 440.92 311.625 443.92ZM336.563 454H330.403V434H336.203L336.603 436.08C337.843 434.36 340.123 433.36 342.723 433.36C347.483 433.36 350.243 436.4 350.243 441.64V454H344.083V443.12C344.083 440.6 342.683 438.96 340.563 438.96C338.123 438.96 336.563 440.56 336.563 443.04V454ZM372.059 454H365.899V439.12H362.099V434H365.899V427.8H372.059V434H375.859V439.12H372.059V454ZM384.154 454H377.994V423.84H384.194V436.08C385.434 434.36 387.714 433.36 390.314 433.36C395.074 433.36 397.834 436.4 397.834 441.64V454H391.674V443.12C391.674 440.6 390.274 438.96 388.154 438.96C385.714 438.96 384.154 440.56 384.154 443.04V454ZM410.898 454.52C404.858 454.52 400.538 450.12 400.538 443.96C400.538 437.72 404.738 433.36 410.778 433.36C417.058 433.36 420.978 437.48 420.978 444V445.56L406.458 445.64C406.818 448.28 408.298 449.52 411.018 449.52C413.338 449.52 414.978 448.68 415.418 447.24H421.058C420.338 451.68 416.378 454.52 410.898 454.52ZM410.818 438.36C408.378 438.36 407.018 439.44 406.538 441.84H414.858C414.858 439.72 413.298 438.36 410.818 438.36ZM440.984 454H434.704V424.4H440.984L449.784 446.48L458.624 424.4H464.984V454H458.704V447.8C458.704 441.4 458.704 440 459.024 437.8L452.744 454H446.824L440.584 437.8C440.944 440 440.984 442.48 440.984 445.72V454ZM468.676 443.96C468.676 437.64 473.316 433.4 479.716 433.4C486.076 433.4 490.716 437.64 490.716 443.96C490.716 450.28 486.076 454.48 479.716 454.48C473.316 454.48 468.676 450.28 468.676 443.96ZM474.876 443.92C474.876 446.96 476.836 448.96 479.716 448.96C482.556 448.96 484.516 446.96 484.516 443.92C484.516 440.92 482.556 438.92 479.716 438.92C476.836 438.92 474.876 440.92 474.876 443.92ZM498.317 454L490.517 434H497.157L499.597 441C500.597 443.92 501.397 446.44 501.557 447.36C501.797 446.2 502.677 443.6 503.677 441L506.357 434H512.757L504.397 454H498.317ZM522.924 454.52C516.884 454.52 512.564 450.12 512.564 443.96C512.564 437.72 516.764 433.36 522.804 433.36C529.084 433.36 533.004 437.48 533.004 444V445.56L518.484 445.64C518.844 448.28 520.324 449.52 523.044 449.52C525.364 449.52 527.004 448.68 527.444 447.24H533.084C532.364 451.68 528.404 454.52 522.924 454.52ZM522.844 438.36C520.404 438.36 519.044 439.44 518.564 441.84H526.884C526.884 439.72 525.324 438.36 522.844 438.36ZM543.178 445.16H538.098C537.418 441.72 536.978 436.32 536.978 431.08V424.4H544.418V431.08C544.418 436.48 543.898 441.88 543.178 445.16ZM540.658 454.52C538.618 454.52 536.978 452.88 536.978 450.92C536.978 448.92 538.618 447.28 540.658 447.28C542.618 447.28 544.338 448.92 544.338 450.92C544.338 452.88 542.618 454.52 540.658 454.52Z" fill="#FFCC2A"/>
<g filter="url(#filter0_d_4173_143814)">
<path fill-rule="evenodd" clip-rule="evenodd" d="M302.5 600C302.445 584.831 290.154 572.551 275 572.551C290.188 572.551 302.5 560.216 302.5 545C302.555 560.169 314.846 572.449 330 572.449C314.812 572.449 302.5 584.784 302.5 600Z" fill="#FFCC2A"/>
</g>
<path d="M168 331C181.355 331 181.355 349 194.709 349C208.064 349 208.064 331 221.419 331C234.774 331 234.774 349 248.097 349C261.452 349 261.452 331 274.775 331C288.13 331 288.13 349 301.453 349C314.808 349 314.808 331 328.162 331C341.517 331 341.517 349 354.872 349C368.226 349 368.226 331 381.581 331C394.936 331 394.936 349 408.291 349C421.645 349 421.645 331 435 331" stroke="#FFCC2A" stroke-width="3" stroke-miterlimit="10" stroke-linecap="round"/>
<defs>
<filter id="filter0_d_4173_143814" x="267.466" y="540.479" width="70.0685" height="70.0685" filterUnits="userSpaceOnUse" color-interpolation-filters="sRGB">
<feFlood flood-opacity="0" result="BackgroundImageFix"/>
<feColorMatrix in="SourceAlpha" type="matrix" values="0 0 0 0 0 0 0 0 0 0 0 0 0 0 0 0 0 0 127 0" result="hardAlpha"/>
<feOffset dy="3.0137"/>
<feGaussianBlur stdDeviation="3.76712"/>
<feComposite in2="hardAlpha" operator="out"/>
<feColorMatrix type="matrix" values="0 0 0 0 1 0 0 0 0 0.8 0 0 0 0 0.164706 0 0 0 0.5 0"/>
<feBlend mode="normal" in2="BackgroundImageFix" result="effect1_dropShadow_4173_143814"/>
<feBlend mode="normal" in="SourceGraphic" in2="effect1_dropShadow_4173_143814" result="shape"/>
</filter>
</defs>
</svg>
