<svg width="182" height="61" viewBox="0 0 182 61" fill="none" xmlns="http://www.w3.org/2000/svg">
<g filter="url(#filter0_d_4177_150271)">
<rect x="8" y="7" width="166" height="44.4838" rx="7.34513" fill="#FFCC2A"/>
<path d="M33.6226 34.4256C31.1252 34.4256 29.1543 32.4179 29.1543 29.8349C29.1543 27.2641 31.1252 25.2686 33.6226 25.2686C36.0342 25.2686 37.895 26.8723 38.1766 29.1983H35.7282C35.5446 28.0965 34.7244 27.3375 33.6471 27.3375C32.3494 27.3375 31.5292 28.3414 31.5292 29.8349C31.5292 31.3406 32.3494 32.3567 33.6471 32.3567C34.7121 32.3567 35.5323 31.5977 35.7282 30.4837H38.1766C37.8828 32.8341 36.0342 34.4256 33.6226 34.4256ZM41.0285 31.206V34.2419H38.9352V27.6558H40.8572V28.8188C41.3591 28.0475 42.3996 27.6068 43.4524 27.6068V29.7859C41.9712 29.639 41.0285 29.7492 41.0285 31.206ZM46.9008 34.3521C44.8687 34.3521 43.5098 32.981 43.5098 30.9366C43.5098 28.9657 44.9299 27.5334 46.8886 27.5334C49.0676 27.5334 50.5244 29.3085 50.1449 31.4753H45.6766C45.7868 32.3077 46.1786 32.7239 46.8519 32.7239C47.4395 32.7239 47.8312 32.4791 48.0148 32.0017H50.1082C49.7042 33.5074 48.5412 34.3521 46.9008 34.3521ZM46.8396 29.0759C46.2153 29.0759 45.848 29.4309 45.7011 30.1654H47.9047C47.8802 29.5043 47.464 29.0759 46.8396 29.0759ZM54.7457 34.2419V33.6054C54.2805 34.1318 53.7051 34.3644 52.8604 34.3644C51.4893 34.3644 50.5712 33.5442 50.5712 32.2955C50.5712 31.0101 51.6118 30.3123 53.497 30.3123C53.852 30.3123 54.1825 30.3368 54.4641 30.3857V30.0675C54.4641 29.4921 54.1336 29.1738 53.546 29.1738C52.9706 29.1738 52.6278 29.4921 52.5544 30.0675H50.6691C50.7915 28.5372 51.93 27.5334 53.5582 27.5334C55.37 27.5334 56.4351 28.5127 56.4351 30.1776V34.2419H54.7457ZM52.5421 32.2343C52.5421 32.6627 52.8359 32.9198 53.3501 32.9198C54.0479 32.9198 54.4641 32.5893 54.4641 32.0506V31.6344C54.1458 31.5732 53.901 31.5487 53.6317 31.5487C52.9216 31.5487 52.5421 31.7813 52.5421 32.2343ZM61.7701 32.1853V34.0093C61.3049 34.2664 60.8642 34.3644 60.2766 34.3644C58.7953 34.3644 57.9262 33.4829 57.9262 31.9772V29.4798H56.702V27.6558H57.9262V25.7216H60.0195V27.6558H61.8191V29.4798H60.0195V31.4875C60.0195 32.1241 60.2889 32.4179 60.8642 32.4179C61.207 32.4179 61.5375 32.3322 61.7701 32.1853ZM65.3404 34.3521C63.3082 34.3521 61.9494 32.981 61.9494 30.9366C61.9494 28.9657 63.3694 27.5334 65.3281 27.5334C67.5072 27.5334 68.964 29.3085 68.5845 31.4753H64.1162C64.2263 32.3077 64.6181 32.7239 65.2914 32.7239C65.879 32.7239 66.2707 32.4791 66.4544 32.0017H68.5477C68.1438 33.5074 66.9808 34.3521 65.3404 34.3521ZM65.2791 29.0759C64.6548 29.0759 64.2876 29.4309 64.1407 30.1654H66.3442C66.3197 29.5043 65.9035 29.0759 65.2791 29.0759ZM75.4743 34.2419V33.6054C75.0091 34.1318 74.4337 34.3644 73.589 34.3644C72.2179 34.3644 71.2998 33.5442 71.2998 32.2955C71.2998 31.0101 72.3403 30.3123 74.2256 30.3123C74.5806 30.3123 74.9111 30.3368 75.1927 30.3857V30.0675C75.1927 29.4921 74.8622 29.1738 74.2745 29.1738C73.6992 29.1738 73.3564 29.4921 73.283 30.0675H71.3977C71.5201 28.5372 72.6586 27.5334 74.2868 27.5334C76.0986 27.5334 77.1636 28.5127 77.1636 30.1776V34.2419H75.4743ZM73.2707 32.2343C73.2707 32.6627 73.5645 32.9198 74.0787 32.9198C74.7765 32.9198 75.1927 32.5893 75.1927 32.0506V31.6344C74.8744 31.5732 74.6296 31.5487 74.3602 31.5487C73.6502 31.5487 73.2707 31.7813 73.2707 32.2343ZM83.2179 34.2419H81.1245V29.4798H79.9004V27.6558H81.1245V27.4232C81.1245 26.0644 81.8591 25.3054 83.3281 25.3054C83.8055 25.3054 84.2095 25.3911 84.5156 25.5257V27.1784C84.3442 27.1049 84.0748 27.056 83.8545 27.056C83.4995 27.056 83.2179 27.1661 83.2179 27.4722V27.6558H84.8338V29.4798H83.2179V34.2419ZM87.4646 31.206V34.2419H85.3712V27.6558H87.2932V28.8188C87.7951 28.0475 88.8357 27.6068 89.8885 27.6068V29.7859C88.4072 29.639 87.4646 29.7492 87.4646 31.206ZM93.3369 34.3521C91.3047 34.3521 89.9459 32.981 89.9459 30.9366C89.9459 28.9657 91.3659 27.5334 93.3246 27.5334C95.5037 27.5334 96.9605 29.3085 96.581 31.4753H92.1127C92.2229 32.3077 92.6146 32.7239 93.2879 32.7239C93.8755 32.7239 94.2673 32.4791 94.4509 32.0017H96.5443C96.1403 33.5074 94.9773 34.3521 93.3369 34.3521ZM93.2757 29.0759C92.6513 29.0759 92.2841 29.4309 92.1372 30.1654H94.3407C94.3162 29.5043 93.9 29.0759 93.2757 29.0759ZM100.181 34.3521C98.1486 34.3521 96.7898 32.981 96.7898 30.9366C96.7898 28.9657 98.2098 27.5334 100.169 27.5334C102.348 27.5334 103.804 29.3085 103.425 31.4753H98.9566C99.0668 32.3077 99.4585 32.7239 100.132 32.7239C100.719 32.7239 101.111 32.4791 101.295 32.0017H103.388C102.984 33.5074 101.821 34.3521 100.181 34.3521ZM100.12 29.0759C99.4952 29.0759 99.128 29.4309 98.9811 30.1654H101.185C101.16 29.5043 100.744 29.0759 100.12 29.0759ZM110.315 34.2419V33.6054C109.849 34.1318 109.274 34.3644 108.429 34.3644C107.058 34.3644 106.14 33.5442 106.14 32.2955C106.14 31.0101 107.181 30.3123 109.066 30.3123C109.421 30.3123 109.752 30.3368 110.033 30.3857V30.0675C110.033 29.4921 109.703 29.1738 109.115 29.1738C108.54 29.1738 108.197 29.4921 108.123 30.0675H106.238C106.361 28.5372 107.499 27.5334 109.127 27.5334C110.939 27.5334 112.004 28.5127 112.004 30.1776V34.2419H110.315ZM108.111 32.2343C108.111 32.6627 108.405 32.9198 108.919 32.9198C109.617 32.9198 110.033 32.5893 110.033 32.0506V31.6344C109.715 31.5732 109.47 31.5487 109.201 31.5487C108.491 31.5487 108.111 31.7813 108.111 32.2343ZM115.941 34.3644C113.982 34.3644 112.623 32.9565 112.623 30.9489C112.623 28.9902 114.043 27.5334 115.941 27.5334C117.752 27.5334 119.099 28.7576 119.283 30.5939H117.055C117.018 29.8716 116.589 29.4186 115.953 29.4186C115.218 29.4186 114.79 29.9818 114.79 30.9489C114.79 31.9405 115.206 32.4914 115.953 32.4914C116.602 32.4914 117.006 32.0506 117.055 31.3039H119.283C119.099 33.1891 117.814 34.3644 115.941 34.3644ZM122.868 34.3644C120.91 34.3644 119.551 32.9565 119.551 30.9489C119.551 28.9902 120.971 27.5334 122.868 27.5334C124.68 27.5334 126.027 28.7576 126.21 30.5939H123.982C123.946 29.8716 123.517 29.4186 122.88 29.4186C122.146 29.4186 121.718 29.9818 121.718 30.9489C121.718 31.9405 122.134 32.4914 122.88 32.4914C123.529 32.4914 123.933 32.0506 123.982 31.3039H126.21C126.027 33.1891 124.741 34.3644 122.868 34.3644ZM129.918 34.3644C127.972 34.3644 126.478 32.8341 126.478 30.9489C126.478 29.0636 127.972 27.5334 129.918 27.5334C131.865 27.5334 133.358 29.0636 133.358 30.9489C133.358 32.8341 131.865 34.3644 129.918 34.3644ZM129.918 32.4914C130.567 32.4914 131.179 31.9772 131.179 30.9489C131.179 29.9206 130.567 29.4186 129.918 29.4186C129.269 29.4186 128.657 29.9206 128.657 30.9489C128.657 31.9772 129.269 32.4914 129.918 32.4914ZM137.954 31.4141V27.6558H140.048V34.2419H138.126V33.5319C137.758 34.0216 137.061 34.3644 136.289 34.3644C134.98 34.3644 133.988 33.5442 133.988 31.8058V27.6558H136.081V31.4141C136.081 32.1363 136.436 32.4914 137.024 32.4914C137.44 32.4914 137.954 32.1608 137.954 31.4141ZM143.237 30.7775V34.2419H141.144V27.6558H143.066V28.4515C143.58 27.8762 144.192 27.5334 145.025 27.5334C146.322 27.5334 147.241 28.4026 147.241 30.0063V34.2419H145.147V30.704C145.147 29.8716 144.853 29.4186 144.217 29.4186C143.703 29.4186 143.237 29.7859 143.237 30.7775ZM152.646 32.1853V34.0093C152.181 34.2664 151.741 34.3644 151.153 34.3644C149.672 34.3644 148.802 33.4829 148.802 31.9772V29.4798H147.578V27.6558H148.802V25.7216H150.896V27.6558H152.695V29.4798H150.896V31.4875C150.896 32.1241 151.165 32.4179 151.741 32.4179C152.083 32.4179 152.414 32.3322 152.646 32.1853Z" fill="black"/>
</g>
<defs>
<filter id="filter0_d_4177_150271" x="0.654868" y="0.879056" width="180.69" height="59.174" filterUnits="userSpaceOnUse" color-interpolation-filters="sRGB">
<feFlood flood-opacity="0" result="BackgroundImageFix"/>
<feColorMatrix in="SourceAlpha" type="matrix" values="0 0 0 0 0 0 0 0 0 0 0 0 0 0 0 0 0 0 127 0" result="hardAlpha"/>
<feOffset dy="1.22419"/>
<feGaussianBlur stdDeviation="3.67257"/>
<feComposite in2="hardAlpha" operator="out"/>
<feColorMatrix type="matrix" values="0 0 0 0 1 0 0 0 0 0.8 0 0 0 0 0.164706 0 0 0 1 0"/>
<feBlend mode="normal" in2="BackgroundImageFix" result="effect1_dropShadow_4177_150271"/>
<feBlend mode="normal" in="SourceGraphic" in2="effect1_dropShadow_4177_150271" result="shape"/>
</filter>
</defs>
</svg>
