<svg width="128" height="151" viewBox="0 0 128 151" fill="none" xmlns="http://www.w3.org/2000/svg">
<path d="M116.572 107.429H107.428V43.4288C107.428 27.9141 99.1516 13.5767 85.7146 5.81833C72.2776 -1.93944 55.7215 -1.93944 42.2854 5.81833C28.8484 13.5761 20.5717 27.9132 20.5717 43.4288V107.429H11.4283C7.34602 107.429 3.57293 109.607 1.53166 113.143C-0.510553 116.679 -0.510553 121.036 1.53166 124.572C3.57273 128.107 7.34602 130.286 11.4283 130.286H41.2568C42.0202 137.871 46.5134 144.576 53.2391 148.166C59.9639 151.754 68.0364 151.754 74.7609 148.166C81.4869 144.576 85.98 137.871 86.7432 130.286H116.572C120.654 130.286 124.427 128.107 126.468 124.572C128.511 121.036 128.511 116.68 126.468 113.143C124.427 109.607 120.654 107.429 116.572 107.429ZM64 137.143C61.5755 137.143 59.2498 136.18 57.5347 134.465C55.8208 132.751 54.8576 130.425 54.8576 128.001C54.8576 125.575 55.8208 123.25 57.5347 121.536C59.2497 119.821 61.5755 118.858 64 118.858C66.4245 118.858 68.7502 119.821 70.4653 121.536C72.1792 123.25 73.1423 125.575 73.1423 128.001C73.1435 130.425 72.1804 132.751 70.4653 134.466C68.7514 136.181 66.4245 137.144 64 137.143ZM65.8517 106.468C65.4269 107.071 64.737 107.429 64 107.429C63.263 107.429 62.5731 107.071 62.1483 106.468C61.3712 105.394 43.4286 79.7026 43.4286 38.856C43.4286 31.5067 47.3501 24.7155 53.7144 21.0409C60.0786 17.3662 67.9216 17.3662 74.2858 21.0409C80.65 24.7155 84.5715 31.5067 84.5715 38.856C84.5715 79.702 66.6287 105.393 65.8517 106.468Z" fill="black"/>
</svg>
