<svg width="351" height="218" viewBox="0 0 351 218" fill="none" xmlns="http://www.w3.org/2000/svg">
<path d="M15.4132 50V34.7058H30.3503V24.9461H15.4132V17.0313H33.2663V7.27156H4.16572V50H15.4132ZM63.3683 50H75.5084L59.8572 7.27156H47.5385L31.7088 50H43.0753L45.7532 42.0851H60.7498L63.3683 50ZM53.3706 19.6497L57.8338 33.2181H48.7883L53.3706 19.6497ZM95.8614 50.8927C96.7541 50.8927 97.5872 50.8331 98.4799 50.7736L103.955 60.8309H115.202L108.061 47.3815C114.072 43.5729 117.94 36.7887 117.94 28.5763C117.94 15.603 108.24 6.37891 95.8614 6.37891C83.5428 6.37891 73.8426 15.603 73.8426 28.5763C73.8426 41.5495 83.5428 50.8927 95.8614 50.8927ZM95.8614 40.8354C89.1368 40.8354 85.3876 35.3009 85.3876 28.5763C85.3876 21.8516 89.1368 16.4362 95.8614 16.4362C102.586 16.4362 106.335 21.8516 106.335 28.5763C106.335 35.3009 102.586 40.8354 95.8614 40.8354Z" fill="black"/>
<path d="M4.98781 128V119.457H14.6451V128H17.5635V108.951H14.6451V116.91H4.98781V108.951H2.06941V128H4.98781ZM29.3121 128H31.5407V118.979C31.5407 115.637 29.5244 113.673 26.0488 113.673C22.759 113.673 20.5038 115.769 20.3712 118.926H22.812C22.8916 116.963 24.0855 115.796 26.0488 115.796C27.906 115.796 28.9937 116.937 28.9937 118.953V119.988C27.8529 119.855 27.1896 119.828 26.3672 119.828C22.1753 119.828 19.9732 121.261 19.9732 124.02C19.9732 126.594 21.8835 128.265 24.8019 128.265C26.8713 128.265 28.4366 127.39 29.3121 125.824V128ZM22.5202 123.941C22.5202 122.296 23.8467 121.5 26.5264 121.5C27.2162 121.5 27.959 121.526 28.9937 121.659V122.8C28.9937 124.949 27.5876 126.355 25.3325 126.355C23.608 126.355 22.5202 125.4 22.5202 123.941ZM45.656 113.939H42.9233L38.9702 124.922L35.0702 113.939H32.1783L37.4579 128H40.3763L45.656 113.939ZM52.2015 128.265C55.5178 128.265 57.9321 126.382 58.622 123.251H55.9689C55.5178 125.082 54.1382 126.169 52.1484 126.169C49.7872 126.169 48.3545 124.498 48.1422 121.633H58.622C59.0995 117.069 56.3138 113.673 52.1219 113.673C48.2484 113.673 45.4096 116.724 45.4096 120.89C45.4096 125.32 48.1422 128.265 52.2015 128.265ZM52.0688 115.69C54.2444 115.69 55.6505 117.255 55.7831 119.855H48.1688C48.4606 117.228 49.9198 115.69 52.0688 115.69ZM76.7573 123.808C76.7573 121.792 75.4308 120.571 72.645 120.067L70.2572 119.616C68.5593 119.298 67.8429 118.767 67.8429 117.626C67.8429 116.406 68.9838 115.69 70.6817 115.69C72.5654 115.69 73.8124 116.671 73.9716 118.369H76.5451C76.3063 115.477 74.0246 113.673 70.6552 113.673C67.3919 113.673 65.2429 115.398 65.2429 117.865C65.2429 119.988 66.7021 121.314 69.3021 121.818L71.5838 122.243C73.3348 122.588 74.0512 123.092 74.0512 124.259C74.0512 125.586 72.8042 126.249 70.9205 126.249C68.7715 126.249 67.3654 125.161 67.2592 123.41H64.6857C64.9511 126.435 67.1531 128.265 70.8674 128.265C74.6083 128.265 76.7573 126.567 76.7573 123.808ZM84.8723 128.265C88.8519 128.265 91.7703 125.135 91.7703 120.969C91.7703 116.804 88.8519 113.673 84.8723 113.673C80.8926 113.673 77.9742 116.804 77.9742 120.969C77.9742 125.135 80.8926 128.265 84.8723 128.265ZM84.8723 125.904C82.5641 125.904 80.76 124.047 80.76 120.969C80.76 117.892 82.5641 116.061 84.8723 116.061C87.1804 116.061 89.0111 117.892 89.0111 120.969C89.0111 124.047 87.1804 125.904 84.8723 125.904ZM96.481 128V119.935C96.481 117.573 97.9402 116.035 99.7974 116.035C101.761 116.035 102.795 117.414 102.795 119.749V128H105.475V119.935C105.475 117.573 106.961 116.035 108.791 116.035C110.755 116.035 111.789 117.414 111.789 119.749V128H114.469V118.9C114.469 115.557 112.612 113.673 109.72 113.673C107.571 113.673 105.953 114.788 104.971 116.592C104.334 114.735 102.769 113.673 100.699 113.673C98.7627 113.673 97.2504 114.655 96.2953 116.273V113.939H93.8014V128H96.481ZM123.135 128.265C126.452 128.265 128.866 126.382 129.556 123.251H126.903C126.452 125.082 125.072 126.169 123.082 126.169C120.721 126.169 119.288 124.498 119.076 121.633H129.556C130.033 117.069 127.248 113.673 123.056 113.673C119.182 113.673 116.344 116.724 116.344 120.89C116.344 125.32 119.076 128.265 123.135 128.265ZM123.003 115.69C125.178 115.69 126.584 117.255 126.717 119.855H119.103C119.395 117.228 120.854 115.69 123.003 115.69ZM135.54 120.969C135.54 125.214 137.981 128.265 141.775 128.265C143.659 128.265 145.277 127.31 146.285 125.612V133.12H148.965V113.939H146.471V116.539C145.489 114.708 143.791 113.673 141.775 113.673C137.981 113.673 135.54 116.724 135.54 120.969ZM138.326 120.969C138.326 117.812 139.971 116.035 142.306 116.035C144.561 116.035 146.285 117.812 146.285 120.969C146.285 124.073 144.587 125.878 142.306 125.878C139.971 125.878 138.326 124.126 138.326 120.969ZM160.771 122.216C160.771 124.418 159.312 125.904 157.508 125.904C155.756 125.904 154.536 124.896 154.536 122.455V113.939H151.856V122.986C151.856 126.594 153.82 128.265 156.659 128.265C158.569 128.265 160.214 127.231 160.957 125.771V128H163.45V113.939H160.771V122.216ZM172.255 128.265C175.571 128.265 177.986 126.382 178.675 123.251H176.022C175.571 125.082 174.192 126.169 172.202 126.169C169.841 126.169 168.408 124.498 168.196 121.633H178.675C179.153 117.069 176.367 113.673 172.175 113.673C168.302 113.673 165.463 116.724 165.463 120.89C165.463 125.32 168.196 128.265 172.255 128.265ZM172.122 115.69C174.298 115.69 175.704 117.255 175.837 119.855H168.222C168.514 117.228 169.973 115.69 172.122 115.69ZM191.967 123.808C191.967 121.792 190.64 120.571 187.855 120.067L185.467 119.616C183.769 119.298 183.052 118.767 183.052 117.626C183.052 116.406 184.193 115.69 185.891 115.69C187.775 115.69 189.022 116.671 189.181 118.369H191.755C191.516 115.477 189.234 113.673 185.865 113.673C182.601 113.673 180.452 115.398 180.452 117.865C180.452 119.988 181.912 121.314 184.512 121.818L186.793 122.243C188.544 122.588 189.261 123.092 189.261 124.259C189.261 125.586 188.014 126.249 186.13 126.249C183.981 126.249 182.575 125.161 182.469 123.41H179.895C180.161 126.435 182.363 128.265 186.077 128.265C189.818 128.265 191.967 126.567 191.967 123.808ZM201.943 125.4C201.386 125.665 200.829 125.771 200.192 125.771C198.76 125.771 197.831 125.082 197.831 123.145V116.22H202.076V113.939H197.831V109.773H195.151V113.939H192.047V116.22H195.151V123.755C195.151 126.859 196.956 128.265 199.556 128.265C200.405 128.265 201.121 128.133 201.943 127.761V125.4ZM207.196 110.675C207.196 109.641 206.4 108.898 205.259 108.898C204.118 108.898 203.296 109.641 203.296 110.675C203.296 111.683 204.118 112.453 205.259 112.453C206.4 112.453 207.196 111.683 207.196 110.675ZM206.612 128V113.939H203.933V128H206.612ZM215.522 128.265C219.501 128.265 222.42 125.135 222.42 120.969C222.42 116.804 219.501 113.673 215.522 113.673C211.542 113.673 208.624 116.804 208.624 120.969C208.624 125.135 211.542 128.265 215.522 128.265ZM215.522 125.904C213.213 125.904 211.409 124.047 211.409 120.969C211.409 117.892 213.213 116.061 215.522 116.061C217.83 116.061 219.66 117.892 219.66 120.969C219.66 124.047 217.83 125.904 215.522 125.904ZM227.13 120.067C227.13 117.573 228.669 116.035 230.5 116.035C232.49 116.035 233.551 117.388 233.551 119.802V128H236.23V118.9C236.23 115.53 234.32 113.673 231.428 113.673C229.492 113.673 227.9 114.708 226.945 116.273V113.939H224.451V128H227.13V120.067ZM250.231 123.808C250.231 121.792 248.905 120.571 246.119 120.067L243.731 119.616C242.033 119.298 241.317 118.767 241.317 117.626C241.317 116.406 242.458 115.69 244.156 115.69C246.039 115.69 247.286 116.671 247.446 118.369H250.019C249.78 115.477 247.499 113.673 244.129 113.673C240.866 113.673 238.717 115.398 238.717 117.865C238.717 119.988 240.176 121.314 242.776 121.818L245.058 122.243C246.809 122.588 247.525 123.092 247.525 124.259C247.525 125.586 246.278 126.249 244.395 126.249C242.245 126.249 240.839 125.161 240.733 123.41H238.16C238.425 126.435 240.627 128.265 244.341 128.265C248.082 128.265 250.231 126.567 250.231 123.808ZM253.624 113.859C253.703 112.214 254.924 111.073 256.728 111.073C258.638 111.073 259.805 112.214 259.805 113.726C259.805 114.841 259.222 115.504 258.214 116.406L256.622 117.812C255.083 119.165 255.056 120.359 255.64 122.773H257.444C257.232 120.677 257.524 119.961 258.824 118.847L260.389 117.573C261.848 116.326 262.75 115.106 262.75 113.488C262.75 110.728 260.442 108.685 256.993 108.685C253.65 108.685 251.183 110.808 251.077 113.859H253.624ZM258.612 126.143C258.612 124.949 257.709 124.1 256.489 124.1C255.269 124.1 254.367 124.949 254.367 126.143C254.367 127.284 255.295 128.133 256.489 128.133C257.683 128.133 258.612 127.284 258.612 126.143Z" fill="#020202"/>
<path d="M16.5818 200H19.6063L24.5676 180.951H21.7023L18.041 195.649L14.0879 180.951H11.0634L7.05722 195.622L3.39596 180.951H0.530618L5.4919 200H8.48989L12.5491 185.063L16.5818 200ZM30.8544 200.265C34.1708 200.265 36.5851 198.382 37.2749 195.251H34.6218C34.1708 197.082 32.7912 198.169 30.8014 198.169C28.4401 198.169 27.0074 196.498 26.7952 193.633H37.2749C37.7525 189.069 34.9667 185.673 30.7748 185.673C26.9013 185.673 24.0625 188.724 24.0625 192.89C24.0625 197.32 26.7952 200.265 30.8544 200.265ZM30.7218 187.69C32.8973 187.69 34.3034 189.255 34.4361 191.855H26.8217C27.1136 189.228 28.5728 187.69 30.7218 187.69ZM46.9469 200V191.935C46.9469 189.573 48.4061 188.035 50.2633 188.035C52.2266 188.035 53.2613 189.414 53.2613 191.749V200H55.9409V191.935C55.9409 189.573 57.4266 188.035 59.2572 188.035C61.2205 188.035 62.2552 189.414 62.2552 191.749V200H64.9349V190.9C64.9349 187.557 63.0777 185.673 60.1858 185.673C58.0368 185.673 56.4184 186.788 55.4368 188.592C54.8001 186.735 53.2347 185.673 51.1653 185.673C49.2286 185.673 47.7163 186.655 46.7612 188.273V185.939H44.2673V200H46.9469ZM76.334 200H78.5626V190.979C78.5626 187.637 76.5463 185.673 73.0707 185.673C69.7809 185.673 67.5258 187.769 67.3931 190.926H69.834C69.9136 188.963 71.1075 187.796 73.0707 187.796C74.9279 187.796 76.0157 188.937 76.0157 190.953V191.988C74.8748 191.855 74.2116 191.828 73.3891 191.828C69.1972 191.828 66.9952 193.261 66.9952 196.02C66.9952 198.594 68.9054 200.265 71.8238 200.265C73.8932 200.265 75.4585 199.39 76.334 197.824V200ZM69.5421 195.941C69.5421 194.296 70.8687 193.5 73.5483 193.5C74.2381 193.5 74.981 193.526 76.0157 193.659V194.8C76.0157 196.949 74.6095 198.355 72.3544 198.355C70.6299 198.355 69.5421 197.4 69.5421 195.941ZM92.6779 185.939H89.9718L86.1779 196.657L82.0921 185.939H79.2002L84.7452 199.814L82.7288 205.12H85.6472L92.6779 185.939ZM107.241 200H109.469V190.979C109.469 187.637 107.453 185.673 103.977 185.673C100.687 185.673 98.4323 187.769 98.2996 190.926H100.74C100.82 188.963 102.014 187.796 103.977 187.796C105.834 187.796 106.922 188.937 106.922 190.953V191.988C105.781 191.855 105.118 191.828 104.296 191.828C100.104 191.828 97.9016 193.261 97.9016 196.02C97.9016 198.594 99.8119 200.265 102.73 200.265C104.8 200.265 106.365 199.39 107.241 197.824V200ZM100.449 195.941C100.449 194.296 101.775 193.5 104.455 193.5C105.145 193.5 105.887 193.526 106.922 193.659V194.8C106.922 196.949 105.516 198.355 103.261 198.355C101.536 198.355 100.449 197.4 100.449 195.941ZM115.057 200V180.951H112.351V200H115.057ZM120.756 192.81C120.756 189.706 122.958 188.379 125.982 188.539V185.753C123.674 185.753 121.552 186.973 120.57 188.91V185.939H118.076V200H120.756V192.81ZM133.134 200.265C136.451 200.265 138.865 198.382 139.555 195.251H136.902C136.451 197.082 135.071 198.169 133.081 198.169C130.72 198.169 129.287 196.498 129.075 193.633H139.555C140.032 189.069 137.247 185.673 133.055 185.673C129.181 185.673 126.342 188.724 126.342 192.89C126.342 197.32 129.075 200.265 133.134 200.265ZM133.002 187.69C135.177 187.69 136.583 189.255 136.716 191.855H129.102C129.393 189.228 130.853 187.69 133.002 187.69ZM150.22 200H152.448V190.979C152.448 187.637 150.432 185.673 146.956 185.673C143.666 185.673 141.411 187.769 141.279 190.926H143.72C143.799 188.963 144.993 187.796 146.956 187.796C148.813 187.796 149.901 188.937 149.901 190.953V191.988C148.76 191.855 148.097 191.828 147.275 191.828C143.083 191.828 140.881 193.261 140.881 196.02C140.881 198.594 142.791 200.265 145.709 200.265C147.779 200.265 149.344 199.39 150.22 197.824V200ZM143.428 195.941C143.428 194.296 144.754 193.5 147.434 193.5C148.124 193.5 148.867 193.526 149.901 193.659V194.8C149.901 196.949 148.495 198.355 146.24 198.355C144.515 198.355 143.428 197.4 143.428 195.941ZM154.322 192.969C154.322 197.188 156.763 200.265 160.557 200.265C162.547 200.265 164.245 199.257 165.253 197.48V200H167.747V180.951H165.067V188.353C164.086 186.628 162.441 185.673 160.557 185.673C156.763 185.673 154.322 188.698 154.322 192.969ZM157.108 192.969C157.108 189.786 158.753 188.035 161.088 188.035C163.316 188.035 165.067 189.759 165.067 192.916C165.067 196.02 163.369 197.878 161.088 197.878C158.753 197.878 157.108 196.1 157.108 192.969ZM182.445 185.939H179.739L175.945 196.657L171.859 185.939H168.967L174.512 199.814L172.496 205.12H175.414L182.445 185.939ZM191.171 192.067C191.171 189.573 192.709 188.035 194.54 188.035C196.53 188.035 197.591 189.388 197.591 191.802V200H200.271V190.9C200.271 187.53 198.36 185.673 195.469 185.673C193.532 185.673 192.099 186.681 191.171 188.194V180.951H188.491V200H191.171V192.067ZM211.645 200H213.874V190.979C213.874 187.637 211.857 185.673 208.382 185.673C205.092 185.673 202.837 187.769 202.704 190.926H205.145C205.224 188.963 206.418 187.796 208.382 187.796C210.239 187.796 211.327 188.937 211.327 190.953V191.988C210.186 191.855 209.522 191.828 208.7 191.828C204.508 191.828 202.306 193.261 202.306 196.02C202.306 198.594 204.216 200.265 207.135 200.265C209.204 200.265 210.769 199.39 211.645 197.824V200ZM204.853 195.941C204.853 194.296 206.18 193.5 208.859 193.5C209.549 193.5 210.292 193.526 211.327 193.659V194.8C211.327 196.949 209.92 198.355 207.665 198.355C205.941 198.355 204.853 197.4 204.853 195.941ZM227.989 185.939H225.256L221.303 196.922L217.403 185.939H214.511L219.791 200H222.709L227.989 185.939ZM234.534 200.265C237.851 200.265 240.265 198.382 240.955 195.251H238.302C237.851 197.082 236.471 198.169 234.481 198.169C232.12 198.169 230.687 196.498 230.475 193.633H240.955C241.432 189.069 238.647 185.673 234.455 185.673C230.581 185.673 227.742 188.724 227.742 192.89C227.742 197.32 230.475 200.265 234.534 200.265ZM234.402 187.69C236.577 187.69 237.983 189.255 238.116 191.855H230.502C230.793 189.228 232.253 187.69 234.402 187.69ZM256.464 200H258.692V190.979C258.692 187.637 256.676 185.673 253.2 185.673C249.91 185.673 247.655 187.769 247.523 190.926H249.964C250.043 188.963 251.237 187.796 253.2 187.796C255.057 187.796 256.145 188.937 256.145 190.953V191.988C255.004 191.855 254.341 191.828 253.519 191.828C249.327 191.828 247.125 193.261 247.125 196.02C247.125 198.594 249.035 200.265 251.953 200.265C254.023 200.265 255.588 199.39 256.464 197.824V200ZM249.672 195.941C249.672 194.296 250.998 193.5 253.678 193.5C254.368 193.5 255.111 193.526 256.145 193.659V194.8C256.145 196.949 254.739 198.355 252.484 198.355C250.759 198.355 249.672 197.4 249.672 195.941ZM264.254 192.067C264.254 189.573 265.793 188.035 267.623 188.035C269.613 188.035 270.674 189.388 270.674 191.802V200H273.354V190.9C273.354 187.53 271.444 185.673 268.552 185.673C266.615 185.673 265.023 186.708 264.068 188.273V185.939H261.574V200H264.254V192.067ZM287.355 195.808C287.355 193.792 286.028 192.571 283.243 192.067L280.855 191.616C279.157 191.298 278.441 190.767 278.441 189.626C278.441 188.406 279.581 187.69 281.279 187.69C283.163 187.69 284.41 188.671 284.569 190.369H287.143C286.904 187.477 284.622 185.673 281.253 185.673C277.99 185.673 275.841 187.398 275.841 189.865C275.841 191.988 277.3 193.314 279.9 193.818L282.181 194.243C283.932 194.588 284.649 195.092 284.649 196.259C284.649 197.586 283.402 198.249 281.518 198.249C279.369 198.249 277.963 197.161 277.857 195.41H275.283C275.549 198.435 277.751 200.265 281.465 200.265C285.206 200.265 287.355 198.567 287.355 195.808ZM300.89 200H303.569L307.655 185.939H305.002L302.163 196.206L299.032 185.939H296.379L293.196 196.18L290.357 185.939H287.73L291.79 200H294.496L297.706 189.547L300.89 200ZM314.613 200.265C317.93 200.265 320.344 198.382 321.034 195.251H318.381C317.93 197.082 316.55 198.169 314.56 198.169C312.199 198.169 310.766 196.498 310.554 193.633H321.034C321.511 189.069 318.725 185.673 314.534 185.673C310.66 185.673 307.821 188.724 307.821 192.89C307.821 197.32 310.554 200.265 314.613 200.265ZM314.481 187.69C316.656 187.69 318.062 189.255 318.195 191.855H310.58C310.872 189.228 312.332 187.69 314.481 187.69ZM325.862 192.81C325.862 189.706 328.064 188.379 331.088 188.539V185.753C328.78 185.753 326.658 186.973 325.676 188.91V185.939H323.182V200H325.862V192.81ZM343.651 195.808C343.651 193.792 342.325 192.571 339.539 192.067L337.151 191.616C335.453 191.298 334.737 190.767 334.737 189.626C334.737 188.406 335.878 187.69 337.576 187.69C339.459 187.69 340.706 188.671 340.866 190.369H343.439C343.2 187.477 340.919 185.673 337.549 185.673C334.286 185.673 332.137 187.398 332.137 189.865C332.137 191.988 333.596 193.314 336.196 193.818L338.478 194.243C340.229 194.588 340.945 195.092 340.945 196.259C340.945 197.586 339.698 198.249 337.814 198.249C335.665 198.249 334.259 197.161 334.153 195.41H331.58C331.845 198.435 334.047 200.265 337.761 200.265C341.502 200.265 343.651 198.567 343.651 195.808ZM349.511 198.09C349.511 196.843 348.689 195.994 347.468 195.994C346.274 195.994 345.425 196.843 345.425 198.09C345.425 199.284 346.274 200.133 347.468 200.133C348.689 200.133 349.511 199.284 349.511 198.09Z" fill="#020202"/>
</svg>
