<svg width="245" height="203" viewBox="0 0 245 203" fill="none" xmlns="http://www.w3.org/2000/svg">
<g clip-path="url(#clip0_306_5876)">
<path d="M174.425 176.04V32.1453C174.42 28.3307 172.903 24.673 170.206 21.975C167.508 19.2783 163.851 17.7611 160.036 17.7559H85.2108C81.3961 17.761 77.7384 19.2783 75.0404 21.975C72.3437 24.673 70.8266 28.3307 70.8213 32.1453V176.04C70.8264 179.855 72.3437 183.512 75.0404 186.21C77.7385 188.907 81.3961 190.424 85.2108 190.429H160.036C163.851 190.424 167.508 188.907 170.206 186.21C172.903 183.512 174.42 179.855 174.425 176.04ZM85.2108 184.674C82.9213 184.674 80.7242 183.764 79.1057 182.145C77.4871 180.526 76.5772 178.329 76.5772 176.04V32.1455C76.5772 29.856 77.4868 27.6589 79.1057 26.0404C80.7245 24.4219 82.9216 23.512 85.2108 23.512H160.036C162.325 23.512 164.523 24.4216 166.141 26.0404C167.76 27.6592 168.669 29.8563 168.669 32.1455V176.04C168.669 178.33 167.76 180.527 166.141 182.145C164.522 183.764 162.325 184.674 160.036 184.674H85.2108Z" fill="black"/>
<path d="M111.111 29.2673H145.646V35.0231H111.111V29.2673Z" fill="black"/>
<path d="M99.5996 29.2673H105.355V35.0231H99.5996V29.2673Z" fill="black"/>
<path d="M162.914 164.528V43.6569C162.914 42.8938 162.611 42.1615 162.071 41.6219C161.532 41.0823 160.799 40.7791 160.036 40.7791H85.2109C83.6216 40.7791 82.333 42.0677 82.333 43.6569V164.528C82.333 165.292 82.6362 166.024 83.1758 166.564C83.7154 167.103 84.4477 167.406 85.2109 167.406H160.036C160.799 167.406 161.532 167.103 162.071 166.564C162.611 166.024 162.914 165.292 162.914 164.528ZM157.158 129.994V161.651H88.0888V46.5348H157.158V129.994Z" fill="black"/>
<path d="M102.396 69.6402C102.396 72.6928 103.608 75.621 105.767 77.7806C107.926 79.939 110.855 81.1518 113.907 81.1518C116.96 81.1518 119.888 79.939 122.047 77.7806C124.206 75.6209 125.419 72.6928 125.419 69.6402C125.419 66.5877 124.206 63.6595 122.047 61.4999C119.888 59.3415 116.96 58.1287 113.907 58.1287C110.855 58.1287 107.926 59.3415 105.767 61.4999C103.608 63.6596 102.396 66.5877 102.396 69.6402ZM113.907 63.8844C115.433 63.8844 116.898 64.4909 117.977 65.5701C119.056 66.6493 119.663 68.1139 119.663 69.6402C119.663 71.1665 119.056 72.6312 117.977 73.7104C116.898 74.7896 115.433 75.396 113.907 75.396C112.381 75.396 110.916 74.7896 109.837 73.7104C108.758 72.6312 108.151 71.1665 108.151 69.6402C108.151 68.1139 108.758 66.6493 109.837 65.5701C110.916 64.4909 112.381 63.8844 113.907 63.8844Z" fill="black"/>
<path d="M142.768 121.36C142.768 118.308 141.555 115.379 139.397 113.22C137.237 111.061 134.309 109.849 131.257 109.849C128.204 109.849 125.276 111.061 123.116 113.22C120.958 115.38 119.745 118.308 119.745 121.36C119.745 124.413 120.958 127.341 123.116 129.501C125.276 131.659 128.204 132.872 131.257 132.872C134.309 132.872 137.237 131.659 139.397 129.501C141.555 127.341 142.768 124.413 142.768 121.36ZM131.257 127.116C129.73 127.116 128.266 126.51 127.187 125.43C126.107 124.351 125.501 122.887 125.501 121.36C125.501 119.834 126.107 118.369 127.187 117.29C128.266 116.211 129.73 115.604 131.257 115.604C132.783 115.604 134.248 116.211 135.327 117.29C136.406 118.369 137.012 119.834 137.012 121.36C137.012 122.887 136.406 124.351 135.327 125.43C134.248 126.51 132.783 127.116 131.257 127.116Z" fill="black"/>
<path d="M131.257 176.04C131.257 173.75 130.348 171.553 128.729 169.935C127.11 168.316 124.913 167.406 122.624 167.406C120.335 167.406 118.137 168.316 116.519 169.935C114.9 171.554 113.99 173.751 113.99 176.04C113.99 178.329 114.9 180.526 116.519 182.145C118.137 183.763 120.335 184.673 122.624 184.673C124.913 184.673 127.11 183.764 128.729 182.145C130.347 180.526 131.257 178.329 131.257 176.04ZM122.624 178.918C121.46 178.918 120.41 178.216 119.965 177.141C119.52 176.065 119.765 174.828 120.589 174.005C121.412 173.181 122.649 172.936 123.725 173.382C124.8 173.826 125.501 174.876 125.501 176.04C125.501 176.803 125.198 177.535 124.659 178.075C124.119 178.614 123.387 178.918 122.624 178.918Z" fill="black"/>
<path d="M151.402 83.9473C151.402 81.6579 150.493 79.4608 148.874 77.8423C147.255 76.2237 145.058 75.3138 142.769 75.3138H139.721C138.831 67.2018 134.17 59.9827 127.142 55.834C120.114 51.6855 111.541 51.0918 104.008 54.2318C96.476 57.3718 90.8639 63.8779 88.8635 71.7909C86.8632 79.7027 88.7094 88.0946 93.8448 94.4375V127.116C93.8448 129.405 94.7544 131.602 96.3732 133.221C97.992 134.839 100.189 135.749 102.478 135.749H106.024C107.757 143.468 112.922 149.97 120.048 153.406C127.173 156.841 135.478 156.832 142.595 153.381C149.713 149.931 154.864 143.415 156.58 135.694C158.297 127.971 156.389 119.889 151.403 113.747L151.402 83.9473ZM93.8445 78.1916C93.8355 71.1445 97.5101 64.605 103.534 60.9472C109.558 57.2895 117.055 57.0455 123.304 60.3049C129.553 63.563 133.644 69.8496 134.094 76.8822C134.544 83.9151 131.284 90.6717 125.501 94.6995V92.5809C125.501 88.4683 123.307 84.6678 119.745 82.6112C116.184 80.5555 111.795 80.5555 108.234 82.6112C104.673 84.6681 102.478 88.4686 102.478 92.5809V94.6995C97.073 90.9401 93.8497 84.7745 93.8445 78.1916ZM119.745 92.581V97.4734C115.991 98.6053 111.988 98.6053 108.234 97.4734V92.581C108.234 90.5241 109.331 88.624 111.112 87.5962C112.893 86.5684 115.087 86.5684 116.868 87.5962C118.648 88.624 119.745 90.5242 119.745 92.581ZM105.356 129.994H102.478C100.889 129.994 99.6003 128.705 99.6003 127.116V99.7129C107.112 104.745 116.707 105.493 124.908 101.683C133.107 97.8718 138.724 90.0565 139.721 81.0696H142.769C143.532 81.0696 144.264 81.3728 144.804 81.9124C145.343 82.452 145.646 83.1843 145.646 83.9475V108.472C140.425 104.974 134.109 103.495 127.877 104.312C121.644 105.13 115.923 108.185 111.779 112.912C107.635 117.637 105.352 123.709 105.356 129.994L105.356 129.994ZM137.013 149.276C133.259 150.407 129.255 150.407 125.501 149.276V144.383C125.501 142.326 126.598 140.426 128.379 139.398C130.16 138.37 132.354 138.37 134.135 139.398C135.916 140.426 137.013 142.326 137.013 144.383V149.276ZM142.769 146.486V144.383C142.769 140.271 140.574 136.47 137.013 134.413C133.452 132.358 129.063 132.358 125.501 134.413C121.94 136.47 119.745 140.271 119.745 144.383V146.502C115.021 143.211 111.93 138.059 111.252 132.342C110.574 126.626 112.374 120.893 116.197 116.589C120.019 112.285 125.501 109.824 131.257 109.824C137.013 109.824 142.495 112.285 146.317 116.589C150.141 120.893 151.941 126.626 151.262 132.342C150.584 138.059 147.493 143.211 142.769 146.502V146.486Z" fill="black"/>
<path d="M105.355 150.139H111.111V155.895H105.355V150.139Z" fill="black"/>
<path d="M93.8447 150.139H99.6005V155.895H93.8447V150.139Z" fill="black"/>
<circle cx="113.989" cy="69.4757" r="6.66027" fill="#FFCC2A"/>
<circle cx="131.257" cy="121.278" r="6.66027" fill="#FFCC2A"/>
</g>
<defs>
<clipPath id="clip0_306_5876">
<rect width="167" height="178.347" fill="white" transform="translate(39 12)"/>
</clipPath>
</defs>
</svg>
