<svg width="165" height="142" viewBox="0 0 165 142" fill="none" xmlns="http://www.w3.org/2000/svg">
<path d="M102.836 127.698C102.873 129.103 102.35 130.464 101.384 131.483C100.417 132.502 99.0857 133.095 97.6809 133.131L27.1079 135.019C26.8642 135.019 26.616 135.028 26.3737 135.028L26.3752 135.03C19.521 135.019 12.9504 132.291 8.10536 127.441C3.26146 122.592 0.540575 116.018 0.539062 109.164C0.546448 102.305 3.27338 95.729 8.12314 90.8791C12.9712 86.028 19.5478 83.2995 26.4066 83.2908H64.8923C69.903 83.2908 74.534 80.6186 77.0394 76.2785C79.5447 71.9384 79.5447 66.5911 77.0394 62.2509C74.534 57.9107 69.903 55.2371 64.8923 55.2371H58.5006C51.4055 55.1854 44.872 51.3712 41.3384 45.2173C37.8049 39.0646 37.8049 31.4986 41.3384 25.3444C44.8719 19.1905 51.4055 15.3764 58.5006 15.3246H115.063C117.987 15.3246 120.357 17.694 120.357 20.6189C120.357 23.5423 117.987 25.9132 115.063 25.9132H58.5006C55.1784 25.9486 52.1221 27.7419 50.4707 30.6255C48.8192 33.509 48.8192 37.0527 50.4707 39.9362C52.1222 42.8212 55.1785 44.6145 58.5006 44.6485H64.8923C73.6862 44.6485 81.8121 49.3415 86.2098 56.9566C90.606 64.5732 90.606 73.9562 86.2098 81.5728C81.8121 89.1879 73.6862 93.8794 64.8923 93.8794H26.399C22.3221 93.8809 18.4149 95.5102 15.5461 98.4072C12.6774 101.304 11.0834 105.226 11.122 109.303C11.1604 113.38 12.8252 117.272 15.7484 120.115C18.6777 123.032 22.6911 124.597 26.823 124.431L97.4035 122.543C100.305 122.522 102.705 124.8 102.837 127.699L102.836 127.698ZM152.678 20.6174L163.218 10.0791V10.0776C164.231 9.08934 164.808 7.73624 164.816 6.32107C164.825 4.90443 164.267 3.54542 163.265 2.54386C162.265 1.54233 160.905 0.98393 159.488 0.992779C158.073 1.00164 156.72 1.57776 155.732 2.59113L145.192 13.1309L134.652 2.59113C132.577 0.567345 129.262 0.589505 127.213 2.6384C125.164 4.68729 125.142 8.00379 127.166 10.0776L137.705 20.6159L127.166 31.1557V31.1572C126.145 32.1425 125.561 33.4986 125.549 34.9182C125.538 36.3392 126.096 37.7042 127.101 38.7085C128.104 39.713 129.47 40.2714 130.89 40.2581C132.309 40.2463 133.665 39.6643 134.652 38.6421L145.192 28.1038L155.732 38.6421C156.719 39.6643 158.073 40.2463 159.494 40.2581C160.914 40.2714 162.279 39.713 163.283 38.7085C164.288 37.704 164.846 36.3391 164.834 34.9182C164.821 33.4986 164.239 32.1425 163.218 31.1572L152.678 20.6174ZM148.261 76.0827C153.205 81.1894 155.943 88.0345 155.885 95.1414C154.55 108.031 148.699 120.034 139.367 129.026C136.786 131.853 133.136 133.466 129.307 133.472C125.459 133.419 121.794 131.816 119.142 129.026C109.729 119.845 103.91 107.602 102.729 94.5064C102.738 87.4336 105.573 80.6577 110.604 75.6867C115.634 70.7146 122.443 67.9593 129.515 68.035C136.587 68.1088 143.337 71.0056 148.261 76.0827ZM137.144 93.7664L137.143 93.7649C137.143 91.6865 136.318 89.6936 134.848 88.2256C133.379 86.7557 131.386 85.93 129.308 85.93C127.229 85.93 125.236 86.7557 123.767 88.2256C122.298 89.6939 121.473 91.6866 121.473 93.7649C121.473 95.8433 122.298 97.8362 123.767 99.3057C125.237 100.776 127.229 101.601 129.308 101.601C131.389 101.612 133.388 100.789 134.861 99.3175C136.332 97.8448 137.153 95.8461 137.143 93.7646L137.144 93.7664Z" fill="black"/>
<path d="M120.701 136.327C141.547 150.366 156.894 105.131 155.901 92.7936C150.512 54.6463 103.875 64.5342 102.575 90.929C102.013 102.341 110.178 129.24 120.701 136.327Z" fill="#FFCC2A" stroke="black" stroke-width="4.32357"/>
<circle cx="129.304" cy="94.5879" r="5.77966" fill="#020202" stroke="black" stroke-width="4.32357"/>
</svg>
