<svg width="245" height="202" viewBox="0 0 245 202" fill="none" xmlns="http://www.w3.org/2000/svg">
<g clip-path="url(#clip0_312_637)">
<path d="M122.244 97.7947C117.387 97.7947 113.442 101.739 113.442 106.596C113.442 111.453 117.387 115.397 122.244 115.397C127.1 115.397 131.045 111.453 131.045 106.596C131.045 101.739 127.1 97.7947 122.244 97.7947Z" fill="black"/>
<path d="M122.244 19.5588C79.1162 19.5588 44.0078 54.6357 44.0078 97.7947C44.0078 140.922 79.1162 176.031 122.244 176.031C165.403 176.031 200.48 140.922 200.48 97.7947C200.48 54.6357 165.403 19.5588 122.244 19.5588ZM57.8632 108.063C57.7009 107.118 57.6354 106.172 57.5044 105.227C82.4414 110.41 109.531 137.564 114.617 162.503C113.638 162.372 112.66 162.308 111.715 162.144C83.941 157.613 62.2969 135.87 57.8647 108.064L57.8632 108.063ZM106.921 106.597C106.921 98.154 113.799 91.2752 122.243 91.2752C130.685 91.2752 137.564 98.1526 137.564 106.597C137.564 115.039 130.687 121.918 122.243 121.918C113.8 121.918 106.921 115.04 106.921 106.597ZM132.804 162.144C132.772 162.144 132.772 162.144 132.804 162.144C131.793 162.306 130.783 162.405 129.772 162.536C131.924 149.366 137.628 130.1 146.234 121.493C154.775 112.953 173.942 107.248 187.015 105.097C186.884 106.108 186.82 107.085 186.656 108.096C182.223 135.869 160.61 157.58 132.802 162.145L132.804 162.144ZM186.56 87.1703C186.69 87.8879 186.722 88.6042 186.82 89.3218C147.018 78.2707 92.8078 78.2054 57.6995 89.094C57.7977 88.4418 57.8304 87.8224 57.9273 87.1703C63.109 55.5494 90.1336 32.6008 122.241 32.6008C154.318 32.6008 181.376 55.5501 186.559 87.1703C186.526 87.1703 186.526 87.1703 186.559 87.1703L186.56 87.1703Z" fill="black"/>
<path d="M190.029 138.852C177.814 138.852 167.82 148.845 167.82 161.06C167.82 173.275 177.814 183.269 190.029 183.269C202.244 183.269 212.237 173.275 212.237 161.06C212.237 148.845 202.244 138.852 190.029 138.852ZM185.587 172.164L174.483 161.06L177.614 157.929L185.587 165.879L202.443 149.023L205.575 152.177L185.587 172.164Z" fill="#FFCC2A"/>
</g>
<defs>
<clipPath id="clip0_312_637">
<rect width="244.487" height="202" fill="white"/>
</clipPath>
</defs>
</svg>
