<svg width="112" height="10" viewBox="0 0 112 10" fill="none" xmlns="http://www.w3.org/2000/svg">
<path d="M1.16016 1.26172C6.65784 1.26172 6.65784 8.67172 12.1555 8.67172C17.6532 8.67172 17.6532 1.26172 23.1509 1.26172C28.6486 1.26172 28.6486 8.67172 34.1334 8.67172C39.6312 8.67172 39.6312 1.26172 45.1159 1.26172C50.6137 1.26172 50.6137 8.67172 56.0983 8.67172C61.5961 8.67172 61.5961 1.26172 67.0935 1.26172C72.5913 1.26172 72.5913 8.67172 78.0891 8.67172C83.5865 8.67172 83.5865 1.26172 89.0843 1.26172C94.5821 1.26172 94.5821 8.67172 100.08 8.67172C105.577 8.67172 105.577 1.26172 111.075 1.26172" stroke="#FFCC2A" stroke-width="1.235" stroke-miterlimit="10" stroke-linecap="round"/>
</svg>
