<svg width="342" height="223" viewBox="0 0 342 223" fill="none" xmlns="http://www.w3.org/2000/svg">
<path d="M79.5732 33.44V40H59.2532V11.28H79.2932V17.84H66.8132V21.96H78.1332V28.52H66.8132V33.44H79.5732ZM95.5565 40V37.92C94.0365 39.64 92.1565 40.4 89.3965 40.4C84.9165 40.4 81.9165 37.72 81.9165 33.64C81.9165 29.44 85.3165 27.16 91.4765 27.16C92.6365 27.16 93.7165 27.24 94.6365 27.4V26.36C94.6365 24.48 93.5565 23.44 91.6365 23.44C89.7565 23.44 88.6365 24.48 88.3965 26.36H82.2365C82.6365 21.36 86.3565 18.08 91.6765 18.08C97.5965 18.08 101.077 21.28 101.077 26.72V40H95.5565ZM88.3565 33.44C88.3565 34.84 89.3165 35.68 90.9965 35.68C93.2765 35.68 94.6365 34.6 94.6365 32.84V31.48C93.5965 31.28 92.7965 31.2 91.9165 31.2C89.5965 31.2 88.3565 31.96 88.3565 33.44ZM111.794 30.08V40H104.954V18.48H111.234V22.28C112.874 19.76 116.274 18.32 119.714 18.32V25.44C114.874 24.96 111.794 25.32 111.794 30.08ZM128.792 28.68V40H121.952V18.48H128.232V21.08C129.912 19.2 131.912 18.08 134.632 18.08C138.872 18.08 141.872 20.92 141.872 26.16V40H135.032V28.44C135.032 25.72 134.072 24.24 131.992 24.24C130.312 24.24 128.792 25.44 128.792 28.68ZM167.32 40L161.16 23.44V40H154.32V11.28H163.24L170.48 30.76L177.68 11.28H186.6V40H179.76V23.24L173.56 40H167.32ZM201.145 40.4C194.785 40.4 189.905 35.4 189.905 29.24C189.905 23.08 194.785 18.08 201.145 18.08C207.505 18.08 212.385 23.08 212.385 29.24C212.385 35.4 207.505 40.4 201.145 40.4ZM201.145 34.28C203.265 34.28 205.265 32.6 205.265 29.24C205.265 25.88 203.265 24.24 201.145 24.24C199.025 24.24 197.025 25.88 197.025 29.24C197.025 32.6 199.025 34.28 201.145 34.28ZM221.978 28.68V40H215.138V18.48H221.418V21.08C223.098 19.2 225.098 18.08 227.818 18.08C232.058 18.08 235.058 20.92 235.058 26.16V40H228.218V28.44C228.218 25.72 227.258 24.24 225.178 24.24C223.498 24.24 221.978 25.44 221.978 28.68ZM248.691 40.36C242.051 40.36 237.611 35.88 237.611 29.2C237.611 22.76 242.251 18.08 248.651 18.08C255.771 18.08 260.531 23.88 259.291 30.96H244.691C245.051 33.68 246.331 35.04 248.531 35.04C250.451 35.04 251.731 34.24 252.331 32.68H259.171C257.851 37.6 254.051 40.36 248.691 40.36ZM248.491 23.12C246.451 23.12 245.251 24.28 244.771 26.68H251.971C251.891 24.52 250.531 23.12 248.491 23.12ZM282.118 18.48L271.878 47.72H264.398L267.398 39.76L258.998 18.48H266.438L271.078 31.8L275.238 18.48H282.118ZM59.6666 90H48.4665V61.28H59.6666C68.7466 61.28 74.4666 67.12 74.4666 75.48C74.4666 83.84 68.5466 90 59.6666 90ZM56.0265 67.8V83.48H59.2266C64.2266 83.48 66.7066 80.88 66.7066 75.48C66.7066 70.4 64.1466 67.8 59.2266 67.8H56.0265ZM84.2832 80.08V90H77.4432V68.48H83.7232V72.28C85.3632 69.76 88.7632 68.32 92.2032 68.32V75.44C87.3632 74.96 84.2832 75.32 84.2832 80.08ZM102.201 63.48C102.201 65.72 100.401 67.36 97.8009 67.36C95.2009 67.36 93.4009 65.72 93.4009 63.48C93.4009 61.2 95.2009 59.56 97.8009 59.56C100.401 59.56 102.201 61.2 102.201 63.48ZM101.281 90H94.4409V68.48H101.281V90ZM126.064 68.48L118.344 90H110.744L102.944 68.48H110.384L114.704 82.24L119.104 68.48H126.064ZM135.493 63.48C135.493 65.72 133.693 67.36 131.093 67.36C128.493 67.36 126.693 65.72 126.693 63.48C126.693 61.2 128.493 59.56 131.093 59.56C133.693 59.56 135.493 61.2 135.493 63.48ZM134.573 90H127.733V68.48H134.573V90ZM145.516 78.68V90H138.676V68.48H144.956V71.08C146.636 69.2 148.636 68.08 151.356 68.08C155.596 68.08 158.596 70.92 158.596 76.16V90H151.756V78.44C151.756 75.72 150.796 74.24 148.716 74.24C147.036 74.24 145.516 75.44 145.516 78.68ZM172.11 98.12C166.15 98.12 162.07 94.84 161.83 89.84H168.47C168.71 91.76 169.95 92.8 172.07 92.8C174.63 92.8 175.95 91.44 175.95 88.84V86.32C174.83 87.92 172.79 88.88 170.47 88.88C165.23 88.88 161.15 84.36 161.15 78.48C161.15 72.4 164.91 68.08 170.19 68.08C172.91 68.08 174.87 68.88 176.51 70.68V68.48H182.79V88.76C182.79 94.56 178.71 98.12 172.11 98.12ZM168.07 78.52C168.07 81.2 169.55 82.92 171.87 82.92C174.27 82.92 175.87 81.12 175.87 78.48C175.87 75.8 174.27 74.04 171.87 74.04C169.55 74.04 168.07 75.8 168.07 78.52ZM217.144 90L212.464 72.12L207.784 90H200.144L192.864 61.28H200.264L204.144 78.4L208.704 61.28H216.344L220.744 78.48L224.664 61.28H232.064L224.744 90H217.144ZM241.926 63.48C241.926 65.72 240.126 67.36 237.526 67.36C234.926 67.36 233.126 65.72 233.126 63.48C233.126 61.2 234.926 59.56 237.526 59.56C240.126 59.56 241.926 61.2 241.926 63.48ZM241.006 90H234.166V68.48H241.006V90ZM259.549 83.28V89.24C258.029 90.08 256.589 90.4 254.669 90.4C249.829 90.4 246.989 87.52 246.989 82.6V74.44H242.989V68.48H246.989V62.16H253.829V68.48H259.709V74.44H253.829V81C253.829 83.08 254.709 84.04 256.589 84.04C257.709 84.04 258.789 83.76 259.549 83.28ZM269.221 78.68V90H262.381V61.28H269.221V70.8C270.781 69.12 272.341 68.08 275.061 68.08C279.301 68.08 282.301 70.92 282.301 76.16V90H275.461V78.44C275.461 75.72 274.501 74.24 272.421 74.24C270.741 74.24 269.221 75.44 269.221 78.68Z" fill="#020202"/>
<path d="M71.7715 131.36C71.7715 136.76 67.7715 140 61.0915 140H49.2115V111.28H60.7315C67.0115 111.28 70.9315 114.04 70.9315 119.04C70.9315 121.56 69.6115 123.52 67.2115 124.96C70.1315 126.2 71.7715 128.32 71.7715 131.36ZM60.1315 117.24H56.0515V122.2H60.1315C62.6515 122.2 63.8115 121.24 63.8115 119.68C63.8115 118.2 62.6515 117.24 60.1315 117.24ZM60.4915 128.16H56.0515V134.04H60.4915C63.3315 134.04 64.6515 132.92 64.6515 131.08C64.6515 129.32 63.3315 128.16 60.4915 128.16ZM87.3544 130.76V118.48H94.1944V140H87.9144V137.68C86.7144 139.28 84.4344 140.4 81.9144 140.4C77.6344 140.4 74.3944 137.72 74.3944 132.04V118.48H81.2344V130.76C81.2344 133.12 82.3944 134.28 84.3144 134.28C85.6744 134.28 87.3544 133.2 87.3544 130.76ZM107.872 148.12C101.912 148.12 97.8317 144.84 97.5917 139.84H104.232C104.472 141.76 105.712 142.8 107.832 142.8C110.392 142.8 111.712 141.44 111.712 138.84V136.32C110.592 137.92 108.552 138.88 106.232 138.88C100.992 138.88 96.9117 134.36 96.9117 128.48C96.9117 122.4 100.672 118.08 105.952 118.08C108.672 118.08 110.632 118.88 112.272 120.68V118.48H118.552V138.76C118.552 144.56 114.472 148.12 107.872 148.12ZM103.832 128.52C103.832 131.2 105.312 132.92 107.632 132.92C110.032 132.92 111.632 131.12 111.632 128.48C111.632 125.8 110.032 124.04 107.632 124.04C105.312 124.04 103.832 125.8 103.832 128.52ZM135.252 140V137.92C133.732 139.64 131.852 140.4 129.092 140.4C124.612 140.4 121.612 137.72 121.612 133.64C121.612 129.44 125.012 127.16 131.172 127.16C132.332 127.16 133.412 127.24 134.332 127.4V126.36C134.332 124.48 133.252 123.44 131.332 123.44C129.452 123.44 128.332 124.48 128.092 126.36H121.932C122.332 121.36 126.052 118.08 131.372 118.08C137.292 118.08 140.772 121.28 140.772 126.72V140H135.252ZM128.052 133.44C128.052 134.84 129.012 135.68 130.692 135.68C132.972 135.68 134.332 134.6 134.332 132.84V131.48C133.292 131.28 132.492 131.2 131.612 131.2C129.292 131.2 128.052 131.96 128.052 133.44ZM167.344 140H159.784V118.12H150.984V111.28H176.144V118.12H167.344V140ZM184.235 130.08V140H177.395V118.48H183.675V122.28C185.315 119.76 188.715 118.32 192.155 118.32V125.44C187.315 124.96 184.235 125.32 184.235 130.08ZM206.993 140V137.92C205.473 139.64 203.593 140.4 200.833 140.4C196.353 140.4 193.353 137.72 193.353 133.64C193.353 129.44 196.753 127.16 202.913 127.16C204.073 127.16 205.153 127.24 206.073 127.4V126.36C206.073 124.48 204.993 123.44 203.073 123.44C201.193 123.44 200.073 124.48 199.833 126.36H193.673C194.073 121.36 197.793 118.08 203.113 118.08C209.033 118.08 212.513 121.28 212.513 126.72V140H206.993ZM199.793 133.44C199.793 134.84 200.753 135.68 202.433 135.68C204.713 135.68 206.073 134.6 206.073 132.84V131.48C205.033 131.28 204.233 131.2 203.353 131.2C201.033 131.2 199.793 131.96 199.793 133.44ZM236.289 118.48L228.569 140H220.969L213.169 118.48H220.609L224.929 132.24L229.329 118.48H236.289ZM246.897 140.36C240.257 140.36 235.817 135.88 235.817 129.2C235.817 122.76 240.457 118.08 246.857 118.08C253.977 118.08 258.737 123.88 257.497 130.96H242.897C243.257 133.68 244.537 135.04 246.737 135.04C248.657 135.04 249.937 134.24 250.537 132.68H257.377C256.057 137.6 252.257 140.36 246.897 140.36ZM246.697 123.12C244.657 123.12 243.457 124.28 242.977 126.68H250.177C250.097 124.52 248.737 123.12 246.697 123.12ZM267.345 140H260.425V111.28H267.345V140ZM290.526 132.68C290.526 137.44 287.006 140.4 280.526 140.4C274.046 140.4 270.526 137.36 270.086 132.4H276.646C276.646 134.2 278.286 135.36 280.646 135.36C282.206 135.36 283.606 135 283.606 133.88C283.606 132.92 282.886 132.52 281.406 132.24L277.166 131.48C273.406 130.8 271.006 128.64 271.006 125.16C271.006 121 274.526 118.08 280.166 118.08C285.806 118.08 289.726 121.08 290.126 125.88H283.566C283.406 124.16 282.086 123.12 280.206 123.12C278.606 123.12 277.566 123.56 277.566 124.52C277.566 125.44 278.246 125.72 279.606 125.96L284.166 126.8C288.326 127.56 290.526 129.6 290.526 132.68Z" fill="#FFCC2A"/>
<path d="M23.3584 171.512V179.048C23.3584 181.64 21.8384 183.24 19.2784 183.24C16.7664 183.24 15.2624 181.656 15.1984 179.32H16.9744C17.0384 180.776 17.8064 181.656 19.2784 181.656C20.7664 181.656 21.5824 180.792 21.5824 179.128V171.512H23.3584ZM28.8077 183.16C26.4077 183.16 24.6477 181.272 24.6477 178.76C24.6477 176.248 26.4077 174.36 28.8077 174.36C31.2077 174.36 32.9677 176.248 32.9677 178.76C32.9677 181.272 31.2077 183.16 28.8077 183.16ZM28.8077 181.736C30.1997 181.736 31.3037 180.616 31.3037 178.76C31.3037 176.904 30.1997 175.8 28.8077 175.8C27.4157 175.8 26.3277 176.904 26.3277 178.76C26.3277 180.616 27.4157 181.736 28.8077 181.736ZM36.1979 172.552C36.1979 173.16 35.7179 173.624 35.0299 173.624C34.3419 173.624 33.8459 173.16 33.8459 172.552C33.8459 171.928 34.3419 171.48 35.0299 171.48C35.7179 171.48 36.1979 171.928 36.1979 172.552ZM35.8459 183H34.2299V174.52H35.8459V183ZM39.3201 178.216V183H37.7041V174.52H39.2081V175.928C39.7841 174.984 40.7441 174.36 41.9121 174.36C43.6561 174.36 44.8081 175.48 44.8081 177.512V183H43.1921V178.056C43.1921 176.6 42.5521 175.784 41.3521 175.784C40.2481 175.784 39.3201 176.712 39.3201 178.216ZM54.8235 183.24C51.4955 183.24 48.9835 180.632 48.9835 177.24C48.9835 173.848 51.4955 171.272 54.8235 171.272C58.1515 171.272 60.6635 173.848 60.6635 177.24C60.6635 180.632 58.1515 183.24 54.8235 183.24ZM54.8235 181.656C57.2555 181.656 58.8395 179.704 58.8395 177.24C58.8395 174.776 57.2555 172.856 54.8235 172.856C52.3915 172.856 50.8075 174.776 50.8075 177.24C50.8075 179.704 52.3915 181.656 54.8235 181.656ZM67.2664 179.512V174.52H68.8824V183H67.3784V181.656C66.9304 182.536 65.9384 183.16 64.7864 183.16C63.0744 183.16 61.8904 182.152 61.8904 179.976V174.52H63.5064V179.656C63.5064 181.128 64.2424 181.736 65.2984 181.736C66.3864 181.736 67.2664 180.84 67.2664 179.512ZM72.3575 178.664V183H70.7415V174.52H72.2455V176.312C72.8375 175.144 74.1175 174.408 75.5095 174.408V176.088C73.6855 175.992 72.3575 176.792 72.3575 178.664ZM82.7057 183.176C80.3857 183.176 78.7537 181.352 78.7537 178.76C78.7537 176.2 80.4177 174.36 82.7057 174.36C84.8017 174.36 86.3217 175.752 86.6257 177.96H84.9297C84.7537 176.6 83.9057 175.784 82.7217 175.784C81.3297 175.784 80.4177 176.968 80.4177 178.76C80.4177 180.568 81.3297 181.736 82.7217 181.736C83.9217 181.736 84.7537 180.936 84.9457 179.56H86.6257C86.3377 181.8 84.8337 183.176 82.7057 183.176ZM91.3411 183.16C88.9411 183.16 87.1811 181.272 87.1811 178.76C87.1811 176.248 88.9411 174.36 91.3411 174.36C93.7411 174.36 95.5011 176.248 95.5011 178.76C95.5011 181.272 93.7411 183.16 91.3411 183.16ZM91.3411 181.736C92.7331 181.736 93.8371 180.616 93.8371 178.76C93.8371 176.904 92.7331 175.8 91.3411 175.8C89.9491 175.8 88.8611 176.904 88.8611 178.76C88.8611 180.616 89.9491 181.736 91.3411 181.736ZM98.3792 183H96.7632V174.52H98.2672V175.928C98.8432 174.952 99.7552 174.36 100.923 174.36C102.171 174.36 103.115 175 103.499 176.12C104.091 175.032 105.067 174.36 106.363 174.36C108.107 174.36 109.227 175.496 109.227 177.512V183H107.611V178.024C107.611 176.616 106.987 175.784 105.803 175.784C104.699 175.784 103.803 176.712 103.803 178.136V183H102.187V178.024C102.187 176.616 101.563 175.784 100.379 175.784C99.2592 175.784 98.3792 176.712 98.3792 178.136V183ZM112.619 183H111.003V174.52H112.507V175.928C113.083 174.952 113.995 174.36 115.163 174.36C116.411 174.36 117.355 175 117.739 176.12C118.331 175.032 119.307 174.36 120.603 174.36C122.347 174.36 123.467 175.496 123.467 177.512V183H121.851V178.024C121.851 176.616 121.227 175.784 120.043 175.784C118.939 175.784 118.043 176.712 118.043 178.136V183H116.427V178.024C116.427 176.616 115.803 175.784 114.619 175.784C113.499 175.784 112.619 176.712 112.619 178.136V183ZM130.539 179.512V174.52H132.155V183H130.651V181.656C130.203 182.536 129.211 183.16 128.059 183.16C126.347 183.16 125.163 182.152 125.163 179.976V174.52H126.779V179.656C126.779 181.128 127.515 181.736 128.571 181.736C129.659 181.736 130.539 180.84 130.539 179.512ZM135.63 178.216V183H134.014V174.52H135.518V175.928C136.094 174.984 137.054 174.36 138.222 174.36C139.966 174.36 141.118 175.48 141.118 177.512V183H139.502V178.056C139.502 176.6 138.862 175.784 137.662 175.784C136.558 175.784 135.63 176.712 135.63 178.216ZM144.847 172.552C144.847 173.16 144.367 173.624 143.679 173.624C142.991 173.624 142.495 173.16 142.495 172.552C142.495 171.928 142.991 171.48 143.679 171.48C144.367 171.48 144.847 171.928 144.847 172.552ZM144.495 183H142.879V174.52H144.495V183ZM151.137 181.432V182.856C150.641 183.08 150.209 183.16 149.697 183.16C148.129 183.16 147.041 182.312 147.041 180.44V175.896H145.169V174.52H147.041V172.008H148.657V174.52H151.217V175.896H148.657V180.072C148.657 181.24 149.217 181.656 150.081 181.656C150.465 181.656 150.801 181.592 151.137 181.432ZM159.414 174.52L155.174 186.088H153.414L154.63 182.888L151.286 174.52H153.03L155.494 180.984L157.782 174.52H159.414ZM166.687 183.16C164.287 183.16 162.527 181.272 162.527 178.76C162.527 176.248 164.287 174.36 166.687 174.36C169.087 174.36 170.847 176.248 170.847 178.76C170.847 181.272 169.087 183.16 166.687 183.16ZM166.687 181.736C168.079 181.736 169.183 180.616 169.183 178.76C169.183 176.904 168.079 175.8 166.687 175.8C165.295 175.8 164.207 176.904 164.207 178.76C164.207 180.616 165.295 181.736 166.687 181.736ZM174.259 183H172.643V175.896H170.771V174.52H172.643V173.896C172.643 172.264 173.523 171.368 175.123 171.368C175.603 171.368 175.987 171.448 176.307 171.576V172.888C176.051 172.776 175.763 172.744 175.475 172.744C174.707 172.744 174.259 173.096 174.259 173.912V174.52H176.627V175.896H174.259V183ZM184.193 183H180.561V171.512H184.193C187.857 171.512 189.969 173.848 189.969 177.208C189.969 180.52 187.777 183 184.193 183ZM182.321 173.032V181.48H184.113C186.753 181.48 188.177 179.848 188.177 177.208C188.177 174.616 186.769 173.032 184.113 173.032H182.321ZM192.913 178.664V183H191.297V174.52H192.801V176.312C193.393 175.144 194.673 174.408 196.065 174.408V176.088C194.241 175.992 192.913 176.792 192.913 178.664ZM198.927 172.552C198.927 173.16 198.447 173.624 197.759 173.624C197.071 173.624 196.575 173.16 196.575 172.552C196.575 171.928 197.071 171.48 197.759 171.48C198.447 171.48 198.927 171.928 198.927 172.552ZM198.575 183H196.959V174.52H198.575V183ZM207.473 174.52L204.289 183H202.529L199.345 174.52H201.089L203.441 181.144L205.825 174.52H207.473ZM211.458 183.16C209.01 183.16 207.362 181.384 207.362 178.712C207.362 176.2 209.074 174.36 211.41 174.36C213.938 174.36 215.618 176.408 215.33 179.16H209.01C209.138 180.888 210.002 181.896 211.426 181.896C212.626 181.896 213.458 181.24 213.73 180.136H215.33C214.914 182.024 213.458 183.16 211.458 183.16ZM211.378 175.576C210.082 175.576 209.202 176.504 209.026 178.088H213.618C213.538 176.52 212.69 175.576 211.378 175.576ZM218.279 178.664V183H216.663V174.52H218.167V176.312C218.759 175.144 220.039 174.408 221.431 174.408V176.088C219.607 175.992 218.279 176.792 218.279 178.664ZM229.045 180.472C229.045 182.136 227.749 183.16 225.493 183.16C223.253 183.16 221.925 182.056 221.765 180.232H223.317C223.381 181.288 224.229 181.944 225.525 181.944C226.661 181.944 227.413 181.544 227.413 180.744C227.413 180.04 226.981 179.736 225.925 179.528L224.549 179.272C222.981 178.968 222.101 178.168 222.101 176.888C222.101 175.4 223.397 174.36 225.365 174.36C227.397 174.36 228.773 175.448 228.917 177.192H227.365C227.269 176.168 226.517 175.576 225.381 175.576C224.357 175.576 223.669 176.008 223.669 176.744C223.669 177.432 224.101 177.752 225.125 177.944L226.565 178.216C228.245 178.52 229.045 179.256 229.045 180.472ZM232.616 182.312C232.616 183.832 231.416 185.016 229.656 185.048V184.136C230.696 184.104 231.4 183.544 231.496 182.76C231.352 182.808 231.256 182.824 231.144 182.824C230.536 182.824 230.088 182.328 230.088 181.736C230.088 181.048 230.6 180.6 231.256 180.6C232.136 180.6 232.616 181.24 232.616 182.312ZM245.681 179.64C245.681 181.64 244.081 183.16 241.297 183.16C238.529 183.16 236.849 181.64 236.705 179.352H238.497C238.577 180.808 239.505 181.752 241.265 181.752C242.721 181.752 243.809 181.064 243.809 179.88C243.809 178.92 243.185 178.44 241.857 178.152L240.193 177.832C238.577 177.512 237.105 176.696 237.105 174.744C237.105 172.808 238.801 171.352 241.185 171.352C243.569 171.352 245.377 172.808 245.521 175.096H243.729C243.633 173.72 242.641 172.76 241.201 172.76C239.713 172.76 238.897 173.64 238.897 174.632C238.897 175.72 239.841 176.104 240.913 176.328L242.609 176.664C244.577 177.064 245.681 177.928 245.681 179.64ZM252.021 181.432V182.856C251.525 183.08 251.093 183.16 250.581 183.16C249.013 183.16 247.925 182.312 247.925 180.44V175.896H246.053V174.52H247.925V172.008H249.541V174.52H252.101V175.896H249.541V180.072C249.541 181.24 250.101 181.656 250.965 181.656C251.349 181.656 251.685 181.592 252.021 181.432ZM258.394 183V181.688C257.866 182.632 256.922 183.16 255.674 183.16C253.914 183.16 252.762 182.152 252.762 180.6C252.762 178.936 254.09 178.072 256.618 178.072C257.114 178.072 257.514 178.088 258.202 178.168V177.544C258.202 176.328 257.546 175.64 256.426 175.64C255.242 175.64 254.522 176.344 254.474 177.528H253.002C253.082 175.624 254.442 174.36 256.426 174.36C258.522 174.36 259.738 175.544 259.738 177.56V183H258.394ZM254.298 180.552C254.298 181.432 254.954 182.008 255.994 182.008C257.354 182.008 258.202 181.16 258.202 179.864V179.176C257.578 179.096 257.13 179.08 256.714 179.08C255.098 179.08 254.298 179.56 254.298 180.552ZM263.129 178.664V183H261.513V174.52H263.017V176.312C263.609 175.144 264.889 174.408 266.281 174.408V176.088C264.457 175.992 263.129 176.792 263.129 178.664ZM272.475 181.432V182.856C271.979 183.08 271.547 183.16 271.035 183.16C269.467 183.16 268.379 182.312 268.379 180.44V175.896H266.507V174.52H268.379V172.008H269.995V174.52H272.555V175.896H269.995V180.072C269.995 181.24 270.555 181.656 271.419 181.656C271.803 181.656 272.139 181.592 272.475 181.432ZM284.078 181.464V183H276.798V171.512H283.966V173.048H278.558V176.312H283.486V177.848H278.558V181.464H284.078ZM290.765 183V181.688C290.237 182.632 289.293 183.16 288.045 183.16C286.285 183.16 285.133 182.152 285.133 180.6C285.133 178.936 286.461 178.072 288.989 178.072C289.485 178.072 289.885 178.088 290.573 178.168V177.544C290.573 176.328 289.917 175.64 288.797 175.64C287.613 175.64 286.893 176.344 286.845 177.528H285.373C285.453 175.624 286.813 174.36 288.797 174.36C290.893 174.36 292.109 175.544 292.109 177.56V183H290.765ZM286.669 180.552C286.669 181.432 287.325 182.008 288.365 182.008C289.725 182.008 290.573 181.16 290.573 179.864V179.176C289.949 179.096 289.501 179.08 289.085 179.08C287.469 179.08 286.669 179.56 286.669 180.552ZM295.5 178.664V183H293.884V174.52H295.388V176.312C295.98 175.144 297.26 174.408 298.652 174.408V176.088C296.828 175.992 295.5 176.792 295.5 178.664ZM301.162 178.216V183H299.546V174.52H301.05V175.928C301.626 174.984 302.586 174.36 303.754 174.36C305.498 174.36 306.65 175.48 306.65 177.512V183H305.034V178.056C305.034 176.6 304.394 175.784 303.194 175.784C302.09 175.784 301.162 176.712 301.162 178.216ZM310.379 172.552C310.379 173.16 309.899 173.624 309.211 173.624C308.523 173.624 308.027 173.16 308.027 172.552C308.027 171.928 308.523 171.48 309.211 171.48C309.899 171.48 310.379 171.928 310.379 172.552ZM310.027 183H308.411V174.52H310.027V183ZM313.501 178.216V183H311.885V174.52H313.389V175.928C313.965 174.984 314.925 174.36 316.093 174.36C317.837 174.36 318.989 175.48 318.989 177.512V183H317.373V178.056C317.373 176.6 316.733 175.784 315.533 175.784C314.429 175.784 313.501 176.712 313.501 178.216ZM324.142 186.264C321.918 186.264 320.478 185.08 320.382 183.16H321.95C322.046 184.344 322.814 184.984 324.126 184.984C325.582 184.984 326.35 184.2 326.35 182.744V181.208C325.87 182.232 324.91 182.824 323.758 182.824C321.646 182.824 320.142 181.08 320.142 178.584C320.142 176.056 321.582 174.36 323.71 174.36C324.926 174.36 325.886 174.952 326.462 176.024V174.52H327.966V182.712C327.966 184.936 326.542 186.264 324.142 186.264ZM321.774 178.584C321.774 180.344 322.638 181.416 324.046 181.416C325.422 181.416 326.35 180.312 326.35 178.632C326.35 176.872 325.438 175.752 324.046 175.752C322.654 175.752 321.774 176.84 321.774 178.584ZM137.322 210H135.098V214H133.338V202.512H137.322C139.898 202.512 141.562 203.824 141.562 206.224C141.562 208.64 139.898 210 137.322 210ZM137.306 204H135.098V208.512H137.306C138.858 208.512 139.802 207.664 139.802 206.24C139.802 204.816 138.858 204 137.306 204ZM144.425 209.664V214H142.809V205.52H144.313V207.312C144.905 206.144 146.185 205.408 147.577 205.408V207.088C145.753 206.992 144.425 207.792 144.425 209.664ZM151.992 214.16C149.592 214.16 147.832 212.272 147.832 209.76C147.832 207.248 149.592 205.36 151.992 205.36C154.392 205.36 156.152 207.248 156.152 209.76C156.152 212.272 154.392 214.16 151.992 214.16ZM151.992 212.736C153.384 212.736 154.488 211.616 154.488 209.76C154.488 207.904 153.384 206.8 151.992 206.8C150.6 206.8 149.512 207.904 149.512 209.76C149.512 211.616 150.6 212.736 151.992 212.736ZM159.563 214H157.947V206.896H156.075V205.52H157.947V204.896C157.947 203.264 158.827 202.368 160.427 202.368C160.907 202.368 161.291 202.448 161.611 202.576V203.888C161.355 203.776 161.067 203.744 160.779 203.744C160.011 203.744 159.563 204.096 159.563 204.912V205.52H161.931V206.896H159.563V214ZM165.115 203.552C165.115 204.16 164.635 204.624 163.947 204.624C163.259 204.624 162.779 204.16 162.779 203.552C162.779 202.928 163.259 202.48 163.947 202.48C164.635 202.48 165.115 202.928 165.115 203.552ZM164.763 214H163.147V205.52H164.763V214ZM171.406 212.432V213.856C170.91 214.08 170.478 214.16 169.966 214.16C168.398 214.16 167.31 213.312 167.31 211.44V206.896H165.438V205.52H167.31V203.008H168.926V205.52H171.486V206.896H168.926V211.072C168.926 212.24 169.486 212.656 170.35 212.656C170.734 212.656 171.07 212.592 171.406 212.432ZM179.332 211.472C179.332 213.136 178.036 214.16 175.78 214.16C173.54 214.16 172.212 213.056 172.052 211.232H173.604C173.668 212.288 174.516 212.944 175.812 212.944C176.948 212.944 177.7 212.544 177.7 211.744C177.7 211.04 177.268 210.736 176.212 210.528L174.836 210.272C173.268 209.968 172.388 209.168 172.388 207.888C172.388 206.4 173.684 205.36 175.652 205.36C177.684 205.36 179.06 206.448 179.204 208.192H177.652C177.556 207.168 176.804 206.576 175.668 206.576C174.644 206.576 173.956 207.008 173.956 207.744C173.956 208.432 174.388 208.752 175.412 208.944L176.852 209.216C178.532 209.52 179.332 210.256 179.332 211.472ZM191.478 214L185.43 205.024V214H183.798V202.512H185.718L191.622 211.248V202.512H193.254V214H191.478ZM198.774 214.16C196.374 214.16 194.614 212.272 194.614 209.76C194.614 207.248 196.374 205.36 198.774 205.36C201.174 205.36 202.934 207.248 202.934 209.76C202.934 212.272 201.174 214.16 198.774 214.16ZM198.774 212.736C200.166 212.736 201.27 211.616 201.27 209.76C201.27 207.904 200.166 206.8 198.774 206.8C197.382 206.8 196.294 207.904 196.294 209.76C196.294 211.616 197.382 212.736 198.774 212.736ZM211.017 214L209.097 207.696L207.161 214H205.529L203.081 205.52H204.665L206.377 211.696L208.297 205.52H209.897L211.785 211.712L213.497 205.52H215.097L212.633 214H211.017Z" fill="#121212"/>
</svg>
