<svg width="249" height="252" viewBox="0 0 249 252" fill="none" xmlns="http://www.w3.org/2000/svg">
<path d="M29.5737 45H17.6353V14.5367H29.162C38.0952 14.5367 44.3113 20.794 44.3113 29.8507C44.3113 38.7427 38.2598 45 29.5737 45ZM28.5033 20.7117H24.3043V38.825H28.915C34.1843 38.825 37.2718 35.4905 37.2718 29.8507C37.2718 24.0873 34.0197 20.7117 28.5033 20.7117ZM62.0708 24.4167V30.3858H60.0537C56.431 30.3858 54.2492 31.9913 54.2492 36.0668V45H47.9095V24.4578H53.8787L54.208 27.5042C55.0725 25.487 56.8838 24.1285 59.642 24.1285C60.383 24.1285 61.2063 24.2108 62.0708 24.4167ZM68.1445 21.2057C66.1273 21.2057 64.5218 19.6002 64.5218 17.583C64.5218 15.5658 66.1273 14.0015 68.1445 14.0015C70.1205 14.0015 71.726 15.5658 71.726 17.583C71.726 19.6002 70.1205 21.2057 68.1445 21.2057ZM65.0158 45V24.4167H71.3555V45H65.0158ZM81.6963 45L73.6688 24.4167H80.5024L83.0136 31.6208C84.0428 34.626 84.8661 37.2195 85.0308 38.1663C85.2778 36.9725 86.1834 34.2967 87.2126 31.6208L89.9708 24.4167H96.5574L87.9536 45H81.6963ZM107.412 45.5352C101.196 45.5352 96.75 41.0068 96.75 34.6672C96.75 28.2452 101.073 23.758 107.289 23.758C113.752 23.758 117.786 27.9982 117.786 34.7083V36.3138L102.843 36.3962C103.213 39.1132 104.736 40.3893 107.536 40.3893C109.923 40.3893 111.611 39.5248 112.064 38.0428H117.869C117.128 42.6123 113.052 45.5352 107.412 45.5352ZM107.33 28.9038C104.819 28.9038 103.419 30.0153 102.925 32.4853H111.488C111.488 30.3035 109.882 28.9038 107.33 28.9038ZM139.282 45L130.143 14.5367H137.1L141.093 27.7512C141.629 29.5625 142.123 31.3738 142.617 34.379C143.111 31.3738 143.605 29.6448 144.14 27.7512L147.886 14.5367H155.337L158.919 27.7512C159.413 29.6037 159.907 31.4562 160.442 34.379C161.059 31.2915 161.512 29.6037 162.047 27.8335L166.123 14.5367H172.915L163.612 45H157.107L151.55 24.993L145.828 45H139.282ZM178.802 21.2057C176.785 21.2057 175.179 19.6002 175.179 17.583C175.179 15.5658 176.785 14.0015 178.802 14.0015C180.778 14.0015 182.384 15.5658 182.384 17.583C182.384 19.6002 180.778 21.2057 178.802 21.2057ZM175.673 45V24.4167H182.013V45H175.673ZM194.824 45H188.484V29.686H184.573V24.4167H188.484V18.0358H194.824V24.4167H198.735V29.686H194.824V45ZM207.663 45H201.323V13.9603H207.704V26.5573C208.98 24.7872 211.327 23.758 214.002 23.758C218.901 23.758 221.742 26.8867 221.742 32.2795V45H215.402V33.8027C215.402 31.2092 213.961 29.5213 211.779 29.5213C209.268 29.5213 207.663 31.168 207.663 33.7203V45ZM3.45392 102V71.5367H16.1333C22.2671 71.5367 25.9721 74.7477 25.9721 79.9758C25.9721 83.228 24.4901 85.6157 21.7319 86.8095C24.7371 87.7975 26.3426 90.144 26.3426 93.602C26.3426 98.9948 22.7199 102 16.1333 102H3.45392ZM15.4334 77.3823H10.1229V84.0102H15.4334C17.8211 84.0102 19.1384 82.8163 19.1384 80.6345C19.1384 78.4938 17.8623 77.3823 15.4334 77.3823ZM15.7628 89.6088H10.1229V96.1543H15.7628C18.2328 96.1543 19.5089 95.0428 19.5089 92.7787C19.5089 90.7203 18.1916 89.6088 15.7628 89.6088ZM43.4556 81.4167H49.7953V102H43.8261L43.4145 99.6947C42.1383 101.382 39.586 102.535 37.116 102.535C32.423 102.535 29.5413 99.4065 29.5413 94.343V81.4167H35.881V92.0377C35.881 95.4133 37.0336 96.8953 39.6271 96.8953C42.3441 96.8953 43.4556 95.4957 43.4556 92.12V81.4167ZM53.2626 91.3378C53.2626 85.0805 57.3381 80.7168 63.1426 80.7168C65.9419 80.7168 68.1649 81.7872 69.2764 83.475L69.6057 81.4167H75.5749V100.683C75.5749 108.052 71.3347 112.498 64.2952 112.498C57.9967 112.498 53.7566 108.916 53.1802 103.07H59.6022C59.7257 105.376 61.4547 106.734 64.2541 106.734C67.3004 106.734 69.2352 104.923 69.2352 102V99.3242C68.0002 100.806 65.6949 101.753 63.0191 101.753C57.2557 101.753 53.2626 97.5128 53.2626 91.3378ZM59.6434 91.1732C59.6434 94.1372 61.6194 96.2367 64.4187 96.2367C67.3004 96.2367 69.2352 94.2195 69.2352 91.1732C69.2352 88.168 67.3004 86.2332 64.3776 86.2332C61.5782 86.2332 59.6434 88.2503 59.6434 91.1732ZM86.2978 102.535C81.9341 102.535 79.2171 99.9828 79.2171 95.9485C79.2171 92.1612 81.893 89.8147 86.833 89.4442L92.5963 88.9913V88.662C92.5963 86.6448 91.3613 85.5745 89.0971 85.5745C86.4213 85.5745 84.9805 86.6037 84.9805 88.4562H79.7111C79.7111 83.8043 83.5396 80.758 89.4265 80.758C95.3956 80.758 98.7713 84.0925 98.7713 89.9793V102H93.1726L92.761 99.283C92.1023 101.177 89.3853 102.535 86.2978 102.535ZM88.5208 97.8422C90.9496 97.8422 92.6375 96.6483 92.6375 94.3018V93.1903L89.4265 93.4785C86.6683 93.7255 85.6803 94.343 85.6803 95.6603C85.6803 97.1423 86.586 97.8422 88.5208 97.8422ZM112.127 77.7117V71.5367H136.086V77.7117H127.441V102H120.772V77.7117H112.127ZM150.748 81.4167V87.3858H148.731C145.108 87.3858 142.926 88.9913 142.926 93.0668V102H136.587V81.4578H142.556L142.885 84.5042C143.75 82.487 145.561 81.1285 148.319 81.1285C149.06 81.1285 149.883 81.2108 150.748 81.4167ZM159.105 102.535C154.741 102.535 152.024 99.9828 152.024 95.9485C152.024 92.1612 154.7 89.8147 159.64 89.4442L165.403 88.9913V88.662C165.403 86.6448 164.168 85.5745 161.904 85.5745C159.228 85.5745 157.788 86.6037 157.788 88.4562H152.518C152.518 83.8043 156.347 80.758 162.234 80.758C168.203 80.758 171.578 84.0925 171.578 89.9793V102H165.98L165.568 99.283C164.909 101.177 162.192 102.535 159.105 102.535ZM161.328 97.8422C163.757 97.8422 165.445 96.6483 165.445 94.3018V93.1903L162.234 93.4785C159.475 93.7255 158.487 94.343 158.487 95.6603C158.487 97.1423 159.393 97.8422 161.328 97.8422ZM180.906 102L172.879 81.4167H179.712L182.224 88.6208C183.253 91.626 184.076 94.2195 184.241 95.1663C184.488 93.9725 185.393 91.2967 186.423 88.6208L189.181 81.4167H195.767L187.164 102H180.906ZM206.622 102.535C200.406 102.535 195.96 98.0068 195.96 91.6672C195.96 85.2452 200.282 80.758 206.499 80.758C212.962 80.758 216.996 84.9982 216.996 91.7083V93.3138L202.053 93.3962C202.423 96.1132 203.946 97.3893 206.746 97.3893C209.133 97.3893 210.821 96.5248 211.274 95.0428H217.078C216.337 99.6123 212.262 102.535 206.622 102.535ZM206.54 85.9038C204.029 85.9038 202.629 87.0153 202.135 89.4853H210.698C210.698 87.3035 209.092 85.9038 206.54 85.9038ZM226.829 102H220.489V70.9603H226.829V102ZM229.842 95.4957H235.853C235.935 96.9365 237.005 97.801 238.94 97.801C240.916 97.801 241.822 97.1012 241.822 96.0308C241.822 95.4133 241.492 94.7547 239.969 94.4253L236.182 93.602C232.395 92.7787 230.542 91.132 230.542 87.5093C230.542 83.228 234.206 80.758 239.146 80.758C243.921 80.758 247.256 83.5573 247.256 87.7152H241.245C241.245 86.3155 240.381 85.3687 238.858 85.3687C237.417 85.3687 236.511 86.1097 236.511 87.2212C236.511 88.168 237.293 88.7032 238.734 89.0325L242.563 89.8558C245.938 90.5968 247.791 92.1612 247.791 95.4545C247.791 99.8593 244.045 102.535 238.693 102.535C233.259 102.535 229.842 99.6535 229.842 95.4957Z" fill="#FFCC2A"/>
<path d="M26.9069 187.255H24.3216V175.07H26.9069L30.5296 184.159L34.1687 175.07H36.7869V187.255H34.2016V184.703C34.2016 182.068 34.2016 181.492 34.3334 180.586L31.7481 187.255H29.311L26.7422 180.586C26.8904 181.492 26.9069 182.513 26.9069 183.846V187.255ZM41.2377 187.469C39.4922 187.469 38.4054 186.448 38.4054 184.834C38.4054 183.319 39.4757 182.381 41.4517 182.233L43.7571 182.052V181.92C43.7571 181.113 43.2631 180.685 42.3574 180.685C41.2871 180.685 40.7107 181.096 40.7107 181.837H38.603C38.603 179.977 40.1344 178.758 42.4891 178.758C44.8768 178.758 46.2271 180.092 46.2271 182.447V187.255H43.9876L43.8229 186.168C43.5595 186.926 42.4727 187.469 41.2377 187.469ZM42.1269 185.592C43.0984 185.592 43.7735 185.114 43.7735 184.176V183.731L42.4891 183.846C41.3859 183.945 40.9907 184.192 40.9907 184.719C40.9907 185.312 41.3529 185.592 42.1269 185.592ZM50.3208 187.255H47.785V174.839H50.3208V181.986L52.9884 179.022H56.1665L53.0708 182.282L56.0677 187.255H53.1366L51.2924 184.176L50.3208 185.197V187.255ZM60.3496 187.469C57.8631 187.469 56.0847 185.658 56.0847 183.122C56.0847 180.553 57.8137 178.758 60.3002 178.758C62.8854 178.758 64.4992 180.454 64.4992 183.138V183.781L58.5218 183.813C58.67 184.9 59.2792 185.411 60.399 185.411C61.354 185.411 62.0292 185.065 62.2103 184.472H64.5321C64.2357 186.3 62.6055 187.469 60.3496 187.469ZM60.3166 180.817C59.3122 180.817 58.7523 181.261 58.5547 182.249H61.9798C61.9798 181.376 61.3376 180.817 60.3166 180.817ZM72.7351 187.255H70.1498V175.07H72.7351L76.3578 184.159L79.9969 175.07H82.6151V187.255H80.0298V184.703C80.0298 182.068 80.0298 181.492 80.1616 180.586L77.5763 187.255H75.1392L72.5704 180.586C72.7186 181.492 72.7351 182.513 72.7351 183.846V187.255ZM84.1348 183.122C84.1348 180.52 86.0449 178.775 88.6796 178.775C91.2978 178.775 93.2079 180.52 93.2079 183.122C93.2079 185.724 91.2978 187.453 88.6796 187.453C86.0449 187.453 84.1348 185.724 84.1348 183.122ZM86.6871 183.105C86.6871 184.357 87.494 185.18 88.6796 185.18C89.8487 185.18 90.6556 184.357 90.6556 183.105C90.6556 181.87 89.8487 181.047 88.6796 181.047C87.494 181.047 86.6871 181.87 86.6871 183.105ZM96.9531 187.255H94.4172V179.022H96.8049L96.9695 179.878C97.48 179.17 98.4186 178.758 99.4889 178.758C101.448 178.758 102.585 180.01 102.585 182.167V187.255H100.049V182.776C100.049 181.739 99.4725 181.064 98.5997 181.064C97.5953 181.064 96.9531 181.722 96.9531 182.743V187.255ZM107.963 187.469C105.476 187.469 103.698 185.658 103.698 183.122C103.698 180.553 105.427 178.758 107.913 178.758C110.499 178.758 112.112 180.454 112.112 183.138V183.781L106.135 183.813C106.283 184.9 106.892 185.411 108.012 185.411C108.967 185.411 109.642 185.065 109.823 184.472H112.145C111.849 186.3 110.219 187.469 107.963 187.469ZM107.93 180.817C106.925 180.817 106.365 181.261 106.168 182.249H109.593C109.593 181.376 108.951 180.817 107.93 180.817ZM112.373 191.207V189.083H113.772C114.629 189.083 114.991 188.819 115.32 187.93L115.469 187.535L112.159 179.022H114.876L116.671 184.307L118.663 179.022H121.298L117.115 189.05C116.424 190.729 115.501 191.438 114.052 191.438C113.443 191.438 112.867 191.355 112.373 191.207ZM125.734 183.122C125.734 180.52 127.644 178.775 130.279 178.775C132.897 178.775 134.807 180.52 134.807 183.122C134.807 185.724 132.897 187.453 130.279 187.453C127.644 187.453 125.734 185.724 125.734 183.122ZM128.286 183.105C128.286 184.357 129.093 185.18 130.279 185.18C131.448 185.18 132.255 184.357 132.255 183.105C132.255 181.87 131.448 181.047 130.279 181.047C129.093 181.047 128.286 181.87 128.286 183.105ZM138.552 187.255H136.016V179.022H138.404L138.568 179.878C139.079 179.17 140.018 178.758 141.088 178.758C143.047 178.758 144.184 180.01 144.184 182.167V187.255H141.648V182.776C141.648 181.739 141.071 181.064 140.199 181.064C139.194 181.064 138.552 181.722 138.552 182.743V187.255ZM153.165 187.255H150.629V181.129H149.064V179.022H150.629V176.469H153.165V179.022H154.729V181.129H153.165V187.255ZM158.144 187.255H155.608V174.839H158.16V179.878C158.671 179.17 159.609 178.758 160.679 178.758C162.639 178.758 163.775 180.01 163.775 182.167V187.255H161.239V182.776C161.239 181.739 160.663 181.064 159.79 181.064C158.786 181.064 158.144 181.722 158.144 182.743V187.255ZM169.153 187.469C166.667 187.469 164.888 185.658 164.888 183.122C164.888 180.553 166.617 178.758 169.104 178.758C171.689 178.758 173.303 180.454 173.303 183.138V183.781L167.325 183.813C167.474 184.9 168.083 185.411 169.203 185.411C170.158 185.411 170.833 185.065 171.014 184.472H173.336C173.039 186.3 171.409 187.469 169.153 187.469ZM169.12 180.817C168.116 180.817 167.556 181.261 167.358 182.249H170.783C170.783 181.376 170.141 180.817 169.12 180.817ZM181.539 187.255H178.954V175.07H181.539L185.161 184.159L188.801 175.07H191.419V187.255H188.834V184.703C188.834 182.068 188.834 181.492 188.965 180.586L186.38 187.255H183.943L181.374 180.586C181.522 181.492 181.539 182.513 181.539 183.846V187.255ZM192.938 183.122C192.938 180.52 194.849 178.775 197.483 178.775C200.101 178.775 202.012 180.52 202.012 183.122C202.012 185.724 200.101 187.453 197.483 187.453C194.849 187.453 192.938 185.724 192.938 183.122ZM195.491 183.105C195.491 184.357 196.298 185.18 197.483 185.18C198.652 185.18 199.459 184.357 199.459 183.105C199.459 181.87 198.652 181.047 197.483 181.047C196.298 181.047 195.491 181.87 195.491 183.105ZM205.141 187.255L201.93 179.022H204.664L205.668 181.903C206.08 183.105 206.409 184.143 206.475 184.522C206.574 184.044 206.936 182.974 207.348 181.903L208.451 179.022H211.086L207.644 187.255H205.141ZM215.271 187.469C212.784 187.469 211.006 185.658 211.006 183.122C211.006 180.553 212.735 178.758 215.221 178.758C217.807 178.758 219.42 180.454 219.42 183.138V183.781L213.443 183.813C213.591 184.9 214.201 185.411 215.32 185.411C216.275 185.411 216.95 185.065 217.132 184.472H219.453C219.157 186.3 217.527 187.469 215.271 187.469ZM215.238 180.817C214.233 180.817 213.674 181.261 213.476 182.249H216.901C216.901 181.376 216.259 180.817 215.238 180.817ZM223.609 183.616H221.518C221.238 182.2 221.056 179.977 221.056 177.82V175.07H224.119V177.82C224.119 180.043 223.905 182.266 223.609 183.616ZM222.571 187.469C221.732 187.469 221.056 186.794 221.056 185.987C221.056 185.164 221.732 184.489 222.571 184.489C223.378 184.489 224.086 185.164 224.086 185.987C224.086 186.794 223.378 187.469 222.571 187.469Z" fill="#FFCC2A"/>
<g filter="url(#filter0_d_4178_152346)">
<path fill-rule="evenodd" clip-rule="evenodd" d="M124.529 247C124.506 240.755 119.446 235.7 113.208 235.7C119.46 235.7 124.529 230.622 124.529 224.358C124.551 230.603 129.611 235.658 135.85 235.658C129.597 235.658 124.529 240.736 124.529 247Z" fill="#FFCC2A"/>
</g>
<path d="M69.1602 136.262C74.6578 136.262 74.6578 143.672 80.1555 143.672C85.6532 143.672 85.6532 136.262 91.1509 136.262C96.6486 136.262 96.6486 143.672 102.133 143.672C107.631 143.672 107.631 136.262 113.116 136.262C118.614 136.262 118.614 143.672 124.098 143.672C129.596 143.672 129.596 136.262 135.094 136.262C140.591 136.262 140.591 143.672 146.089 143.672C151.587 143.672 151.587 136.262 157.084 136.262C162.582 136.262 162.582 143.672 168.08 143.672C173.577 143.672 173.577 136.262 179.075 136.262" stroke="#FFCC2A" stroke-width="1.235" stroke-miterlimit="10" stroke-linecap="round"/>
<defs>
<filter id="filter0_d_4178_152346" x="110.106" y="222.497" width="28.8448" height="28.8449" filterUnits="userSpaceOnUse" color-interpolation-filters="sRGB">
<feFlood flood-opacity="0" result="BackgroundImageFix"/>
<feColorMatrix in="SourceAlpha" type="matrix" values="0 0 0 0 0 0 0 0 0 0 0 0 0 0 0 0 0 0 127 0" result="hardAlpha"/>
<feOffset dy="1.24064"/>
<feGaussianBlur stdDeviation="1.5508"/>
<feComposite in2="hardAlpha" operator="out"/>
<feColorMatrix type="matrix" values="0 0 0 0 1 0 0 0 0 0.8 0 0 0 0 0.164706 0 0 0 0.5 0"/>
<feBlend mode="normal" in2="BackgroundImageFix" result="effect1_dropShadow_4178_152346"/>
<feBlend mode="normal" in="SourceGraphic" in2="effect1_dropShadow_4178_152346" result="shape"/>
</filter>
</defs>
</svg>
