<svg width="164" height="103" viewBox="0 0 164 103" fill="none" xmlns="http://www.w3.org/2000/svg">
<path d="M7.1888 23.4812H1.94292V3.5524H15.5156V8.10439H7.1888V11.7959H14.1556V16.3479H7.1888V23.4812ZM29.5554 23.4812L28.3341 19.7897H21.3396L20.0906 23.4812H14.7892L22.1723 3.5524H27.9177L35.2176 23.4812H29.5554ZM24.8923 9.32565L22.7551 15.654H26.974L24.8923 9.32565ZM44.7103 23.8975C38.9648 23.8975 34.4406 19.5399 34.4406 13.489C34.4406 7.43824 38.9648 3.13606 44.7103 3.13606C50.4836 3.13606 55.0078 7.43824 55.0078 13.489C55.0078 17.3194 53.2037 20.4836 50.4003 22.2599L53.731 28.5328H48.4851L45.9316 23.842C45.5153 23.8698 45.1267 23.8975 44.7103 23.8975ZM44.7103 19.2068C47.8468 19.2068 49.5954 16.6255 49.5954 13.489C49.5954 10.3526 47.8468 7.82683 44.7103 7.82683C41.5739 7.82683 39.8253 10.3526 39.8253 13.489C39.8253 16.6255 41.5739 19.2068 44.7103 19.2068Z" fill="black"/>
<path d="M2.32635 60.4578H0.965186V51.5732H2.32635V55.2854H6.83055V51.5732H8.1917V60.4578H6.83055V56.4733H2.32635V60.4578ZM13.6713 60.4578V59.4431C13.263 60.1732 12.5329 60.5816 11.5677 60.5816C10.2066 60.5816 9.31563 59.802 9.31563 58.6017C9.31563 57.3148 10.3427 56.6466 12.2978 56.6466C12.6814 56.6466 12.9908 56.659 13.5229 56.7208V56.2382C13.5229 55.2978 13.0155 54.7657 12.1493 54.7657C11.2336 54.7657 10.6768 55.3102 10.6397 56.2259H9.50125C9.56312 54.7533 10.6149 53.7758 12.1493 53.7758C13.7703 53.7758 14.7108 54.6915 14.7108 56.2506V60.4578H13.6713ZM10.5036 58.5646C10.5036 59.2452 11.0109 59.6906 11.8152 59.6906C12.867 59.6906 13.5229 59.0348 13.5229 58.0325V57.5004C13.0403 57.4385 12.6938 57.4262 12.3721 57.4262C11.1223 57.4262 10.5036 57.7974 10.5036 58.5646ZM21.2942 53.8995L18.8318 60.4578H17.4706L15.0081 53.8995H16.3569L18.1759 59.0224L20.0197 53.8995H21.2942ZM24.3471 60.5816C22.4538 60.5816 21.1793 59.208 21.1793 57.1415C21.1793 55.1988 22.5033 53.7758 24.31 53.7758C26.2651 53.7758 27.5644 55.3597 27.3416 57.488H22.4538C22.5528 58.8244 23.221 59.604 24.3223 59.604C25.2504 59.604 25.8939 59.0967 26.1042 58.2428H27.3416C27.0199 59.703 25.8939 60.5816 24.3471 60.5816ZM24.2852 54.7162C23.2829 54.7162 22.6023 55.4339 22.4662 56.659H26.0176C25.9557 55.4463 25.2999 54.7162 24.2852 54.7162ZM35.8001 58.5027C35.8001 59.7896 34.7978 60.5816 33.053 60.5816C31.3206 60.5816 30.2936 59.7277 30.1698 58.3171H31.3701C31.4196 59.1338 32.0754 59.6411 33.0777 59.6411C33.9563 59.6411 34.5379 59.3318 34.5379 58.7131C34.5379 58.1686 34.2038 57.9335 33.3871 57.7726L32.3229 57.5746C31.1103 57.3395 30.4297 56.7208 30.4297 55.7309C30.4297 54.5801 31.432 53.7758 32.954 53.7758C34.5255 53.7758 35.5897 54.6172 35.7011 55.966H34.5008C34.4265 55.1741 33.8449 54.7162 32.9664 54.7162C32.1744 54.7162 31.6423 55.0503 31.6423 55.6195C31.6423 56.1516 31.9764 56.3991 32.7684 56.5476L33.8821 56.7579C35.1814 56.9931 35.8001 57.5623 35.8001 58.5027ZM39.5849 60.5816C37.7288 60.5816 36.3676 59.1214 36.3676 57.1787C36.3676 55.2359 37.7288 53.7758 39.5849 53.7758C41.4411 53.7758 42.8022 55.2359 42.8022 57.1787C42.8022 59.1214 41.4411 60.5816 39.5849 60.5816ZM39.5849 59.4803C40.6615 59.4803 41.5153 58.6141 41.5153 57.1787C41.5153 55.7433 40.6615 54.8894 39.5849 54.8894C38.5084 54.8894 37.6669 55.7433 37.6669 57.1787C37.6669 58.6141 38.5084 59.4803 39.5849 59.4803ZM44.9993 60.4578H43.7495V53.8995H44.9127V54.9884C45.3582 54.2336 46.0635 53.7758 46.9668 53.7758C47.932 53.7758 48.6621 54.2707 48.959 55.1369C49.4169 54.2955 50.1717 53.7758 51.174 53.7758C52.5228 53.7758 53.389 54.6543 53.389 56.2135V60.4578H52.1392V56.6095C52.1392 55.5205 51.6566 54.8771 50.7409 54.8771C49.8871 54.8771 49.1942 55.5948 49.1942 56.6961V60.4578H47.9444V56.6095C47.9444 55.5205 47.4618 54.8771 46.5461 54.8771C45.6799 54.8771 44.9993 55.5948 44.9993 56.6961V60.4578ZM57.4311 60.5816C55.5379 60.5816 54.2633 59.208 54.2633 57.1415C54.2633 55.1988 55.5874 53.7758 57.394 53.7758C59.3491 53.7758 60.6484 55.3597 60.4257 57.488H55.5379C55.6369 58.8244 56.3051 59.604 57.4064 59.604C58.3344 59.604 58.9779 59.0967 59.1882 58.2428H60.4257C60.1039 59.703 58.9779 60.5816 57.4311 60.5816ZM57.3692 54.7162C56.3669 54.7162 55.6864 55.4339 55.5502 56.659H59.1016C59.0398 55.4463 58.3839 54.7162 57.3692 54.7162ZM63.2167 57.1787C63.2167 55.1988 64.3552 53.7758 66.1247 53.7758C67.0651 53.7758 67.857 54.2584 68.3149 55.1122V53.8995H69.4781V62.846H68.2283V59.3441C67.7581 60.1361 67.0032 60.5816 66.1247 60.5816C64.3552 60.5816 63.2167 59.1585 63.2167 57.1787ZM64.516 57.1787C64.516 58.6512 65.2832 59.4679 66.3721 59.4679C67.4363 59.4679 68.2283 58.6264 68.2283 57.1787C68.2283 55.7061 67.4239 54.8771 66.3721 54.8771C65.2832 54.8771 64.516 55.7061 64.516 57.1787ZM74.9845 57.7603V53.8995H76.2343V60.4578H75.0711V59.4184C74.7246 60.099 73.9574 60.5816 73.0665 60.5816C71.7424 60.5816 70.8268 59.802 70.8268 58.1191V53.8995H72.0765V57.8716C72.0765 59.01 72.6458 59.4803 73.4625 59.4803C74.3039 59.4803 74.9845 58.7873 74.9845 57.7603ZM80.3408 60.5816C78.4475 60.5816 77.173 59.208 77.173 57.1415C77.173 55.1988 78.497 53.7758 80.3036 53.7758C82.2588 53.7758 83.558 55.3597 83.3353 57.488H78.4475C78.5465 58.8244 79.2147 59.604 80.316 59.604C81.2441 59.604 81.8875 59.0967 82.0979 58.2428H83.3353C83.0136 59.703 81.8875 60.5816 80.3408 60.5816ZM80.2789 54.7162C79.2766 54.7162 78.596 55.4339 78.4599 56.659H82.0113C81.9494 55.4463 81.2936 54.7162 80.2789 54.7162ZM89.5345 58.5027C89.5345 59.7896 88.5322 60.5816 86.7874 60.5816C85.055 60.5816 84.028 59.7277 83.9042 58.3171H85.1045C85.154 59.1338 85.8099 59.6411 86.8122 59.6411C87.6907 59.6411 88.2723 59.3318 88.2723 58.7131C88.2723 58.1686 87.9382 57.9335 87.1215 57.7726L86.0573 57.5746C84.8447 57.3395 84.1641 56.7208 84.1641 55.7309C84.1641 54.5801 85.1664 53.7758 86.6884 53.7758C88.26 53.7758 89.3241 54.6172 89.4355 55.966H88.2352C88.161 55.1741 87.5794 54.7162 86.7008 54.7162C85.9089 54.7162 85.3768 55.0503 85.3768 55.6195C85.3768 56.1516 85.7109 56.3991 86.5028 56.5476L87.6165 56.7579C88.9158 56.9931 89.5345 57.5623 89.5345 58.5027ZM94.1876 59.2452V60.3465C93.804 60.5197 93.4699 60.5816 93.0739 60.5816C91.8612 60.5816 91.0198 59.9257 91.0198 58.478V54.9637H89.572V53.8995H91.0198V51.9568H92.2696V53.8995H94.2494V54.9637H92.2696V58.1934C92.2696 59.0967 92.7027 59.4184 93.3709 59.4184C93.6679 59.4184 93.9277 59.3689 94.1876 59.2452ZM96.6375 52.3775C96.6375 52.8477 96.2662 53.2066 95.7342 53.2066C95.2021 53.2066 94.8185 52.8477 94.8185 52.3775C94.8185 51.8949 95.2021 51.5484 95.7342 51.5484C96.2662 51.5484 96.6375 51.8949 96.6375 52.3775ZM96.3652 60.4578H95.1154V53.8995H96.3652V60.4578ZM100.521 60.5816C98.6644 60.5816 97.3033 59.1214 97.3033 57.1787C97.3033 55.2359 98.6644 53.7758 100.521 53.7758C102.377 53.7758 103.738 55.2359 103.738 57.1787C103.738 59.1214 102.377 60.5816 100.521 60.5816ZM100.521 59.4803C101.597 59.4803 102.451 58.6141 102.451 57.1787C102.451 55.7433 101.597 54.8894 100.521 54.8894C99.444 54.8894 98.6026 55.7433 98.6026 57.1787C98.6026 58.6141 99.444 59.4803 100.521 59.4803ZM105.935 56.7579V60.4578H104.685V53.8995H105.848V54.9884C106.294 54.2584 107.036 53.7758 107.94 53.7758C109.288 53.7758 110.179 54.642 110.179 56.2135V60.4578H108.929V56.6342C108.929 55.5082 108.435 54.8771 107.506 54.8771C106.653 54.8771 105.935 55.5948 105.935 56.7579ZM116.709 58.5027C116.709 59.7896 115.707 60.5816 113.962 60.5816C112.23 60.5816 111.203 59.7277 111.079 58.3171H112.279C112.329 59.1338 112.985 59.6411 113.987 59.6411C114.866 59.6411 115.447 59.3318 115.447 58.7131C115.447 58.1686 115.113 57.9335 114.296 57.7726L113.232 57.5746C112.02 57.3395 111.339 56.7208 111.339 55.7309C111.339 54.5801 112.341 53.7758 113.863 53.7758C115.435 53.7758 116.499 54.6172 116.61 55.966H115.41C115.336 55.1741 114.754 54.7162 113.876 54.7162C113.084 54.7162 112.552 55.0503 112.552 55.6195C112.552 56.1516 112.886 56.3991 113.678 56.5476L114.791 56.7579C116.091 56.9931 116.709 57.5623 116.709 58.5027ZM118.292 53.8624H117.104C117.153 52.4394 118.304 51.4494 119.863 51.4494C121.472 51.4494 122.548 52.4022 122.548 53.6892C122.548 54.444 122.128 55.0132 121.447 55.5948L120.717 56.1887C120.111 56.7084 119.975 57.0426 120.074 58.0201H119.232C118.96 56.8941 118.972 56.3372 119.69 55.7061L120.432 55.0503C120.903 54.6296 121.175 54.3202 121.175 53.8005C121.175 53.0952 120.63 52.5631 119.739 52.5631C118.898 52.5631 118.329 53.0952 118.292 53.8624ZM120.618 59.5916C120.618 60.1237 120.185 60.5197 119.628 60.5197C119.071 60.5197 118.638 60.1237 118.638 59.5916C118.638 59.0348 119.059 58.6388 119.628 58.6388C120.197 58.6388 120.618 59.0348 120.618 59.5916Z" fill="#020202"/>
<path d="M7.73386 94.0391L5.85299 87.0725L3.95974 94.0391H2.56145L0.247484 85.1545H1.58389L3.29153 91.9974L5.16003 85.1545H6.57069L8.41444 92.0098L10.1221 85.1545H11.4585L9.14452 94.0391H7.73386ZM14.3907 94.1629C12.4974 94.1629 11.2229 92.7893 11.2229 90.7228C11.2229 88.7801 12.5469 87.3571 14.3536 87.3571C16.3087 87.3571 17.608 88.941 17.3852 91.0693H12.4974C12.5964 92.4057 13.2646 93.1853 14.3659 93.1853C15.294 93.1853 15.9375 92.678 16.1478 91.8241H17.3852C17.0635 93.2843 15.9375 94.1629 14.3907 94.1629ZM14.3288 88.2975C13.3265 88.2975 12.6459 89.0152 12.5098 90.2403H16.0612C15.9993 89.0276 15.3435 88.2975 14.3288 88.2975ZM21.8963 94.0391H20.6465V87.4808H21.8097V88.5697C22.2552 87.8149 22.9605 87.3571 23.8638 87.3571C24.829 87.3571 25.5591 87.852 25.8561 88.7182C26.3139 87.8768 27.0687 87.3571 28.071 87.3571C29.4198 87.3571 30.286 88.2356 30.286 89.7948V94.0391H29.0362V90.1908C29.0362 89.1018 28.5536 88.4584 27.6379 88.4584C26.7841 88.4584 26.0912 89.1761 26.0912 90.2774V94.0391H24.8414V90.1908C24.8414 89.1018 24.3588 88.4584 23.4431 88.4584C22.5769 88.4584 21.8963 89.1761 21.8963 90.2774V94.0391ZM35.6027 94.0391V93.0244C35.1943 93.7545 34.4642 94.1629 33.499 94.1629C32.1379 94.1629 31.2469 93.3833 31.2469 92.183C31.2469 90.8961 32.274 90.2279 34.2291 90.2279C34.6127 90.2279 34.9221 90.2403 35.4542 90.3021V89.8195C35.4542 88.8791 34.9468 88.347 34.0806 88.347C33.1649 88.347 32.6081 88.8915 32.571 89.8072H31.4326C31.4944 88.3346 32.5462 87.3571 34.0806 87.3571C35.7016 87.3571 36.6421 88.2728 36.6421 89.8319V94.0391H35.6027ZM32.4349 92.1459C32.4349 92.8265 32.9422 93.2719 33.7465 93.2719C34.7983 93.2719 35.4542 92.6161 35.4542 91.6138V91.0817C34.9716 91.0198 34.6251 91.0075 34.3034 91.0075C33.0536 91.0075 32.4349 91.3787 32.4349 92.1459ZM43.2255 87.4808L39.9464 96.4273H38.5852L39.5257 93.9525L36.9395 87.4808H38.2882L40.1939 92.48L41.9634 87.4808H43.2255ZM50.0176 94.0391V93.0244C49.6093 93.7545 48.8792 94.1629 47.914 94.1629C46.5529 94.1629 45.6619 93.3833 45.6619 92.183C45.6619 90.8961 46.689 90.2279 48.6441 90.2279C49.0277 90.2279 49.337 90.2403 49.8691 90.3021V89.8195C49.8691 88.8791 49.3618 88.347 48.4956 88.347C47.5799 88.347 47.0231 88.8915 46.9859 89.8072H45.8475C45.9094 88.3346 46.9612 87.3571 48.4956 87.3571C50.1166 87.3571 51.0571 88.2728 51.0571 89.8319V94.0391H50.0176ZM46.8498 92.1459C46.8498 92.8265 47.3572 93.2719 48.1615 93.2719C49.2133 93.2719 49.8691 92.6161 49.8691 91.6138V91.0817C49.3865 91.0198 49.0401 91.0075 48.7183 91.0075C47.4685 91.0075 46.8498 91.3787 46.8498 92.1459ZM53.6635 94.0391H52.4013V85.1545H53.6635V94.0391ZM56.3212 90.6857V94.0391H55.0714V87.4808H56.2346V88.8667C56.6924 87.9634 57.6824 87.3942 58.7589 87.3942V88.6935C57.3483 88.6192 56.3212 89.2379 56.3212 90.6857ZM62.0946 94.1629C60.2014 94.1629 58.9269 92.7893 58.9269 90.7228C58.9269 88.7801 60.2509 87.3571 62.0575 87.3571C64.0126 87.3571 65.3119 88.941 65.0892 91.0693H60.2014C60.3004 92.4057 60.9686 93.1853 62.0699 93.1853C62.998 93.1853 63.6414 92.678 63.8518 91.8241H65.0892C64.7675 93.2843 63.6414 94.1629 62.0946 94.1629ZM62.0328 88.2975C61.0305 88.2975 60.3499 89.0152 60.2138 90.2403H63.7652C63.7033 89.0276 63.0475 88.2975 62.0328 88.2975ZM70.0633 94.0391V93.0244C69.655 93.7545 68.9249 94.1629 67.9597 94.1629C66.5986 94.1629 65.7076 93.3833 65.7076 92.183C65.7076 90.8961 66.7347 90.2279 68.6898 90.2279C69.0734 90.2279 69.3827 90.2403 69.9148 90.3021V89.8195C69.9148 88.8791 69.4075 88.347 68.5413 88.347C67.6256 88.347 67.0688 88.8915 67.0317 89.8072H65.8932C65.9551 88.3346 67.0069 87.3571 68.5413 87.3571C70.1623 87.3571 71.1028 88.2728 71.1028 89.8319V94.0391H70.0633ZM66.8955 92.1459C66.8955 92.8265 67.4029 93.2719 68.2072 93.2719C69.259 93.2719 69.9148 92.6161 69.9148 91.6138V91.0817C69.4322 91.0198 69.0858 91.0075 68.764 91.0075C67.5142 91.0075 66.8955 91.3787 66.8955 92.1459ZM71.9768 90.76C71.9768 88.7677 73.1152 87.3571 74.8847 87.3571C75.7633 87.3571 76.5305 87.8025 76.9883 88.6069V85.1545H78.2381V94.0391H77.0749V92.8636C76.6047 93.6926 75.8128 94.1629 74.8847 94.1629C73.1152 94.1629 71.9768 92.7275 71.9768 90.76ZM73.2761 90.76C73.2761 92.2201 74.0433 93.0492 75.1322 93.0492C76.1964 93.0492 76.9883 92.183 76.9883 90.7352C76.9883 89.2627 76.1716 88.4584 75.1322 88.4584C74.0433 88.4584 73.2761 89.2751 73.2761 90.76ZM85.0933 87.4808L81.8142 96.4273H80.453L81.3934 93.9525L78.8072 87.4808H80.156L82.0617 92.48L83.8312 87.4808H85.0933ZM89.1631 90.3392V94.0391H87.9133V85.1545H89.1631V88.5326C89.5962 87.8273 90.2644 87.3571 91.1677 87.3571C92.5165 87.3571 93.4074 88.2233 93.4074 89.7948V94.0391H92.1576V90.2155C92.1576 89.0895 91.6627 88.4584 90.7346 88.4584C89.8808 88.4584 89.1631 89.1761 89.1631 90.3392ZM98.7125 94.0391V93.0244C98.3041 93.7545 97.574 94.1629 96.6089 94.1629C95.2477 94.1629 94.3568 93.3833 94.3568 92.183C94.3568 90.8961 95.3838 90.2279 97.3389 90.2279C97.7225 90.2279 98.0319 90.2403 98.564 90.3021V89.8195C98.564 88.8791 98.0566 88.347 97.1904 88.347C96.2748 88.347 95.7179 88.8915 95.6808 89.8072H94.5424C94.6042 88.3346 95.656 87.3571 97.1904 87.3571C98.8115 87.3571 99.7519 88.2728 99.7519 89.8319V94.0391H98.7125ZM95.5447 92.1459C95.5447 92.8265 96.052 93.2719 96.8563 93.2719C97.9081 93.2719 98.564 92.6161 98.564 91.6138V91.0817C98.0814 91.0198 97.7349 91.0075 97.4132 91.0075C96.1634 91.0075 95.5447 91.3787 95.5447 92.1459ZM106.335 87.4808L103.873 94.0391H102.512L100.049 87.4808H101.398L103.217 92.6037L105.061 87.4808H106.335ZM109.388 94.1629C107.495 94.1629 106.22 92.7893 106.22 90.7228C106.22 88.7801 107.544 87.3571 109.351 87.3571C111.306 87.3571 112.605 88.941 112.383 91.0693H107.495C107.594 92.4057 108.262 93.1853 109.363 93.1853C110.292 93.1853 110.935 92.678 111.145 91.8241H112.383C112.061 93.2843 110.935 94.1629 109.388 94.1629ZM109.326 88.2975C108.324 88.2975 107.643 89.0152 107.507 90.2403H111.059C110.997 89.0276 110.341 88.2975 109.326 88.2975ZM119.616 94.0391V93.0244C119.208 93.7545 118.478 94.1629 117.513 94.1629C116.151 94.1629 115.26 93.3833 115.26 92.183C115.26 90.8961 116.288 90.2279 118.243 90.2279C118.626 90.2279 118.936 90.2403 119.468 90.3021V89.8195C119.468 88.8791 118.96 88.347 118.094 88.347C117.178 88.347 116.622 88.8915 116.584 89.8072H115.446C115.508 88.3346 116.56 87.3571 118.094 87.3571C119.715 87.3571 120.656 88.2728 120.656 89.8319V94.0391H119.616ZM116.448 92.1459C116.448 92.8265 116.956 93.2719 117.76 93.2719C118.812 93.2719 119.468 92.6161 119.468 91.6138V91.0817C118.985 91.0198 118.639 91.0075 118.317 91.0075C117.067 91.0075 116.448 91.3787 116.448 92.1459ZM123.25 90.3392V94.0391H122V87.4808H123.163V88.5697C123.608 87.8397 124.351 87.3571 125.254 87.3571C126.603 87.3571 127.494 88.2233 127.494 89.7948V94.0391H126.244V90.2155C126.244 89.0895 125.749 88.4584 124.821 88.4584C123.967 88.4584 123.25 89.1761 123.25 90.3392ZM134.024 92.084C134.024 93.3709 133.022 94.1629 131.277 94.1629C129.545 94.1629 128.518 93.309 128.394 91.8984H129.594C129.644 92.7151 130.299 93.2224 131.302 93.2224C132.18 93.2224 132.762 92.9131 132.762 92.2944C132.762 91.7499 132.428 91.5148 131.611 91.3539L130.547 91.1559C129.334 90.9208 128.654 90.3021 128.654 89.3122C128.654 88.1614 129.656 87.3571 131.178 87.3571C132.75 87.3571 133.814 88.1985 133.925 89.5473H132.725C132.651 88.7554 132.069 88.2975 131.19 88.2975C130.398 88.2975 129.866 88.6316 129.866 89.2008C129.866 89.7329 130.2 89.9804 130.992 90.1289L132.106 90.3392C133.405 90.5744 134.024 91.1436 134.024 92.084ZM140.337 94.0391L138.852 89.1637L137.355 94.0391H136.092L134.199 87.4808H135.424L136.748 92.2572L138.233 87.4808H139.471L140.931 92.2696L142.255 87.4808H143.492L141.587 94.0391H140.337ZM146.737 94.1629C144.844 94.1629 143.57 92.7893 143.57 90.7228C143.57 88.7801 144.894 87.3571 146.7 87.3571C148.655 87.3571 149.955 88.941 149.732 91.0693H144.844C144.943 92.4057 145.611 93.1853 146.713 93.1853C147.641 93.1853 148.284 92.678 148.495 91.8241H149.732C149.41 93.2843 148.284 94.1629 146.737 94.1629ZM146.676 88.2975C145.673 88.2975 144.993 89.0152 144.857 90.2403H148.408C148.346 89.0276 147.69 88.2975 146.676 88.2975ZM151.984 90.6857V94.0391H150.734V87.4808H151.897V88.8667C152.355 87.9634 153.345 87.3942 154.422 87.3942V88.6935C153.011 88.6192 151.984 89.2379 151.984 90.6857ZM160.281 92.084C160.281 93.3709 159.279 94.1629 157.534 94.1629C155.802 94.1629 154.775 93.309 154.651 91.8984H155.851C155.901 92.7151 156.556 93.2224 157.559 93.2224C158.437 93.2224 159.019 92.9131 159.019 92.2944C159.019 91.7499 158.685 91.5148 157.868 91.3539L156.804 91.1559C155.591 90.9208 154.911 90.3021 154.911 89.3122C154.911 88.1614 155.913 87.3571 157.435 87.3571C159.006 87.3571 160.071 88.1985 160.182 89.5473H158.982C158.907 88.7554 158.326 88.2975 157.447 88.2975C156.655 88.2975 156.123 88.6316 156.123 89.2008C156.123 89.7329 156.457 89.9804 157.249 90.1289L158.363 90.3392C159.662 90.5744 160.281 91.1436 160.281 92.084ZM163.014 93.1482C163.014 93.705 162.63 94.101 162.061 94.101C161.504 94.101 161.108 93.705 161.108 93.1482C161.108 92.5666 161.504 92.1706 162.061 92.1706C162.63 92.1706 163.014 92.5666 163.014 93.1482Z" fill="#020202"/>
</svg>
