<svg width="122" height="40" viewBox="0 0 122 40" fill="none" xmlns="http://www.w3.org/2000/svg">
<path d="M50.0124 13.6285C48.443 13.6285 47.23 12.4382 47.23 10.7854C47.23 9.17806 48.3824 7.95741 49.967 7.95741C51.3696 7.95741 52.3173 8.81414 52.6509 9.94381H51.6804C51.4757 9.24629 50.8768 8.708 49.9442 8.708C48.8676 8.708 48.0943 9.51923 48.0943 10.8005C48.0943 12.006 48.8297 12.9158 50.0428 12.9158C51.0511 12.9158 51.688 12.2941 51.8396 11.3616H49.9594V10.6944H52.7191C52.7494 12.4382 51.6804 13.6285 50.0124 13.6285ZM55.0154 13.5906C53.8554 13.5906 53.0745 12.749 53.0745 11.4829C53.0745 10.2926 53.8857 9.42067 54.9926 9.42067C56.1905 9.42067 56.9866 10.3911 56.8502 11.6952H53.8554C53.916 12.514 54.3255 12.9916 55.0002 12.9916C55.5689 12.9916 55.9631 12.6808 56.092 12.1577H56.8502C56.653 13.0523 55.9631 13.5906 55.0154 13.5906ZM54.9775 9.99688C54.3634 9.99688 53.9464 10.4366 53.863 11.1872H56.0389C56.001 10.4442 55.5992 9.99688 54.9775 9.99688ZM59.7496 12.7718V13.4465C59.5146 13.5527 59.3099 13.5906 59.0673 13.5906C58.3243 13.5906 57.8087 13.1888 57.8087 12.3017V10.1485H56.9216V9.49649H57.8087V8.30617H58.5744V9.49649H59.7875V10.1485H58.5744V12.1273C58.5744 12.6808 58.8398 12.8779 59.2492 12.8779C59.4312 12.8779 59.5904 12.8476 59.7496 12.7718ZM62.7017 8.56394C62.7017 8.85205 62.4743 9.07192 62.1483 9.07192C61.8222 9.07192 61.5872 8.85205 61.5872 8.56394C61.5872 8.26826 61.8222 8.05597 62.1483 8.05597C62.4743 8.05597 62.7017 8.26826 62.7017 8.56394ZM62.5349 13.5148H61.7692V9.49649H62.5349V13.5148ZM65.6981 12.7718V13.4465C65.463 13.5527 65.2583 13.5906 65.0157 13.5906C64.2727 13.5906 63.7572 13.1888 63.7572 12.3017V10.1485H62.8701V9.49649H63.7572V8.30617H64.5229V9.49649H65.736V10.1485H64.5229V12.1273C64.5229 12.6808 64.7883 12.8779 65.1977 12.8779C65.3796 12.8779 65.5389 12.8476 65.6981 12.7718ZM69.4008 13.5906C68.2635 13.5906 67.4295 12.696 67.4295 11.5056C67.4295 10.3153 68.2635 9.42067 69.4008 9.42067C70.538 9.42067 71.372 10.3153 71.372 11.5056C71.372 12.696 70.538 13.5906 69.4008 13.5906ZM69.4008 12.9158C70.0604 12.9158 70.5835 12.3851 70.5835 11.5056C70.5835 10.6262 70.0604 10.103 69.4008 10.103C68.7412 10.103 68.2256 10.6262 68.2256 11.5056C68.2256 12.3851 68.7412 12.9158 69.4008 12.9158ZM72.7516 11.2479V13.5148H71.9858V9.49649H72.6985V10.1637C72.9714 9.71636 73.4263 9.42067 73.9798 9.42067C74.8062 9.42067 75.3521 9.95139 75.3521 10.9143V13.5148H74.5863V11.172C74.5863 10.4821 74.2831 10.0954 73.7144 10.0954C73.1913 10.0954 72.7516 10.5352 72.7516 11.2479Z" fill="black"/>
<path d="M51.3604 28.4162H49.4886V31.7827H48.0074V22.1142H51.3604C53.5284 22.1142 54.9289 23.2184 54.9289 25.2383C54.9289 27.2716 53.5284 28.4162 51.3604 28.4162ZM51.3469 23.3665H49.4886V27.1639H51.3469C52.6531 27.1639 53.4476 26.4502 53.4476 25.2517C53.4476 24.0533 52.6531 23.3665 51.3469 23.3665ZM57.38 31.7827H56.0064V22.1142H57.38V31.7827ZM63.294 31.7827V30.6785C62.8497 31.473 62.0552 31.9174 61.0048 31.9174C59.5236 31.9174 58.554 31.069 58.554 29.7628C58.554 28.3624 59.6717 27.6352 61.7993 27.6352C62.2168 27.6352 62.5534 27.6487 63.1324 27.716V27.1908C63.1324 26.1674 62.5803 25.5884 61.6377 25.5884C60.6412 25.5884 60.0353 26.1809 59.9949 27.1774H58.756C58.8233 25.5749 59.9679 24.5111 61.6377 24.5111C63.4018 24.5111 64.4252 25.5076 64.4252 27.2043V31.7827H63.294ZM59.8468 29.7224C59.8468 30.4631 60.3989 30.9478 61.2741 30.9478C62.4187 30.9478 63.1324 30.2341 63.1324 29.1434V28.5644C62.6073 28.497 62.2302 28.4836 61.8801 28.4836C60.5201 28.4836 59.8468 28.8875 59.8468 29.7224ZM71.6488 24.6458L68.0803 34.3816H66.5991L67.6225 31.6885L64.8081 24.6458H66.2759L68.3496 30.086L70.2753 24.6458H71.6488ZM82.0136 28.9549C82.0136 30.6381 80.667 31.9174 78.3239 31.9174C75.9943 31.9174 74.5804 30.6381 74.4592 28.7125H75.9674C76.0347 29.9379 76.8157 30.7324 78.297 30.7324C79.5224 30.7324 80.438 30.1533 80.438 29.1569C80.438 28.3489 79.9129 27.9449 78.7952 27.7025L77.3947 27.4332C76.0347 27.1639 74.7958 26.4771 74.7958 24.8343C74.7958 23.2049 76.2232 21.9795 78.2296 21.9795C80.2361 21.9795 81.7577 23.2049 81.8789 25.1306H80.3707C80.2899 23.9725 79.455 23.1645 78.2431 23.1645C76.9908 23.1645 76.304 23.9052 76.304 24.74C76.304 25.6557 77.0985 25.9789 78.0007 26.1674L79.4281 26.4502C81.0844 26.7869 82.0136 27.514 82.0136 28.9549ZM87.377 30.4631V31.6615C86.9595 31.85 86.596 31.9174 86.165 31.9174C84.8454 31.9174 83.9297 31.2037 83.9297 29.6282V25.8038H82.3542V24.6458H83.9297V22.5316H85.2898V24.6458H87.4443V25.8038H85.2898V29.3185C85.2898 30.3015 85.7611 30.6516 86.4882 30.6516C86.8114 30.6516 87.0942 30.5977 87.377 30.4631ZM91.2382 31.9174C89.2183 31.9174 87.7371 30.3284 87.7371 28.2142C87.7371 26.1001 89.2183 24.5111 91.2382 24.5111C93.2581 24.5111 94.7394 26.1001 94.7394 28.2142C94.7394 30.3284 93.2581 31.9174 91.2382 31.9174ZM91.2382 30.7189C92.4098 30.7189 93.3389 29.7763 93.3389 28.2142C93.3389 26.6522 92.4098 25.7231 91.2382 25.7231C90.0667 25.7231 89.151 26.6522 89.151 28.2142C89.151 29.7763 90.0667 30.7189 91.2382 30.7189ZM97.1896 28.1335V31.7827H95.8296V24.6458H97.0954V26.154C97.5936 25.1709 98.6709 24.5515 99.8424 24.5515V25.9654C98.3073 25.8846 97.1896 26.5579 97.1896 28.1335ZM103.532 31.9174C101.471 31.9174 100.084 30.4227 100.084 28.1738C100.084 26.0597 101.525 24.5111 103.491 24.5111C105.619 24.5111 107.033 26.2348 106.791 28.5509H101.471C101.579 30.0052 102.306 30.8536 103.505 30.8536C104.515 30.8536 105.215 30.3015 105.444 29.3723H106.791C106.44 30.9613 105.215 31.9174 103.532 31.9174ZM103.464 25.5345C102.374 25.5345 101.633 26.3156 101.485 27.6487H105.35C105.282 26.329 104.569 25.5345 103.464 25.5345Z" fill="black"/>
<g clip-path="url(#clip0_4177_150269)">
<g filter="url(#filter0_d_4177_150269)">
<path d="M23.5148 19.9674L14.9834 11.0291C15.0792 10.6896 15.2514 10.3764 15.4867 10.1137C15.7221 9.85087 16.0144 9.64537 16.3414 9.51288C16.6684 9.38038 17.0213 9.3244 17.3732 9.34921C17.7251 9.37401 18.0667 9.47895 18.3718 9.656L27.9712 15.1232L23.5148 19.9674Z" fill="#EA4335"/>
</g>
<g filter="url(#filter1_d_4177_150269)">
<path d="M32.1421 21.4868L27.9909 23.8645L23.3184 19.7642L28.01 15.1361L32.1295 17.4883C32.4944 17.6794 32.8001 17.9667 33.0133 18.3191C33.2266 18.6716 33.3394 19.0756 33.3394 19.4876C33.3394 19.8995 33.2266 20.3036 33.0133 20.656C32.8001 21.0085 32.4944 21.2958 32.1295 21.4869H32.1422L32.1421 21.4868Z" fill="#FBBC04"/>
</g>
<g filter="url(#filter2_d_4177_150269)">
<path d="M14.9836 27.9902C14.932 27.7996 14.9063 27.6029 14.9073 27.4054V11.6141C14.9078 11.4166 14.9334 11.2201 14.9836 11.0291L23.8074 19.7386L14.9836 27.9902Z" fill="#4285F4"/>
</g>
<g filter="url(#filter3_d_4177_150269)">
<path d="M23.5784 19.5097L27.9903 23.8644L18.4036 29.3571C18.0429 29.5683 17.6327 29.6802 17.2147 29.6813C16.1774 29.6833 15.2655 28.9948 14.9834 27.9966L23.5784 19.5097Z" fill="#34A853"/>
</g>
</g>
<rect x="1.53044" y="1.22417" width="119.729" height="37.8491" rx="4.94585" stroke="#FFCC2A" stroke-width="1.4808"/>
<defs>
<filter id="filter0_d_4177_150269" x="14.5095" y="9.34351" width="13.936" height="11.5716" filterUnits="userSpaceOnUse" color-interpolation-filters="sRGB">
<feFlood flood-opacity="0" result="BackgroundImageFix"/>
<feColorMatrix in="SourceAlpha" type="matrix" values="0 0 0 0 0 0 0 0 0 0 0 0 0 0 0 0 0 0 127 0" result="hardAlpha"/>
<feOffset dy="0.473854"/>
<feGaussianBlur stdDeviation="0.236927"/>
<feComposite in2="hardAlpha" operator="out"/>
<feColorMatrix type="matrix" values="0 0 0 0 0 0 0 0 0 0 0 0 0 0 0 0 0 0 0.25 0"/>
<feBlend mode="normal" in2="BackgroundImageFix" result="effect1_dropShadow_4177_150269"/>
<feBlend mode="normal" in="SourceGraphic" in2="effect1_dropShadow_4177_150269" result="shape"/>
</filter>
<filter id="filter1_d_4177_150269" x="22.8445" y="15.1361" width="10.9692" height="9.6761" filterUnits="userSpaceOnUse" color-interpolation-filters="sRGB">
<feFlood flood-opacity="0" result="BackgroundImageFix"/>
<feColorMatrix in="SourceAlpha" type="matrix" values="0 0 0 0 0 0 0 0 0 0 0 0 0 0 0 0 0 0 127 0" result="hardAlpha"/>
<feOffset dy="0.473854"/>
<feGaussianBlur stdDeviation="0.236927"/>
<feComposite in2="hardAlpha" operator="out"/>
<feColorMatrix type="matrix" values="0 0 0 0 0 0 0 0 0 0 0 0 0 0 0 0 0 0 0.25 0"/>
<feBlend mode="normal" in2="BackgroundImageFix" result="effect1_dropShadow_4177_150269"/>
<feBlend mode="normal" in="SourceGraphic" in2="effect1_dropShadow_4177_150269" result="shape"/>
</filter>
<filter id="filter2_d_4177_150269" x="14.4334" y="11.0292" width="9.8481" height="17.9088" filterUnits="userSpaceOnUse" color-interpolation-filters="sRGB">
<feFlood flood-opacity="0" result="BackgroundImageFix"/>
<feColorMatrix in="SourceAlpha" type="matrix" values="0 0 0 0 0 0 0 0 0 0 0 0 0 0 0 0 0 0 127 0" result="hardAlpha"/>
<feOffset dy="0.473854"/>
<feGaussianBlur stdDeviation="0.236927"/>
<feComposite in2="hardAlpha" operator="out"/>
<feColorMatrix type="matrix" values="0 0 0 0 0 0 0 0 0 0 0 0 0 0 0 0 0 0 0.25 0"/>
<feBlend mode="normal" in2="BackgroundImageFix" result="effect1_dropShadow_4177_150269"/>
<feBlend mode="normal" in="SourceGraphic" in2="effect1_dropShadow_4177_150269" result="shape"/>
</filter>
<filter id="filter3_d_4177_150269" x="14.5095" y="19.5096" width="13.9545" height="11.1193" filterUnits="userSpaceOnUse" color-interpolation-filters="sRGB">
<feFlood flood-opacity="0" result="BackgroundImageFix"/>
<feColorMatrix in="SourceAlpha" type="matrix" values="0 0 0 0 0 0 0 0 0 0 0 0 0 0 0 0 0 0 127 0" result="hardAlpha"/>
<feOffset dy="0.473854"/>
<feGaussianBlur stdDeviation="0.236927"/>
<feComposite in2="hardAlpha" operator="out"/>
<feColorMatrix type="matrix" values="0 0 0 0 0 0 0 0 0 0 0 0 0 0 0 0 0 0 0.25 0"/>
<feBlend mode="normal" in2="BackgroundImageFix" result="effect1_dropShadow_4177_150269"/>
<feBlend mode="normal" in="SourceGraphic" in2="effect1_dropShadow_4177_150269" result="shape"/>
</filter>
<clipPath id="clip0_4177_150269">
<rect width="18.4317" height="20.3757" fill="white" transform="matrix(1 0 0 -1 14.833 29.6813)"/>
</clipPath>
</defs>
</svg>
