<svg width="24" height="23" viewBox="0 0 24 23" fill="none" xmlns="http://www.w3.org/2000/svg">
<path d="M21.6129 5.69939C20.8934 6.02648 20.1177 6.24142 19.314 6.34422C20.1364 5.84892 20.7719 5.06391 21.0709 4.12003C20.2953 4.58729 19.4355 4.91438 18.529 5.10129C17.7907 4.29759 16.7534 3.83032 15.5759 3.83032C13.3797 3.83032 11.5854 5.62463 11.5854 7.83947C11.5854 8.15721 11.6228 8.46561 11.6882 8.75532C8.36126 8.5871 5.39879 6.98905 3.42692 4.5686C3.08114 5.15736 2.88489 5.84892 2.88489 6.57785C2.88489 7.97031 3.58579 9.20389 4.66985 9.90479C4.00633 9.90479 3.38954 9.71789 2.84751 9.43753V9.46556C2.84751 11.4094 4.23062 13.0355 6.06231 13.3999C5.47423 13.5609 4.85685 13.5833 4.25865 13.4654C4.51248 14.262 5.00959 14.9591 5.6801 15.4587C6.35061 15.9582 7.1608 16.235 7.99679 16.2503C6.57969 17.3721 4.82311 17.9785 3.01572 17.9698C2.69798 17.9698 2.38024 17.9511 2.0625 17.9137C3.83811 19.0539 5.95016 19.7174 8.21173 19.7174C15.5759 19.7174 19.6224 13.6055 19.6224 8.30674C19.6224 8.12918 19.6224 7.96096 19.613 7.7834C20.3981 7.22268 21.0709 6.51243 21.6129 5.69939Z" fill="white"/>
</svg>
