<svg width="126" height="40" viewBox="0 0 126 40" fill="none" xmlns="http://www.w3.org/2000/svg">
<rect y="0.483765" width="125.097" height="39.3299" rx="5.68625" fill="#121212"/>
<path d="M52.1415 14.7263H50.4205V9.28268H52.1415C53.8777 9.28268 54.8785 10.3896 54.8785 11.9818C54.8785 13.5512 53.8398 14.7263 52.1415 14.7263ZM51.2545 10.0029V14.0061H52.1036C53.3546 14.0061 54.0293 13.2327 54.0293 11.9818C54.0293 10.7535 53.3622 10.0029 52.1036 10.0029H51.2545ZM57.207 14.8021C56.0698 14.8021 55.2358 13.9075 55.2358 12.7172C55.2358 11.5269 56.0698 10.6322 57.207 10.6322C58.3443 10.6322 59.1782 11.5269 59.1782 12.7172C59.1782 13.9075 58.3443 14.8021 57.207 14.8021ZM57.207 14.1274C57.8666 14.1274 58.3897 13.5967 58.3897 12.7172C58.3897 11.8377 57.8666 11.3146 57.207 11.3146C56.5474 11.3146 56.0318 11.8377 56.0318 12.7172C56.0318 13.5967 56.5474 14.1274 57.207 14.1274ZM63.024 14.7263L62.1142 11.7391L61.1968 14.7263H60.4235L59.2635 10.708H60.0141L60.8253 13.6346L61.7351 10.708H62.4933L63.3879 13.6421L64.1991 10.708H64.9573L63.7897 14.7263H63.024ZM66.1809 12.4594V14.7263H65.4152V10.708H66.1278V11.3752C66.4008 10.9279 66.8557 10.6322 67.4091 10.6322C68.2355 10.6322 68.7814 11.1629 68.7814 12.1258V14.7263H68.0157V12.3836C68.0157 11.6937 67.7124 11.307 67.1438 11.307C66.6206 11.307 66.1809 11.7467 66.1809 12.4594ZM70.4048 14.7263H69.6315V9.28268H70.4048V14.7263ZM72.984 14.8021C71.8468 14.8021 71.0128 13.9075 71.0128 12.7172C71.0128 11.5269 71.8468 10.6322 72.984 10.6322C74.1213 10.6322 74.9553 11.5269 74.9553 12.7172C74.9553 13.9075 74.1213 14.8021 72.984 14.8021ZM72.984 14.1274C73.6436 14.1274 74.1668 13.5967 74.1668 12.7172C74.1668 11.8377 73.6436 11.3146 72.984 11.3146C72.3244 11.3146 71.8089 11.8377 71.8089 12.7172C71.8089 13.5967 72.3244 14.1274 72.984 14.1274ZM78.0028 14.7263V14.1046C77.7526 14.5519 77.3053 14.8021 76.7139 14.8021C75.8799 14.8021 75.334 14.3245 75.334 13.5891C75.334 12.8006 75.9633 12.3912 77.1612 12.3912C77.3963 12.3912 77.5858 12.3987 77.9118 12.4367V12.141C77.9118 11.5648 77.601 11.2388 77.0702 11.2388C76.5092 11.2388 76.168 11.5723 76.1453 12.1334H75.4478C75.4857 11.2312 76.1301 10.6322 77.0702 10.6322C78.0634 10.6322 78.6397 11.1933 78.6397 12.1486V14.7263H78.0028ZM76.0619 13.5663C76.0619 13.9833 76.3727 14.2563 76.8655 14.2563C77.51 14.2563 77.9118 13.8544 77.9118 13.2403V12.9143C77.6161 12.8764 77.4038 12.8688 77.2067 12.8688C76.441 12.8688 76.0619 13.0963 76.0619 13.5663ZM79.2086 12.7172C79.2086 11.4965 79.9061 10.6322 80.9903 10.6322C81.5286 10.6322 81.9986 10.9052 82.2791 11.398V9.28268H83.0449V14.7263H82.3322V14.0061C82.0441 14.514 81.5589 14.8021 80.9903 14.8021C79.9061 14.8021 79.2086 13.9227 79.2086 12.7172ZM80.0046 12.7172C80.0046 13.6118 80.4747 14.1198 81.1419 14.1198C81.7939 14.1198 82.2791 13.5891 82.2791 12.702C82.2791 11.7998 81.7788 11.307 81.1419 11.307C80.4747 11.307 80.0046 11.8074 80.0046 12.7172ZM87.0433 14.8021C85.9061 14.8021 85.0721 13.9075 85.0721 12.7172C85.0721 11.5269 85.9061 10.6322 87.0433 10.6322C88.1806 10.6322 89.0146 11.5269 89.0146 12.7172C89.0146 13.9075 88.1806 14.8021 87.0433 14.8021ZM87.0433 14.1274C87.7029 14.1274 88.2261 13.5967 88.2261 12.7172C88.2261 11.8377 87.7029 11.3146 87.0433 11.3146C86.3837 11.3146 85.8682 11.8377 85.8682 12.7172C85.8682 13.5967 86.3837 14.1274 87.0433 14.1274ZM90.3941 12.4594V14.7263H89.6284V10.708H90.3411V11.3752C90.614 10.9279 91.0689 10.6322 91.6224 10.6322C92.4488 10.6322 92.9946 11.1629 92.9946 12.1258V14.7263H92.2289V12.3836C92.2289 11.6937 91.9256 11.307 91.357 11.307C90.8339 11.307 90.3941 11.7467 90.3941 12.4594ZM97.5293 13.9833V14.6581C97.2943 14.7642 97.0896 14.8021 96.847 14.8021C96.104 14.8021 95.5884 14.4003 95.5884 13.5133V11.3601H94.7013V10.708H95.5884V9.51772H96.3541V10.708H97.5672V11.3601H96.3541V13.3389C96.3541 13.8923 96.6195 14.0895 97.0289 14.0895C97.2109 14.0895 97.3701 14.0591 97.5293 13.9833ZM98.897 12.4594V14.7263H98.1312V9.28268H98.897V11.3525C99.1623 10.9203 99.5717 10.6322 100.125 10.6322C100.952 10.6322 101.497 11.1629 101.497 12.1258V14.7263H100.732V12.3836C100.732 11.6937 100.428 11.307 99.8598 11.307C99.3367 11.307 98.897 11.7467 98.897 12.4594ZM104 14.8021C102.84 14.8021 102.059 13.9606 102.059 12.6944C102.059 11.5041 102.871 10.6322 103.978 10.6322C105.176 10.6322 105.972 11.6027 105.835 12.9067H102.84C102.901 13.7255 103.31 14.2032 103.985 14.2032C104.554 14.2032 104.948 13.8923 105.077 13.3692H105.835C105.638 14.2638 104.948 14.8021 104 14.8021ZM103.962 11.2084C103.348 11.2084 102.931 11.6482 102.848 12.3987H105.024C104.986 11.6557 104.584 11.2084 103.962 11.2084Z" fill="white"/>
<path d="M57.5316 31.0989L56.6563 28.7019H52.4819L51.5931 31.0989H50.0984L53.8015 21.4303H55.4309L59.1071 31.0989H57.5316ZM54.5826 23.0463L52.9263 27.5035H56.2119L54.5826 23.0463ZM66.8495 27.5304C66.8495 29.685 65.6106 31.2335 63.6985 31.2335C62.7289 31.2335 61.9075 30.7488 61.3958 29.8869V33.6978H60.0357V23.9619H61.3015V25.2681C61.8132 24.3525 62.6885 23.8273 63.6985 23.8273C65.5972 23.8273 66.8495 25.3759 66.8495 27.5304ZM65.4356 27.5304C65.4356 25.928 64.5872 25.0257 63.4157 25.0257C62.2846 25.0257 61.3958 25.928 61.3958 27.5304C61.3958 29.1059 62.2711 30.0216 63.4157 30.0216C64.5872 30.0216 65.4356 29.1329 65.4356 27.5304ZM74.7459 27.5304C74.7459 29.685 73.507 31.2335 71.5949 31.2335C70.6253 31.2335 69.8039 30.7488 69.2922 29.8869V33.6978H67.9321V23.9619H69.1979V25.2681C69.7096 24.3525 70.5849 23.8273 71.5949 23.8273C73.4936 23.8273 74.7459 25.3759 74.7459 27.5304ZM73.332 27.5304C73.332 25.928 72.4836 25.0257 71.3121 25.0257C70.1809 25.0257 69.2922 25.928 69.2922 27.5304C69.2922 29.1059 70.1675 30.0216 71.3121 30.0216C72.4836 30.0216 73.332 29.1329 73.332 27.5304ZM85.5238 28.271C85.5238 29.9543 84.1772 31.2335 81.8341 31.2335C79.5045 31.2335 78.0906 29.9543 77.9694 28.0286H79.4776C79.5449 29.254 80.3259 30.0485 81.8072 30.0485C83.0326 30.0485 83.9483 29.4695 83.9483 28.473C83.9483 27.6651 83.4231 27.2611 82.3054 27.0187L80.905 26.7494C79.5449 26.4801 78.306 25.7933 78.306 24.1505C78.306 22.5211 79.7334 21.2957 81.7399 21.2957C83.7463 21.2957 85.2679 22.5211 85.3891 24.4467H83.8809C83.8001 23.2886 82.9653 22.4807 81.7533 22.4807C80.501 22.4807 79.8142 23.2213 79.8142 24.0562C79.8142 24.9719 80.6087 25.2951 81.5109 25.4836L82.9383 25.7664C84.5946 26.103 85.5238 26.8302 85.5238 28.271ZM90.8872 29.7792V30.9777C90.4698 31.1662 90.1062 31.2335 89.6753 31.2335C88.3556 31.2335 87.4399 30.5198 87.4399 28.9443V25.12H85.8644V23.9619H87.4399V21.8478H88.8V23.9619H90.9545V25.12H88.8V28.6346C88.8 29.6176 89.2713 29.9677 89.9985 29.9677C90.3216 29.9677 90.6044 29.9139 90.8872 29.7792ZM94.7485 31.2335C92.7286 31.2335 91.2473 29.6446 91.2473 27.5304C91.2473 25.4163 92.7286 23.8273 94.7485 23.8273C96.7683 23.8273 98.2496 25.4163 98.2496 27.5304C98.2496 29.6446 96.7683 31.2335 94.7485 31.2335ZM94.7485 30.0351C95.92 30.0351 96.8491 29.0925 96.8491 27.5304C96.8491 25.9684 95.92 25.0392 94.7485 25.0392C93.5769 25.0392 92.6612 25.9684 92.6612 27.5304C92.6612 29.0925 93.5769 30.0351 94.7485 30.0351ZM100.7 27.4496V31.0989H99.3398V23.9619H100.606V25.4701C101.104 24.4871 102.181 23.8677 103.353 23.8677V25.2816C101.818 25.2008 100.7 25.8741 100.7 27.4496ZM107.042 31.2335C104.982 31.2335 103.595 29.7388 103.595 27.49C103.595 25.3759 105.036 23.8273 107.002 23.8273C109.129 23.8273 110.543 25.5509 110.301 27.8671H104.982C105.089 29.3214 105.817 30.1697 107.015 30.1697C108.025 30.1697 108.725 29.6176 108.954 28.6885H110.301C109.951 30.2775 108.725 31.2335 107.042 31.2335ZM106.975 24.8507C105.884 24.8507 105.143 25.6317 104.995 26.9648H108.86C108.793 25.6452 108.079 24.8507 106.975 24.8507Z" fill="white"/>
<path d="M32.3932 29.3042C31.3484 30.3611 30.2076 30.1942 29.1094 29.6936C27.9473 29.1818 26.8811 29.1596 25.655 29.6936C24.1197 30.3834 23.3094 30.1831 22.3925 29.3042C17.1896 23.7082 17.9573 15.1862 23.8639 14.8747C25.3032 14.9526 26.3054 15.698 27.1477 15.7647C28.4057 15.4977 29.6105 14.7301 30.9539 14.8302C32.5638 14.9637 33.7793 15.6312 34.5789 16.8328C31.2524 18.9132 32.0414 23.4857 35.0907 24.7651C34.4829 26.4339 33.694 28.0916 32.3826 29.3153L32.3932 29.3042ZM27.041 14.808C26.8811 12.327 28.8109 10.28 31.0285 10.0797C31.3377 12.95 28.5337 15.0861 27.041 14.808Z" fill="white"/>
</svg>
