<svg width="194" height="21" viewBox="0 0 194 21" fill="none" xmlns="http://www.w3.org/2000/svg">
<path d="M6.5 5.69995C7.90067 5.69995 9.24398 6.25637 10.2344 7.24679C11.2248 8.23722 11.7812 9.58053 11.7812 10.9812C11.7812 12.3819 11.2248 13.7252 10.2344 14.7156C9.24398 15.706 7.90067 16.2625 6.5 16.2625C5.09933 16.2625 3.75602 15.706 2.76559 14.7156C1.77517 13.7252 1.21875 12.3819 1.21875 10.9812C1.21875 9.58053 1.77517 8.23722 2.76559 7.24679C3.75602 6.25637 5.09933 5.69995 6.5 5.69995ZM6.5 17.4812C8.22391 17.4812 9.87721 16.7964 11.0962 15.5774C12.3152 14.3584 13 12.7051 13 10.9812C13 9.25729 12.3152 7.60399 11.0962 6.38501C9.87721 5.16602 8.22391 4.4812 6.5 4.4812C4.77609 4.4812 3.12279 5.16602 1.90381 6.38501C0.68482 7.60399 0 9.25729 0 10.9812C0 12.7051 0.68482 14.3584 1.90381 15.5774C3.12279 16.7964 4.77609 17.4812 6.5 17.4812ZM5.06289 12.4183C4.2707 11.6261 4.2707 10.3388 5.06289 9.54663C5.85508 8.75444 7.14238 8.75444 7.93457 9.54663C8.17324 9.7853 8.55918 9.7853 8.79531 9.54663C9.03145 9.30796 9.03398 8.92202 8.79531 8.68589C7.52578 7.41636 5.46914 7.41636 4.19961 8.68589C2.93008 9.95542 2.93008 12.0121 4.19961 13.2816C5.46914 14.5511 7.52578 14.5511 8.79531 13.2816C9.03398 13.0429 9.03398 12.657 8.79531 12.4208C8.55664 12.1847 8.1707 12.1822 7.93457 12.4208C7.14238 13.213 5.85508 13.213 5.06289 12.4208V12.4183Z" fill="white"/>
<path d="M30.0532 15.6612C27.6532 15.6612 25.8412 13.7052 25.8412 11.1612C25.8412 8.6292 27.6532 6.6852 30.0532 6.6852C32.1052 6.6852 33.7972 8.0652 34.1332 10.1172H33.1852C32.9092 8.5812 31.6372 7.4892 30.0532 7.4892C28.1452 7.4892 26.7652 9.0492 26.7652 11.1612C26.7652 13.2972 28.1452 14.8572 30.0532 14.8572C31.6492 14.8572 32.9212 13.7532 33.1852 12.2172H34.1332C33.7972 14.2692 32.1052 15.6612 30.0532 15.6612ZM37.799 15.6012C36.059 15.6012 34.799 14.2212 34.799 12.3132C34.799 10.4172 36.059 9.0492 37.799 9.0492C39.551 9.0492 40.811 10.4172 40.811 12.3132C40.811 14.2212 39.551 15.6012 37.799 15.6012ZM37.799 14.8692C39.035 14.8692 39.959 13.8852 39.959 12.3132C39.959 10.7652 39.035 9.7812 37.799 9.7812C36.575 9.7812 35.651 10.7652 35.651 12.3132C35.651 13.8852 36.575 14.8692 37.799 14.8692ZM47.7014 12.3132C47.7014 14.2692 46.6094 15.6012 44.9294 15.6012C43.9814 15.6012 43.1774 15.0852 42.7454 14.1852V17.7972H41.9054V9.1572H42.6854V10.5252C43.1174 9.5892 43.9574 9.0372 44.9294 9.0372C46.6094 9.0372 47.7014 10.3812 47.7014 12.3132ZM46.8494 12.3132C46.8494 10.7172 46.0214 9.7692 44.7854 9.7692C43.6094 9.7692 42.7334 10.7052 42.7334 12.3132C42.7334 13.8852 43.5854 14.8692 44.7854 14.8692C46.0214 14.8692 46.8494 13.9332 46.8494 12.3132ZM53.4743 9.1572L50.2343 17.7972H49.3343L50.2583 15.3972L47.7503 9.1572H48.6503L50.6903 14.3892L52.6223 9.1572H53.4743ZM55.026 12.0972V15.4812H54.186V9.1572H54.966V10.5972C55.398 9.6612 56.334 9.0612 57.378 9.0612V9.9372C56.046 9.8892 55.026 10.7172 55.026 12.0972ZM59.2327 7.6932C59.2327 8.0652 58.9567 8.3292 58.5487 8.3292C58.1527 8.3292 57.8767 8.0652 57.8767 7.6932C57.8767 7.3332 58.1527 7.0692 58.5487 7.0692C58.9567 7.0692 59.2327 7.3332 59.2327 7.6932ZM58.9807 15.4812H58.1407V9.1572H58.9807V15.4812ZM62.9249 17.9292C61.3169 17.9292 60.3089 17.0892 60.2369 15.6732H61.0409C61.1129 16.7052 61.7849 17.2572 62.9129 17.2572C64.1609 17.2572 64.8209 16.5972 64.8209 15.3492V14.0292C64.4369 14.9172 63.6689 15.4332 62.7329 15.4332C61.1369 15.4332 60.0689 14.1492 60.0689 12.2292C60.0689 10.3092 61.1249 9.0372 62.7209 9.0372C63.6689 9.0372 64.4609 9.5772 64.8689 10.5012V9.1572H65.6489V15.3372C65.6489 16.9692 64.6529 17.9292 62.9249 17.9292ZM60.9089 12.2292C60.9089 13.7772 61.6409 14.7132 62.8529 14.7132C64.0409 14.7132 64.8329 13.7532 64.8329 12.2892C64.8329 10.7412 64.0529 9.7572 62.8529 9.7572C61.6529 9.7572 60.9089 10.6932 60.9089 12.2292ZM68.0504 11.7972V15.4812H67.2104V6.8652H68.0504V10.3212C68.4464 9.5652 69.1664 9.0372 70.0784 9.0372C71.3984 9.0372 72.2504 9.8772 72.2504 11.3772V15.4812H71.4104V11.6652C71.4104 10.4532 70.8584 9.7692 69.8264 9.7692C68.8424 9.7692 68.0504 10.6212 68.0504 11.7972ZM76.9952 14.6772V15.4212C76.6712 15.5532 76.3952 15.6012 76.0832 15.6012C75.0392 15.6012 74.2352 15.0612 74.2352 13.6932V9.8652H72.7472V9.1572H74.2352V7.2852H75.0752V9.1572H77.0552V9.8652H75.0752V13.5132C75.0752 14.4972 75.5552 14.8332 76.2512 14.8332C76.5152 14.8332 76.7312 14.7852 76.9952 14.6772ZM84.9491 14.7372V15.4812H80.0531V15.0012L82.6451 12.0732C83.6291 10.9572 83.9891 10.3572 83.9891 9.5772C83.9891 8.6652 83.3171 7.9932 82.3691 7.9932C81.3851 7.9932 80.6891 8.6772 80.6891 9.6852H79.8731C79.8731 8.2692 80.9171 7.2492 82.4051 7.2492C83.8211 7.2492 84.8651 8.1972 84.8651 9.5052C84.8651 10.3812 84.5171 11.0412 83.2691 12.4332L81.2891 14.7372H84.9491ZM85.87 11.4372C85.87 8.7492 86.902 7.2492 88.75 7.2492C90.586 7.2492 91.63 8.7492 91.63 11.4372C91.63 14.1252 90.61 15.6012 88.75 15.6012C86.878 15.6012 85.87 14.1252 85.87 11.4372ZM86.734 11.4372C86.734 13.6692 87.418 14.8572 88.75 14.8572C90.058 14.8572 90.766 13.6812 90.766 11.4372C90.766 9.1812 90.058 7.9932 88.75 7.9932C87.442 7.9932 86.734 9.1692 86.734 11.4372ZM97.5344 14.7372V15.4812H92.6384V15.0012L95.2304 12.0732C96.2144 10.9572 96.5744 10.3572 96.5744 9.5772C96.5744 8.6652 95.9024 7.9932 94.9544 7.9932C93.9704 7.9932 93.2744 8.6772 93.2744 9.6852H92.4584C92.4584 8.2692 93.5024 7.2492 94.9904 7.2492C96.4064 7.2492 97.4504 8.1972 97.4504 9.5052C97.4504 10.3812 97.1024 11.0412 95.8544 12.4332L93.8744 14.7372H97.5344ZM101.169 15.5892C99.5612 15.5892 98.4572 14.6412 98.4212 13.2372H99.2372C99.2852 14.2572 100.041 14.9052 101.169 14.9052C102.333 14.9052 103.041 14.2692 103.041 13.2492C103.041 12.2772 102.249 11.6532 101.001 11.6532H100.197V10.9572H100.977C101.973 10.9572 102.669 10.3212 102.669 9.4092C102.669 8.5332 102.021 7.9332 101.097 7.9332C100.137 7.9332 99.5012 8.5332 99.4532 9.4692H98.6492C98.6852 8.1972 99.7412 7.2492 101.121 7.2492C102.561 7.2492 103.533 8.1252 103.533 9.3732C103.533 10.2132 103.029 10.8852 102.141 11.2572C103.257 11.5332 103.905 12.2532 103.905 13.2372C103.905 14.6292 102.801 15.5892 101.169 15.5892ZM113.376 13.0692C113.376 14.6052 112.248 15.4812 110.556 15.4812H107.58V6.8652H110.376C112.044 6.8652 113.028 7.6692 113.028 9.0852C113.028 9.9372 112.488 10.6692 111.612 10.9932C112.776 11.2812 113.376 12.0372 113.376 13.0692ZM110.328 7.5972H108.42V10.6692H110.328C111.492 10.6692 112.152 10.0932 112.152 9.1332C112.152 8.1732 111.492 7.5972 110.328 7.5972ZM110.508 11.4012H108.42V14.7492H110.508C111.768 14.7492 112.512 14.1252 112.512 13.0452C112.512 12.0132 111.768 11.4012 110.508 11.4012ZM118.789 12.9252V9.1572H119.617V15.4812H118.837V14.3412C118.513 15.0732 117.745 15.6012 116.821 15.6012C115.537 15.6012 114.685 14.8692 114.685 13.2732V9.1572H115.525V13.0932C115.525 14.3772 116.161 14.8692 117.049 14.8692C118.057 14.8692 118.789 14.0532 118.789 12.9252ZM123.56 17.9292C121.952 17.9292 120.944 17.0892 120.872 15.6732H121.676C121.748 16.7052 122.42 17.2572 123.548 17.2572C124.796 17.2572 125.456 16.5972 125.456 15.3492V14.0292C125.072 14.9172 124.304 15.4332 123.368 15.4332C121.772 15.4332 120.704 14.1492 120.704 12.2292C120.704 10.3092 121.76 9.0372 123.356 9.0372C124.304 9.0372 125.096 9.5772 125.504 10.5012V9.1572H126.284V15.3372C126.284 16.9692 125.288 17.9292 123.56 17.9292ZM121.544 12.2292C121.544 13.7772 122.276 14.7132 123.488 14.7132C124.676 14.7132 125.468 13.7532 125.468 12.2892C125.468 10.7412 124.688 9.7572 123.488 9.7572C122.288 9.7572 121.544 10.6932 121.544 12.2292ZM131.733 15.4812V14.3292C131.361 15.1212 130.593 15.6012 129.609 15.6012C128.301 15.6012 127.449 14.8692 127.449 13.7292C127.449 12.4932 128.433 11.8452 130.353 11.8452C130.737 11.8452 131.025 11.8692 131.649 11.9172V11.3892C131.649 10.3332 131.085 9.7092 130.125 9.7092C129.093 9.7092 128.445 10.3452 128.433 11.3772H127.665C127.701 9.9732 128.673 9.0372 130.113 9.0372C131.589 9.0372 132.453 9.9012 132.453 11.3652V15.4812H131.733ZM128.253 13.7052C128.253 14.4732 128.841 14.9892 129.729 14.9892C130.905 14.9892 131.649 14.2212 131.649 13.0332V12.4692C131.109 12.4212 130.737 12.4092 130.389 12.4092C128.949 12.4092 128.253 12.8292 128.253 13.7052ZM137.173 14.6772V15.4212C136.849 15.5532 136.573 15.6012 136.261 15.6012C135.217 15.6012 134.413 15.0612 134.413 13.6932V9.8652H132.925V9.1572H134.413V7.2852H135.253V9.1572H137.233V9.8652H135.253V13.5132C135.253 14.4972 135.733 14.8332 136.429 14.8332C136.693 14.8332 136.909 14.7852 137.173 14.6772ZM139.079 12.0972V15.4812H138.239V9.1572H139.019V10.5972C139.451 9.6612 140.387 9.0612 141.431 9.0612V9.9372C140.099 9.8892 139.079 10.7172 139.079 12.0972ZM146.082 15.4812V14.3292C145.71 15.1212 144.942 15.6012 143.958 15.6012C142.65 15.6012 141.798 14.8692 141.798 13.7292C141.798 12.4932 142.782 11.8452 144.702 11.8452C145.086 11.8452 145.374 11.8692 145.998 11.9172V11.3892C145.998 10.3332 145.434 9.7092 144.474 9.7092C143.442 9.7092 142.794 10.3452 142.782 11.3772H142.014C142.05 9.9732 143.022 9.0372 144.462 9.0372C145.938 9.0372 146.802 9.9012 146.802 11.3652V15.4812H146.082ZM142.602 13.7052C142.602 14.4732 143.19 14.9892 144.078 14.9892C145.254 14.9892 145.998 14.2212 145.998 13.0332V12.4692C145.458 12.4212 145.086 12.4092 144.738 12.4092C143.298 12.4092 142.602 12.8292 142.602 13.7052ZM152.99 9.1572L150.554 15.4812H149.678L147.266 9.1572H148.166L150.146 14.4972L152.126 9.1572H152.99ZM155.998 15.6012C154.222 15.6012 153.046 14.2692 153.046 12.2652C153.046 10.4172 154.27 9.0372 155.95 9.0372C157.75 9.0372 158.926 10.4892 158.782 12.5172H153.886C153.958 14.0172 154.75 14.9412 155.986 14.9412C157.042 14.9412 157.774 14.3532 157.978 13.3452H158.806C158.518 14.7492 157.45 15.6012 155.998 15.6012ZM155.938 9.6852C154.798 9.6852 153.994 10.5612 153.886 11.9412H157.906C157.834 10.5252 157.102 9.6852 155.938 9.6852ZM160.746 15.4812H159.906V6.8652H160.746V15.4812ZM167.03 13.7172C167.03 14.8812 166.094 15.6012 164.534 15.6012C162.962 15.6012 162.002 14.8092 161.882 13.5012H162.686C162.746 14.4012 163.454 14.9652 164.534 14.9652C165.566 14.9652 166.19 14.5692 166.19 13.8492C166.19 13.2252 165.83 12.9372 164.87 12.7452L163.958 12.5652C162.758 12.3372 162.122 11.7492 162.122 10.8372C162.122 9.7812 163.058 9.0372 164.438 9.0372C165.89 9.0372 166.85 9.8172 166.946 11.0772H166.154C166.07 10.2012 165.434 9.6852 164.438 9.6852C163.55 9.6852 162.938 10.1052 162.938 10.7652C162.938 11.3892 163.322 11.6892 164.258 11.8692L165.206 12.0492C166.466 12.2892 167.03 12.8172 167.03 13.7172ZM169.618 14.7852C169.618 15.2172 169.306 15.5412 168.862 15.5412C168.43 15.5412 168.106 15.2172 168.106 14.7852C168.106 14.3292 168.43 14.0172 168.862 14.0172C169.306 14.0172 169.618 14.3292 169.618 14.7852ZM173.22 15.6132C171.552 15.6132 170.388 14.2572 170.388 12.3132C170.388 10.3932 171.564 9.0372 173.22 9.0372C174.696 9.0372 175.752 10.0212 176.004 11.6052H175.152C174.96 10.4532 174.24 9.7692 173.22 9.7692C172.044 9.7692 171.24 10.8012 171.24 12.3132C171.24 13.8492 172.044 14.8812 173.22 14.8812C174.252 14.8812 174.96 14.2092 175.152 13.0332H176.004C175.776 14.6412 174.708 15.6132 173.22 15.6132ZM179.546 15.6012C177.806 15.6012 176.546 14.2212 176.546 12.3132C176.546 10.4172 177.806 9.0492 179.546 9.0492C181.298 9.0492 182.558 10.4172 182.558 12.3132C182.558 14.2212 181.298 15.6012 179.546 15.6012ZM179.546 14.8692C180.782 14.8692 181.706 13.8852 181.706 12.3132C181.706 10.7652 180.782 9.7812 179.546 9.7812C178.322 9.7812 177.398 10.7652 177.398 12.3132C177.398 13.8852 178.322 14.8692 179.546 14.8692ZM184.492 15.4812H183.652V9.1572H184.432V10.3452C184.852 9.5292 185.596 9.0372 186.496 9.0372C187.48 9.0372 188.212 9.5772 188.476 10.5012C188.872 9.6132 189.664 9.0372 190.66 9.0372C191.968 9.0372 192.784 9.9012 192.784 11.3772V15.4812H191.956V11.6532C191.956 10.4532 191.404 9.7692 190.384 9.7692C189.424 9.7692 188.644 10.6092 188.644 11.7732V15.4812H187.804V11.6532C187.804 10.4532 187.252 9.7692 186.232 9.7692C185.26 9.7692 184.492 10.6092 184.492 11.7732V15.4812Z" fill="white"/>
</svg>
